<?xml version="1.0" encoding="utf-8"?>
<svg version="1.1" xmlns:xlink="http://www.w3.org/1999/xlink" width="41px" height="41px" xmlns="http://www.w3.org/2000/svg">
  <defs>
    <filter x="128px" y="431px" width="41px" height="41px" filterUnits="userSpaceOnUse" id="filter241">
      <feOffset dx="2" dy="2" in="SourceAlpha" result="shadowOffsetInner" />
      <feGaussianBlur stdDeviation="2.5" in="shadowOffsetInner" result="shadowGaussian" />
      <feComposite in2="shadowGaussian" operator="atop" in="SourceAlpha" result="shadowComposite" />
      <feColorMatrix type="matrix" values="0 0 0 0 0  0 0 0 0 0  0 0 0 0 0  0 0 0 0.164705882352941 0  " in="shadowComposite" />
    </filter>
    <g id="widget242">
      <path d="M 146.5 435  C 154.62 435  161 441.38  161 449.5  C 161 457.62  154.62 464  146.5 464  C 138.38 464  132 457.62  132 449.5  C 132 441.38  138.38 435  146.5 435  Z " fill-rule="nonzero" fill="#44474d" stroke="none" />
      <path d="M 146.5 435  C 154.62 435  161 441.38  161 449.5  C 161 457.62  154.62 464  146.5 464  C 138.38 464  132 457.62  132 449.5  C 132 441.38  138.38 435  146.5 435  Z " stroke-width="2" stroke="#ffffff" fill="none" />
    </g>
  </defs>
  <g transform="matrix(1 0 0 1 -128 -431 )">
    <use xlink:href="#widget242" filter="url(#filter241)" />
    <use xlink:href="#widget242" />
  </g>
</svg>