<?xml version="1.0" encoding="utf-8"?>
<svg version="1.1" xmlns:xlink="http://www.w3.org/1999/xlink" width="15px" height="9px" xmlns="http://www.w3.org/2000/svg">
  <g transform="matrix(1 0 0 1 -139 -441 )">
    <path d="M 7.47149651171875 3.70233643066406  C 7.54036525292969 5.08605435351562  8.26439315820313 8.27667046191406  13.6569965136719 8.27667046191406  C 13.8204376257481 8.30458919603888  13.9713389090347 8.38209614362767  14.0892384550781 8.49868151953125  L 14.0892384550781 7.29619711425781  C 14.0901446061977 7.25158448426554  14.0905977167969 7.20696380286391  14.0905977167969 7.16234197115925  C 14.0905977167969 3.52197742163324  11.139499165737 0.570878870573316  7.49913461621094 0.570878870573316  C 3.85877006668493 0.570878870573316  0.907671515625001 3.52197742163324  0.907671515625001 7.16234197115925  C 0.907671515625001 7.20696380286391  0.908124626224188 7.25158448426554  0.90903077734375 7.29619711425781  L 0.909030777343752 8.50321237304688  C 1.00480924429254 8.41792469300263  1.11296635505131 8.34765312186953  1.22981410742188 8.29479381933594  C 6.46836898144531 8.29479381933594  7.34644536816406 5.08967904199219  7.47149651171875 3.70233643066406  Z " fill-rule="nonzero" fill="#c9d4f8" stroke="none" transform="matrix(1 0 0 1 139 441 )" />
  </g>
</svg>