<?xml version="1.0" encoding="utf-8"?>
<svg version="1.1" xmlns:xlink="http://www.w3.org/1999/xlink" width="12px" height="13px" xmlns="http://www.w3.org/2000/svg">
  <g transform="matrix(1 0 0 1 -141 -413 )">
    <path d="M 0.251953125 7.84778515625  C -0.171428571428571 9.774171875  0.581919642857143 11.14389453125  3.45066964285714 12.6425  C 2.55719866071429 10.93000390625  3.02728794642857 9.94555859375  3.732421875 9.0474921875  C 4.48577008928571 8.019171875  4.67410714285714 7.0347265625  4.67410714285714 7.0347265625  C 4.67410714285714 7.0347265625  5.28582589285714 7.7202734375  5.05078125 8.83223046875  C 6.08588169642857 7.76277734375  6.27421875 6.05028125  6.13258928571429 5.40723828125  C 8.48454241071429 6.90721484375  9.51964285714286 10.201953125  8.15457589285714 12.59999609375  C 15.3987723214286 8.8336015625  9.94151785714286 3.225828125  9.00133928571429 2.62666015625  C 9.33130580357143 3.26833203125  9.37801339285715 4.33915625  8.71958705357143 4.8519453125  C 7.63777901785714 1.08555078125  4.955859375 0.3575  4.955859375 0.3575  C 5.28582589285714 2.28388671875  3.82734375 4.38166015625  2.41556919642857 5.9652734375  C 2.36886160714286 5.19471875  2.32215401785714 4.68055859375  1.85055803571429 3.91000390625  C 1.75714285714286 5.32223046875  0.580412946428572 6.43555859375  0.251953125 7.84778515625  Z " fill-rule="nonzero" fill="#aeaeae" stroke="none" transform="matrix(1 0 0 1 141 413 )" />
  </g>
</svg>