<svg class="icon" viewBox="0 0 1024 1024" version="1.1" xmlns="http://www.w3.org/2000/svg" p-id="39437" height="128" width="128"><path d="M532.544 263.808c7.530667-3.242667 14.421333-7.082667 22.549333-7.232 3.584-0.064 7.04-1.28 10.666667-1.258667 1.216 0 2.24-0.768 3.072-1.685333 1.664-1.856 3.648-3.029333 6.229333-3.114667 0.576-0.021333 1.237333-0.149333 1.706667-0.448 9.386667-5.845333 19.370667-10.922667 26.282667-20.032 6.826667-9.002667 12.053333-18.688 14.378666-29.930666 3.178667-15.445333 5.568-30.912 3.669334-46.698667-1.173333-9.664-4.544-18.517333-10.709334-26.176-2.026667-2.538667-4.032-5.098667-5.482666-8.021333-1.898667-3.861333-1.856-7.744 0.256-11.52 1.941333-3.456 4.053333-4.650667 7.829333-3.498667 3.498667 1.066667 7.061333 1.002667 10.581333 1.408 1.792 0.213333 3.050667 1.045333 4.48 2.069333 9.472 6.656 10.197333 17.365333 12.309334 27.136 3.392 15.573333 5.333333 31.445333 9.322666 46.890667 1.173333 4.544 2.517333 9.045333 3.541334 13.610667 1.109333 4.928 4.416 8.789333 6.165333 13.397333 0.618667 1.642667 2.389333 2.133333 4.138667 2.645333 9.664 2.794667 19.754667 2.517333 29.568 4.096 7.637333 1.237333 14.912 3.562667 22.058666 6.4 9.28 3.690667 18.624 7.189333 28.202667 10.005334 6.357333 1.856 11.2 5.589333 15.082667 10.837333 4.138667 5.589333 7.530667 11.605333 10.453333 17.856 4.266667 9.088 10.602667 15.786667 20.309333 18.986667 4.48 4.522667 10.666667 3.2 16.042667 4.608 1.877333 0.490667 3.84-0.469333 5.610667-1.322667 2.24-1.109333 4.608-1.856 7.104-1.984 6.293333-0.32 12.586667-0.810667 18.858666-1.493333 3.072-0.32 6.058667-0.32 9.152-1.344 6.293333-2.069333 12.928-2.005333 19.498667-0.874667 10.410667 1.792 20.352 4.970667 29.781333 9.770667 3.648 1.877333 6.570667 4.501333 8.896 7.893333 1.152 1.685333 0.938667 2.816-0.64 4.074667-7.573333 6.037333-15.978667 9.941333-25.749333 10.986666-9.237333 0.981333-18.410667 0.256-27.605333-0.234666-5.013333-0.277333-10.069333-0.213333-15.04-1.024-0.085333-0.021333-0.170667 0-0.256-0.021334-8.896-2.474667-17.664 0.512-26.496 0.832-8.853333 0.32-17.6 1.898667-26.176 4.394667-13.525333 3.925333-23.445333 12.010667-28.949334 25.045333-1.770667 4.202667-3.882667 8.256-5.824 12.352-1.664 3.498667-3.648 7.082667-5.930666 10.282667-1.770667 2.496-2.688 5.077333-3.114667 7.957333-0.192 1.28-0.448 2.517333-0.874667 3.712-2.24 6.314667-5.290667 12.096-9.984 17.002667-9.386667 9.813333-19.477333 18.56-32.298666 23.786667-7.658667 3.114667-15.082667 6.762667-22.954667 9.365333-2.368 0.789333-4.821333 1.024-7.232 1.557333-2.986667 0.661333-5.141333 2.048-6.912 4.928-5.269333 8.597333-5.141333 17.941333-5.013333 27.413334 0.085333 6.314667-0.042667 12.629333-0.234667 18.944-0.192 5.546667 0.789333 10.538667 5.568 14.101333 0.576 0.426667 0.832 1.258667 1.258667 1.898667 0.64 0.981333 1.557333 1.898667 2.709333 1.578666 5.312-1.514667 10.858667-0.597333 16.213333-1.856 12.117333-2.858667 24.064-6.336 36.074667-9.621333 7.829333-2.133333 15.765333-3.690667 23.786667-4.885333 1.429333-0.213333 2.901333-0.32 4.330666-0.298667 7.829333 0.170667 11.968 5.397333 10.666667 13.141333-1.152 6.826667-5.909333 10.368-11.712 12.693334-6.506667 2.581333-13.354667 4.053333-20.202667 5.525333-8.256 1.792-16.298667 4.373333-24.405333 6.698667-1.792 0.512-3.541333 1.237333-5.205333 2.133333-2.368 1.28-4.970667 1.728-7.616 1.984-1.941333 0.170667-4.202667-0.085333-5.781334 0.789333-4.202667 2.325333-8.874667 1.92-13.269333 2.986667-4.693333 1.130667-8 4.629333-8.448 9.706667-0.661333 7.466667 0.704 14.805333 1.813333 22.122666 0.533333 3.541333 1.173333 7.061333 1.898667 10.56 1.685333 8.170667 6.784 13.077333 15.061333 14.186667 14.869333 2.005333 29.781333 2.133333 44.672 0.362667 26.837333-3.2 53.525333-7.616 80.256-11.562667 22.954667-3.392 45.205333-1.92 67.093334 5.653333 7.68 2.645333 14.293333 6.826667 18.901333 13.738667 2.88 4.330667 3.925333 9.024 2.794667 14.144-0.490667 2.218667-1.386667 4.202667-3.434667 5.461333-0.576 0.362667-1.386667 0.810667-1.493333 1.322667-0.597333 2.858667-2.922667 2.965333-5.034667 3.328-10.709333 1.813333-21.397333 1.237333-32.128 0.149333-8.384-0.853333-16.618667-2.944-25.109333-2.944-1.450667 0-2.837333-0.469333-4.202667-1.024-1.194667-0.490667-2.581333-2.56-3.712 0.277334-0.234667 0.597333-1.6 0.128-2.432 0.106666-12.970667-0.554667-25.856-2.005333-38.784-2.922666-17.642667-1.258667-35.093333 0.64-52.501333 3.306666-1.941333 0.298667-3.882667 0.490667-5.845334 0.362667-2.090667-0.128-3.989333 0.256-5.866666 1.301333-3.221333 1.770667-6.933333 1.770667-10.453334 2.154667-8.213333 0.874667-16.042667 2.944-23.637333 6.186667-5.546667 2.368-10.112 5.930667-14.016 10.453333-3.52 4.074667-4.906667 8.896-4.821333 14.208 0.021333 1.856-0.277333 3.413333-1.685334 4.864-1.621333 1.664-2.090667 3.946667-1.706666 6.208 0.533333 3.221333 0.469333 6.464 0.448 9.685333-0.064 18.517333 0.106667 37.013333 0.597333 55.530667 0.192 7.402667-0.32 14.869333 0.896 22.186667 0.810667 4.906667 0.746667 10.005333 2.730667 14.698666 0.533333 1.258667 0.789333 2.581333 0.810666 3.989334 0.298667 35.050667 0.917333 70.101333 0.746667 105.173333-0.085333 17.664-0.106667 35.328-0.170667 52.992 0 1.365333-0.085333 2.709333-0.469333 4.053333-3.050667 10.496-6.4 20.864-10.901333 30.848-1.728 3.818667-3.776 7.466667-6.528 10.645334-3.306667 3.818667-4.714667 3.626667-6.634667-1.088-1.834667-4.522667-3.029333-9.344-3.050667-14.186667-0.170667-21.333333-1.130667-42.666667 0.533334-63.957333 1.258667-16.064 2.944-32.085333 2.922666-48.256-0.042667-28.992-1.642667-57.813333-8.298666-86.144-0.234667-0.981333-0.362667-2.005333-0.426667-3.029334-1.045333-21.205333-2.026667-42.410667-3.136-63.616-0.426667-8.256-1.066667-16.512-2.922667-24.618666-0.874667-3.84-2.816-7.146667-4.8-10.389334-1.898667-3.093333-5.013333-3.882667-8.682666-4.394666-12.928-1.792-24.810667 2.410667-36.842667 5.738666-16.192 4.48-32.128 9.792-48.597333 13.269334-7.104 1.493333-14.186667 3.029333-21.525334 2.410666-1.962667-0.170667-4.416-0.106667-5.333333-1.834666-0.96-1.792 1.066667-3.392 2.048-4.906667 2.432-3.733333 5.973333-6.272 9.792-8.426667 17.877333-10.133333 35.861333-20.096 53.632-30.442666 16.085333-9.344 32.64-17.792 48.938667-26.730667 3.456-1.898667 6.592-4.245333 9.621333-6.741333 10.218667-8.426667 6.912-26.389333 0.597333-32.234667-3.797333-3.52-8.277333-5.056-13.312-4.949333-8.448 0.192-16.789333 1.642667-25.173333 2.730666-9.408 1.216-18.858667 1.664-28.309333 2.304-2.645333 0.192-5.269333-0.106667-7.829334-0.96-3.242667-1.066667-4.928-3.413333-5.098666-6.656-0.234667-4.245333 0.576-8.362667 2.816-12.032 2.197333-3.584 5.205333-5.994667 9.621333-6.4 4.586667-0.426667 9.109333-1.109333 13.226667-3.52 2.176-1.28 4.693333-1.493333 7.189333-1.514666 2.538667-0.042667 4.842667-0.618667 6.741333-2.538667 1.877333-1.898667 4.608-1.536 6.954667-2.218667 6.869333-2.005333 14.037333-2.752 20.821333-5.098666 11.093333-3.84 15.872-10.325333 16.469334-22.016 0.32-6.314667 0.426667-12.608-1.386667-18.773334-3.029333-10.325333-10.432-14.464-20.224-14.826666-0.832-0.021333-1.706667 0.170667-2.496 0.448-10.965333 3.797333-21.909333 7.573333-32.832 11.477333-7.488 2.666667-14.634667 6.101333-21.504 10.112-5.077333 2.965333-10.496 4.416-16.405333 3.925333-0.917333-0.085333-1.856-0.234667-2.752-0.490666-4.266667-1.258667-5.248-2.858667-4.224-7.168 1.408-5.845333 4.501333-10.645333 9.301333-14.293334 6.336-4.8 13.312-8.64 20.202667-12.544 4.352-2.474667 8.810667-4.906667 12.992-7.552 6.677333-4.245333 13.909333-7.488 20.522666-11.797333 3.754667-2.453333 7.893333-4.010667 12.245334-5.013333 1.749333-0.405333 3.456-0.917333 5.141333-1.536 7.274667-2.688 11.093333-7.978667 11.157333-15.765334 0.042667-7.68-0.661333-15.210667-5.504-21.653333-0.490667-0.661333-0.469333-1.429333-0.554666-2.197333-0.469333-4.245333-1.898667-5.653333-6.186667-5.994667-4.864-0.405333-9.514667 0.832-14.058667 2.176-7.744 2.304-15.338667 5.098667-23.146666 7.296-24.64 6.933333-49.578667 12.437333-74.709334 17.088-5.610667 1.045333-11.136 2.645333-16.938666 2.197333-2.24-0.170667-4.373333-0.554667-6.4-1.578666-2.005333-1.024-2.624-2.325333-1.642667-4.544 3.797333-8.597333 10.410667-13.461333 19.541333-15.104 1.728-0.298667 3.242667-0.832 4.522667-2.133334 1.365333-1.386667 3.306667-1.728 5.077333-2.261333 15.445333-4.608 30.442667-10.261333 44.501334-18.261333 7.189333-4.096 13.952-8.874667 20.885333-13.354667 6.954667-4.501333 14.336-8.256 21.653333-12.096 6.186667-3.242667 12.458667-6.357333 18.901334-9.088 3.626667-1.536 7.061333-3.434667 10.112-5.952 4.714667-3.925333 7.872-8.789333 8.512-14.954667 0.746667-7.381333 0.256-14.677333-2.325334-21.696-3.370667-9.237333-9.813333-13.696-19.584-13.184-16.810667 0.853333-33.6 0.128-50.410666-0.085333-2.090667-0.021333-3.477333-0.597333-4.48-2.581333-1.237333-2.410667-4.16-3.136-5.845334-5.162667-0.426667-0.448-0.896-0.704-1.685333-1.344z m120.810667 21.269333h-0.448c0 2.389333 0.021333 4.778667 0 7.168-0.021333 3.733333-0.085333 7.466667 4.245333 9.173334 0.298667 0.106667 0.554667 0.426667 0.746667 0.682666 3.072 4.629333 7.68 4.778667 12.501333 4.266667 1.941333-0.213333 3.968-0.533333 5.824 0.128 2.837333 1.024 5.696 0.917333 8.597333 0.554667 3.562667-0.448 7.104-0.682667 10.709334-0.533334 3.328 0.149333 6.72-0.085333 9.536-2.197333 1.322667-0.981333 2.730667-1.685333 4.224-2.325333 5.418667-2.325333 10.368-5.376 13.226666-10.752 4.842667-9.109333 9.152-18.496 11.776-28.522667 2.709333-10.368-2.154667-18.922667-12.394666-22.144-2.944-0.917333-5.973333-1.450667-9.024-1.749333-8.042667-0.746667-16.021333-2.389333-24.192-1.386667-7.210667 0.896-13.738667 3.861333-20.501334 6.186667-6.72 2.304-10.688 6.826667-12.48 13.674666-1.557333 5.930667-0.618667 12.117333-2.197333 18.069334-0.832 3.050667-0.149333 6.464-0.149333 9.706666z m-0.384 92.352c0 1.621333-0.021333 3.242667 0 4.864 0.042667 1.621333 0.042667 3.242667 0.213333 4.842667 0.384 3.712 1.941333 4.928 5.610667 4.544 1.856-0.192 3.456-0.917333 4.672-2.368 1.173333-1.408 2.645333-2.645333 4.309333-3.072 3.562667-0.917333 5.930667-3.904 9.408-4.928 0.96-0.277333 1.664-1.408 2.496-2.133333 1.024-0.896 1.92-2.048 3.114667-2.624 5.141333-2.453333 8.789333-6.698667 12.138666-10.922667 3.157333-3.968 6.250667-8.021333 9.472-11.968 0.789333-0.96 1.194667-2.069333 1.216-3.285333 0.042667-2.218667 0.128-4.437333-0.021333-6.656-0.234667-3.477333-2.154667-5.184-5.632-5.162667-2.645333 0-5.290667 0.256-7.914667 0.213333-8.085333-0.106667-16.170667-0.405333-24.256-0.448-7.68-0.042667-14.016 6.464-13.845333 13.973334 0.042667 2.325333-0.149333 4.565333-1.258667 6.698666-0.810667 1.536-1.258667 3.370667-0.725333 4.970667 1.472 4.48 0.576 9.002667 1.002667 13.461333zM266.346667 220.757333c6.549333-0.426667 12.074667-0.554667 17.450666-0.213333 4.202667 0.277333 8.234667 0.128 12.352-0.426667 3.52-0.469333 6.784-1.706667 9.984-3.093333 9.152-3.968 18.261333-8 27.456-11.861333 9.088-3.797333 17.856-8.576 24.533334-16.256 0.554667-0.618667 1.28-1.130667 2.005333-1.557334 7.296-4.416 14.570667-8.917333 22.208-12.693333 12.970667-6.4 25.493333-5.717333 37.333333 3.008 1.130667 0.832 1.642667 1.813333 1.792 3.2 0.618667 5.397333-0.938667 9.856-5.12 13.482667-3.882667 3.349333-7.957333 6.485333-12.330666 9.130666-18.154667 11.050667-36.714667 21.354667-56.512 29.248-13.632 5.461333-26.688 12.138667-39.808 18.709334-9.258667 4.629333-12.778667 12.757333-13.845334 22.421333-0.469333 4.245333-0.512 8.512-0.405333 12.778667 0.853333 34.304 0.106667 68.608 1.024 102.890666 0.085333 3.584 0.256 7.168 1.429333 10.602667 2.325333 6.72 7.978667 10.346667 14.954667 9.066667 9.152-1.664 17.962667-4.736 26.901333-7.274667 13.525333-3.84 27.349333-6.570667 40.682667-11.157333 12.053333-4.138667 23.530667-9.578667 35.008-15.018667 2.069333-0.981333 2.816-0.554667 3.349333 1.472 0.96 3.690667 0.234667 6.954667-2.389333 9.685333-1.088 1.130667-2.112 2.154667-2.496 3.733334-0.277333 1.109333-0.981333 2.005333-1.984 2.56-6.08 3.392-10.56 8.853333-16.256 12.714666-4.288 2.901333-8.576 5.696-13.333333 7.893334-10.133333 4.672-20.138667 9.642667-30.08 14.741333-8.832 4.522667-18.133333 7.850667-27.178667 11.818667-6.912 3.050667-13.632 6.549333-20.202667 10.304-0.597333 0.341333-1.173333 0.64-1.472 1.322666-2.496 5.781333-4.117333 11.562667-2.24 17.984 1.493333 5.077333 2.88 10.176 4.629334 15.168 2.645333 7.552 8.128 11.029333 16.170666 10.538667 4.437333-0.277333 8.789333-1.216 13.077334-2.304 3.413333-0.853333 6.826667-1.493333 10.346666-1.536 2.389333-0.021333 4.544-0.576 6.037334-2.688 0.597333-0.853333 1.578667-1.386667 2.56-1.6 6.336-1.344 11.776-4.864 17.685333-7.232 15.104-6.101333 30.186667-12.245333 46.037333-16.192 0.917333-0.234667 1.834667-0.426667 2.752-0.618667 3.456-0.704 3.477333-0.704 4.394667 2.730667 0.426667 1.557333 1.450667 2.688 2.581333 3.733333 1.536 1.408 2.453333 3.136 2.325334 5.184-0.106667 2.069333 0.554667 3.626667 2.112 4.928 1.472 1.216 1.578667 2.133333-0.192 3.541334-10.538667 8.298667-22.442667 14.250667-34.389334 20.117333-2.432 1.194667-4.949333 2.026667-7.04 3.882667-1.472 1.28-3.328 2.048-5.461333 1.706666-1.493333-0.234667-2.624 0.554667-3.562667 1.6-1.749333 1.962667-3.818667 3.328-6.4 3.968-2.282667 0.576-3.648 2.666667-5.76 3.690667-6.997333 3.349333-13.162667 7.957333-19.157333 12.864-3.072 2.517333-6.72 4.373333-10.176 6.4-10.432 6.122667-18.368 14.357333-23.530667 25.514667-7.701333 16.618667-16.768 32.618667-23.189333 49.834666-1.514667 4.074667-3.264 8.064-3.733333 12.458667-0.042667 0.426667-0.064 1.024-0.32 1.194667-2.944 1.984-2.922667 5.461333-4.138667 8.277333-1.621333 3.733333-0.149333 6.826667 3.904 7.061333 8.96 0.554667 18.005333 1.792 26.88-1.194666 4.522667-1.514667 9.365333-2.432 13.589333-4.373334 9.706667-4.501333 19.477333-9.002667 28.010667-15.722666 8.021333-6.314667 14.549333-13.866667 20.373333-22.144 2.090667-2.965333 3.413333-6.272 4.352-9.770667 0.938667-3.498667 2.410667-6.72 4.885334-9.450667 3.2-3.498667 6.933333-4.16 11.285333-2.197333 2.197333 0.981333 4.48 1.685333 5.44 4.224 0.085333 0.192 0.384 0.448 0.576 0.448 4.672-0.021333 6.656 4.224 9.557333 6.634667 2.88 2.389333 5.653333 5.098667 8.490667 7.637333 1.024 0.917333 2.069333 1.749333 3.349333 2.304 0.768 0.341333 1.578667 0.810667 2.048 1.450667 4.586667 6.165333 10.88 10.88 14.933334 17.429333 6.805333 11.029333 10.517333 22.613333 4.928 35.434667-1.109333 2.538667-2.730667 4.736-4.586667 6.72-1.898667 2.026667-4.373333 2.56-7.061333 2.026666-4.224-0.832-8.085333-2.645333-11.861334-4.650666-5.504-2.901333-10.688-6.336-15.893333-9.749334-2.794667-1.834667-6.208-2.837333-8.64-4.885333-4.117333-3.477333-8.704-2.453333-13.205333-2.730667-1.301333-0.085333-2.538667 0.277333-3.178667 1.664-0.384 0.832-1.216 1.152-1.962667 1.536-20.416 10.474667-40.576 21.397333-60.373333 33.045334-17.578667 10.325333-35.626667 19.776-54.272 28.117333-6.933333 3.093333-13.653333 6.613333-20.394667 10.112-1.749333 0.917333-2.453333 0.64-3.2-1.088-1.962667-4.544-4.138667-8.981333-6.101333-13.525333-4.672-10.816-4.8-21.824-1.472-33.024 3.605333-12.138667 9.024-23.552 13.888-35.2 6.549333-15.744 14.037333-31.082667 20.842667-46.72 1.429333-3.285333 2.752-6.634667 3.797333-10.048 1.834667-5.930667-0.192-10.368-5.44-13.674667-4.352-2.752-8.064-0.896-11.349333 1.514667-9.216 6.805333-18.773333 13.056-28.693334 18.752-14.208 8.149333-27.904 17.152-42.026666 25.450666-13.525333 7.957333-27.178667 15.701333-41.642667 21.845334-3.306667 1.408-6.528 2.88-9.621333 4.650666-2.112 1.194667-4.352 1.813333-6.805334 1.962667-4.010667 0.256-7.850667 1.386667-11.562666 2.858667-3.925333 1.557333-7.018667 0.213333-10.197334-2.432-2.773333-2.325333-4.181333-6.165333-8.234666-7.125334-1.898667-0.448-2.197333-2.432-1.002667-4.117333 2.602667-3.669333 5.888-6.613333 9.728-8.938667 7.082667-4.288 14.485333-7.978667 21.845333-11.754666 35.498667-18.154667 69.824-38.336 103.125334-60.224 6.848-4.501333 13.525333-9.258667 19.776-14.549334 3.456-2.922667 6.613333-6.165333 9.386666-9.749333 4.736-6.165333 6.549333-13.226667 6.592-20.842667 0.149333-19.541333-0.128-39.082667-0.448-58.624-0.362667-21.333333-1.408-42.624-2.773333-63.914666-0.874667-13.696-0.832-27.456-1.450667-41.173334-0.618667-13.717333-1.493333-27.434667-4.437333-40.917333-0.810667-3.733333-2.474667-7.274667-2.346667-11.221333 0.021333-0.896-0.533333-1.6-1.088-2.24-2.773333-3.178667-3.882667-6.954667-3.989333-11.072-0.042667-1.685333-0.64-3.093333-1.429333-4.565334-4.992-9.301333-8.170667-19.093333-7.018667-29.781333 0.469333-4.352 2.602667-8.085333 6.058667-10.944 2.432-2.005333 5.098667-3.221333 8.426666-3.050667 4.117333 0.298667 8.234667 0.128 11.221334 0.128zM333.44 322.368c0.085333-4.650667 1.685333-7.850667 4.352-10.709333 1.877333-2.026667 3.328-4.458667 4.992-6.677334 4.885333-6.528 11.136-11.712 16.725333-17.514666 2.624-2.730667 5.696-5.674667 10.026667-5.994667 0.810667-0.064 1.472-0.448 1.92-1.130667 1.6-2.517333 4.16-3.349333 6.890667-3.946666 6.250667-1.344 12.501333-1.621333 18.752-0.085334 6.4 1.557333 9.045333 5.525333 7.616 11.904-2.304 10.368-7.722667 18.922667-16.192 25.301334-5.354667 4.032-10.624 8.277333-17.002667 10.730666-0.682667 0.256-1.216 0.917333-1.813333 1.386667-2.346667 1.834667-5.013333 2.773333-8.021334 2.858667-4.693333 0.128-9.557333-0.341333-13.973333 0.853333-3.946667 1.066667-6.890667-0.128-10.176-1.344-2.986667-1.088-4.928-2.794667-4.096-5.632z" p-id="39438"></path></svg>