<?xml version="1.0" encoding="utf-8"?>
<svg version="1.1" xmlns:xlink="http://www.w3.org/1999/xlink" width="33px" height="26px" xmlns="http://www.w3.org/2000/svg">
  <g transform="matrix(1 0 0 1 -320 -380 )">
    <path d="M 14.77734375 11.86328125  C 15.06640625 11.7578125  15.26171875 11.7109375  15.359375 11.7109375  C 15.6484375 11.7109375  15.7890625 11.96875  15.7890625 12.484375  C 15.7890625 13  15.69140625 13.4375  15.5 13.796875  C 15.01953125 14.75390625  14.671875 15.75390625  14.45703125 16.796875  C 14.2421875 17.83984375  13.94140625 18.359375  13.55859375 18.359375  C 13.4140625 18.359375  13.26953125 18.26953125  13.12890625 18.08984375  C 12.984375 17.91015625  12.9140625 17.63671875  12.9140625 17.26171875  C 12.9140625 16.890625  12.98046875 16.39453125  13.11328125 15.76953125  C 13.24609375 15.1484375  13.3125 14.7890625  13.3125 14.69140625  C 13.3125 14.35546875  13.03515625 14.1875  12.484375 14.1875  C 11.3359375 14.1875  10.640625 14.24609375  10.3984375 14.3671875  C 10.16015625 14.48828125  10.015625 14.796875  9.96875000000001 15.30078125  C 9.82421875 16.59375  9.59765625000001 17.7734375  9.28515625000001 18.83984375  C 8.97265625000001 19.90625  8.63671875 20.71484375  8.27734375 21.265625  C 7.91796875000001 21.81640625  7.3359375 22.375  6.53515625 22.9375  C 5.73046875 23.5  5.03125 23.9140625  4.43359375 24.17578125  C 3.8359375 24.4375  3.3671875 24.5703125  3.03125 24.5703125  C 2.359375 24.5703125  1.83203125 24.33203125  1.44921875 23.8515625  C 1.06640625 23.37109375  0.875000000000004 22.78515625  0.875000000000004 22.08984375  C 0.875000000000004 21.875  0.929687500000004 21.7109375  1.03515625 21.60546875  C 1.14453125 21.49609375  1.36328125 21.421875  1.69921875 21.37109375  C 2.5390625 21.25  3.60546875 20.8984375  4.8984375 20.3125  C 6.19140625 19.7265625  7.125 18.88671875  7.703125 17.796875  C 8.27734375 16.70703125  8.56640625 15.921875  8.56640625 15.44140625  C 8.56640625 14.9609375  8.37500000000001 14.72265625  7.9921875 14.72265625  C 7.7265625 14.72265625  7.27343750000001 14.8359375  6.625 15.0625  C 5.97656250000001 15.2890625  5.62890625 15.6875  5.58203125000001 16.25  C 5.53515625000001 16.8125  5.3359375 17.54296875  4.98828125000001 18.44140625  C 4.64062500000001 19.33984375  4.38281250000001 19.7890625  4.21484375000001 19.7890625  C 4.046875 19.7890625  3.890625 19.62890625  3.74609375000001 19.3046875  C 3.60156250000001 18.98046875  3.53125000000001 18.67578125  3.53125000000001 18.38671875  C 3.53125000000001 18.09765625  3.56250000000001 17.72265625  3.62109375000001 17.25390625  C 3.67968750000001 16.78515625  3.71093750000001 16.32421875  3.71093750000001 15.87109375  C 3.71093750000001 15.41796875  3.62500000000001 15.0390625  3.46093750000001 14.73828125  C 3.29296875000001 14.4375  3.21093750000001 14.16796875  3.21093750000001 13.9296875  C 3.21093750000001 13.69140625  3.30078125000001 13.50390625  3.48046875000001 13.37109375  C 3.66015625000001 13.23828125  3.91015625000001 13.16015625  4.23437500000001 13.13671875  C 4.55859375000001 13.11328125  4.91015625000001 13.0546875  5.29296875000001 12.95703125  C 7.83203125000001 12.30859375  10.19140625 11.98828125  12.37109375 11.98828125  L 13.33984375 12.0234375  C 14.01171875 12.0234375  14.48828125 11.96875  14.77734375 11.86328125  Z M 30.875 21.62890625  C 31.72265625 21.62890625  32.140625 21.796875  32.140625 22.1328125  C 32.140625 22.5390625  31.4140625 23.15234375  29.96484375 23.96484375  C 28.515625 24.77734375  27.12109375 25.1875  25.77734375 25.1875  C 24.72265625 25.1875  23.84765625 24.7734375  23.15234375 23.94921875  C 22.45703125 23.12109375  21.80859375 21.80078125  21.2109375 19.9765625  L 18.984375 13.328125  C 18.2890625 11.26953125  17.6796875 9.53125  17.15234375 8.1171875  C 16.625 6.703125  16.265625 5.84765624999999  16.07421875 5.54687499999999  C 15.8828125 5.24609375  15.64453125 5.02734374999999  15.35546875 4.88281249999999  C 15.06640625 4.73828125  14.66796875 4.66796874999999  14.15234375 4.66796874999999  C 13.63671875 4.66796874999999  12.40234375 4.77734375  10.44921875 4.9921875  C 8.49609374999999 5.20703125  6.99999999999999 5.44921874999999  5.95703124999999 5.71093749999999  C 4.91406249999999 5.97656249999999  4.05859374999999 6.10546875  3.38671874999999 6.10546875  C 1.92578124999999 6.10546875  1.19531249999999 5.63671875  1.19531249999999 4.703125  C 1.19531249999999 4.2734375  1.46874999999999 4.0546875  2.02343749999999 4.0546875  C 2.57421874999999 4.0546875  3.22265624999999 3.93359374999999  3.96484374999999 3.6953125  C 5.37890624999999 3.2890625  8.44531249999999 2.9765625  13.1640625 2.76171875  C 13.4765625 2.73828125  13.72265625 2.6796875  13.90234375 2.58203125  C 14.08203125 2.48828125  14.1953125 2.3828125  14.2421875 2.27734375  C 14.2890625 2.16796874999999  14.3125 1.94921874999999  14.3125 1.61328125  C 14.3125 1.27734375  14.44921875 0.984374999999996  14.7265625 0.734374999999996  C 15 0.484374999999996  15.296875 0.355468749999996  15.60546875 0.355468749999996  C 15.91796875 0.355468749999996  16.1640625 0.480468749999996  16.34375 0.734374999999996  C 16.5234375 0.984374999999996  16.68359375 1.30859374999999  16.828125 1.703125  C 16.97265625 2.09765625  17.140625 2.3671875  17.33203125 2.51171875  C 17.5234375 2.65624999999999  17.703125 2.71484374999999  17.87109375 2.69140624999999  C 18.0390625 2.66796875  18.58203125 2.69140624999999  19.5078125 2.76171875  C 20.4296875 2.83203125  20.92578125 2.87109375  21 2.87109375  C 21.50390625 2.87109375  21.875 2.6796875  22.11328125 2.296875  C 22.6171875 1.484375  22.98828125 1.07421875  23.2265625 1.07421875  C 23.46484375 1.07421875  23.796875 1.1875  24.21484375 1.4140625  C 24.6328125 1.640625  24.85546875 1.984375  24.87890625 2.43749999999999  C 24.92578125 2.96484374999999  25.2265625 3.265625  25.77734375 3.3359375  C 27.30859375 3.52734375  28.32421875 3.671875  28.8125 3.765625  C 29.3046875 3.86328125  29.55078125 3.96484375  29.55078125 4.0703125  C 29.55078125 4.1796875  29.32421875 4.375  28.8671875 4.6640625  C 28.41015625 4.953125  27.9921875 5.09375  27.609375 5.09375  C 27.2265625 5.09375  26.76953125 5.05859375  26.2421875 4.984375  C 23.91796875 4.6953125  21.390625 4.5546875  18.66015625 4.5546875  C 18.27734375 4.5546875  18.0859375 4.76953125  18.0859375 5.203125  C 18.0859375 5.63671875  18.828125 7.45703125  20.3125 10.6640625  C 21.796875 13.875  22.9375 16.01953125  23.7265625 17.09765625  C 24.515625 18.17578125  25.76953125 19.19921875  27.48046875 20.171875  C 29.19140625 21.140625  30.32421875 21.62890625  30.875 21.62890625  Z M 14.6484375 9.19921875  C 15.51171875 9.34375  15.93359375 9.56640625  15.93359375 9.87890625  C 15.93359375 10.14453125  15.66796875 10.3828125  15.14453125 10.59765625  C 14.6171875 10.8125  13.8984375 10.921875  12.98828125 10.921875  C 12.078125 10.921875  10.70703125 11.046875  8.875 11.30078125  C 7.04296875 11.55078125  5.8125 11.796875  5.19140625 12.0390625  C 4.56640625 12.27734375  4.02734375 12.3984375  3.57421875 12.3984375  C 3.1171875 12.3984375  2.77734375 12.28515625  2.55078125 12.05859375  C 2.32421875 11.83203125  2.2109375 11.56640625  2.2109375 11.26953125  C 2.2109375 10.96875  2.3125 10.7421875  2.515625 10.5859375  C 2.71875 10.4296875  2.953125 10.3515625  3.21484375 10.3515625  C 3.4765625 10.3515625  3.8125 10.31640625  4.22265625 10.2421875  C 4.62890625 10.171875  4.91796875 10.109375  5.0859375 10.0625  C 5.8984375 9.7734375  6.953125 9.5234375  8.25 9.30859375  C 9.54296875 9.09375  10.71875 8.984375  11.7734375 8.984375  C 12.828125 8.984375  13.78515625 9.0546875  14.6484375 9.19921875  Z M 15.32421875 6.48046875  C 15.515625 6.61328125  15.609375 6.73828125  15.609375 6.859375  C 15.609375 7.05078125  15.47265625 7.25  15.1953125 7.453125  C 14.91796875 7.65625  14.2734375 7.7890625  13.25390625 7.84765625  C 12.234375 7.90625  11.04296875 8.0234375  9.6796875 8.1875  C 8.3125 8.35546875  7.390625 8.51171875  6.9140625 8.65625  C 6.43359375 8.80078125  5.98046875 8.87109375  5.546875 8.87109375  C 5.11328125 8.87109375  4.75 8.76953125  4.44921875 8.56640625  C 4.1484375 8.36328125  4 8.10546875  4 7.79296875  C 4 7.36328125  4.3046875 7.1171875  4.91796875 7.0546875  C 5.52734375 6.99609375  5.96484375 6.89453125  6.23046875 6.75  C 7.62109375 6.0546875  9.17578125 5.70703125  10.90234375 5.70703125  C 11.8125 5.70703125  12.73046875 5.8046875  13.65234375 5.99609375  C 14.57421875 6.1875  15.1328125 6.3515625  15.32421875 6.48046875  Z M 10.32421875 19.484375  C 10.328125 18.6875  10.49609375 18.28515625  10.83203125 18.28515625  C 10.9765625 18.28515625  11.14453125 18.35546875  11.3359375 18.5  C 11.7421875 18.8359375  12.3359375 19.0703125  13.11328125 19.19921875  C 13.890625 19.33203125  14.6953125 19.60546875  15.51953125 20.02734375  C 16.34765625 20.4453125  16.7578125 20.83203125  16.7578125 21.17578125  C 16.7578125 21.5234375  16.33203125 21.984375  15.48046875 22.55859375  C 14.62890625 23.1328125  13.9296875 23.421875  13.37890625 23.421875  C 12.58984375 23.421875  11.8828125 22.96875  11.2578125 22.0546875  C 10.6328125 21.14453125  10.32421875 20.2890625  10.32421875 19.484375  Z " fill-rule="nonzero" fill="#2d2d2d" stroke="none" transform="matrix(1 0 0 1 320 380 )" />
  </g>
</svg>