<svg class="icon" viewBox="0 0 1024 1024" version="1.1" xmlns="http://www.w3.org/2000/svg" p-id="41923" height="128" width="128"><path d="M296.071633 228.63424a162.084089 162.084089 0 0 0 99.61418 21.104699c56.279198-7.0349 111.432811-28.139599 151.250343-37.425666 15.054685-3.51745 157.300357-29.968673 157.159659-30.531465-1.125584-11.677933-21.104699-11.677933-32.782632-22.230283s-38.691948-11.818631-59.796648-3.51745a697.580654 697.580654 0 0 1-134.929376 47.978016c-62.751305 12.944215-108.478153 29.265183-180.515526 24.622149zM330.542641 351.744985a30.109371 30.109371 0 0 0 30.531465 27.014015 139.291014 139.291014 0 0 0 64.439681-11.677934c11.677933-4.783732 21.104699 10.55235-1.125584 28.139599a309.535587 309.535587 0 0 1 44.460566-31.657049c24.622149-14.069799 19.979115-15.336081 42.209399-21.104699 44.17917-11.677933 59.796647-27.014015 94.971146-30.531464s58.671063 0 58.671063-15.195384S643.595678 281.395988 623.616563 281.395988s-50.369882-3.51745-65.565265 2.391866-15.336081 17.587249-39.958231 23.496565-72.600165 21.104699-94.971146 28.139599-50.369882 26.873317-92.57928 16.320967zM405.534672 0s65.705963 23.496565 68.097829 113.824677 23.355867 191.067876-31.657048 222.724925c0 0 37.425666-1.266282 51.495465-14.0698s16.461665-2.391866 25.888431-42.209398a354.981039 354.981039 0 0 0 12.803518-130.145644c-5.768618-50.369882 11.818631-90.328112-126.628195-150.12476zM229.802878 462.052212s-32.923331 53.887332-37.566365 66.831547-14.069799 16.320967-4.783731 32.782633S208.557481 609.785106 219.10983 605.001374a124.377027 124.377027 0 0 0 23.496565-17.587249c7.175598-4.643034-9.426766-15.195383-16.461665-23.355867s-25.747733-42.209398 3.658148-102.006046zM266.243658 464.30338s88.921132-10.55235 140.697994-21.104699 87.936246-23.355867 127.753779-30.390767a1983.841715 1983.841715 0 0 1 206.403957-19.979115c42.209398 0 96.09673 32.782633 87.936246 49.244298s-31.657049 29.265183-96.237428 44.601264a617.664193 617.664193 0 0 0-111.292113 37.425666s53.887332-8.160484 77.383897-14.069799 47.415224-9.426766 89.624622-16.320967 66.831547-8.301182 78.50948 1.125584 21.104699 3.51745 15.336082-10.55235A181.922506 181.922506 0 0 0 782.605296 393.954383c-66.831547-26.873317-331.76587 19.979115-376.367134 32.923331S266.10296 464.30338 266.243658 464.30338zM331.668225 580.097829a134.507282 134.507282 0 0 0 60.640836 13.225612c25.607035-3.51745 71.333883-12.381423 74.851333-17.58725s16.602363 1.688376-6.190712 14.913988-48.40011 43.053586-71.193185 60.640835-50.229184 63.314097-45.726848 88.921132 6.050014 23.637263 23.637263 31.657049 32.641935 14.069799 33.486122 26.310525 4.361638 27.295411 10.55235 24.622149 9.708162-10.55235 23.777961-6.190712 24.622149 2.673262 22.793075-4.361638-12.240725-21.104699-21.104699-21.948887-28.139599-19.416323-35.174499-23.777961-29.827975-9.708162-36.862874-20.260511-9.708162-32.501237 14.913987-66.831547 71.193185-68.519923 89.624622-82.589723a364.6892 364.6892 0 0 1 61.625722-40.521022 277.03435 277.03435 0 0 1 63.314097-16.602363c25.466337-4.502336 47.415224-4.502336 53.605936-21.104699s-65.987359-3.51745-77.383897-8.863974-15.758175 7.879088-57.123385 22.933773-133.241 60.640835-182.063205 47.415224zM388.088121 765.678483s4.22094-29.968673 20.119813-39.536136 39.536136-10.55235 69.504809-19.416323a786.501786 786.501786 0 0 0 82.589723-24.622149c7.879088-5.205826-0.844188 22.933773-20.260512 34.33031s-43.053586 38.691948-68.519923 51.91756a153.501511 153.501511 0 0 0-40.521022 29.827975s15.054685 13.225611 27.295411 7.879087 29.968673-2.532564 8.863974 8.863974-40.521022 34.330311-63.314098 54.450124-23.777961 22.933773-14.069799 37.003572a53.465238 53.465238 0 0 0 31.657048 24.622149c7.879088 0 20.401209 8.723276 22.089586 0.70349s-2.81396-30.672163 11.255839-40.239626 54.590822-45.726848 54.590822-45.726848-25.607035 11.396538-47.555922 23.637263a182.063204 182.063204 0 0 1-44.88266 22.089585c-6.050014 0-14.069799-5.346524-0.844188-21.104699a227.22726 227.22726 0 0 1 44.88266-39.676835 322.057708 322.057708 0 0 1 55.435009-30.672162 421.249794 421.249794 0 0 1 66.831548-27.295411c21.948887-4.361638 36.018686-13.225611 47.415223-14.913988s-0.844188-15.054685-14.913987-15.054685-52.761748 0-65.987359 8.863974-45.726848 34.330311-65.002473 34.33031-4.502336-12.381423 9.567463-15.898873a413.7928 413.7928 0 0 0 75.695521-33.345425c20.401209-12.381423 43.897774-33.486123 58.95246-33.486122s37.707062-11.396538 37.707062-26.310525-45.726848-18.572135-64.158285-27.295411-21.948887-2.673262-30.812861 4.361638-27.154713 12.381423-62.329211 21.948887a382.698544 382.698544 0 0 0-101.161858 44.038472c-22.933773 15.758175-28.983787 46.571036-20.119813 45.726848zM567.337365 812.249519a22.933773 22.933773 0 0 1 10.55235 35.174499c-14.069799 24.622149-21.948887 65.143171-108.196758 100.317669 0 0 65.987359-16.743061 99.473482-45.726848s47.415224-46.711734 57.123386-54.590821 18.431437-15.758175 4.361637-23.777961-31.657049-10.55235-63.314097-11.396538zM92.481636 1001.347623s22.933773 27.295411 46.571036 21.948887 100.739764-30.250069 165.320143-44.319868 194.444628-39.676834 270.843638-39.676834 154.767793-5.205826 186.424842 0 77.383897 13.225611 94.126958 37.003572 41.36521 45.726848 51.91756 45.726848a27.014015 27.014015 0 0 0 23.777961-21.948887c0.844188-10.55235-8.019786-25.607035-32.641935-42.209398s-44.741962-24.622149-58.811762-39.676834-36.159384-28.139599-52.761747-23.637263-22.089585 28.139599-45.726848 28.139598-161.802693 6.050014-191.771366 6.050014-132.818906 15.054685-211.046991 25.607035S138.208484 1011.899973 92.481636 1001.347623z" p-id="41924"></path></svg>