<?xml version="1.0" encoding="utf-8"?>
<svg version="1.1" xmlns:xlink="http://www.w3.org/1999/xlink" width="16px" height="12px" xmlns="http://www.w3.org/2000/svg">
  <g transform="matrix(1 0 0 1 -143 -323 )">
    <path d="M 5.2614453125 0.287939453125  L 5.275390625 0.287939453125  C 5.2919921875 0.307861328125  5.30859375 0.3289453125  5.32685546875 0.347373046875  C 5.72197265625 0.742047526041667  6.11731119791667 1.1364453125  6.51287109375 1.53056640625  C 6.53133873839845 1.54702523234853  6.55098053453415 1.56211723389912  6.571640625 1.57572265625  L 5.8285546875 2.323623046875  L 5.282529296875 1.77095703125  L 1.579384765625 5.503818359375  L 5.261611328125 9.21509765625  L 6.755751953125 7.710498046875  L 4.53296875 5.507802734375  L 5.275390625 4.758740234375  L 8.221669921875 7.7279296875  L 5.2587890625 10.712890625  L 0.0698046875 5.4833984375  L 0.0352734375000001 5.48240234375  C 0.060924342388682 5.46868597058229  0.0850723011990193 5.45232767590432  0.10732421875 5.43359375  C 1.80798828125 3.73868489583333  3.50820963541667 2.04322265625  5.20798828125 0.34720703125  C 5.226748046875 0.328447265625  5.243681640625 0.3076953125  5.2614453125 0.287939453125  Z M 9.74884765625 0.287939453125  L 14.9647265625 5.489208984375  C 14.9501171875 5.47708984375  14.93451171875 5.46580078125  14.921064453125 5.45251953125  L 9.7863671875 0.33126953125  C 9.772919921875 0.317822265625  9.761298828125 0.3023828125  9.74884765625 0.287939453125  Z " fill-rule="nonzero" fill="#737373" stroke="none" transform="matrix(1 0 0 1 143 323 )" />
  </g>
</svg>