<svg class="icon" viewBox="0 0 1024 1024" version="1.1" xmlns="http://www.w3.org/2000/svg" p-id="44288" height="128" width="128"><path d="M458.410667 187.264c8.618667 0.896 17.045333-0.554667 25.365333-2.368 3.904-0.853333 8.170667-0.810667 11.605333-3.456 0.64-0.490667 1.6-0.746667 2.410667-0.768 4.757333-0.085333 8.426667-2.837333 12.501333-4.714667 6.144-2.837333 12.309333-5.589333 18.965334-7.402666 5.653333-1.536 11.754667-2.112 16.853333-5.482667 0.149333-0.085333 0.298667-0.192 0.448-0.234667 4.330667-0.981333 8.192-2.538667 11.818667-5.482666 3.456-2.816 8.597333-0.341333 10.282666 3.904 0.853333 2.176 2.346667 4.053333 3.562667 6.016 2.090667 3.413333 5.056 6.592 6.229333 10.176 1.216 3.712 1.066667 8.234667 0 12.330666-0.512 1.941333-2.325333 2.453333-3.925333 1.941334-10.581333-3.349333-19.989333 1.322667-29.525333 4.416-6.250667 2.026667-11.84 5.653333-17.216 9.472-1.066667 0.746667-2.154667 1.536-3.456 1.493333-4.053333-0.106667-6.08 2.538667-7.893334 5.546667-1.045333 1.728-1.749333 3.797333-4.266666 3.882666-0.554667 0.021333-0.725333 0.448-0.661334 0.896 0.277333 2.176-1.28 3.008-2.794666 3.797334-1.429333 0.746667-2.176 1.941333-2.325334 3.456-0.384 3.989333-0.213333 7.872 2.794667 11.029333 0.725333 0.746667 1.152 1.664 1.493333 2.645333 0.832 2.432 2.048 4.458667 4.096 6.272 1.898667 1.685333 3.477333 3.776 5.610667 5.333334 1.493333 1.088 3.370667 2.005333 4.437333 3.264 3.349333 3.946667 8.384 5.141333 12.224 8.192 0.981333 0.789333 2.154667 1.472 3.349334 1.813333 2.346667 0.661333 4.394667 1.536 6.08 3.477333 1.450667 1.706667 3.648 1.258667 5.525333 0.661334 2.346667-0.725333 4.437333-0.597333 6.656 0.490666 2.389333 1.173333 5.013333 1.301333 7.488 0.32 15.658667-6.314667 32.341333-8.341333 48.746667-11.413333 14.826667-2.794667 29.632-5.994667 44.650666-7.509333 4.757333-0.490667 9.386667-1.642667 14.165334-1.898667 0.576-0.021333 1.173333-0.256 1.685333-0.554667 4.330667-2.688 9.173333-2.944 14.058667-3.008 13.141333-0.170667 26.282667-0.256 39.402666-0.533333 8.426667-0.192 16.832-0.810667 25.237334-1.322667 3.904-0.234667 7.744 0.64 10.496 4.074667 1.322667 1.642667 2.965333 3.050667 4.48 4.522667 4.736 4.608 9.28 9.386667 14.144 13.888 4.202667 3.882667 8.32 8.021333 12.138666 12.352 1.621333 1.856 3.413333 3.562667 5.077334 5.354666 2.197333 2.368 3.776 5.354667 5.44 8.192 0.661333 1.109333 1.088 2.282667 2.24 3.008 1.685333 1.066667 2.282667 2.922667 3.264 4.501334 1.962667 3.136 4.330667 6.058667 4.416 10.090666 0.042667 1.685333 1.152 3.072 2.474666 4.309334 3.370667 3.093333 2.709333 8.533333-1.152 10.752-0.597333 0.341333-1.173333 0.704-1.706666 1.130666-1.429333 1.173333-2.816 1.258667-4.010667-0.234666-0.853333-1.109333-1.749333-0.938667-2.645333-0.277334-2.112 1.621333-4.48 1.728-6.762667 0.810667-3.989333-1.6-8.106667-1.045333-12.074667-0.64-2.709333 0.277333-5.205333-0.341333-7.765333-0.533333-1.130667-0.085333-1.962667-0.106667-3.050667 0.277333-3.776 1.344-7.594667 2.069333-11.733333 1.258667-5.44-1.045333-11.008-0.661333-16.533333-0.832-6.890667-0.213333-13.781333-0.682667-20.650667-1.130667-2.538667-0.170667-8.618667-5.034667-8.448-7.061333 0.277333-3.413333-0.021333-7.104 2.346667-10.005334 1.6-1.962667 2.944-3.882667 2.816-6.613333-0.042667-0.96 0.298667-2.261333 0.96-2.837333 2.730667-2.368 3.669333-5.504 4.330666-8.832 0.106667-0.576 0.341333-1.28 0.746667-1.6 3.136-2.432 3.114667-6.272 4.373333-9.514667 1.408-3.669333 0.064-5.952-3.904-6.4-2.453333-0.277333-4.949333-0.149333-7.402666-0.085333-3.008 0.085333-5.824-0.256-8.746667-1.28-5.525333-1.941333-11.285333-1.621333-16.938667-0.384-12.672 2.773333-25.173333 6.314667-37.930666 8.597333-17.472 3.114667-34.688 7.445333-51.925334 11.648-7.957333 1.941333-15.786667 4.288-23.722666 6.272-6.72 1.685333-13.482667 3.626667-19.968 6.314667-5.12 2.112-10.496 3.626667-15.381334 6.272-6.613333 3.605333-11.413333 8.192-12.650666 16.576-1.194667 8.042667-1.6 16.256-3.861334 24.170666-0.448 1.6-0.234667 3.392-0.234666 5.098667 0 2.816 0.128 5.610667-1.365334 8.213333-0.554667 0.96-0.768 2.368 0.021334 3.136 1.536 1.472 1.322667 3.221333 1.322666 4.992 0.021333 4.778667 0.490667 9.621333-0.106666 14.314667-1.152 9.237333-1.002667 18.517333-1.749334 27.733333-0.426667 5.226667-3.690667 10.197333-5.376 15.36-1.728 5.312-4.522667 7.914667-10.688 7.552-7.36-0.448-14.826667 0.384-22.229333 0.725334-1.792 0.085333-2.688-0.277333-2.965333-2.368-0.533333-3.754667-0.789333-7.68-3.221334-10.922667-0.426667-0.576-0.277333-1.322667-0.170666-2.005333 0.682667-4.437333 1.258667-8.832 2.688-13.205334 1.450667-4.458667 1.92-9.344 3.562666-13.802666 2.368-6.442667 2.304-13.184 3.264-19.818667 0.512-3.52 2.261333-6.784 1.792-10.496-0.384-3.114667-0.064-6.357333-0.618666-9.429333-0.533333-2.965333-2.816-5.205333-4.842667-7.317334-3.925333-4.117333-8.085333-8-12.138667-11.989333-1.28-1.258667-2.922667-1.749333-4.608-1.898667-1.024-0.085333-1.962667 0.469333-2.026666 1.770667-0.021333 0.768 0.106667 1.685333-0.682667 2.090667-3.605333 1.856-6.570667 4.778667-10.389333 6.293333-0.64 0.256-1.429333 0.32-1.877334 0.746667-2.496 2.517333-5.674667 3.946667-8.554666 5.866666-2.496 1.642667-5.162667 2.496-7.744 3.712-0.682667 0.32-1.664 0.469333-2.005334 1.002667-1.664 2.602667-4.352 3.328-7.018666 3.712-3.072 0.448-4.672 3.306667-7.658667 3.882667-2.837333 0.554667-5.717333 1.045333-7.786667 3.733333-1.045333 1.365333-3.264 1.685333-5.141333 1.984-2.858667 0.448-5.568 1.194667-8 3.008-1.92 1.450667-4.394667 1.813333-6.826667 1.834667-4.224 0.021333-8.256 1.130667-12.16 2.474666-5.888 2.048-11.946667 1.813333-17.962666 1.898667-2.154667 0.021333-3.989333-1.194667-4.608-3.712-0.554667-2.261333-2.474667-3.52-4.16-4.970667-4.672-4.074667-8.810667-8.554667-7.808-15.530666 0.042667-0.256 0.064-0.512 0.085333-0.768 0.234667-5.354667 0.234667-5.376 5.461333-5.546667 1.621333-0.064 3.242667-0.213333 4.842667-0.085333 6.954667 0.554667 13.44-1.258667 19.84-3.690667 3.114667-1.194667 6.677333-1.024 9.664-2.218667 3.669333-1.450667 7.402667-2.538667 11.114667-3.754666 15.829333-5.226667 31.338667-11.178667 45.653333-19.904 5.696-3.477333 10.858667-7.701333 16.256-11.541334 3.968-2.837333 7.381333-6.357333 11.968-8.533333 2.389333-1.130667 4.821333-3.008 7.104-4.714667 1.642667-1.216 2.474667-2.901333 2.965333-4.906666 1.173333-4.906667 1.408-9.749333-0.426666-14.570667-0.426667-1.109333-0.768-2.218667-1.536-3.178667-1.6-2.005333-2.368-4.352-2.389334-6.890666-0.021333-2.282667-0.597333-4.181333-2.730666-5.397334-0.554667-0.32-1.216-0.896-1.344-1.472-0.853333-3.413333-3.626667-5.653333-5.162667-8.64-0.576-1.130667-1.237333-2.410667-2.218667-3.072-3.690667-2.474667-6.549333-5.909333-9.813333-8.810666-2.730667-2.432-6.656-3.072-8.618667-6.357334-0.042667-0.064-0.106667-0.149333-0.192-0.170666-5.248-1.344-9.130667-5.845333-14.762666-6.272-1.706667-0.128-3.093333-0.96-4.245334-2.133334-1.472-1.493333-3.221333-2.090667-5.290666-2.176-2.944-0.149333-5.589333-1.002667-8.085334-2.773333-1.898667-1.344-4.224-2.133333-6.4-3.093333-2.794667-1.237333-3.669333-3.882667-4.650666-6.4-0.298667-0.789333-0.213333-1.834667 0.490666-2.389334 3.221333-2.602667 4.736-7.274667 9.706667-7.722666 1.408-0.128 2.112-1.642667 3.264-2.368 3.136-1.984 6.72-2.410667 10.197333-3.072 7.530667-1.472 15.146667-2.432 22.869334-1.834667zM505.258667 455.125333c0.597333 0 1.216 0.085333 1.792-0.021333 4.288-0.661333 8.298667-0.213333 11.669333 2.901333 0.597333 0.554667 1.450667 0.96 2.261333 1.173334 5.674667 1.536 10.581333 4.8 15.253334 8.064 5.738667 4.010667 12.373333 6.762667 17.301333 11.904 0.170667 0.192 0.405333 0.448 0.597333 0.448 5.269333-0.021333 8.085333 4.693333 12.373334 6.677333 3.114667 1.429333 5.866667 4.16 8.832 6.272 0.96 0.682667 1.941333 1.429333 3.008 1.92 4.992 2.218667 9.536 5.141333 13.781333 8.533333 1.749333 1.386667 4.138667 1.322667 5.888 2.901334 5.802667 5.290667 12.16 9.92 18.56 14.464 17.578667 12.458667 36.117333 23.338667 55.530667 32.682666 20.096 9.664 39.317333 20.885333 58.368 32.405334 40.576 24.512 82.858667 45.418667 127.552 61.397333 13.397333 4.8 26.602667 10.176 39.722666 15.722667 6.912 2.944 13.952 5.525333 21.162667 7.701333 2.56 0.768 2.858667 1.429333 0.938667 3.114667-2.304 2.026667-4.053333 4.629333-6.656 6.314666-1.045333 0.661333-1.621333 1.728-2.282667 2.709334-2.112 3.114667-4.885333 3.541333-7.722667 1.130666-2.048-1.749333-4.394667-2.496-7.04-2.581333-9.216-0.298667-18.410667-0.853333-27.626666-0.896-5.290667-0.021333-10.197333-1.450667-15.146667-2.88-1.557333-0.448-3.136-0.896-4.736-0.917333-2.858667-0.042667-5.653333-0.469333-8.234667-1.6-4.842667-2.133333-9.962667-3.349333-14.912-5.077334-12.544-4.394667-25.002667-9.130667-37.162666-14.506666-10.304-4.565333-20.501333-9.365333-30.976-13.461334-7.936-3.093333-15.893333-6.208-23.530667-9.856-4.992-2.389333-10.837333-3.541333-14.741333-8.042666-0.277333-0.298667-0.682667-0.618667-1.066667-0.682667-2.944-0.533333-5.077333-2.794667-7.658667-3.84-4.138667-1.664-7.210667-5.12-11.52-6.4-0.704-0.213333-1.429333-0.704-1.877333-1.28-1.642667-2.112-3.733333-3.072-6.4-3.114667-1.984-0.021333-3.242667-1.386667-4.266667-2.901333-1.002667-1.493333-2.581333-2.026667-4.010666-2.944-4.096-2.645333-8.789333-4.202667-12.565334-7.530667-3.2-2.816-6.762667-5.354667-10.816-7.082666-3.264-1.386667-5.845333-3.946667-8.768-5.930667-1.365333-0.938667-2.581333-2.133333-4.010666-3.093333-4.8-3.285333-9.856-6.208-14.869334-9.152-1.6-0.938667-3.221333-1.92-4.202666-3.648-0.277333-0.490667-0.810667-1.173333-1.258667-1.194667-3.093333-0.234667-4.928-2.88-7.616-3.861333-1.642667-0.597333-2.944-1.770667-3.989333-3.136-2.005333-2.602667-4.992-4.117333-7.04-6.656-0.597333-0.746667-1.514667-0.704-2.368-0.768-1.984-0.149333-3.754667-0.96-4.842667-2.517334-2.645333-3.754667-6.954667-5.397333-10.154667-8.298666-3.050667-2.752-7.082667-4.010667-9.728-7.210667-1.024-1.258667-2.282667-2.304-3.818666-2.922667-0.32-0.128-0.768-0.256-0.874667-0.490666-1.472-3.413333-5.418667-3.797333-7.594667-6.336-0.064-0.064-0.106667-0.170667-0.170666-0.170667-4.288-0.490667-5.802667-4.629333-8.832-6.762667-0.789333-0.554667-1.386667-1.237333-1.898667-2.048-0.362667-0.554667-0.725333-1.386667-1.258667-1.536-3.328-0.981333-5.952-2.901333-8.448-5.248-1.002667-0.96-2.154667-1.749333-3.178666-2.773333-2.965333-2.986667-6.848-3.690667-10.858667-2.986667-2.410667 0.426667-4.757333 1.322667-7.253333 1.365334-1.642667 0.021333-2.602667 1.088-3.328 2.410666-3.285333 5.888-8.597333 8.64-15.018667 9.536-1.557333 0.213333-2.453333 1.237333-2.517333 2.453334-0.149333 3.221333-2.410667 4.736-4.608 6.293333-1.642667 1.152-3.114667 2.346667-3.733334 4.352-0.277333 0.917333-0.810667 1.749333-1.621333 2.24-2.581333 1.578667-3.477333 4.074667-3.968 6.848-0.021333 0.170667 0 0.384-0.106667 0.490667-4.565333 4.544-2.325333 11.541333-5.888 16.448-0.192 0.256-0.341333 0.64-0.32 0.96 0.256 3.605333-2.453333 5.76-3.989333 8.512-6.08 10.944-13.162667 21.269333-19.221333 32.256-5.738667 10.432-11.904 20.693333-19.754667 29.781333-6.848 7.936-13.824 15.786667-18.496 25.365333-1.365333 2.794667-3.605333 5.162667-5.525333 7.658667-2.858667 3.733333-5.162667 8.064-8.896 10.922667-2.538667 1.941333-4.416 4.394667-6.528 6.613333-2.304 2.410667-5.034667 4.565333-6.314667 7.808-1.045333 2.624-3.797333 3.52-5.525333 5.525333-4.778667 5.546667-10.026667 10.666667-15.189334 15.850667-3.882667 3.904-8.106667 7.573333-11.797333 11.626667-5.674667 6.250667-12.010667 11.797333-17.706667 18.005333a204.648533 204.648533 0 0 1-7.68 7.829333c-2.368 2.304-5.568 3.84-7.744 6.464-3.882667 4.672-9.557333 7.338667-13.269333 12.16-0.213333 0.256-0.469333 0.576-0.768 0.661334-5.717333 1.92-8.853333 7.338667-13.866667 10.176-2.88 1.621333-4.992 4.394667-8.32 5.333333-0.682667 0.192-1.429333 0.725333-1.856 1.301333-1.92 2.602667-4.245333 4.373333-7.616 4.501334-0.810667 0.021333-1.322667 0.704-1.792 1.344-1.536 2.069333-3.861333 2.986667-6.208 3.157333-1.770667 0.128-2.666667 0.725333-3.605333 2.090667-1.258667 1.792-3.605333 1.749333-5.461333 2.56-0.853333 0.362667-2.069333 0.256-2.645334 0.853333-3.434667 3.52-7.850667 3.989333-12.352 4.224-1.365333 0.064-2.986667 1.024-3.882666-0.789333-0.896-1.834667 0.277333-3.093333 1.6-4.117334 6.229333-4.864 11.818667-10.432 17.642666-15.744 4.288-3.882667 7.808-8.661333 13.077334-11.605333 2.069333-1.173333 3.306667-3.861333 5.333333-5.589333 1.514667-1.28 3.2-2.517333 4.458667-3.925334 1.728-1.92 3.605333-3.754667 5.269333-5.717333 6.485333-7.637333 12.949333-15.274667 20.16-22.229333 3.925333-3.797333 7.189333-8.064 10.645333-12.224 1.770667-2.133333 3.946667-3.882667 5.738667-6.037334 2.389333-2.858667 4.394667-6.016 6.848-8.832 1.770667-2.026667 2.837333-4.672 5.546667-5.802666 0.213333-0.085333 0.512-0.298667 0.554666-0.512 0.768-3.413333 3.712-5.397333 5.546667-8.064 2.197333-3.157333 3.605333-6.976 6.741333-9.514667 0.768-0.618667 1.514667-1.536 1.749334-2.453333 0.597333-2.261333 1.301333-4.266667 3.968-4.736 0.682667-0.128 0.576-0.746667 0.597333-1.237334 0.085333-2.112 1.130667-3.690667 2.666667-5.034666 1.365333-1.194667 2.368-2.666667 2.965333-4.416 0.298667-0.896 0.725333-1.792 1.493333-2.346667 1.344-0.96 1.962667-2.24 2.282667-3.818667 0.32-1.557333 1.173333-2.773333 2.688-3.52 0.746667-0.362667 1.642667-0.917333 1.92-1.6 1.408-3.477333 3.989333-6.250667 5.568-9.6 1.749333-3.712 3.648-7.338667 6.208-10.517333 3.989333-4.970667 6.698667-10.688 10.133333-15.978667 0.554667-0.853333 1.045333-1.770667 1.728-2.517333 7.232-7.850667 13.269333-16.682667 19.84-25.045333 3.498667-4.458667 6.208-9.386667 8.341334-14.634667 1.386667-3.434667 3.157333-6.613333 5.696-9.344 0.576-0.618667 1.173333-1.365333 1.322666-2.133333 0.426667-2.261333 1.493333-3.925333 3.626667-4.928 0.704-0.32 1.152-0.981333 1.493333-1.706667 1.578667-3.477333 4.053333-6.592 4.906667-10.346667 0.981333-4.309333 4.544-7.061333 6.058667-11.114666 1.237333-3.306667 2.432-6.485333 2.368-10.048-0.042667-2.005333 0.576-3.669333 2.346666-5.077334 1.322667-1.045333 2.090667-2.816 2.965334-4.352 1.92-3.392 5.056-6.08 5.44-10.453333 0.128-1.621333 1.984-3.093333 2.986666-4.672 3.285333-5.098667 6.549333-10.176 10.432-14.869333 2.752-3.328 4.650667-7.125333 5.866667-11.264 0.704-2.368 1.429333-4.736 2.944-6.762667 3.328-4.437333 7.168-7.808 13.312-6.762667 1.152 0.192 2.389333 0.021333 3.584 0.021334-0.149333-0.021333-0.149333-0.064-0.149333-0.085334zM602.304 690.368c0.021333-2.069333 0.341333-6.016-3.285333-8.512-3.136-2.176-6.72-3.818667-10.133334-5.226667-3.584-1.472-7.637333-0.725333-11.413333 2.197334-4.608 3.562667-8.768 7.786667-13.781333 10.709333-3.221333 1.877333-5.376 5.034667-9.045334 6.442667-2.218667 0.853333-3.989333 3.114667-5.674666 5.013333-2.048 2.304-4.565333 3.605333-7.296 4.928-3.328 1.642667-7.125333 2.837333-9.322667 6.293333-0.448 0.704-1.088 1.472-1.813333 1.770667-3.882667 1.557333-6.954667 4.906667-11.370667 5.269333-1.109333 0.085333-1.536 0.405333-1.706667 1.621334-0.298667 2.368-2.496 2.986667-4.224 4.032-4.053333 2.432-8.298667 4.501333-12.352 6.976a71.424 71.424 0 0 1-12.096 5.930666c-11.370667 4.224-22.549333 8.874667-33.088 14.933334-1.28 0.725333-2.624 1.344-4.096 1.365333-5.397333 0.149333-10.581333 1.578667-15.829333 2.538667-3.328 0.597333-6.336 0.362667-9.28-1.557334-3.626667-2.325333-7.317333-3.925333-9.749333-8.277333-2.005333-3.584-4.501333-6.72-4.842667-10.986667-0.064-0.896-0.661333-1.557333-1.28-2.154666-2.410667-2.304-3.136-5.226667-2.901333-8.405334 0.298667-4.202667-0.213333-8.149333-2.901334-11.605333-0.597333-0.768-0.981333-1.813333-1.194666-2.794667-0.64-2.965333 0.576-4.458667 3.562666-4.138666 4.586667 0.512 9.173333 0.810667 13.781334 1.002666 1.557333 0.064 3.157333 0.490667 4.309333 1.472 2.624 2.282667 5.738667 2.773333 8.981333 3.072 1.792 0.170667 3.562667 0.448 5.354667 0.469334 2.752 0.042667 5.162667 0.832 7.338667 2.517333 3.349333 2.56 6.272 1.898667 9.728-0.298667 3.84-2.453333 7.872-5.269333 11.989333-6.656 15.253333-5.141333 29.952-11.264 43.754667-19.605333 16.725333-10.112 33.301333-20.458667 49.450666-31.466667 3.477333-2.368 6.976-3.306667 11.2-3.349333 13.738667-0.149333 27.456 0.981333 41.194667 0.512 2.026667-0.064 4.138667 0.234667 5.653333 1.322667 3.818667 2.773333 8.256 3.050667 12.608 3.562666 2.432 0.277333 4.416 1.152 6.144 2.794667 1.28 1.237333 2.730667 1.962667 4.565334 1.941333 1.728-0.021333 3.093333 0.853333 4.224 2.112 0.448 0.512 0.832 1.28 1.386666 1.472 4.138667 1.386667 7.104 4.501333 9.685334 7.573334 2.346667 2.794667 5.013333 5.397333 6.997333 8.490666 1.301333 2.026667 0.725333 4.501333 0.917333 6.762667 0.170667 2.112 0.682667 3.989333 1.962667 5.674667 0.810667 1.066667 1.344 2.325333 0.768 3.584-1.450667 3.178667-3.221333 6.293333-6.016 8.405333-2.901333 2.197333-4.650667 5.290667-7.082667 7.829333-0.341333 0.362667-0.426667 0.981333-0.768 1.322667-5.781333 5.610667-9.898667 12.650667-15.808 18.261333-4.586667 4.352-8.682667 9.344-12.885333 14.144-2.410667 2.752-4.458667 5.952-7.552 8.128-1.045333 0.725333-0.96 2.282667-1.770667 3.050667-4.629333 4.309333-7.402667 10.389333-13.12 13.632-0.704 0.405333-1.28 0.96-1.536 1.642667-1.706667 4.48-5.632 7.04-8.576 10.453333-2.197333 2.538667-4.8 4.8-6.869333 7.594667-1.877333 2.538667-4.010667 5.12-6.058667 7.616-4.032 4.928-8.704 9.301333-12.309333 14.592-0.234667 0.341333-0.384 0.832-0.725333 1.045333-3.989333 2.773333-3.754667 6.933333-3.669334 11.050667 0.085333 4.437333 0.085333 8.874667 0.128 13.312 0.021333 2.24 0.810667 4.032 2.666667 5.504 2.773333 2.197333 4.117333 5.610667 5.994667 8.469333 2.453333 3.754667 5.376 6.997333 8.469333 10.154667 2.944 2.986667 5.397333 6.250667 7.146667 10.090666 1.258667 2.730667 3.541333 4.757333 5.525333 6.933334 2.709333 2.944 5.013333 6.250667 7.957333 9.002666 2.090667 1.941333 2.133333 4.906667 2.026667 7.402667-0.106667 2.261333-0.384 4.565333-0.277333 6.848 0.128 2.986667-0.704 5.696-1.621334 8.448-0.277333 0.853333-0.704 1.685333-1.536 1.941333-3.2 1.045333-5.141333 3.861333-7.957333 5.461334-1.194667 0.682667-2.069333 1.749333-2.922667 2.837333-2.56 3.2-5.76 3.114667-8.810666 0.490667-7.018667-6.058667-13.013333-13.248-20.544-18.730667a5.056 5.056 0 0 1-1.706667-2.197333c-0.490667-1.173333-1.493333-1.728-2.432-2.474667-2.773333-2.176-5.546667-4.373333-7.552-7.338667-0.384-0.554667-0.576-1.472-1.237333-1.536-2.410667-0.256-3.306667-2.453333-4.970667-3.584-2.709333-1.856-4.458667-4.608-7.04-6.549333-2.048-1.536-3.264-4.053333-5.44-5.610667-0.448-0.32-0.682667-1.216-0.682667-1.856-0.021333-1.557333-0.298667-2.645333-2.218666-2.666666-1.002667 0-1.642667-0.853333-2.197334-1.621334-10.496-15.04-23.573333-27.690667-37.013333-40.021333-6.826667-6.272-13.013333-13.056-17.706667-21.098667-1.322667-2.261333-3.306667-3.818667-5.525333-5.184-3.84-2.389333-6.016-5.973333-6.08-10.56-0.042667-2.368 2.005333-4.778667 4.181333-4.736 5.162667 0.064 10.389333-0.810667 15.509334 0.661334 0.896 0.256 1.941333 0.426667 2.581333 1.024 3.456 3.157333 7.829333 3.498667 12.096 4.096 1.664 0.234667 3.221333 0.576 4.352 1.834666 1.322667 1.472 3.008 1.877333 4.864 1.770667 3.221333-0.192 6.058667 0.405333 8.874667 2.261333 2.026667 1.344 4.736 1.685333 7.189333 2.346667 1.578667 0.426667 2.730667-0.426667 3.797333-1.557333 3.008-3.221333 6.997333-4.949333 10.816-6.890667 1.130667-0.576 2.432-0.853333 3.285334-1.898667 1.706667-2.133333 3.562667-3.925333 6.634666-3.626666 0.277333 0.021333 0.810667-0.192 0.874667-0.384 0.704-2.752 3.2-2.965333 5.248-3.84 0.448-0.192 0.981333-0.512 1.194667-0.917334 2.986667-5.610667 8.618667-8.597333 13.056-12.714666 2.474667-2.282667 5.290667-4.672 7.274666-7.125334 4.16-5.098667 8.981333-9.621333 12.842667-15.04 2.581333-3.648 3.370667-8.362667 7.104-11.242666 0.725333-0.554667 0.832-1.642667 0.938667-2.602667 0.149333-1.664 0.682667-3.306667 1.834666-4.416 2.816-2.730667 3.2-6.293333 3.648-9.813333 0.192-1.493333 0.597333-2.816 1.664-3.904 1.557333-1.621333 2.154667-3.626667 2.282667-5.824 0.341333-6.613333 0.768-13.162667 1.28-21.418667zM305.344 296.768c1.962667 0 3.925333-0.106667 5.866667 0.021333 1.834667 0.128 3.285333 1.066667 2.837333 3.093334-1.045333 4.842667-0.384 9.685333-0.362667 14.528 0 1.472-0.042667 2.901333-0.512 4.288-2.688 7.957333-3.221333 16.106667-2.197333 24.405333 0.874667 7.189333 1.109333 14.4 1.386667 21.632 0.149333 4.096 0.192 8.042667-0.256 12.117333-0.426667 4.032 1.770667 7.744 2.496 11.690667 1.557333 8.490667 2.581333 17.045333 2.666666 25.685333 0.064 5.589333-1.301333 11.029333-3.157333 16.256-3.946667 11.178667-7.232 22.570667-10.944 33.834667-1.856 5.589333-4.096 11.029333-6.357333 16.469333-1.536 3.648-4.586667 6.293333-6.165334 9.941334-0.874667 2.005333-3.690667 1.813333-5.141333-0.106667-4.053333-5.397333-8.618667-10.325333-13.504-14.976-0.256-0.234667-0.426667-0.597333-0.704-0.725333-4.330667-1.962667-4.288-5.376-3.434667-9.365334 0.725333-3.477333 0.533333-7.146667 2.538667-10.304 0.341333-0.554667 0.576-1.301333 0.512-1.92-0.768-10.730667 2.474667-20.928 4.117333-31.338666 0.618667-3.946667 0.832-7.978667 1.429334-11.904 1.301333-8.554667 2.346667-17.130667 4.053333-25.642667 1.472-7.381333 4.010667-14.613333 4.373333-22.229333 0.042667-0.853333 0.106667-1.770667 0.448-2.517334 2.88-6.272 2.218667-12.992 2.474667-19.584 0.234667-6.058667 0.874667-12.138667 2.368-17.92 0.704-2.730667 1.92-6.016 4.053333-8.341333 1.728-1.877333 2.133333-3.989333 2.261334-6.293333 0.128-2.304 0.128-4.608 0.128-6.890667-0.021333-2.752 0.917333-3.754667 3.605333-3.754667h5.12v-0.149333zM540.010667 581.824c4.970667-1.002667 6.954667 3.178667 9.578666 6.122667 1.173333 1.322667 2.112 2.773333 3.669334 3.818666 2.944 1.984 2.517333 8.661333-0.64 10.666667-1.28 0.810667-2.24 1.685333-2.688 3.2-0.405333 1.408-1.536 2.197333-3.008 2.453333-0.490667 0.085333-1.408 0.128-1.429334 0.298667-0.597333 3.456-4.544 3.989333-5.866666 6.954667-1.28 2.858667-4.608 2.837333-7.104 2.773333-5.610667-0.106667-11.178667-1.045333-16.789334 0.213333-2.090667 0.469333-4.010667-0.64-6.016-1.194666-3.84-1.066667-6.272-4.736-10.858666-4.650667-2.666667 0.042667-4.608-3.456-6.165334-5.994667-1.408-2.282667-2.24-4.693333-0.405333-7.274666 0.469333-0.661333 0.597333-1.6 0.682667-2.453334 0.405333-4.352 2.901333-6.954667 6.848-8.341333 7.914667-2.794667 15.936-4.842667 24.469333-4.757333 4.117333 0.042667 8.362667-0.042667 12.330667-1.770667 0.874667-0.405333 2.133333-0.064 3.392-0.064zM602.730667 335.744c0.64 0.042667 1.642667 0.192 2.666666 0.192 1.578667 0 2.858667-0.448 3.904-1.877333 2.197333-3.029333 4.906667-3.029333 7.914667-0.896 3.797333 2.709333 8.042667 4.949333 11.136 8.448 2.581333 2.922667 6.677333 3.776 8.789333 7.168 0.149333 0.234667 0.597333 0.32 0.896 0.448 4.842667 1.877333 6.144 7.232 2.752 11.434666-3.029333 3.754667-6.165333 7.424-9.194666 11.178667-0.896 1.109333-1.984 1.109333-2.965334 0.597333-1.685333-0.896-3.477333-1.322667-5.312-1.706666-0.554667-0.106667-1.28-0.362667-1.557333-0.789334-1.749333-2.624-4.778667-3.029333-7.253333-4.437333-2.752-1.557333-5.589333-3.136-8.064-5.098667-3.52-2.816-7.466667-5.333333-9.301334-9.856-0.533333-1.322667-1.706667-2.304-2.986666-3.072-3.072-1.877333-2.709333-4.8-2.261334-7.744 0.426667-2.794667 2.538667-3.285333 4.821334-3.690666 1.877333-0.362667 3.754667-0.256 6.016-0.298667zM428.544 461.568c-1.173333 6.293333-3.626667 11.882667-9.109333 15.744-1.984 1.386667-4.48 0.810667-6.570667 1.834667-4.373333 2.154667-8.746667 3.989333-13.909333 3.242666-2.005333-0.298667-4.224 0.149333-6.314667 0.725334-1.536 0.426667-2.858667 0.021333-4.224-1.066667-3.541333-2.837333-5.973333-5.930667-4.608-10.88 0.426667-1.514667 0.170667-3.221333 0.149333-4.842667-0.042667-6.741333 0.661333-7.722667 7.232-9.002666 3.754667-0.725333 7.530667-1.28 11.392-1.322667 3.221333-0.021333 6.442667-0.405333 9.664-0.554667 1.344-0.064 2.154667-0.853333 3.008-1.706666 3.264-3.328 6.549333-3.072 9.109334 0.704 0.448 0.64 0.874667 1.28 1.557333 1.664 2.218667 1.194667 2.816 3.093333 2.624 5.461333zM587.178667 397.973333c2.218667 0.021333 3.904 0.810667 5.482666 1.898667 2.325333 1.6 4.757333 2.986667 7.658667 3.264 0.170667 0.021333 0.362667 0.042667 0.490667 0.106667 4.010667 2.496 8.384 4.266667 12.544 6.464 1.834667 0.96 3.413333 2.474667 5.397333 3.306666 0.874667 0.362667 1.770667 0.810667 2.24 1.642667 0.896 1.6 2.24 2.346667 3.904 3.008 3.050667 1.237333 3.797333 5.568 1.301333 7.658667-3.242667 2.709333-5.738667 6.058667-8.469333 9.173333-1.344 1.536-2.730667 2.026667-4.458667 1.109333-2.325333-1.216-4.672-2.368-6.464-4.416-1.792-2.048-4.266667-3.306667-6.4-4.949333a94.8416 94.8416 0 0 1-10.794666-9.664c-0.512-0.533333-1.216-1.024-1.898667-1.216-3.434667-0.981333-5.141333-4.074667-7.658667-6.165333-1.173333-0.981333-0.810667-2.325333-0.128-3.52 1.045333-1.856 2.154667-3.669333 3.264-5.482667 0.938667-1.578667 2.368-2.346667 3.989334-2.218667zM430.848 405.376c-4.928 0-9.877333-0.021333-14.805333 0-3.221333 0-4.864-1.6-4.821334-4.821333 0-0.597333-0.106667-1.237333 0.085334-1.770667 1.194667-3.498667 0.768-7.018667 0.256-10.56-0.128-0.917333-0.064-1.898667 0.128-2.794667 0.554667-2.432 1.834667-3.093333 4.245333-2.816 5.248 0.597333 10.56 1.322667 15.36 3.264 4.224 1.706667 8.96 2.410667 12.586667 5.738667 4.010667 3.690667 4.202667 3.498667 5.802666 8.768 1.002667 3.242667-0.234667 4.949333-3.797333 4.992-5.013333 0.064-10.048 0.021333-15.061333 0.021333 0.021333 0 0.021333 0 0.021333-0.021333z" p-id="44289"></path></svg>