<?xml version="1.0" encoding="utf-8"?>
<svg version="1.1" xmlns:xlink="http://www.w3.org/1999/xlink" width="4px" height="5px" xmlns="http://www.w3.org/2000/svg">
  <g transform="matrix(1 0 0 1 -86 -1483 )">
    <path d="M 2.23193359375 4.38201904296875  C 2.19189453125 4.39453125  2.141845703125 4.39453125  2.081787109375 4.39453125  C 2.03173828125 4.39453125  1.981689453125 4.39453125  1.921630859375 4.38201904296875  C 1.87158203125 4.38201904296875  1.821533203125 4.3695068359375  1.76147460937499 4.35699462890625  C 1.71142578124999 4.344482421875  1.66137695312499 4.33197021484375  1.61132812499999 4.30694580078125  C 1.56127929687499 4.29443359375  1.51123046874999 4.2694091796875  1.461181640625 4.244384765625  C 1.4111328125 4.2193603515625  1.361083984375 4.1943359375  1.321044921875 4.15679931640625  C 1.27099609375 4.13177490234375  1.23095703125 4.09423828125  1.19091796875 4.05670166015625  C 1.15087890625 4.0191650390625  1.100830078125 3.98162841796875  1.060791015625 3.944091796875  C 1.020751953125 3.90655517578125  0.980712890624993 3.85650634765625  0.940673828124996 3.80645751953125  C 0.900634765625 3.75640869140625  0.870605468749996 3.70635986328125  0.830566406249993 3.65631103515625  C 0.800537109374993 3.60626220703125  0.770507812499993 3.55621337890625  0.740478515624996 3.49365234375  C 0.710449218749996 3.443603515625  0.680419921874993 3.38104248046875  0.660400390624996 3.33099365234375  C 0.640380859374996 3.2684326171875  0.610351562499996 3.2183837890625  0.590332031249996 3.15582275390625  C 0.570312499999996 3.09326171875  0.55029296875 3.03070068359375  0.540283203124996 2.9681396484375  C 0.520263671874996 2.90557861328125  0.510253906249996 2.843017578125  0.500244140625 2.78045654296875  C 0.490234374999996 2.7178955078125  0.480224609375 2.65533447265625  0.480224609375 2.58026123046875  C 0.470214843749996 2.5177001953125  0.470214843749996 2.45513916015625  0.470214843749996 2.38006591796875  C 0.470214843749996 2.3175048828125  0.470214843749996 2.242431640625  0.480224609375 2.17987060546875  C 0.480224609375 2.1173095703125  0.490234375000004 2.05474853515625  0.500244140625 1.9921875  C 0.510253906249996 1.92962646484375  0.520263671874996 1.8670654296875  0.540283203124996 1.80450439453125  C 0.55029296875 1.741943359375  0.570312499999996 1.67938232421875  0.590332031249996 1.6168212890625  C 0.610351562499996 1.55426025390625  0.630371093749993 1.49169921875  0.660400390624996 1.441650390625  C 0.690429687499996 1.37908935546875  0.710449218749996 1.32904052734375  0.740478515624996 1.2664794921875  C 0.770507812499996 1.2164306640625  0.800537109375 1.15386962890625  0.830566406249993 1.10382080078125  C 0.860595703124989 1.05377197265625  0.900634765624993 1.00372314453125  0.940673828124996 0.95367431640625  C 0.980712890624993 0.90362548828125  1.020751953125 0.866088867187502  1.060791015625 0.8160400390625  C 1.10083007812499 0.77850341796875  1.140869140625 0.740966796875002  1.19091796875 0.70343017578125  C 1.23095703124999 0.665893554687498  1.28100585937499 0.640869140625  1.321044921875 0.603332519531248  C 1.37109375 0.57830810546875  1.4111328125 0.540771484374998  1.461181640625 0.5157470703125  C 1.51123046874999 0.490722656250002  1.56127929687499 0.4656982421875  1.61132812499999 0.45318603515625  C 1.66137695312499 0.440673828125  1.71142578124999 0.415649414062498  1.76147460937499 0.40313720703125  C 1.81152343749999 0.390625  1.86157226562499 0.37811279296875  1.921630859375 0.37811279296875  C 2.021728515625 0.3656005859375  2.1318359375 0.3656005859375  2.23193359375 0.37811279296875  C 2.281982421875 0.37811279296875  2.33203125 0.390624999999998  2.39208984375 0.40313720703125  C 2.442138671875 0.415649414062498  2.4921875 0.428161621093748  2.542236328125 0.45318603515625  C 2.59228515625 0.4656982421875  2.642333984375 0.490722656250002  2.6923828125 0.5157470703125  C 2.742431640625 0.540771484374998  2.79248046875 0.5657958984375  2.83251953125 0.603332519531248  C 2.882568359375 0.640869140625  2.922607421875 0.665893554687498  2.97265625 0.70343017578125  C 3.01269531249999 0.740966796875002  3.06274414062499 0.77850341796875  3.102783203125 0.8160400390625  C 3.142822265625 0.853576660156252  3.182861328125 0.90362548828125  3.222900390625 0.95367431640625  C 3.26293945312499 1.00372314453125  3.29296875 1.05377197265625  3.3330078125 1.10382080078125  C 3.373046875 1.15386962890625  3.39306640625 1.20391845703125  3.423095703125 1.2664794921875  C 3.453125 1.3165283203125  3.483154296875 1.37908935546875  3.503173828125 1.441650390625  C 3.523193359375 1.50421142578125  3.55322265625 1.55426025390625  3.5732421875 1.6168212890625  C 3.59326171875 1.67938232421875  3.61328124999999 1.741943359375  3.623291015625 1.80450439453125  C 3.643310546875 1.8670654296875  3.6533203125 1.92962646484375  3.66333007812499 1.9921875  C 3.67333984375 2.05474853515625  3.68334960937499 2.1173095703125  3.68334960937499 2.17987060546875  C 3.693359375 2.242431640625  3.693359375 2.3175048828125  3.693359375 2.38006591796875  C 3.693359375 2.442626953125  3.693359375 2.50518798828125  3.68334960937499 2.58026123046875  C 3.68334960937499 2.642822265625  3.67333984374999 2.70538330078125  3.66333007812499 2.78045654296875  C 3.65332031249999 2.843017578125  3.643310546875 2.90557861328125  3.623291015625 2.9681396484375  C 3.61328124999999 3.03070068359375  3.59326171875 3.09326171875  3.5732421875 3.15582275390625  C 3.55322265625 3.2183837890625  3.533203125 3.28094482421875  3.503173828125 3.33099365234375  C 3.47314453125 3.3935546875  3.453125 3.443603515625  3.423095703125 3.49365234375  C 3.39306640625 3.543701171875  3.36303710937499 3.60626220703125  3.3330078125 3.65631103515625  C 3.302978515625 3.70635986328125  3.262939453125 3.75640869140625  3.222900390625 3.80645751953125  C 3.18286132812499 3.85650634765625  3.142822265625 3.89404296875  3.102783203125 3.944091796875  C 3.062744140625 3.98162841796875  3.022705078125 4.0191650390625  2.97265625 4.05670166015625  C 2.9326171875 4.09423828125  2.882568359375 4.13177490234375  2.83251953125 4.15679931640625  C 2.79248046875 4.1943359375  2.742431640625 4.2193603515625  2.6923828125 4.244384765625  C 2.642333984375 4.2694091796875  2.59228515625 4.29443359375  2.542236328125 4.30694580078125  C 2.4921875 4.33197021484375  2.442138671875 4.344482421875  2.39208984375 4.35699462890625  C 2.342041015625 4.3695068359375  2.2919921875 4.38201904296875  2.23193359375 4.38201904296875  Z " fill-rule="nonzero" fill="#ffffff" stroke="none" transform="matrix(1 0 0 1 86 1483 )" />
  </g>
</svg>