<?xml version="1.0" encoding="utf-8"?>
<svg version="1.1" xmlns:xlink="http://www.w3.org/1999/xlink" width="123px" height="123px" xmlns="http://www.w3.org/2000/svg">
  <g transform="matrix(1 0 0 1 -1872 -341 )">
    <path d="M 1933.5 343  C 1966.82 343  1993 369.18  1993 402.5  C 1993 435.82  1966.82 462  1933.5 462  C 1900.18 462  1874 435.82  1874 402.5  C 1874 369.18  1900.18 343  1933.5 343  Z " fill-rule="nonzero" fill="#ffffff" stroke="none" fill-opacity="0" />
    <path d="M 1933.5 342.5  C 1967.1 342.5  1993.5 368.9  1993.5 402.5  C 1993.5 436.1  1967.1 462.5  1933.5 462.5  C 1899.9 462.5  1873.5 436.1  1873.5 402.5  C 1873.5 368.9  1899.9 342.5  1933.5 342.5  Z " stroke-width="3" stroke="#ffffff" fill="none" />
  </g>
</svg>