<?xml version="1.0" encoding="utf-8"?>
<svg version="1.1" xmlns:xlink="http://www.w3.org/1999/xlink" width="28px" height="23px" xmlns="http://www.w3.org/2000/svg">
  <g transform="matrix(1 0 0 1 -206 -815 )">
    <path d="M 27 0.7709033203125  L 20.7497586523438 0.7709033203125  L 20.7497586523438 4.00091337890625  L 23.4256244140625 4.00091337890625  L 23.4256244140625 2.95336362304687  L 22.3508830859375 2.95336362304687  L 22.3487845214844 2.39766038085937  L 25.5599973242187 2.39766038085937  L 25.5599973242187 5.083509375  L 20.7497586523438 5.083509375  L 20.7481697363281 7.21209618164063  L 19.6634751464844 7.210507265625  C 19.6634751464844 7.210507265625  19.6634751464844 2.94550892578125  19.6634751464844 1  L 0.925429560546875 1  L 0.925429560546875 5.61040215820312  L 5.2035290234375 5.61040215820312  L 5.2035290234375 2.97009228515625  L 4.1308562890625 2.97009228515625  L 4.1308562890625 4.01920098632812  L 1.99390513671875 4.01920098632812  L 1.99390513671875 2.39766038085937  L 6.27982926757812 2.39766038085937  L 6.27982926757812 5.62716079101562  C 6.27982926757812 5.62716079101562  9.47949989257812 5.62716079101562  11.1036787109375 5.62716079101562  L 11.1036787109375 8.81843709960937  C 11.433305234375 8.81426991210937  13.2406298632812 8.81843709960937  13.2406298632812 8.81843709960937  L 13.2406298632812 12.5905395996094  L 18.0717643554688 12.5905395996094  L 18.0717643554688 15.2601695800781  L 20.2160005566406 15.2601695800781  L 20.2160005566406 18.4655963085937  C 20.2160005566406 18.4655963085937  23.8635974902344 18.4655963085937  25.5615562695313 18.4655963085937  L 25.5615562695313 21.1503960058594  C 24.2911076269531 21.1503960058594  21.2813582421875 21.1503960058594  21.2813582421875 21.1503960058594  L 21.2823775390625 20.6114214257812  L 21.8218617675781 20.6114214257812  L 21.8218617675781 19.546603359375  L 20.2181290917969 19.546603359375  L 20.2160005273438 22.7598847558594  L 27 22.7598847558594  L 27 0.7709033203125  Z M 11.1036787109375 2.39772032226563  L 11.1026294140625 4.01926092773438  L 7.8856905078125 4.01926092773438  L 7.8856905078125 2.39772032226563  L 11.1036787109375 2.39772032226563  Z M 22.3509130859375 9.36424705078125  L 22.3509130859375 6.69305809570312  L 25.5599973242187 6.69305809570312  L 25.5599973242187 9.36424702148437  L 22.3509130859375 9.36424705078125  Z M 18.0717643261719 10.9811108203125  C 18.0717643554688 10.9810808203125  16.0593487695312 10.9810808203125  14.8438528613281 10.9810808203125  L 14.8438528613281 8.8174477734375  L 16.4496841015625 8.8174477734375  C 16.4496841015625 7.35758756835937  16.4496841015625 4.00253229492187  16.4496841015625 4.00253229492187  L 14.8558747167969 4.00253229492187  C 14.8558747167969 4.00253229492187  14.8558747167969 6.1311191015625  14.8558747167969 7.21215618164062  C 14.0013940625 7.21215618164062  12.7094799804687 7.21215618164062  12.7094799804687 7.21215618164062  L 12.7079210351563 2.39772038085937  L 18.0701754101563 2.3977203515625  L 18.0717643261719 10.9811108203125  Z M 19.6635051464844 13.6606340917969  C 19.6635051464844 13.6606340917969  19.6635051464844 10.5823811425781  19.6635051464844 8.8174477734375  C 20.2380356152344 8.8174477734375  20.7497586523438 8.8174477734375  20.7497586523438 8.8174477734375  L 20.7497586523438 10.9769136621094  C 20.7497586523438 10.9769136621094  22.1928901953125 10.9769136621094  22.8888083691406 10.9769136621094  C 22.8888083691406 11.9663628222656  22.8888083691406 13.6606640917969  22.8888083691406 13.6606640917969  L 19.6635051464844 13.6606640625  Z M 25.5615562695313 10.9768836621094  L 25.5615562695313 16.8728661914063  L 21.81457671875 16.8728661914063  L 21.81457671875 15.2601995800781  C 21.81457671875 15.2601995800781  23.6119181152344 15.2601995800781  24.4846863769531 15.2601995800781  L 24.4846863769531 10.9768836621094  C 24.8269043457031 10.9768836621094  25.5615562695313 10.9768836621094  25.5615562695313 10.9768836621094  Z " fill-rule="nonzero" fill="#868686" stroke="none" transform="matrix(1 0 0 1 206 815 )" />
  </g>
</svg>