<?xml version="1.0" encoding="utf-8"?>
<svg version="1.1" xmlns:xlink="http://www.w3.org/1999/xlink" width="20px" height="9px" xmlns="http://www.w3.org/2000/svg">
  <g transform="matrix(1 0 0 1 -370 -874 )">
    <path d="M 16.2636067708333 5.069609375  C 15.3593936011905 5.055908203125  14.4573195684524 5.0651171875  13.5317150297619 5.0651171875  C 13.4461495535714 5.76140625  13.4497860863095 5.7676953125  14.0202938988095 5.768818359375  C 14.9976655505952 5.770615234375  15.9752511160714 5.754892578125  16.9521949404762 5.776455078125  C 17.3231212797619 5.784765625  17.4769252232143 5.675380859375  17.470079985119 5.262099609375  C 17.4506138392857 4.0983984375  17.4561755952381 2.9340234375  17.4672991071429 1.77009765625  C 17.4705078125 1.421953125  17.3644066220238 1.292578125  17.0120907738095 1.293251953125  C 12.1981770833333 1.30433268229167  7.38426339285715 1.30433268229167  2.57034970238095 1.293251953125  C 2.23129650297619 1.293251953125  2.1063709077381 1.39455078125  2.11150483630953 1.761337890625  C 2.12847532242064 2.940537109375  2.12847532242064 4.11988606770833  2.11150483630953 5.299384765625  C 2.10658482142857 5.665498046875  2.23493303571429 5.7802734375  2.57227492559524 5.7748828125  C 3.5932849702381 5.7587109375  4.61450892857143 5.76455078125  5.63573288690476 5.771962890625  C 5.90291108630953 5.773984375  6.09051339285714 5.73490234375  6.0828125 5.381591796875  C 6.07511160714286 5.01884765625  5.8447265625 5.065341796875  5.62739025297619 5.065341796875  C 4.94286644345238 5.065341796875  4.25598958333333 5.05568359375  3.57061011904762 5.069833984375  C 3.30706845238095 5.075224609375  3.2069568452381 4.983583984375  3.21123511904762 4.701474609375  C 3.22406994047619 3.981826171875  3.22406994047619 3.261953125  3.21123511904762 2.54185546875  C 3.20652901785714 2.26333984375  3.30706845238095 2.162265625  3.56868489583333 2.1631640625  C 5.24619605654762 2.169453125  6.9237785218254 2.16982747395833  8.60143229166667 2.164287109375  C 8.83673735119048 2.164287109375  8.94134114583333 2.24806640625  8.94048549107143 2.511982421875  C 8.93378286210318 4.47252278645833  8.93378286210318 6.43306315104167  8.94048549107143 8.393603515625  C 8.94048549107143 8.645166015625  8.86711309523809 8.74916015625  8.61533668154762 8.748486328125  C 5.98961743551587 8.74249674479167  3.36382688492064 8.74249674479167  0.737965029761906 8.748486328125  C 0.272916666666668 8.749833984375  0.44682849702381 8.40146484375  0.415597098214286 8.164501953125  C 0.375167410714286 7.858134765625  0.44682849702381 7.689228515625  0.805989583333334 7.692822265625  C 2.83346354166667 7.70876953125  4.86136532738095 7.700458984375  6.88905319940476 7.700234375  C 7.94150855654762 7.700234375  7.94150855654762 7.700234375  7.94150855654762 6.572470703125  C 7.94150855654762 5.606650390625  7.93188244047619 4.64240234375  7.9462146577381 3.677705078125  C 7.95113467261905 3.350673828125  7.86706659226191 3.21478515625  7.52886904761905 3.220849609375  C 6.451171875 3.240390625  5.373046875 3.228037109375  4.30604538690476 3.228037109375  C 4.09854910714286 3.883896484375  4.17149367559524 4.00046875  4.76916852678572 4.003388671875  C 5.42566964285714 4.006533203125  6.08217075892857 4.01080078125  6.73845796130953 4.002265625  C 6.99365699404762 3.998896484375  7.10638950892857 4.08671875  7.10018601190476 4.373994140625  C 7.08563988095238 5.06287109375  7.08692336309524 5.752646484375  7.10018601190476 6.440400390625  C 7.10531994047619 6.71330078125  7.02510230654762 6.8206640625  6.75236235119048 6.81931640625  C 4.98743179563492 6.8098828125  3.22235863095238 6.8098828125  1.45714285714286 6.81931640625  C 1.17434895833334 6.820888671875  1.11723400297619 6.6930859375  1.1180896577381 6.431416015625  C 1.12472098214286 4.501572265625  1.13220796130953 2.57150390625  1.11402529761905 0.641660156250003  C 1.10974702380953 0.185703125000003  1.37243303571429 0.254882812500003  1.6301990327381 0.254882812500003  L 16.8595703125 0.254882812500003  C 17.2826915922619 0.254882812500003  17.7060267857143 0.266787109375002  18.1287202380952 0.251289062500002  C 18.3973958333333 0.241406250000002  18.4806082589286 0.351689453125003  18.4793247767857 0.628183593750003  C 18.4711960565476 2.57330078125  18.4711960565476 4.51849283854167  18.4793247767857 6.463759765625  C 18.4793247767857 6.7164453125  18.405310639881 6.81931640625  18.1541759672619 6.81841796875  C 16.3744140625 6.81123046875  14.5947234623016 6.81123046875  12.8151041666667 6.81841796875  C 12.5601190476191 6.81841796875  12.488671875 6.70611328125  12.4916666666667 6.45904296875  C 12.5006510416667 5.76994140625  12.5057849702381 5.080166015625  12.4897414434524 4.3912890625  C 12.4826822916667 4.08087890625  12.6078218005952 3.995078125  12.879920014881 3.998896484375  C 13.6384579613095 4.009228515625  14.3969959077381 3.996650390625  15.1555338541667 4.00361328125  C 15.4400390625 4.006083984375  15.6317057291667 3.95330078125  15.629138764881 3.581123046875  C 15.6265718005952 3.204228515625  15.4088076636905 3.22287109375  15.1628069196429 3.22376953125  C 14.0132347470238 3.228037109375  12.8638764880952 3.225791015625  11.6713076636905 3.225791015625  C 11.662537202381 3.427939453125  11.6499162946429 3.590556640625  11.6499162946429 3.753173828125  C 11.6479910714286 4.825234375  11.6449962797619 5.89751953125  11.6499162946429 6.969580078125  C 11.6537667410714 7.74515625  11.5399646577381 7.696865234375  12.3643880208333 7.6975390625  C 14.5815321180556 7.6993359375  16.7991040426587 7.6993359375  19.0171037946429 7.6975390625  C 19.478087797619 7.6975390625  19.7474051339286 8.190107421875  19.5052548363095 8.616865234375  C 19.4624720982143 8.6930078125  19.312732514881 8.737255859375  19.2109095982143 8.73748046875  C 16.4685360863095 8.74376953125  13.7261625744048 8.739501953125  10.9835751488095 8.747138671875  C 10.7054873511905 8.747138671875  10.6357514880952 8.6211328125  10.6363932291667 8.36013671875  C 10.6410993303571 6.42999348958333  10.6410993303571 4.50007486979167  10.6363932291667 2.570380859375  C 10.6363932291667 2.2799609375  10.7290178571429 2.158896484375  11.0158761160714 2.16001953125  C 12.7664031498016 2.16780598958333  14.5169301835317 2.16780598958333  16.2674572172619 2.16001953125  C 16.5506789434524 2.158671875  16.6525018601191 2.26333984375  16.6445870535714 2.56431640625  C 16.6283296130952 3.26809244791667  16.6283296130952 3.9726171875  16.6445870535714 4.677890625  C 16.6520740327381 4.984033203125  16.5459728422619 5.0741015625  16.2636067708333 5.069609375  Z " fill-rule="nonzero" fill="#b7b7b7" stroke="none" transform="matrix(1 0 0 1 370 874 )" />
  </g>
</svg>