<?xml version="1.0" encoding="utf-8"?>
<svg version="1.1" xmlns:xlink="http://www.w3.org/1999/xlink" width="59px" height="59px" xmlns="http://www.w3.org/2000/svg">
  <defs>
    <filter x="3242px" y="1036px" width="59px" height="59px" filterUnits="userSpaceOnUse" id="filter151">
      <feOffset dx="2" dy="2" in="SourceAlpha" result="shadowOffsetInner" />
      <feGaussianBlur stdDeviation="2.5" in="shadowOffsetInner" result="shadowGaussian" />
      <feComposite in2="shadowGaussian" operator="atop" in="SourceAlpha" result="shadowComposite" />
      <feColorMatrix type="matrix" values="0 0 0 0 0  0 0 0 0 0  0 0 0 0 0  0 0 0 0.164705882352941 0  " in="shadowComposite" />
    </filter>
    <g id="widget152">
      <path d="M 3269.5 1040  C 3282.66 1040  3293 1050.34  3293 1063.5  C 3293 1076.66  3282.66 1087  3269.5 1087  C 3256.34 1087  3246 1076.66  3246 1063.5  C 3246 1050.34  3256.34 1040  3269.5 1040  Z " fill-rule="nonzero" fill="#44474d" stroke="none" />
      <path d="M 3269.5 1040  C 3282.66 1040  3293 1050.34  3293 1063.5  C 3293 1076.66  3282.66 1087  3269.5 1087  C 3256.34 1087  3246 1076.66  3246 1063.5  C 3246 1050.34  3256.34 1040  3269.5 1040  Z " stroke-width="2" stroke="#ffffff" fill="none" />
    </g>
  </defs>
  <g transform="matrix(1 0 0 1 -3242 -1036 )">
    <use xlink:href="#widget152" filter="url(#filter151)" />
    <use xlink:href="#widget152" />
  </g>
</svg>