<?xml version="1.0" encoding="utf-8"?>
<svg version="1.1" xmlns:xlink="http://www.w3.org/1999/xlink" width="28px" height="30px" xmlns="http://www.w3.org/2000/svg">
  <g transform="matrix(1 0 0 1 -3313 -1232 )">
    <path d="M 0.587890625000001 18.1102734375  C -0.399999999999999 22.55578125  1.3578125 25.7166796875  8.0515625 29.175  C 5.966796875 25.2230859375  7.063671875 22.9512890625  8.708984375 20.878828125  C 10.466796875 18.50578125  10.90625 16.233984375  10.90625 16.233984375  C 10.90625 16.233984375  12.33359375 17.816015625  11.78515625 20.3820703125  C 14.200390625 17.9141015625  14.63984375 13.9621875  14.309375 12.4782421875  C 19.797265625 15.9397265625  22.2125 23.54296875  19.02734375 29.0769140625  C 35.93046875 20.385234375  23.196875 7.44421875  21.003125 6.0615234375  C 21.773046875 7.5423046875  21.88203125 10.0134375  20.345703125 11.196796875  C 17.821484375 2.5051171875  11.563671875 0.825  11.563671875 0.825  C 12.33359375 5.2705078125  8.93046875 10.1115234375  5.636328125 13.766015625  C 5.52734375 11.9878125  5.418359375 10.8012890625  4.31796875 9.0230859375  C 4.1 12.2820703125  1.354296875 14.8512890625  0.587890625000001 18.1102734375  Z " fill-rule="nonzero" fill="#aeaeae" stroke="none" transform="matrix(1 0 0 1 3313 1232 )" />
  </g>
</svg>