<?xml version="1.0" encoding="utf-8"?>
<svg version="1.1" xmlns:xlink="http://www.w3.org/1999/xlink" width="37px" height="31px" xmlns="http://www.w3.org/2000/svg">
  <g transform="matrix(1 0 0 1 -2816 -900 )">
    <path d="M 10.5876923076923 4.09739130434783  C 15.4071795168269 4.09739130434783  28.8979487475962 4.09739130434783  31.9907692307692 22.337970986413  C 25.7904319893121 18.0176415100188  18.2851095454391 15.7048749482657  10.5876923076923 15.7426086956522  C 7.19241559950177 15.7426086956522  4.44 13.1357379868409  4.44 9.91999999999999  C 4.44 6.70426201315913  7.19241559950177 4.09739130434782  10.5876923076923 4.09739130434782  Z M 36.4307692307692 30.6405796820652  C 36.5256410552885 2.39014489945652  18.5379487475962 0.503188377717391  10.5876923076923 0.503188377717386  C 5.09656576325724 0.503188377717389  0.645128175480765 4.71923854898394  0.645128175480765 9.92  C 0.645128175480765 15.1207614510161  5.09656576325724 19.3368116222826  10.5876923076923 19.3368116222826  C 20.5302564399038 19.3368116222826  28.4805127908654 23.1107246657609  36.4307692307692 30.6405796820652  Z " fill-rule="nonzero" fill="#737373" stroke="none" transform="matrix(1 0 0 1 2816 900 )" />
  </g>
</svg>