<?xml version="1.0" encoding="utf-8"?>
<svg version="1.1" xmlns:xlink="http://www.w3.org/1999/xlink" width="24px" height="14px" xmlns="http://www.w3.org/2000/svg">
  <g transform="matrix(1 0 0 1 -3258 -1050 )">
    <path d="M 11.95439441875 5.75919000325521  C 12.0645844046875 7.91164010546875  13.223029053125 12.874820718533  21.851194421875 12.874820718533  C 22.1127002011969 12.9182498605049  22.3541422544555 13.0388162234208  22.542781528125 13.2201712526042  L 22.542781528125 11.3496399555122  C 22.5442313699163 11.2802425310797  22.544956346875 11.2108325822328  22.544956346875 11.1414208440255  C 22.544956346875 5.47863154476282  17.8231986651791 0.888033798669603  11.9986153859375 0.888033798669603  C 6.17403210669588 0.888033798669603  1.452274425 5.47863154476282  1.452274425 11.1414208440255  C 1.452274425 11.2108325822328  1.4529994019587 11.2802425310797  1.45444924375 11.3496399555122  L 1.45444924375 13.2272192469618  C 1.60769479086807 13.0945495224485  1.7807461680821 12.9852381895748  1.967702571875 12.9030126078559  C 10.3493903703125 12.9030126078559  11.7543125890625 7.91727850976562  11.95439441875 5.75919000325521  Z " fill-rule="nonzero" fill="#c9d4f8" stroke="none" transform="matrix(1 0 0 1 3258 1050 )" />
  </g>
</svg>