<?xml version="1.0" encoding="utf-8"?>
<svg version="1.1" xmlns:xlink="http://www.w3.org/1999/xlink" width="77px" height="17px" xmlns="http://www.w3.org/2000/svg">
  <g transform="matrix(1 0 0 1 -2815 -935 )">
    <path d="M 69.2266666610194 16.6033333333333  L 69.2266666610194 16.66  C 64.7261252075568 16.281543226415  60.2804351001841 15.3882686382708  55.9716666758129 13.9966666666667  C 50.2948694141404 12.1944126810463  44.4294160826865 11.0973794911467  38.5 10.728888859375  C 32.5705839173135 11.0973794911467  26.7051305858597 12.1944126810463  21.0283333241871 13.9966666666667  C 16.7195648998159 15.3882686382708  12.2738747924432 16.281543226415  7.77333333898066 16.66  C 3.48023988051036 16.66  0 13.0742983009268  0 8.65111109635416  C 0 4.2279238917815  3.48023988051036 0.642222192708333  7.77333333898066 0.642222192708333  C 12.2587793460267 0.821341021381992  16.7195128783727 1.41558489608336  21.1016667147303 2.41777780729166  C 26.8195104999843 3.71847030893312  32.6461181495495 4.44593576421931  38.5 4.59  C 44.3556726357396 4.42731462535521  50.1823011605037 3.68086913580027  55.8983332852697 2.361111140625  C 60.2804871216273 1.3589182294167  64.7412206539733 0.764674354715326  69.2266666610194 0.585555526041668  C 73.5197601194896 0.585555526041668  77 4.17125722511484  77 8.5944444296875  C 77 13.0176316342601  73.5197601194896 16.6033333333333  69.2266666610194 16.6033333333333  Z " fill-rule="nonzero" fill="#939393" stroke="none" transform="matrix(1 0 0 1 2815 935 )" />
  </g>
</svg>