<?xml version="1.0" encoding="utf-8"?>
<svg version="1.1" xmlns:xlink="http://www.w3.org/1999/xlink" width="14px" height="14px" xmlns="http://www.w3.org/2000/svg">
  <g transform="matrix(1 0 0 1 -2829 -920 )">
    <path d="M 4.2933333625 7.0466666375  C 4.2933333625 5.53119728396431  5.5218640089643 4.3026666375  7.0373333625 4.3026666375  C 7.04353460677235 4.30262487692677  7.04973597407931 4.30260399646261  7.0559373589626 4.30260399646261  C 8.58171601172017 4.30260399646261  9.8186039964626 5.53949198120504  9.8186039964626 7.06527063396261  C 9.8186039964626 8.59104928672017  8.58171601172017 9.82793727146261  7.0559373589626 9.82793727146261  C 5.53015870620504 9.82793727146261  4.29327072146261 8.59104928672017  4.29327072146261 7.06527063396261  C 4.29327072146261 7.05906924907931  4.29329160192677 7.05286788177235  4.2933333625 7.0466666375  Z M 7.05600000005549 0.569306465313961  C 7.04977777784913 0.569306465313961  7.04355555886852 0.56931543105195  7.0373333625 0.569333362500004  C 3.44971844774538 0.569333362444636  0.541360182646209 3.4776916275438  0.541360182646209 7.06533336244464  C 0.541360182646209 10.6529750973455  3.44971844774538 13.5613333624446  7.03736018264621 13.5613333624446  C 10.625001917547 13.5613333624446  13.5333601826462 10.6529750973455  13.5333601826462 7.06533336244464  C 13.5333601826462 7.05911111116233  13.5333512425882 7.0528888630924  13.5333333625 7.0466666375  C 13.5333333625555 3.469307392135  10.6333324357344 0.569306465313961  7.05600000005549 0.569306465313961  Z " fill-rule="nonzero" fill="#737373" stroke="none" transform="matrix(1 0 0 1 2829 920 )" />
  </g>
</svg>