<?xml version="1.0" encoding="utf-8"?>
<svg version="1.1" xmlns:xlink="http://www.w3.org/1999/xlink" width="37px" height="31px" xmlns="http://www.w3.org/2000/svg">
  <g transform="matrix(1 0 0 1 -2855 -901 )">
    <path d="M 5.00923076923077 22.337970986413  C 8.06410259375 4.11536229076087  21.5928204831731 4.09739130434783  26.4123076923077 4.09739130434783  C 29.8075844004982 4.09739130434783  32.56 6.70426201315913  32.56 9.92  C 32.56 13.1357379868409  29.8075844004982 15.7426086956522  26.4123076923077 15.7426086956522  C 18.7148904545609 15.7048749482657  11.2095680106879 18.0176415100188  5.00923076923077 22.337970986413  Z M 26.4123076923077 0.503188377717391  C 18.4620512524038 0.503188377717391  0.569230769230777 2.39014489945652  0.569230769230777 30.6405796820652  C 8.51948720913462 23.1107245815217  16.4697435600962 19.3368115380435  26.4123076923077 19.3368116222826  C 31.9034342367428 19.3368116222826  36.3548718245192 15.1207614510161  36.3548718245192 9.92  C 36.3548718245192 4.71923854898394  31.9034342367428 0.503188377717396  26.4123076923077 0.503188377717396  Z " fill-rule="nonzero" fill="#737373" stroke="none" transform="matrix(1 0 0 1 2855 901 )" />
  </g>
</svg>