<?xml version="1.0" encoding="utf-8"?>
<svg version="1.1" xmlns:xlink="http://www.w3.org/1999/xlink" width="83px" height="21px" xmlns="http://www.w3.org/2000/svg">
  <g transform="matrix(1 0 0 1 -2813 -934 )">
    <path d="M 72.058079125 3.80689655172414  L 72.058079125 3.84367818965518  C 75.374034206018 3.84367818965518  78.0621469216102 6.51144354238755  78.0621469216102 9.80229887931035  C 78.0621469216102 13.0931542162331  75.374034206018 15.7609195689655  72.058079125 15.7609195689655  C 67.6563708267138 15.3799450089456  63.3079874699539 14.5353461163193  59.086327654661 13.2413793103448  C 53.211948450546 11.436185056597  47.1390206389832 10.3431811333787  41 9.98620689655173  C 34.8484945929371 10.3402312126497  28.7629452227914 11.4332669315596  22.8766101694915 13.2413793103448  C 18.654950382329 14.5353461103324  14.3065670550051 15.3799450028971  9.90485878601695 15.7609195689655  C 6.58890370499898 15.7609195689655  3.90079098940678 13.0931542162331  3.90079098940678 9.80229887931035  C 3.90079098940678 6.51144354238755  6.58890370499898 3.84367818965518  9.90485878601695 3.84367818965518  C 14.3215513576197 4.01605744411488  18.7131381039701 4.58855193165426  23.024858786017 5.55402301724139  C 28.9361664283159 6.82143156064075  34.9542478769991 7.53567203633376  41 7.68735629310345  C 47.0345087293634 7.52128325882671  53.0400874044924 6.79473969984041  58.938079125 5.51724137931035  C 63.2497998070469 4.55177029372321  67.6413865533972 3.97927580618384  72.058079125 3.80689655172414  Z M 72.058079125 0.165517241379326  L 72.058079125 0.128735603448276  C 62.7925423728814 0.128735603448276  52.6560452266949 3.97241379310345  41 3.97241379310345  C 29.3439547733051 3.97241379310345  19.2815818919491 0.165517241379317  9.94192087499999 0.165517241379326  C 4.57943860760781 0.166020592471655  0.232556770705575 4.48040724341846  0.232556770705575 9.80229883620691  C 0.232556770705575 15.1241904289954  4.57943860760781 19.4385770799422  9.94192087499999 19.4390804310345  C 17.7064406779661 19.4390804310345  31.2897174851695 13.6643677586207  41 13.6643678448276  C 50.7102825148305 13.6643679310345  64.2935593220339 19.4390805172414  72.058079125 19.4390804310345  C 77.4218384850256 19.4390804741379  81.7692800503666 15.1245463722856  81.7692800503666 9.80229883620691  C 81.7692800503666 4.48005130012818  77.4218384850256 0.165517198275873  72.0589975355361 0.165517198275873  Z " fill-rule="nonzero" fill="#737373" stroke="none" transform="matrix(1 0 0 1 2813 934 )" />
  </g>
</svg>