<?xml version="1.0" encoding="utf-8"?>
<svg version="1.1" xmlns:xlink="http://www.w3.org/1999/xlink" width="14px" height="14px" xmlns="http://www.w3.org/2000/svg">
  <g transform="matrix(1 0 0 1 -2858 -929 )">
    <path d="M 4.1533333625 6.9066666375  C 4.1533333625 5.41181593073296  5.36514929323296 4.2  6.86000000000001 4.2  C 8.35485070676704 4.2  9.5666666375 5.41181593073296  9.5666666375 6.9066666375  C 9.5666666375 8.40151734426704  8.35485070676704 9.613333275  6.86000000000001 9.613333275  C 5.36514929323296 9.613333275  4.1533333625 8.40151734426704  4.1533333625 6.9066666375  Z M 6.87869384841471 0.466639426585291  C 6.87246255570821 0.466639426585291  6.86623126630089 0.466648496899805  6.86 0.466666637500003  C 3.30328621108969 0.466666637500003  0.419999999999996 3.3499528485897  0.419999999999996 6.9066666375  C 0.419999999999996 10.4633804264103  3.30328621108969 13.3466666375  6.86 13.3466666375  C 10.4167137889103 13.3466666375  13.3 10.4633804264103  13.3 6.9066666375  C 13.3000181406002 6.90043537119778  13.3000272109147 6.8942040817931  13.3000272109147 6.88797278908529  C 13.3000272109147 3.34156829939685  10.4250983381031 0.466639426585291  6.87869384841471 0.466639426585291  Z " fill-rule="nonzero" fill="#737373" stroke="none" transform="matrix(1 0 0 1 2858 929 )" />
  </g>
</svg>