<?xml version="1.0" encoding="utf-8"?>
<svg version="1.1" xmlns:xlink="http://www.w3.org/1999/xlink" width="11px" height="11px" xmlns="http://www.w3.org/2000/svg">
  <g transform="matrix(1 0 0 1 -103 -36 )">
    <path d="M 5.5 2.69101447282608  C 6.97828218038042 2.69101447282608  8.17666666666666 3.94150263242912  8.17666666666666 5.48405795108695  C 8.17666666666666 7.02661326974479  6.97828218038042 8.27710142934782  5.5 8.27710142934782  C 4.02171781961957 8.27710142934782  2.82333333333334 7.02661326974479  2.82333333333333 5.48405795108696  C 2.82333333333333 3.94150263242912  4.02171781961957 2.69101447282608  5.5 2.69101447282608  Z M 10.6211111302083 5.48405795108695  C 10.621111098567 2.53277632636102  8.32831155702901 0.140289875000001  5.5 0.140289874999995  C 2.6716884205972 0.140289874999991  0.378888869791664 2.53277636279707  0.378888869791664 5.48405801086955  C 0.378888869791664 8.43533965894204  2.6716884205972 10.8278261467391  5.5 10.8278261467391  C 8.3283115794028 10.8278261467391  10.6211111302083 8.43533965894204  10.6211111302083 5.48405801086955  Z " fill-rule="nonzero" fill="#737373" stroke="none" transform="matrix(1 0 0 1 103 36 )" />
  </g>
</svg>