<?xml version="1.0" encoding="utf-8"?>
<svg version="1.1" xmlns:xlink="http://www.w3.org/1999/xlink" width="9px" height="9px" xmlns="http://www.w3.org/2000/svg">
  <g transform="matrix(1 0 0 1 -97 -41 )">
    <path d="M 2.72999998125 4.5  C 2.72999998125 3.50588745030457  3.53588743155457 2.7  4.52999998125 2.7  C 5.52411253094543 2.7  6.32999998125 3.50588745030457  6.32999998125 4.5  C 6.32999998125 5.49411254969543  5.52411253094543 6.3  4.52999998125 6.3  C 3.53588743155457 6.3  2.72999998125 5.49411254969543  2.72999998125 4.5  Z M 4.52999998125 0.299999981250002  C 2.21040402160534 0.299999981250002  0.329999962500007 2.18040404035533  0.329999962500007 4.50000000000001  C 0.329999962500007 6.81959595964468  2.21040402160534 8.70000001875001  4.52999998125 8.70000001875001  C 6.84959594089468 8.70000001875001  8.73000000000001 6.81959595964468  8.73000000000001 4.50000000000001  C 8.73000000000001 2.18040404035533  6.84959594089468 0.299999981250002  4.52999998125 0.299999981250002  Z " fill-rule="nonzero" fill="#737373" stroke="none" transform="matrix(1 0 0 1 97 41 )" />
  </g>
</svg>