<?xml version="1.0" encoding="utf-8"?>
<svg version="1.1" xmlns:xlink="http://www.w3.org/1999/xlink" width="356px" height="36px" xmlns="http://www.w3.org/2000/svg">
  <g transform="matrix(1 0 0 1 -11 -498 )">
    <path d="M 353.337262006734 34.4701459316037  C 350.814289712311 35.1553876768868  348.204160193171 35.5026385613207  345.577975395794 35.5026385613207  C 327.293307094754 35.5026385613207  316.478930396385 27.4765131191038  315.910114824551 13.4799874705189  L 315.907821213374 13.3665521816038  L 315.880297879253 9.33149690448113  C 315.878004268076 8.90090580778309  315.859655378663 8.47031471108489  315.827544822188 8.03972361438684  C 315.215150637996 9.14166642099061  314.419267559664 10.750595518868  313.423840308956 13.0910664799528  C 312.990906906283 14.1133980010707  311.995515240478 14.7765028020369  310.893987181002 15  L 44.7267389089083 15  C 43.625805544069 14.7763907724056  42.6303782933601 14.114299086085  42.1968857809547 13.0910664799528  C 41.2037521414226 10.7482805129716  40.4078690630908 9.13935141509439  39.7931812677221 8.03740860849062  C 39.7610707112476 8.46799970518867  39.7404282106569 8.90322081367931  39.7404282106569 9.31297685731137  L 39.712904876536 13.3665521816038  C 39.712904876536 13.4035922759433  39.712904876536 13.4429473761792  39.7106112653592 13.4799874705189  C 39.1395020823488 27.4741981132075  28.327418995156 35.5026385613207  10.0404570829395 35.5026385613207  C 7.41427228556234 35.5026385613207  4.80414276642254 35.1530726709905  2.2811704719991 34.4655159198113  C 1.32370715331475 34.2143730531951  0.573336145062297 33.4640725812863  0.315545693525453 32.500075913915  C 0.0573176428573572 31.5357744123431  0.332359518505543 30.5057977045655  1.03573960302457 29.8030940448114  C 1.7375846231096 29.1016472582548  2.76282881911624 28.8331065742925  3.71467745746696 29.1016472582548  C 5.77204668301046 29.6618786851415  7.89822424385638 29.9466244103773  10.0404570829395 29.9466244103773  C 20.7401532224717 29.9466244103773  33.6118991463847 27.0574970518867  34.2059444411625 13.3086770341982  L 34.2334677752836 9.29214180424523  C 34.2334677752836 5.63211748231131  34.9215511283081 1.10165094339626  38.1945342775283 0.423354215801874  C 41.4377004814509 -0.241052476415033  43.8528730505671 3.22914136202837  46.5249300714792 9.22037662146225  L 309.093502407254 9.22037662146225  C 311.765559428166 3.22914136202837  314.180731997283 -0.243367482311253  317.423898201205 0.423354215801874  C 320.699174961602 1.10165094339626  321.38496470345 5.63211748231131  321.38496470345 9.31297685731137  L 321.412488037571 13.3086770341982  C 322.006533332349 27.059812057783  334.878279256262 29.9489394162735  345.577975395794 29.9489394162735  C 347.7179146237 29.9489394162735  349.846385795723 29.6641936910377  351.90146141009 29.103962264151  C 353.369372563209 28.7034662441038  354.880862328686 29.5808534787736  355.277657062264 31.0624572523584  C 355.674451795841 32.5440610259434  354.80746677103 34.0696499115565  353.337262006734 34.4701459316037  Z " fill-rule="nonzero" fill="#9f9f9f" stroke="none" transform="matrix(1 0 0 1 11 498 )" />
  </g>
</svg>