<?xml version="1.0" encoding="utf-8"?>
<svg version="1.1" xmlns:xlink="http://www.w3.org/1999/xlink" width="356px" height="25px" xmlns="http://www.w3.org/2000/svg">
  <g transform="matrix(1 0 0 1 -10 -526 )">
    <path d="M 318.960617689627 24.9804357580237  C 318.926213521975 24.982738597973  318.891809354324 24.982738597973  318.85969879785 25  L 36.7610272920605 25  L 36.664695622637 24.9804357580237  C 8.04501535916821 24.7708773226351  0.707753204749485 5.01020771748315  0.407290140595457 4.16506545608107  C -0.106478762996232 2.72809332770269  0.636651258270315 1.14604228251695  2.06786463256144 0.630206133868299  C 3.49907800685256 0.114369985219644  5.07478888527876 0.860490128800731  5.58855778887045 2.29746225717912  C 5.84314862948963 2.99752560177369  12.152872976725 19.4559227195946  37.1257114691635 19  L 318.495014620747 19  C 343.467853113185 19.4559227195946  349.775283849244 2.999828441723  350.034461912216 2.29746225717912  C 350.555111649338 0.867398648648686  352.130822527765 0.130489864864871  353.557448679702 0.646326013513526  C 354.981781220463 1.15985932221286  355.72491124173 2.73500184755065  355.218023171668 4.16506545608107  C 354.917560107514 5.01251055743247  347.578004341919 24.7708773226351  318.960617689627 24.9804357580237  Z " fill-rule="nonzero" fill="#9f9f9f" stroke="none" transform="matrix(1 0 0 1 10 526 )" />
  </g>
</svg>