<?xml version="1.0" encoding="utf-8"?>
<svg version="1.1" xmlns:xlink="http://www.w3.org/1999/xlink" width="357px" height="38px" xmlns="http://www.w3.org/2000/svg">
  <g transform="matrix(1 0 0 1 -10 -501 )">
    <path d="M 332.282190134876 37.8033919270833  L 332.227092994546 37.8011197916667  L 25.0163645341981 37.8011197916667  C 11.9835951319281 37.7329557291667  2.11661558446343 30.3394270833332  1.70109131780663 30.0236002604167  C 0.523389943248772 29.0965690104167  0.314479952830238 27.4061002604167  1.23046991081963 26.2268619791666  C 2.14645986880902 25.0453515624999  3.84987979068392 24.8113216145833  5.05972116376763 25.6974544270834  C 5.23649115566031 25.82923828125  14.0589207510318 32.3479947916667  25.200021668632 32  L 332.100828714623 32  C 343.299322486733 32.3479947916667  352.156187794811 25.76107421875  352.243424933667 25.6951822916667  C 353.453266306751 24.8340429687499  355.133729086822 25.07943359375  356.04053618809 26.2495833333332  C 356.947343289357 27.4197330729166  356.749911869841 29.0920247395834  355.595167637087 30.0236002604167  C 355.17964337043 30.3416992187501  345.312663822966 37.7329557291667  332.282190134876 37.8033919270833  Z M 62.6040928102889 7.54763671874995  C 62.6040928102889 9.05406250000002  61.3689985812204 10.2764713541666  59.8469400795991 10.2764713541666  C 58.3248815779775 10.2764713541666  57.0920830630896 9.05406250000002  57.0920830630896 7.54763671874995  L 57.0920830630896 2.92838541666667  C 57.0920830630896 1.95363932291669  57.6155058962264 1.05387369791667  58.4695115713443 0.565364583333273  C 59.3235172464623 0.0791276041666909  60.3726586269163 0.0791276041666909  61.2266643020342 0.565364583333273  C 62.0806699771521 1.05387369791667  62.6040928102889 1.95363932291669  62.6040928102889 2.92838541666667  L 62.6040928102889 7.54763671874995  Z M 76.3829693211969 7.54763671874995  C 76.3829693211969 9.05406250000002  75.150170806309 10.2764713541666  73.6281123046875 10.2764713541666  C 72.1060538030659 10.2764713541666  70.8709595739976 9.05406250000002  70.8709595739976 7.54763671874995  L 70.8709595739976 2.92838541666667  C 70.8709595739976 1.95363932291669  71.3966781213148 1.05387369791667  72.2483880822523 0.565364583333273  C 73.1000980431899 0.0791276041666909  74.1515351378243 0.0791276041666909  75.0055408129422 0.565364583333273  C 75.8572507738797 1.05387369791667  76.3829693211969 1.95363932291669  76.3829693211969 2.92838541666667  L 76.3829693211969 7.54763671874995  Z M 90.1618458321049 7.54763671874995  C 90.1618458321049 9.05406250000002  88.9267516030366 10.2764713541666  87.4046931014151 10.2764713541666  C 85.8826345997937 10.2764713541666  84.6498360849056 9.05406250000002  84.6498360849056 7.54763671874995  L 84.6498360849056 2.92838541666667  C 84.6498360849056 1.42195963541659  85.8826345997937 0.199550781250006  87.4046931014151 0.199550781250006  C 88.9267516030366 0.199550781250006  90.1618458321049 1.42195963541659  90.1618458321049 2.92838541666667  L 90.1618458321049 7.54763671874995  Z M 103.940722343013 7.54763671874995  C 103.940722343013 9.05406250000002  102.707923828125 10.2764713541666  101.185865326504 10.2764713541666  C 99.6638068248821 10.2764713541666  98.4287125958136 9.05406250000002  98.4287125958136 7.54763671874995  L 98.4287125958136 2.92838541666667  C 98.4287125958136 1.42195963541659  99.6638068248821 0.199550781250006  101.185865326504 0.199550781250006  C 102.707923828125 0.199550781250006  103.940722343013 1.42195963541659  103.940722343013 2.92838541666667  L 103.940722343013 7.54763671874995  Z M 117.717303139741 7.54763671874995  C 117.719598853921 9.05406250000002  116.484504624853 10.2764713541666  114.962446123231 10.2764713541666  C 113.44038762161 10.2764713541666  112.207589106722 9.05406250000002  112.207589106722 7.54763671874995  L 112.207589106722 2.92838541666667  C 112.207589106722 1.95363932291669  112.733307654039 1.05387369791667  113.585017614976 0.567636718749933  C 114.436727575914 0.0813997395833515  115.488164670548 0.0813997395833515  116.339874631486 0.567636718749933  C 117.191584592423 1.05387369791667  117.717303139741 1.95591145833335  117.717303139741 2.92838541666667  L 117.717303139741 7.54763671874995  Z M 131.496179650649 7.54763671874995  C 131.496179650649 9.05406250000002  130.263381135761 10.2764713541666  128.741322634139 10.2764713541666  C 127.219264132518 10.2764713541666  125.984169903449 9.05406250000002  125.984169903449 7.54763671874995  L 125.984169903449 2.92838541666667  C 125.984169903449 1.95363932291669  126.509888450766 1.05387369791667  127.361598411704 0.567636718749933  C 128.213308372641 0.0813997395833515  129.264745467276 0.0813997395833515  130.118751142394 0.567636718749933  C 130.970461103331 1.05387369791667  131.496179650649 1.95591145833335  131.496179650649 2.92838541666667  L 131.496179650649 7.54763671874995  Z M 145.275056161557 7.54763671874995  C 145.277351875737 9.05406250000002  144.042257646669 10.2764713541666  142.520199145047 10.2764713541666  C 140.998140643426 10.2764713541666  139.765342128538 9.05406250000002  139.765342128538 7.54763671874995  L 139.765342128538 2.92838541666667  C 139.765342128538 1.95363932291669  140.291060675855 1.05387369791667  141.142770636792 0.567636718749933  C 141.99448059773 0.0813997395833515  143.045917692364 0.0813997395833515  143.897627653302 0.567636718749933  C 144.749337614239 1.05387369791667  145.275056161557 1.95591145833335  145.275056161557 2.92838541666667  L 145.275056161557 7.54763671874995  Z " fill-rule="nonzero" fill="#9f9f9f" stroke="none" transform="matrix(1 0 0 1 10 501 )" />
  </g>
</svg>