<?xml version="1.0" encoding="utf-8"?>
<svg version="1.1" xmlns:xlink="http://www.w3.org/1999/xlink" width="9px" height="21px" xmlns="http://www.w3.org/2000/svg">
  <g transform="matrix(1 0 0 1 -350 -738 )">
    <path d="M 0 15.75  L 0 0.194444444444444  L 0.5625 0.194444444444444  L 0.5625 15.75  L 0 15.75  Z M 1.3725 16.625  L 1.3725 1.06944444444444  L 2 1.06944444444444  L 2 16.625  L 1.3725 16.625  Z M 2.71875 17.5  L 2.71875 1.94444444444444  L 3.28125 1.94444444444444  L 3.28125 17.5  L 2.71875 17.5  Z M 4 18.375  L 4 2.81944444444444  L 4.6875 2.81944444444444  L 4.6875 18.375  L 4 18.375  Z M 5.53125 19.25  L 5.53125 3.69444444444444  L 6 3.69444444444444  L 6 19.25  L 5.53125 19.25  Z M 6.84375 20.125  L 6.84375 4.56944444444444  L 7.40625 4.56944444444444  L 7.40625 20.125  L 6.84375 20.125  Z M 8.25 20.9027777777778  L 8.25 5.34722222222222  L 8.8125 5.34722222222222  L 8.8125 20.9027777777778  L 8.25 20.9027777777778  Z " fill-rule="nonzero" fill="#919191" stroke="none" transform="matrix(1 0 0 1 350 738 )" />
  </g>
</svg>