<?xml version="1.0" encoding="utf-8"?>
<svg version="1.1" xmlns:xlink="http://www.w3.org/1999/xlink" width="12px" height="22px" xmlns="http://www.w3.org/2000/svg">
  <g transform="matrix(1 0 0 1 -359 -738 )">
    <path d="M 0.7 21.9017857142857  L 0.7 6.1875  L 1.3 6.1875  L 1.3 21.9017857142857  L 0.7 21.9017857142857  Z M 2 21.1160714285714  L 2 5.40178571428571  L 2.7 5.40178571428571  L 2.7 21.1160714285714  L 2 21.1160714285714  Z M 3.6 20.3303571428571  L 3.6 4.61607142857143  L 4.2 4.61607142857143  L 4.2 20.3303571428571  L 3.6 20.3303571428571  Z M 5 19.4464285714286  L 5 3.73214285714286  L 5.6 3.73214285714286  L 5.6 19.4464285714286  L 5 19.4464285714286  Z M 6.5 18.5625  L 6.5 2.84821428571429  L 7 2.84821428571429  L 7 18.5625  L 6.5 18.5625  Z M 8 17.6785714285714  L 8 1.96428571428571  L 8.6 1.96428571428571  L 8.6 17.6785714285714  L 8 17.6785714285714  Z M 9.436 16.7946428571429  L 9.436 1.08035714285714  L 10 1.08035714285714  L 10 16.7946428571429  L 9.436 16.7946428571429  Z M 11 15.9107142857143  L 11 0.196428571428571  L 11.5 0.196428571428571  L 11.5 15.9107142857143  L 11 15.9107142857143  Z " fill-rule="nonzero" fill="#bdbdbd" stroke="none" transform="matrix(1 0 0 1 359 738 )" />
  </g>
</svg>