<?xml version="1.0" encoding="utf-8"?>
<svg version="1.1" xmlns:xlink="http://www.w3.org/1999/xlink" width="129px" height="130px" xmlns="http://www.w3.org/2000/svg">
  <g transform="matrix(1 0 0 1 -222 -37 )">
    <path d="M 84.1923165957446 102.279949473684  C 84.1923165957446 105.345667823023  84.1923165957446 93.4633361880317  84.1923165957446 102.279949473684  Z M 75.9696919148936 126.928168421053  C 75.8115982978724 126.085658947368  75.0088340425532 125.526905263158  74.1603982978723 125.661776842105  C 70.1026621276597 126.304606315789  65.9588527659574 126.539317894737  61.8185565957446 126.358905263158  C 45.4892425531915 125.649515789474  30.4158944680852 118.641448421053  19.3739336170213 106.625616842105  C 8.33197276595748 94.6097852631579  2.64235914893614 79.0277389473684  3.35378042553195 62.7450610526316  C 3.54876255319147 58.2715284210526  4.23032170212766 53.8417852631579  5.38089191489359 49.5556715789473  C 5.60397957446811 48.7271747368421  5.12969872340422 47.8724042105263  4.30409872340427 47.6289347368421  C 3.45390638297871 47.3784589473684  2.55979914893615 47.8724042105263  2.3314417021277 48.7254231578947  C 1.11939063829785 53.2392421052632  0.400942978723437 57.9019452631579  0.195421276595757 62.6084378947368  C -0.182246808510604 71.2612378947368  1.14925276595747 79.7318736842105  4.15654468085105 87.7803789473684  C 7.06019744680848 95.5556378947368  11.3972323404255 102.612749473684  17.0429310638297 108.755536842105  C 22.688629787234 114.898324210526  29.3619370212766 119.820261052632  36.8766536170213 123.381221052632  C 44.6566161702128 127.068294736842  53.0022025531915 129.129903157895  61.6815421276596 129.506492631579  C 62.6265906382978 129.548530526316  63.5733957446808 129.567797894737  64.5184442553191 129.567797894737  C 67.9279965957447 129.567797894737  71.3270093617022 129.301557894737  74.6715676595744 128.770829473684  C 75.5463523404255 128.632454736842  76.1312987234042 127.7952  75.9696919148936 126.928168421053  Z M 128.771203404255 68.1959747368421  C 129.150628085106 59.5431747368421  127.819128510638 51.0742905263158  124.811836595745 43.0240336842106  C 121.908183829787 35.2487747368421  117.572905531915 28.1916631578948  111.925450212766 22.0488757894737  C 106.279751489362 15.9060884210526  99.6064442553192 10.9841515789474  92.0917276595744 7.42319157894738  C 84.3117651063829 3.73611789473682  75.9661787234042 1.67450947368421  67.2868391489361 1.29616842105264  C 61.8150434042552 1.05795368421053  56.3643268085107 1.50810947368421  51.0558944680851 2.63262315789472  C 50.1898927659575 2.81653894736844  49.6471046808511 3.68181894736843  49.8543829787234 4.54009263157898  C 50.054634893617 5.37384421052628  50.885504680851 5.89056000000001  51.7269140425533 5.71365052631581  C 56.7683438297872 4.64693894736845  61.9485446808511 4.22130526315786  67.1480680851065 4.44550736842108  C 100.855383829787 5.91157894736841  127.083114893617 34.4483031578948  125.612844255319 68.0593515789474  C 125.191261276596 77.6912842105263  122.477320851064 87.1305431578947  117.745051914894 95.4593010526316  C 117.321712340425 96.2054736842106  117.564122553191 97.1513263157895  118.301892765957 97.5927242105264  C 119.06074212766 98.0481347368422  120.05146212766 97.7941557894737  120.488854468085 97.025212631579  C 125.47056 88.2603115789474  128.328541276596 78.327107368421  128.771203404255 68.1959747368421  Z M 14.5485651063829 64.4913852631579  C 14.5415387234043 64.981827368421  14.9350161702128 65.3864421052632  15.4286195744681 65.3864421052632  C 15.9064136170213 65.3864421052632  16.2981344680851 65.0063494736842  16.3051608510638 64.52992  C 16.5423012765957 51.5297010526316  22.1809736170212 39.1127578947369  31.8563029787234 30.3496084210526  C 37.1278468085106 25.5748042105263  43.4990195744681 21.99808  50.2935319148936 19.9977768421053  C 50.3866314893616 19.9697515789474  50.4393293617021 19.8751663157895  50.4112238297872 19.782332631579  L 50.0177463829787 18.43712  C 49.9896408510638 18.3442863157895  49.8912714893617 18.2899873684211  49.7981719148937 18.3180126315789  C 42.7507097872341 20.3918821052632  36.1423965957447 24.1034778947368  30.6741140425532 29.0551915789474  C 25.6449804255319 33.6110484210526  21.6803438297873 39.03744  18.8908697872341 45.1854821052632  C 16.1259880851064 51.2792252631579  14.6662570212766 57.7705768421052  14.5485651063829 64.4913852631579  Z M 72.0472136170212 18.7891873684211  C 77.2326842553191 19.7000084210526  82.1968238297872 21.4585936842105  86.8043744680851 24.0176505263158  C 89.8940742530347 25.7338841258234  92.7821997007644 27.7883374030473  95.4152068085107 30.1429221052631  C 95.7700391489362 30.4599578947369  96.3163404255319 30.4336842105263  96.6413106382979 30.08512  C 96.9768204255318 29.7242947368421  96.9487148936171 29.1620378947368  96.5815863829786 28.8327410526316  C 93.8525556186587 26.3936654773404  90.8596082044859 24.2652245638692  87.6580799999999 22.4867705263158  C 82.8783829787235 19.8331284210527  77.7280442553192 18.0079831578947  72.3475914893617 17.0638821052632  C 72.3372403614504 17.0619967672441  72.3267395084313 17.061048309233  72.3162171161685 17.061048309233  C 72.2304865283632 17.061048309233  72.1574381817622 17.1231102280637  72.1438263829787 17.2075115789474  L 71.9049293617022 18.5877557894737  C 71.88912 18.6823410526316  71.9523574468085 18.7716715789474  72.0472136170212 18.7891873684211  Z M 59.3137026654564 17.8935069539474  C 59.3137026654564 18.6217910795317  59.7536669825259 19.2783636544673  60.428440930851 19.5570658947368  C 60.647528288362 19.6475556617241  60.8823446808996 19.6941301444307  61.1194831236703 19.6941301444307  C 62.1167881322842 19.6941301444307  62.9252635818841 18.887963682243  62.9252635818841 17.8935069539474  C 62.9252635818841 17.1652228283629  62.4852992648146 16.5086502534275  61.8105253164893 16.2299480131579  C 61.5914379589784 16.1394582461706  61.3566215664408 16.092883763464  61.1194831236703 16.092883763464  C 60.1221781150562 16.092883763464  59.3137026654564 16.8990502256517  59.3137026654564 17.8935069539474  Z " fill-rule="nonzero" fill="#ffffff" stroke="none" fill-opacity="0.12156862745098" transform="matrix(1 0 0 1 222 37 )" />
  </g>
</svg>