<?xml version="1.0" encoding="utf-8"?>
<svg version="1.1" xmlns:xlink="http://www.w3.org/1999/xlink" width="4px" height="32px" xmlns="http://www.w3.org/2000/svg">
  <g transform="matrix(1 0 0 1 -359 -674 )">
    <path d="M 3.10000000000002 30.3603125  C 3.10000000000002 29.9178125  2.66700000000003 29.553125  2.10000000000002 29.481875  L 2.10000000000002 3.29343749999998  C 3.40800000000002 2.77968750000002  3.40899999999999 1.42593749999997  3.40899999999999 1.42593749999997  C 3.20000000000005 -0.65625  0.5 -0.28125  0.386999999999944 1.426875  C 0.302999999999997 2.685  1.30200000000002 3.17812500000002  1.70000000000005 3.32437499999997  L 1.70000000000005 29.4828125  C 1.13300000000004 29.5540625  0.700000000000045 29.91875  0.700000000000045 30.3603125  C 0.700000000000045 30.8525  1.23699999999997 31.2509375  1.89999999999998 31.2509375  C 2.56299999999999 31.2509375  3.10000000000002 30.8525  3.10000000000002 30.3603125  Z M 1.87599999999998 2.91281249999997  C 1.87599999999998 2.91374999999999  0.769000000000005 2.78156250000001  0.83299999999997 1.45687500000003  C 0.897000000000048 0.132187499999986  2.90700000000004 0.0187500000000114  2.98299999999995 1.45687500000003  C 2.98299999999995 1.45687500000003  3.18299999999999 2.54812500000003  1.87599999999998 2.91281249999997  Z " fill-rule="nonzero" fill="#777777" stroke="none" transform="matrix(1 0 0 1 359 674 )" />
  </g>
</svg>