<?xml version="1.0" encoding="utf-8"?>
<svg version="1.1" xmlns:xlink="http://www.w3.org/1999/xlink" width="50px" height="50px" xmlns="http://www.w3.org/2000/svg">
  <defs>
    <filter x="71px" y="638px" width="50px" height="50px" filterUnits="userSpaceOnUse" id="filter201">
      <feOffset dx="2" dy="2" in="SourceAlpha" result="shadowOffsetInner" />
      <feGaussianBlur stdDeviation="2.5" in="shadowOffsetInner" result="shadowGaussian" />
      <feComposite in2="shadowGaussian" operator="atop" in="SourceAlpha" result="shadowComposite" />
      <feColorMatrix type="matrix" values="0 0 0 0 0  0 0 0 0 0  0 0 0 0 0  0 0 0 0.164705882352941 0  " in="shadowComposite" />
    </filter>
    <g id="widget202">
      <path d="M 94 642  C 104.64 642  113 650.36  113 661  C 113 671.64  104.64 680  94 680  C 83.36 680  75 671.64  75 661  C 75 650.36  83.36 642  94 642  Z " fill-rule="nonzero" fill="#44474d" stroke="none" />
      <path d="M 94 642  C 104.64 642  113 650.36  113 661  C 113 671.64  104.64 680  94 680  C 83.36 680  75 671.64  75 661  C 75 650.36  83.36 642  94 642  Z " stroke-width="2" stroke="#ffffff" fill="none" />
    </g>
  </defs>
  <g transform="matrix(1 0 0 1 -71 -638 )">
    <use xlink:href="#widget202" filter="url(#filter201)" />
    <use xlink:href="#widget202" />
  </g>
</svg>