<?xml version="1.0" encoding="utf-8"?>
<svg version="1.1" xmlns:xlink="http://www.w3.org/1999/xlink" width="29px" height="33px" xmlns="http://www.w3.org/2000/svg">
  <g transform="matrix(1 0 0 1 -21 -14 )">
    <path d="M 8.28933331933594 1.94066668066406  C 8.6055625 1.87885418066406  8.925375 1.83854168066407  9.24966668066406 1.863625  C 9.61158336132813 1.90125  9.9654375 1.84033331933594  10.3148125 1.7641875  C 10.47875 1.72835418066406  10.6579166806641 1.73014581933594  10.8021458193359 1.6190625  C 10.8290208193359 1.59845831933594  10.8693333193359 1.58770831933594  10.903375 1.5868125  C 11.1031458193359 1.58322918066406  11.2572291806641 1.46766668066406  11.4283333193359 1.38883331933594  C 11.6863333193359 1.2696875  11.9452291386719 1.154125  12.2247291806641 1.07797918066406  C 12.462125 1.01347918066406  12.7183333613281 0.989291680664063  12.9324375 0.847750000000001  C 12.9387083193359 0.844166680664064  12.9449791806641 0.839687500000001  12.95125 0.837895819335939  C 13.1331041806641 0.796687500000001  13.29525 0.731291638671876  13.4475416806641 0.607666680664064  C 13.5926666806641 0.489416680664064  13.8085625 0.593333361328127  13.8793333193359 0.771604180664064  C 13.9151666386719 0.862979180664063  13.977875 0.941812500000002  14.0289375 1.02422918066406  C 14.1167291806641 1.1675625  14.24125 1.30104168066406  14.2905208193359 1.45154168066406  C 14.3415833193359 1.60741668066406  14.3353125 1.79733336132813  14.2905208193359 1.96933331933594  C 14.2690208193359 2.05085413867188  14.192875 2.07235413867187  14.1256875 2.05085418066406  C 13.6813541806641 1.91020836132813  13.2862916806641 2.10639586132813  12.8858541806641 2.23629168066406  C 12.623375 2.32139586132813  12.3886666806641 2.4736875  12.1629166806641 2.63404168066406  C 12.118125 2.66539586132813  12.0724375 2.69854168066406  12.0177916806641 2.69675  C 11.8475833613281 2.69227081933594  11.7624791806641 2.80335418066406  11.6863333193359 2.92966668066406  C 11.6424375 3.00222918066406  11.612875 3.089125  11.5071666806641 3.09270831933594  C 11.483875 3.09360413867188  11.4767083613281 3.11152081933594  11.4793958193359 3.13033331933594  C 11.4910416386719 3.22170831933594  11.4256458193359 3.25664581933594  11.3620416806641 3.28979168066406  C 11.3020208613281 3.32114586132813  11.2706666806641 3.3713125  11.2643958193359 3.43491668066406  C 11.2482708193359 3.6024375  11.2554375 3.76547918066406  11.38175 3.8980625  C 11.4122083193359 3.92941668066407  11.430125 3.9679375  11.4444583193359 4.00914581933594  C 11.4793958193359 4.11127081933594  11.5304583193359 4.196375  11.6164583193359 4.27252081933594  C 11.6961875 4.34329163867188  11.7624791386719 4.43108331933594  11.8520625 4.49647918066406  C 11.9147708193359 4.54216668066406  11.9936041806641 4.5806875  12.0383958193359 4.63354168066406  C 12.1790416386719 4.79927086132813  12.3904583193359 4.8494375  12.5517083193359 4.97754168066406  C 12.5929166386719 5.0106875  12.6421875 5.03935418066406  12.6923541806641 5.0536875  C 12.7908958613281 5.08145831933594  12.8768958613281 5.1181875  12.9476666806641 5.19970831933594  C 13.0085833613281 5.271375  13.1008541806641 5.2525625  13.1796875 5.22747918066406  C 13.2782291806641 5.19702086132813  13.3660208193359 5.20239586132813  13.4591875 5.24808331933594  C 13.5595208193359 5.29735413867188  13.6697083193359 5.30272913867188  13.773625 5.26152081933594  C 14.4311666806641 4.99635413867188  15.1317083193359 4.91125  15.8206041806641 4.78225  C 16.4432083613281 4.66489581933594  17.0649166806641 4.53052081933594  17.6955833193359 4.46691668066406  C 17.8953541386719 4.4463125  18.08975 4.3979375  18.2904166806641 4.3871875  C 18.3146041806641 4.38629168066406  18.3396875 4.3764375  18.3611875 4.36389581933594  C 18.5430416806641 4.25102081933594  18.7463958193359 4.24027081933594  18.9515416806641 4.23758331933594  C 19.503375 4.23041663867187  20.0552083613281 4.22683331933594  20.6061458193359 4.2151875  C 20.96 4.207125  21.3129583193359 4.18114581933594  21.6659166806641 4.15964581933594  C 21.8298541806641 4.14979163867187  21.9911041806641 4.18652081933594  22.1066666806641 4.33075  C 22.1622083613281 4.39972918066406  22.2311875 4.45885418066406  22.2947916806641 4.52066668066406  C 22.4936666806641 4.71416668066406  22.6844791806641 4.91483336132813  22.8887291806641 5.10385418066406  C 23.0652083613281 5.26689586132813  23.2381041806641 5.4406875  23.3984583193359 5.62254168066406  C 23.4665416386719 5.70047918066406  23.5417916386719 5.77214586132812  23.6116666806641 5.84739581933594  C 23.7039375 5.94683331933594  23.7702291806641 6.07225  23.8401041806641 6.19139581933594  C 23.867875 6.23797913867188  23.8857916806641 6.28725  23.9341666806641 6.31770831933594  C 24.0049375 6.3625  24.0300208613281 6.4404375  24.0712291806641 6.50672918066406  C 24.1536458613281 6.63841668066406  24.2530833613281 6.76114586132812  24.2566666806641 6.93045831933594  C 24.2584583613281 7.00122913867187  24.3050416806641 7.05945831933594  24.3605833193359 7.11141668066406  C 24.502125 7.2413125  24.4743541386719 7.46975  24.3122083193359 7.56291668066406  C 24.287125 7.57725  24.2629375 7.59247918066406  24.2405416806641 7.61039581933594  C 24.1805208613281 7.65966663867187  24.1222916806641 7.66325  24.072125 7.60054168066406  C 24.0362916806641 7.55395836132812  23.9986666806641 7.561125  23.9610416806641 7.58889581933594  C 23.8723541806641 7.65697913867187  23.7729166806641 7.66145831933594  23.6770625 7.6229375  C 23.5095416806641 7.55575  23.3366458193359 7.57904168066406  23.1700208193359 7.5960625  C 23.05625 7.60770831933594  22.9514375 7.58172918066406  22.8439375 7.57366668066406  C 22.7964583193359 7.57008336132813  22.7615208193359 7.5691875  22.7158333193359 7.5853125  C 22.5572708193359 7.64175  22.3969166386719 7.67220831933593  22.223125 7.63816668066406  C 21.9946875 7.59427086132812  21.760875 7.61039586132812  21.5288541806641 7.60322918066406  C 21.2395 7.59427086132813  20.9501458613281 7.5745625  20.6616875 7.55575  C 20.5550833193359 7.54858331933594  20.2997708193359 7.34433331933594  20.3069375 7.25922918066406  C 20.3185833193359 7.11589586132812  20.3060416806641 6.96091668066406  20.4054791806641 6.83908331933594  C 20.4726666806641 6.75666663867187  20.5291041806641 6.67604163867187  20.5237291806641 6.561375  C 20.5219375 6.5210625  20.5362708613281 6.46641668066406  20.5640416806641 6.44222918066406  C 20.6787083613281 6.34279168066406  20.718125 6.21110418066406  20.7458958193359 6.07135418066406  C 20.750375 6.04716668066406  20.7602291386719 6.01760418066406  20.77725 6.00416668066406  C 20.9089375 5.90204168066406  20.9080416806641 5.74079168066406  20.9608958193359 5.604625  C 21.0200208193359 5.45054168066406  20.9635833193359 5.3546875  20.7969583193359 5.335875  C 20.6939375 5.32422918066406  20.589125 5.32960418066406  20.4861041806641 5.33229168066406  C 20.3597916806641 5.335875  20.2415416806641 5.32154168066406  20.1188125 5.27854168066406  C 19.8867916806641 5.19702086132813  19.6449166806641 5.21045836132813  19.4075208193359 5.26241668066406  C 18.8753958193359 5.378875  18.3504375 5.52758336132812  17.8147291806641 5.6234375  C 17.0810416806641 5.75422918066406  16.3581041806641 5.93608331933594  15.6342708193359 6.1125625  C 15.300125 6.19408331933594  14.9713541386719 6.292625  14.6381041806641 6.3759375  C 14.3559166806641 6.44670831933594  14.0719375 6.52822918066406  13.7996041806641 6.64110418066406  C 13.5846041806641 6.72979168066406  13.3588541806641 6.79339586132813  13.1537083193359 6.90447918066406  C 12.876 7.055875  12.6744375 7.24847918066406  12.6224791806641 7.60054168066406  C 12.5723125 7.93827086132813  12.5552916806641 8.28316668066407  12.4603333193359 8.61552081933594  C 12.4415208193359 8.68270831933594  12.4504791386719 8.75795831933594  12.4504791806641 8.829625  C 12.4504791806641 8.947875  12.4558541806641 9.06522918066406  12.3931458193359 9.17452081933594  C 12.3698541386719 9.21483331933594  12.3608958193359 9.27395831933594  12.3940416806641 9.30620831933594  C 12.4585416806641 9.36802081933594  12.4495833613281 9.44147913867188  12.4495833193359 9.51583331933594  C 12.4504791386719 9.7165  12.4701875 9.91985413867187  12.4451041806641 10.1169375  C 12.3967291806641 10.5048333193359  12.403 10.8945208193359  12.3716458193359 11.2815208193359  C 12.3537291386719 11.501  12.2166666386719 11.7097291386719  12.1458958193359 11.9265208193359  C 12.073333319336 12.1495833193359  11.9559791386719 12.258875  11.6970833193359 12.2436458193359  C 11.3880208193359 12.2248333193359  11.0744791386719 12.2597708193359  10.763625 12.2741041806641  C 10.688375 12.2776875  10.65075 12.2624583613281  10.6391041806641 12.1746666806641  C 10.6167083613281 12.017  10.6059583613281 11.8521666806641  10.5038333193359 11.716  C 10.4859166386719 11.6918125  10.4921875 11.6604583193359  10.4966666806641 11.6317916806641  C 10.5253333613281 11.4454583613281  10.5495208613281 11.2609166806641  10.6095416806641 11.0772708193359  C 10.6704583613281 10.8900416386719  10.6901666806641 10.6848958193359  10.7591458193359 10.4976666806641  C 10.8585833193359 10.227125  10.8558958193359 9.94404168066406  10.8962083193359 9.6654375  C 10.917708319336 9.517625  10.9911666386719 9.3805625  10.9714583193359 9.2246875  C 10.9553333193359 9.09389581933594  10.9687708193359 8.95772918066407  10.9454791806641 8.82872918066407  C 10.9230833613281 8.70420836132813  10.8272291806641 8.61014586132813  10.742125 8.52145831933594  C 10.5772916806641 8.3485625  10.4026041806641 8.18552081933594  10.2323958193359 8.018  C 10.1786458193359 7.96514581933594  10.1096666386719 7.94454168066407  10.0388958193359 7.93827081933594  C 9.99589581933595 7.9346875  9.95647913867188 7.95797913867188  9.95379168066407 8.012625  C 9.95289586132813 8.044875  9.95827086132813 8.08339581933594  9.92512500000001 8.10041668066407  C 9.77372918066407 8.17835418066407  9.64920831933595 8.30108336132813  9.48885418066407 8.3646875  C 9.46197918066407 8.3754375  9.42883336132813 8.378125  9.41002081933595 8.39604168066407  C 9.30520831933595 8.50175  9.17172913867189 8.56177086132813  9.05079168066407 8.64239581933594  C 8.94597918066407 8.71137500000001  8.83400000000001 8.74720831933594  8.72560418066407 8.79827081933594  C 8.69693750000001 8.81170831933594  8.65572918066407 8.81797913867188  8.64139581933594 8.840375  C 8.57152081933594 8.94966668066407  8.45864581933595 8.980125  8.34666668066407 8.99625  C 8.21766668066407 9.0150625  8.15047918066407 9.13510418066407  8.02506250000001 9.15929168066407  C 7.90591668066407 9.18258336132813  7.78497918066407 9.20318750000001  7.69808331933595 9.3160625  C 7.65418750000001 9.37339581933594  7.56102081933594 9.38683331933594  7.48218750000001 9.399375  C 7.36214581933595 9.4181875  7.24837500000001 9.44954168066407  7.14625000000001 9.5256875  C 7.06562500000001 9.58660418066407  6.96170831933594 9.60183331933594  6.85958331933595 9.60272918066407  C 6.68220831933595 9.603625  6.51289581933595 9.65020836132813  6.34895831933595 9.70664581933594  C 6.10170831933595 9.79264581933594  5.84729163867188 9.78279163867188  5.59466668066407 9.786375  C 5.50418750000001 9.78727081933594  5.42714586132813 9.73620831933594  5.40116668066407 9.6305  C 5.37787500000001 9.53554168066407  5.29725000000001 9.4826875  5.22647918066407 9.42177081933594  C 5.03029168066407 9.25066663867188  4.85650000000001 9.06254163867188  4.89860418066407 8.76960418066407  C 4.90039586132813 8.75885418066407  4.90129168066407 8.74810418066407  4.90218750000001 8.73735418066407  C 4.91204168066407 8.51250000000001  4.91204168066407 8.51160418066407  5.13152081933594 8.50443750000001  C 5.19960413867188 8.50175  5.26768750000001 8.49547918066407  5.33487500000001 8.50085418066407  C 5.62691668066407 8.52414586132813  5.89925000000001 8.44800000000001  6.16800000000001 8.345875  C 6.29879168066407 8.29570831933594  6.44839581933594 8.302875  6.57381250000001 8.25270831933594  C 6.72789581933595 8.19179163867188  6.88466668066407 8.14610413867188  7.04054168066407 8.09504168066407  C 7.70525000000001 7.87556250000001  8.35652086132813 7.625625  8.95762500000001 7.25922918066407  C 9.19681250000001 7.11320836132813  9.41360418066407 6.93583336132813  9.64025000000001 6.77458331933594  C 9.80687500000001 6.65543750000001  9.95020831933594 6.50762500000001  10.1428125 6.41625000000001  C 10.2431458193359 6.36877081933594  10.3452708193359 6.28993750000001  10.441125 6.21827081933594  C 10.5101041806641 6.16720831933594  10.5450416806641 6.0964375  10.5656458193359 6.01222918066407  C 10.6149166386719 5.8061875  10.6247708193359 5.60283336132813  10.5477291806641 5.400375  C 10.5298125 5.35379168066407  10.5154791806641 5.30720831933594  10.4832291806641 5.26689581933594  C 10.4160416806641 5.1826875  10.3837916806641 5.08414581933594  10.3828958193359 4.97754168066407  C 10.382 4.8816875  10.3578125 4.80195836132813  10.2682291806641 4.75089581933594  C 10.2449375 4.73745831933594  10.2171666806641 4.71327081933594  10.2117916806641 4.68908331933594  C 10.1759583613281 4.54575  10.0595 4.4516875  9.995 4.32627081933594  C 9.9708125 4.27879163867188  9.94304168066407 4.22504163867188  9.90183331933594 4.19727081933594  C 9.74685413867188 4.09335413867188  9.6268125 3.949125  9.48975 3.82729168066406  C 9.37508331933594 3.72516668066407  9.21025000000001 3.69829168066406  9.12783331933594 3.56033331933594  C 9.12604163867188 3.55764581933594  9.12335413867188 3.5540625  9.11977081933594 3.55316668066406  C 8.89939581933594 3.49672918066407  8.73635413867188 3.30770836132813  8.49985418066407 3.28979168066406  C 8.4281875 3.28441668066407  8.36995836132813 3.24947918066406  8.32158331933594 3.20020831933594  C 8.25977081933594 3.1375  8.1863125 3.11241663867188  8.09941668066406 3.10883331933594  C 7.97579168066406 3.1025625  7.86470836132813 3.06672913867188  7.75989581933594 2.992375  C 7.68016663867188 2.9359375  7.58252081933594 2.90279168066407  7.49114581933594 2.86247918066407  C 7.37379163867188 2.81052086132813  7.33706250000001 2.6994375  7.29585418066407 2.59372918066406  C 7.2833125 2.56058336132813  7.28689586132813 2.5166875  7.31645831933594 2.49339581933594  C 7.45172913867188 2.38410413867188  7.51533331933594 2.18791663867188  7.7240625 2.16910418066407  C 7.7831875 2.16372918066407  7.81275 2.100125  7.861125 2.06966668066407  C 7.9928125 1.98635418066406  8.1433125 1.9684375  8.28933331933594 1.94066668066406  Z M 11.2231875 13.1152916806641  C 11.2169166806641 13.1143958613281  11.2169166806641 13.1126041806641  11.2169166806641 13.1117083193359  C 11.242 13.1117083193359  11.2679791806641 13.1152916386719  11.2921666806641 13.1108125  C 11.4722291806641 13.0830416806641  11.6406458613281 13.1018541806641  11.7821875 13.2326458193359  C 11.8072708193359 13.2559375  11.8431041806641 13.2729583193359  11.8771458193359 13.2819166806641  C 12.1154375 13.3464166806641  12.3214791386719 13.4834791806641  12.5176666806641 13.6205416806641  C 12.7586458613281 13.7889583613281  13.03725 13.9045208613281  13.2441875 14.1204166806641  C 13.2513541806641 14.1284791806641  13.2612083193359 14.1392291806641  13.2692708193359 14.1392291806641  C 13.4905416386719 14.1383333613281  13.6087916386719 14.3363125  13.7888541806641 14.419625  C 13.9196458613281 14.4796458193359  14.0352083613281 14.5943125  14.1597291806641 14.683  C 14.2000416806641 14.7116666806641  14.24125 14.7430208193359  14.2860416806641 14.763625  C 14.4956666806641 14.8567916806641  14.6864791806641 14.9795208193359  14.86475 15.1219583193359  C 14.9382083193359 15.1801875  15.0385416806641 15.1775  15.112 15.2437916806641  C 15.3556666806641 15.4659583613281  15.622625 15.6603541806641  15.891375 15.8511666806641  C 16.6295416806641 16.3743333613281  17.4080208193359 16.8312083613281  18.2232291806641 17.2235833193359  C 19.0671041806641 17.6293958193359  19.87425 18.1006041386719  20.6742291806641 18.5843541806641  C 22.3781041806641 19.6136666806641  24.1536458613281 20.4915833613281  26.0304166806641 21.1625625  C 26.593 21.364125  27.1475208613281 21.589875  27.6984583193359 21.8227916806641  C 27.9887083193359 21.9464166806641  28.2843333193359 22.0548125  28.587125 22.1461875  C 28.694625 22.1784375  28.7071666806641 22.2062083193359  28.6265416806641 22.2769791806641  C 28.5297916806641 22.3620833613281  28.4563333613281 22.471375  28.3470416806641 22.5421458193359  C 28.3031458613281 22.5699166386719  28.2789583613281 22.6147083193359  28.2511875 22.6559166806641  C 28.1625 22.7867083613281  28.0460416806641 22.804625  27.926895819336 22.7033958193359  C 27.840895819336 22.6299375  27.7423541386719 22.5985833193359  27.631270819336 22.595  C 27.244270819336 22.5824583193359  26.8581666386719 22.5591666806641  26.4711666806641 22.557375  C 26.249 22.5564791806641  26.0429583613281 22.496458319336  25.835125 22.4364375  C 25.7697291806641 22.417625  25.7034375 22.3988125  25.63625 22.3979166806641  C 25.516208319336 22.396125  25.3988541806641 22.3782083613281  25.290458319336 22.3307291806641  C 25.0871041386719 22.2411458613281  24.8721041386719 22.1900833613281  24.664270819336 22.117520819336  C 24.137520819336 21.9329791386719  23.6143541386719 21.7341041386719  23.1037291806641 21.5083541806641  C 22.6710416806641 21.3166458613281  22.2428333613281 21.1150833613281  21.8029791806641 20.943083319336  C 21.4697291806641 20.8131875  21.1355833613281 20.682395819336  20.814875 20.529208319336  C 20.60525 20.428875  20.3597916806641 20.3805  20.1958541806641 20.1914791806641  C 20.1842083613281 20.1789375  20.1671875 20.1655  20.1510625 20.1628125  C 20.0274375 20.1404166806641  19.9378541806641 20.0454583193359  19.8294583193359 20.0015625  C 19.6556666386719 19.9316875  19.5266666386719 19.7865625  19.3457083193359 19.7328125  C 19.316145819336 19.7238541806641  19.2856875 19.70325  19.266875 19.6790625  C 19.197895819336 19.590375  19.1101041806641 19.5500625  18.998125 19.5482708193359  C 18.9148125 19.547375  18.861958319336 19.4900416386719  18.818958319336 19.4264375  C 18.7768541386719 19.3637291806641  18.7105625 19.3413333193359  18.6505416806641 19.3028125  C 18.4785416806641 19.1917291806641  18.2814583613281 19.1263333193359  18.1228958193359 18.9865833193359  C 17.9885208193359 18.8683333193359  17.8389166386719 18.7617291386719  17.6687083193359 18.6891666806641  C 17.5316458193359 18.6309375  17.42325 18.5234375  17.3005208193359 18.440125  C 17.2431875 18.400708319336  17.192125 18.3505416806641  17.1321041806641 18.3102291806641  C 16.9305416806641 18.1722708613281  16.7182291806641 18.0495416806641  16.5077083193359 17.9259166806641  C 16.4405208193359 17.8865  16.3724375 17.8452916806641  16.3312291806641 17.7727291806641  C 16.3195833613281 17.752125  16.2971875 17.7234583613281  16.278375 17.7225625  C 16.1484791806641 17.7127083193359  16.0714375 17.601625  15.9585625 17.5604166806641  C 15.889583319336 17.5353333613281  15.8349375 17.4860625  15.7910416806641 17.4287291806641  C 15.7068333613281 17.3194375  15.5814166806641 17.2558333613281  15.4954166806641 17.1492291806641  C 15.4703333613281 17.117875  15.4318125 17.1196666806641  15.3959791806641 17.1169791806641  C 15.3126666806641 17.1107083613281  15.2383125 17.0766666806641  15.192625 17.011270819336  C 15.0815416806641 16.8536041386719  14.900583319336 16.784625  14.7662083193359 16.6627916806641  C 14.6381041386719 16.5472291806641  14.4687916386719 16.494375  14.3577083193359 16.36  C 14.3147083193359 16.307145819336  14.2618541386719 16.26325  14.1973541806641 16.237270819336  C 14.1839166806641 16.2318958193359  14.1651041806641 16.226520819336  14.160625 16.2166666806641  C 14.0988125 16.0733333613281  13.9330833193359 16.0572083613281  13.841708319336 15.9506041806641  C 13.8390208193359 15.9479166806641  13.8372291386719 15.9434375  13.8345416806641 15.9434375  C 13.6544791806641 15.9228333193359  13.590875 15.7490416806641  13.4636666806641 15.659458319336  C 13.4305208613281 15.6361666386719  13.4054375 15.6075  13.3839375 15.573458319336  C 13.3687083193359 15.5501666386719  13.3534791806641 15.5152291386719  13.3310833193359 15.508958319336  C 13.191333319336 15.46775  13.081145819336 15.387125  12.976333319336 15.288583319336  C 12.9342291386719 15.248270819336  12.8858541386719 15.215125  12.8428541806641 15.172125  C 12.7183333613281 15.046708319336  12.5552916806641 15.017145819336  12.386875 15.046708319336  C 12.285645819336 15.064625  12.1871041806641 15.10225  12.0822916806641 15.1040416806641  C 12.0133125 15.1049375  11.973 15.1497291806641  11.9425416806641 15.205270819336  C 11.8045833613281 15.452520819336  11.5815208613281 15.568083319336  11.311875 15.605708319336  C 11.2464791806641 15.6146666386719  11.2088541806641 15.6576666386719  11.2061666806641 15.7087291806641  C 11.1998958613281 15.844  11.1049375 15.9076041806641  11.0126666806641 15.973  C 10.9436875 16.021375  10.881875 16.0715416806641  10.855895819336 16.15575  C 10.84425 16.194270819336  10.8218541386719 16.2292083193359  10.7878125 16.2498125  C 10.6794166806641 16.3161041806641  10.6417916806641 16.4209166806641  10.6211875 16.537375  C 10.6202916806641 16.5445416806641  10.6211875 16.5535  10.616708319336 16.5579791806641  C 10.425 16.7487916806641  10.5190625 17.042625  10.369458319336 17.2486666806641  C 10.361395819336 17.2594166806641  10.355125 17.2755416806641  10.356020819336 17.2889791806641  C 10.366770819336 17.440375  10.253 17.5308541806641  10.1885 17.6464166806641  C 9.93318750000002 18.1059791806641  9.63577081933595 18.5395625  9.38135418066408 19.0009166806641  C 9.14037500000001 19.4389791806641  8.88147918066408 19.869875  8.55181250000001 20.2515  C 8.26425000000001 20.58475  7.97131250000001 20.9144166806641  7.77512500000002 21.3166458193359  C 7.71779168066408 21.434  7.62372918066408 21.5334375  7.54310418066408 21.63825  C 7.42306250000001 21.7950208193359  7.32631250000002 21.976875  7.16954168066408 22.0969166806641  C 7.06293750000002 22.1784375  6.98410418066408 22.2814583613281  6.89541668066408 22.374625  C 6.79866668066408 22.4758541806641  6.68400000000002 22.566333319336  6.63025000000001 22.7025  C 6.58635418066408 22.8126875  6.47079168066408 22.8503125  6.39822918066408 22.934520819336  C 6.19756250000002 23.1674375  5.97718750000002 23.3824375  5.76039581933595 23.600125  C 5.59735413867189 23.7640625  5.41997913867189 23.918145819336  5.26500000000002 24.0883541806641  C 5.02670831933596 24.3508333613281  4.76064581933596 24.58375  4.52145831933596 24.8444375  C 4.41691466056819 24.9568891134303  4.30937605466965 25.0665187431094  4.19895831933596 25.173208319336  C 4.09952081933596 25.269958319336  3.96514581933596 25.334458319336  3.87377081933596 25.444645819336  C 3.71072913867189 25.640833319336  3.47243750000002 25.7528125  3.31656250000002 25.955270819336  C 3.30760418066408 25.966020819336  3.29685418066408 25.979458319336  3.28431250000002 25.9830416806641  C 3.04422918066408 26.0636666806641  2.91254168066408 26.2912083613281  2.70202081933595 26.4103541806641  C 2.58108331933596 26.4784375  2.49239581933595 26.5948958613281  2.35264581933596 26.6343125  C 2.32397913867189 26.642375  2.29262500000002 26.664770819336  2.27470831933596 26.688958319336  C 2.19408331933596 26.79825  2.09643750000002 26.8726041386719  1.95489581933596 26.8779791806641  C 1.92085413867189 26.878875  1.89935413867189 26.9075416806641  1.87964581933596 26.9344166806641  C 1.81514581933596 27.0213125  1.71750000000002 27.0598333613282  1.61895831933596 27.067  C 1.54460413867189 27.072375  1.50697913867189 27.097458319336  1.46756250000002 27.1547916806641  C 1.41470831933596 27.2300416806641  1.31616668066408 27.22825  1.23822918066408 27.2622916806641  C 1.20239586132814 27.2775208613281  1.15133336132815 27.2730416806641  1.12714581933596 27.298125  C 0.982916638671895 27.4459375  0.797479138671894 27.465645819336  0.608458319335957 27.4755  C 0.55112500000002 27.4781875  0.483041638671894 27.5185  0.445416680664081 27.4423541806641  C 0.407791680664083 27.3653125  0.457062500000019 27.3124583613281  0.512604180664081 27.269458319336  C 0.77418750000002 27.065208319336  1.00889586132814 26.831395819336  1.25345831933596 26.608333319336  C 1.43352081933596 26.4452916386719  1.58133331933596 26.244625  1.80260418066408 26.121  C 1.88950000000002 26.0717291806641  1.94145836132814 25.9588541806641  2.02656250000002 25.8862916806641  C 2.09016668066408 25.8325416806641  2.16093750000002 25.7805833613281  2.21379168066408 25.721458319336  C 2.28635418066408 25.640833319336  2.36518750000002 25.5637916386719  2.43506250000002 25.481375  C 2.70739581933596 25.1606666806641  2.97883331933596 24.839958319336  3.28162500000002 24.5479166806641  C 3.44645831933596 24.3884583613281  3.58352081933596 24.2092916806641  3.72864581933596 24.0346041806641  C 3.80300000000002 23.9450208613281  3.89437500000002 23.8715625  3.96962500000002 23.781083319336  C 4.06995831933596 23.6610416386719  4.15416668066408 23.528458319336  4.25718750000002 23.410208319336  C 4.33154168066408 23.3251041386719  4.37633331933596 23.214020819336  4.49010418066408 23.1665416806641  C 4.49906250000002 23.1629583613281  4.51160418066408 23.154  4.51339581933596 23.1450416806641  C 4.54564581933596 23.0017083613281  4.66927081933596 22.9183958613281  4.74631250000002 22.8064166806641  C 4.83858331933596 22.6738333613281  4.89770831933596 22.5134791806641  5.02939581933596 22.406875  C 5.06164581933596 22.380895819336  5.09300000000002 22.342375  5.10285418066408 22.3038541806641  C 5.12793750000002 22.2088958613281  5.15750000000002 22.1246875  5.26947918066408 22.1049791806641  C 5.29814586132814 22.0996041806641  5.29366668066409 22.073625  5.29456250000002 22.053020819336  C 5.29814581933596 21.964333319336  5.34204168066409 21.8980416386719  5.40654168066408 21.8416041806641  C 5.46387500000002 21.7914375  5.50597918066408 21.729625  5.53106250000002 21.6561666806641  C 5.54360418066408 21.6185416806641  5.56152081933596 21.5809166806641  5.59377081933596 21.557625  C 5.65020831933596 21.5173125  5.67618750000002 21.4635625  5.68962500000002 21.397270819336  C 5.70306250000002 21.331875  5.73889581933596 21.2808125  5.80250000000002 21.249458319336  C 5.83385418066408 21.2342291386719  5.87147918066408 21.2109375  5.88312500000002 21.182270819336  C 5.94225000000002 21.03625  6.05064581933596 20.9197916386719  6.11693750000002 20.7791458193359  C 6.19039581933596 20.6232708193359  6.27012500000002 20.4709791386719  6.37762500000002 20.3375  C 6.54514581933596 20.1287708193359  6.65891668066408 19.8886875  6.80314581933596 19.666520819336  C 6.82643750000002 19.6306875  6.8470416386719 19.5921666386719  6.87570831933596 19.5608125  C 7.17939581933596 19.2311458193359  7.4329166386719 18.8602708193359  7.70883331933596 18.5091041806641  C 7.85575000000002 18.321875  7.96952081933596 18.1149375  8.05910418066409 17.8945625  C 8.11733336132815 17.7503333193359  8.19168750000002 17.6168541806641  8.29829168066409 17.5021875  C 8.32247918066409 17.4762083193359  8.34756250000002 17.4448541806641  8.35383331933596 17.4126041806641  C 8.37175000000002 17.3176458613281  8.4165416386719 17.2477708613281  8.50612500000003 17.2056666806641  C 8.53568750000002 17.1922291806641  8.55450000000002 17.1644583613281  8.56883331933596 17.134  C 8.63512500000002 16.9879791806641  8.7390416386719 16.8571875  8.77487500000003 16.6995208193359  C 8.81608331933596 16.5185625  8.96568750000003 16.403  9.02929168066409 16.2327916806641  C 9.08125000000003 16.0939375  9.13141668066409 15.9604583613281  9.12872918066409 15.8108541806641  C 9.12693750000003 15.7266458613281  9.15291668066409 15.6567708613281  9.22727081933596 15.5976458193359  C 9.28281250000003 15.55375  9.31506250000003 15.4793958193359  9.35179168066409 15.4148958193359  C 9.43241668066409 15.2724583193359  9.56410418066409 15.1595833193359  9.58022918066409 14.9759375  C 9.58560418066409 14.9078541806641  9.66354168066409 14.8460416806641  9.70564581933596 14.77975  C 9.8436041386719 14.5656458193359  9.9806666386719 14.3524375  10.143708319336 14.1553541806641  C 10.259270819336 14.0156041806641  10.339 13.8561458613281  10.3900625 13.6823541806641  C 10.419625 13.5829166806641  10.450083319336 13.4834791806641  10.5136875 13.398375  C 10.6534375 13.2120416806641  10.8146875 13.0705  11.0726875 13.1143958193359  C 11.1210625 13.1224583193359  11.173020819336 13.1152916386719  11.2231875 13.1152916806641  Z M 15.2383125 23.8894791806641  C 15.2526458193359 23.6117708613281  15.2705625 23.33675  15.2920625 22.9900625  C 15.2929583193359 22.9031666806641  15.3063958193359 22.7374375  15.1541041806641 22.632625  C 15.0224166806641 22.54125  14.8719166806641 22.4722708193359  14.7285833193359 22.4131458193359  C 14.5780833193359 22.3513333193359  14.407875 22.3826875  14.2493125 22.5054166806641  C 14.0558125 22.6550208613281  13.881125 22.8323958613281  13.6706041806641 22.955125  C 13.5353333613281 23.0339583193359  13.4448541806641 23.1665416806641  13.2907708193359 23.2256666806641  C 13.1976041386719 23.2615  13.12325 23.3564583613281  13.0524791806641 23.4361875  C 12.9664791806641 23.5329375  12.8607708613281 23.5875833193359  12.7461041806641 23.643125  C 12.6063541806641 23.7121041806641  12.4468958613281 23.7622708193359  12.354625 23.9073958193359  C 12.3358125 23.9369583193359  12.3089375 23.9692083193359  12.2784791806641 23.98175  C 12.1154375 24.0471458193359  11.9864375 24.1877916806641  11.801 24.2030208193359  C 11.7544166806641 24.2066041386719  11.7365 24.2200416386719  11.7293333193359 24.2711041806641  C 11.7167916386719 24.3705416806641  11.6245208193359 24.3965208613281  11.5519583193359 24.4404166806641  C 11.38175 24.5425416806641  11.2034791386719 24.6294375  11.0332708193359 24.7333541806641  C 10.8721828052209 24.8321857988934  10.7021140095158 24.9155704900598  10.5253333193359 24.9823958193359  C 10.0478541386719 25.1597708193359  9.57843749999999 25.3550625  9.13589581933592 25.6094791806641  C 9.08214581933592 25.6399375  9.02570831933592 25.6659166806641  8.96389581933592 25.6668125  C 8.73724999999999 25.6730833193359  8.51956249999999 25.7331041806641  8.29918749999998 25.7734166806641  C 8.15943749999999 25.7985  8.03312499999998 25.7886458613281  7.90949999999999 25.7080208193359  C 7.75720831933592 25.610375  7.60222918066405 25.5431875  7.50010418066405 25.3604375  C 7.41589586132811 25.2099375  7.31108336132811 25.07825  7.29674999999999 24.8990833193359  C 7.29406249999999 24.8614583193359  7.26897918066405 24.8336875  7.24299999999999 24.8086041806641  C 7.14177081933593 24.7118541806641  7.11131249999999 24.589125  7.12116668066405 24.4556458193359  C 7.13370836132811 24.2791666386719  7.11220836132811 24.1134375  6.99933331933592 23.9683125  C 6.97424999999999 23.9360625  6.95812499999999 23.8921666806641  6.94916668066405 23.8509583193359  C 6.92229168066405 23.7264375  6.97335418066405 23.6637291386719  7.09877081933593 23.6771666806641  C 7.29137499999998 23.6986666806641  7.48397913867186 23.7112083613281  7.67747918066405 23.7192708193359  C 7.74287499999999 23.7219583193359  7.81006249999999 23.739875  7.85843749999999 23.7810833193359  C 7.96862499999999 23.8769375  8.09941668066405 23.8975416386719  8.23558331933592 23.9100833193359  C 8.31083331933592 23.91725  8.38518749999999 23.9288958193359  8.46043749999999 23.9297916806641  C 8.57599999999999 23.9315833613281  8.67722918066405 23.9647291806641  8.76860418066405 24.0355  C 8.90924999999999 24.143  9.03197918066405 24.1152291806641  9.17710418066405 24.0229583193359  C 9.33835418066405 23.9199375  9.50766668066405 23.8016875  9.68056249999999 23.7434583193359  C 10.3210833193359 23.5275625  10.9383125 23.2704583193359  11.5179166806641 22.9201875  C 12.22025 22.4955625  12.9163125 22.0610833193359  13.5944583193359 21.5988333193359  C 13.7404791386719 21.4993958193359  13.8873958193359 21.4599791386719  14.0647708193359 21.4581875  C 14.6416875 21.4519166806641  15.2177083193359 21.4993958193359  15.794625 21.4796875  C 15.8797291806641 21.477  15.9684166806641 21.4895416806641  16.0320208193359 21.5352291806641  C 16.192375 21.6516875  16.3787083193359 21.6633333613281  16.5614583193359 21.6848333193359  C 16.6635833193359 21.6964791386719  16.7468958193359 21.7332083193359  16.8194583193359 21.8021875  C 16.8732083193359 21.8541458193359  16.934125 21.8846041806641  17.011166680664 21.8837083193359  C 17.083729180664 21.8828125  17.1410625 21.9195416386719  17.188541680664 21.9723958193359  C 17.207354180664 21.9938958193359  17.2234791806641 22.0261458193359  17.2467708193359 22.0342083193359  C 17.4205625 22.0924375  17.5450833193359 22.2232291386719  17.653479180664 22.3522291806641  C 17.7520208613281 22.4695833613281  17.864 22.578875  17.9473125 22.7087708193359  C 18.0019583193359 22.793875  17.9777708193359 22.8977916386719  17.9858333193359 22.99275  C 17.993 23.0814375  18.0145 23.1602708193359  18.06825 23.2310416806641  C 18.102291680664 23.2758333613281  18.1246875 23.3286875  18.1005 23.3815416806641  C 18.0395833193359 23.5150208613281  17.9652291806641 23.6458125  17.847875 23.7345  C 17.7260416806641 23.8267708193359  17.6525833193359 23.9566666806641  17.5504583193359 24.0632708193359  C 17.536125 24.0785  17.5325416386719 24.1044791386719  17.5182083193359 24.1188125  C 17.2754375 24.3544166806641  17.1025416386719 24.6500416806641  16.8543958193359 24.8856458193359  C 16.6617916386719 25.0683958193359  16.4897916386719 25.2780208193359  16.3133125 25.4795833193359  C 16.2120833193359 25.5951458193359  16.1260833193359 25.7295208193359  15.9961875 25.8208958193359  C 15.952291680664 25.8513541386719  15.955875 25.91675  15.9218333193359 25.949  C 15.7274375 26.1299583193359  15.6109791386719 26.3852708193359  15.3708958193359 26.5214375  C 15.3413333193359 26.5384583193359  15.3171458193359 26.56175  15.3063958193359 26.5904166806641  C 15.2347291386719 26.7785416806641  15.0698958193359 26.8860416806641  14.9462708193359 27.029375  C 14.854 27.1359791806641  14.7447083193359 27.2309375  14.6578125 27.3482916806641  C 14.5789791806641 27.4548958613281  14.4893958193359 27.5632916806641  14.4033958193359 27.6681041806641  C 14.2340833193359 27.8750416806641  14.0378958193359 28.0586875  13.8865 28.2808541806641  C 13.8766458193359 28.2951875  13.870375 28.3157916806641  13.8560416806641 28.32475  C 13.6885208613281 28.4412083193359  13.698375 28.6158958193359  13.7019583193359 28.7887916806641  C 13.7055416386719 28.975125  13.7055416386719 29.1614583613281  13.7073333193359 29.3477916806641  C 13.7082291386719 29.4418541806641  13.741375 29.5171041806641  13.8193125 29.5789166806641  C 13.9357708193359 29.6711875  13.9922083193359 29.8145208613281  14.0710416806641 29.9345625  C 14.1740625 30.0922291806641  14.2967916806641 30.2283958193359  14.4266875 30.3609791806641  C 14.5503125 30.4863958613281  14.6533333193359 30.6234583613281  14.7267916806641 30.7847083193359  C 14.7796458613281 30.899375  14.8755 30.9844791386719  14.9588125 31.0758541806641  C 15.0725833193359 31.1994791806641  15.1693333193359 31.3383333613281  15.2929583193359 31.4538958193359  C 15.38075 31.5354166386719  15.3825416386719 31.6599375  15.3780625 31.76475  C 15.3735833193359 31.8597083193359  15.3619375 31.9564583193359  15.3664166806641 32.0523125  C 15.3717916806641 32.1777291806641  15.3368541806641 32.2915  15.2983333193359 32.4070625  C 15.2866875 32.4428958193359  15.2687708193359 32.4778333193359  15.2338333193359 32.4885833193359  C 15.0994583193359 32.5324791386719  15.0179375 32.6507291386719  14.8996875 32.7179166806641  C 14.8495208193359 32.7465833613281  14.8127916806641 32.791375  14.7769583193359 32.8370625  C 14.6694583193359 32.9714375  14.5350833193359 32.9678541806641  14.4069791806641 32.8576666806641  C 14.11225 32.60325  13.8605208613281 32.301354180664  13.5442916806641 32.071125  C 13.5122437440487 32.0476755503017  13.487414662918 32.015708119439  13.472625 31.9788541806641  C 13.4520208193359 31.9295833613281  13.4099166806641 31.9062916806641  13.3705 31.8749375  C 13.2540416806641 31.7835625  13.1375833193359 31.6912916806641  13.053375 31.5667708193359  C 13.03725 31.5434791386719  13.0291875 31.5049583193359  13.0014166806641 31.5022708193359  C 12.9001875 31.4915208193359  12.8625625 31.39925  12.7926875 31.3517708193359  C 12.678916680664 31.2738333193359  12.6054583193359 31.1582708193359  12.4970625 31.07675  C 12.4110625 31.01225  12.36 30.9065416806641  12.268625 30.8411458193359  C 12.2498125 30.8277083193359  12.2399583193359 30.7900833193359  12.2399583193359 30.7632083193359  C 12.2390625 30.6978125  12.2274166386719 30.652125  12.146791680664 30.6512291806641  C 12.1046875 30.6512291806641  12.0778125 30.6153958613281  12.0545208193359 30.5831458193359  C 11.6137708193359 29.9515833193359  11.064625 29.4203541386719  10.50025 28.9025625  C 10.2135833193359 28.6391875  9.95379168066405 28.3543125  9.75670831933592 28.0165833193359  C 9.70116663867186 27.921625  9.61785413867186 27.8562291386719  9.52468749999999 27.7988958193359  C 9.36343749999999 27.6985625  9.27206249999999 27.5480625  9.26937499999999 27.3554583193359  C 9.26758331933593 27.2560208193359  9.35358331933593 27.1547916386719  9.44495831933592 27.1565833193359  C 9.66174999999999 27.1592708193359  9.88122913867186 27.1225416386719  10.0962291806641 27.1843541806641  C 10.1338541806641 27.1951041806641  10.17775 27.2022708613281  10.204625 27.2273541806641  C 10.34975 27.3599375  10.5333958193359 27.3742708613281  10.7125625 27.3993541806641  C 10.7824375 27.4092083613281  10.8478333193359 27.4235416806641  10.8953125 27.4763958193359  C 10.950854180664 27.5382083193359  11.021625 27.5552291386719  11.0995625 27.55075  C 11.2348333193359 27.5426875  11.353979180664 27.5677708193359  11.472229180664 27.6457083193359  C 11.5573333613281 27.7021458193359  11.671104180664 27.7164791386719  11.774125 27.74425  C 11.840416680664 27.7621666806641  11.888791680664 27.7263333193359  11.9335833193359 27.6788541806641  C 12.0598958193359 27.5435833613281  12.2274166386719 27.4710208613281  12.3877708193359 27.3895  C 12.43525 27.3653125  12.4898958193359 27.3536666806641  12.5257291806641 27.3097708193359  C 12.5973958613281 27.2201875  12.6753333613281 27.1449375  12.8043333193359 27.1574791806641  C 12.8159791386719 27.158375  12.838375 27.1494166806641  12.8410625 27.1413541806641  C 12.870625 27.0257916806641  12.9754375 27.0168333613281  13.0614375 26.9801041806641  C 13.08025 26.9720416806641  13.1026458193359 26.9586041806641  13.1116041806641 26.9415833193359  C 13.2370208613281 26.7059791386719  13.4735208613281 26.5805625  13.6598541806641 26.4076666806641  C 13.7637708613281 26.3118125  13.8820208613281 26.2114791806641  13.9653333193359 26.1084583193359  C 14.1400208193359 25.8943541386719  14.3424791386719 25.7044375  14.504625 25.4768958193359  C 14.6130208193359 25.3237083193359  14.6461666806641 25.1257291386719  14.8029375 25.0047916806641  C 14.8333958193359 24.9815  14.837875 24.9358125  14.8423541806641 24.8955  C 14.848625 24.825625  14.8710208613281 24.7566458193359  14.9193958193359 24.7100625  C 15.0376458193359 24.5953958193359  15.0537708193359 24.4457916806641  15.0725833193359 24.2979791806641  C 15.0806458193359 24.2352708613281  15.0976666386719 24.1797291806641  15.1424583193359 24.1340416806641  C 15.2078541386719 24.0659583613281  15.2329375 23.98175  15.2383125 23.8894791806641  Z M 2.8220625 6.46820831933594  L 2.8220625 6.4619375  C 2.90447918066406 6.4619375  2.98689581933594 6.45745831933594  3.06841668066406 6.46283331933594  C 3.14545836132813 6.46820831933594  3.206375 6.507625  3.1875625 6.59272918066406  C 3.14366668066406 6.79608336132813  3.1714375 6.9994375  3.17233331933594 7.20279168066407  C 3.17233331933594 7.26460418066406  3.17054163867188 7.324625  3.15083331933594 7.38285418066407  C 3.03795831933594 7.717  3.0155625 8.05920836132813  3.0585625 8.4076875  C 3.09529168066406 8.70958331933594  3.10514581933594 9.012375  3.11679168066406 9.3160625  C 3.1230625 9.4880625  3.12485418066406 9.65379168066406  3.10604168066406 9.82489581933594  C 3.088125 9.99420831933594  3.18039586132813 10.1500833193359  3.21085418066406 10.3158125  C 3.27625 10.6723541806641  3.31925 11.0315833193359  3.32283331933594 11.3943958193359  C 3.32552081933594 11.6291041386719  3.2681875 11.8575416386719  3.19025 12.0770208193359  C 3.02452081933594 12.5464375  2.8865625 13.0248125  2.7306875 13.4978125  C 2.65275 13.7325208193359  2.5586875 13.9609583193359  2.46372918066406 14.1893958193359  C 2.39922918066406 14.3425833193359  2.271125 14.4536666386719  2.20483331933594 14.6068541806641  C 2.16810413867188 14.6910625  2.04985413867188 14.683  1.9889375 14.602375  C 1.81872918066406 14.3757291806641  1.62702081933594 14.1687916806641  1.421875 13.9735  C 1.411125 13.9636458193359  1.40395831933594 13.9484166806641  1.3923125 13.9430416806641  C 1.21045831933594 13.860625  1.21225 13.7172916806641  1.24808331933594 13.5497708193359  C 1.27854163867188 13.40375  1.27047913867188 13.2496666386719  1.3546875 13.1170833193359  C 1.36902081933594 13.0937916386719  1.378875 13.0624375  1.3761875 13.0364583193359  C 1.3439375 12.5858541386719  1.48010418066406 12.1576458193359  1.54908331933594 11.7204791806641  C 1.5750625 11.55475  1.58402081933594 11.3854375  1.60910418066406 11.2206041806641  C 1.66375 10.861375  1.70764586132813 10.50125  1.7793125 10.1438125  C 1.841125 9.83385418066407  1.94772918066406 9.53016668066407  1.96295831933594 9.21035418066407  C 1.96475 9.17452086132813  1.9674375 9.136  1.98177081933594 9.10464581933594  C 2.10270831933594 8.84127081933594  2.0749375 8.55908331933594  2.0856875 8.28227081933594  C 2.09554168066406 8.02785413867188  2.12241668066406 7.77254163867188  2.185125 7.52977081933594  C 2.2146875 7.41510413867188  2.26575 7.27714581933594  2.35533331933594 7.1795  C 2.42789581933594 7.10066668066406  2.44491663867187 7.01197918066407  2.45029168066406 6.91522918066406  C 2.45566668066406 6.81847918066406  2.45566668066406 6.72172918066406  2.45566668066406 6.625875  C 2.45477086132812 6.5103125  2.4941875 6.46820831933594  2.6070625 6.46820831933594  L 2.8220625 6.46820831933594  Z M 12.5337916806641 18.43475  C 12.5705208613281 18.4177291806641  12.623375 18.4320625  12.6762291806641 18.4320625  C 12.8849583613281 18.3899583193359  12.9682708613281 18.5655416806641  13.0784583193359 18.6891666806641  C 13.1277291386719 18.7447083613281  13.1671458193359 18.805625  13.2325416806641 18.8495208193359  C 13.3561666806641 18.9328333193359  13.33825 19.2132291386719  13.2056666806641 19.2974375  C 13.1519166806641 19.3314791806641  13.1116041806641 19.3682083193359  13.0927916806641 19.4318125  C 13.0757708613281 19.4909375  13.0282916806641 19.5240833193359  12.9664791806641 19.5348333193359  C 12.945875 19.5384166386719  12.9073541806641 19.5402083193359  12.9064583193359 19.547375  C 12.881375 19.6925  12.7156458193359 19.7148958193359  12.6601041806641 19.8394166806641  C 12.6063541806641 19.9594583613281  12.4666041806641 19.9585625  12.3617916806641 19.955875  C 12.1261875 19.9513958193359  11.892375 19.9119791806641  11.6567708193359 19.9648333193359  C 11.5689791386719 19.9845416386719  11.4883541386719 19.9379583193359  11.4041458193359 19.9146666806641  C 11.2428958193359 19.869875  11.1407708193359 19.7157916806641  10.9481666806641 19.719375  C 10.8361875 19.7211666806641  10.7546666806641 19.57425  10.6892708193359 19.4676458193359  C 10.6301458193359 19.3717916386719  10.5952083193359 19.2705625  10.67225 19.1621666806641  C 10.6919583193359 19.1343958613281  10.6973333193359 19.0949791806641  10.7009166806641 19.0591458193359  C 10.7179375 18.8763958193359  10.82275 18.7671041386719  10.9884791806641 18.708875  C 11.3208333613281 18.5915208193359  11.6576666806641 18.5055208193359  12.016 18.5091041806641  C 12.1888958193359 18.5108958613281  12.3671666806641 18.5073125  12.5337916806641 18.43475  Z M 15.0573541806641 8.11116668066406  C 15.1361875 8.0959375  15.2150208613281 8.10041668066406  15.3099791806641 8.098625  C 15.3368541806641 8.10041668066406  15.3789583613281 8.1066875  15.4219583193359 8.1066875  C 15.48825 8.1066875  15.542 8.087875  15.5858958193359 8.02785418066406  C 15.6781666386719 7.90064586132813  15.7919375 7.90064586132813  15.91825 7.99022918066406  C 16.0777083193359 8.104  16.2559791806641 8.1980625  16.385875 8.34497918066406  C 16.4942708193359 8.46770836132812  16.6662708193359 8.50354168066406  16.7549583193359 8.64597918066406  C 16.7612291386719 8.65583336132812  16.7800416386719 8.65941668066406  16.7925833193359 8.66479168066406  C 16.9959375 8.743625  17.0505833193359 8.96847918066406  16.9081458193359 9.14495831933594  C 16.7809375 9.302625  16.64925 9.45670831933593  16.5220416806641 9.614375  C 16.4844166806641 9.66095831933594  16.4387291806641 9.66095831933594  16.3975208193359 9.63945831933594  C 16.32675 9.60183331933593  16.2515 9.58391663867187  16.1744583193359 9.56779168066406  C 16.1511666386719 9.5633125  16.1207083193359 9.5525625  16.1090625 9.53464581933594  C 16.0356041806641 9.42445831933594  15.9083958193359 9.4074375  15.8044791806641 9.3483125  C 15.6889166806641 9.28291668066406  15.5697708613281 9.216625  15.4658541806641 9.13420831933594  C 15.3180416806641 9.01595831933594  15.1523125 8.91025  15.0752708193359 8.72033331933594  C 15.052875 8.66479163867187  15.0036041386719 8.62358331933594  14.9498541806641 8.59133331933594  C 14.8208541806641 8.5125  14.8360833613281 8.38977081933594  14.8548958193359 8.26614581933594  C 14.8728125 8.14879163867188  14.9615 8.1281875  15.0573541806641 8.11116668066406  Z M 7.8853125 13.1529166806641  C 7.97847918066406 13.2030833613281  8.0035625 13.2828125  7.9955 13.38225  C 7.94622918066406 13.6465208193359  7.84320831933594 13.8812291806641  7.61297918066406 14.043375  C 7.52966668066407 14.1016041806641  7.42485418066406 14.0774166806641  7.3370625 14.1204166806641  C 7.15341668066406 14.2108958613281  6.96977081933593 14.2879375  6.75297918066406 14.2565833193359  C 6.66877086132812 14.2440416386719  6.57560418066406 14.2628541386719  6.4878125 14.2870416806641  C 6.4233125 14.3049583613281  6.36777081933593 14.2879375  6.3104375 14.24225  C 6.16172918066406 14.1231041806641  6.05960418066406 13.9932083193359  6.1169375 13.785375  C 6.13485418066406 13.7217708193359  6.12410418066406 13.6501041806641  6.12320831933594 13.5820208193359  C 6.12141663867187 13.2989375  6.15097913867188 13.2577291386719  6.42689581933594 13.2039791806641  C 6.5845625 13.1735208613281  6.743125 13.1502291806641  6.90527081933594 13.1484375  C 7.04054163867188 13.1475416806641  7.1758125 13.1314166806641  7.31108331933594 13.1251458193359  C 7.36752081933594 13.1224583193359  7.4015625 13.0893125  7.43739581933594 13.0534791806641  C 7.57445831933594 12.9137291806641  7.71241663867188 12.9244791806641  7.81991668066406 13.0830416806641  C 7.83872918066406 13.1099166806641  7.85664586132813 13.1367916806641  7.8853125 13.1529166806641  Z M 14.4893958193359 10.8049375  C 14.5288125 10.7386458193359  14.5888333193359 10.7063958193359  14.6569166806641 10.7117708193359  C 14.7500833613281 10.7126666386719  14.8208541806641 10.7458125  14.8871458193359 10.7915  C 14.9847916386719 10.8586875  15.0869166386719 10.9169166806641  15.20875 10.9285625  C 15.2159166806641 10.9294583193359  15.2239791806641 10.9303541806641  15.2293541806641 10.9330416806641  C 15.3977708613281 11.0378541806641  15.5814166806641 11.1122083613281  15.7561041806641 11.2044791806641  C 15.8331458613281 11.2447916806641  15.8994375 11.3083958613281  15.98275 11.3433333193359  C 16.0194791806641 11.3585625  16.0571041806641 11.377375  16.0768125 11.4123125  C 16.1144375 11.4795  16.170875 11.5108541806641  16.24075 11.538625  C 16.3688541806641 11.5905833193359  16.4002083193359 11.7724375  16.2953958193359 11.8602291806641  C 16.1592291386719 11.974  16.0544166386719 12.1146458613281  15.93975 12.2454375  C 15.8833125 12.3099375  15.8250833193359 12.3305416806641  15.7525208193359 12.2920208193359  C 15.654875 12.2409583193359  15.5563333193359 12.1925833193359  15.4810833193359 12.1065833193359  C 15.4058333193359 12.0205833193359  15.3019166386719 11.9677291386719  15.2123333193359 11.89875  C 15.0511096575538 11.7752351621062  14.8995703782772 11.6395685657586  14.7590416806641 11.4929375  C 14.7375416806641 11.4705416806641  14.7079791806641 11.4499375  14.6793125 11.441875  C 14.5350833193359 11.4006666806641  14.4634166806641 11.2707708193359  14.3577083193359 11.1829791806641  C 14.3084375 11.1417708613281  14.3236666386719 11.0853333613281  14.3523333193359 11.0351666806641  C 14.3962291386719 10.9572291806641  14.4428125 10.8810833613281  14.4893958193359 10.8049375  Z M 8.09135418066406 11.0235208193359  C 8.09225 11.0235208193359  8.09225 11.0235208193359  8.09225 11.022625  C 7.8853125 11.022625  7.67747918066406 11.0217291806641  7.47054168066406 11.022625  C 7.33527086132812 11.022625  7.26629168066406 10.9554375  7.26808331933594 10.8201666806641  C 7.26808331933594 10.7950833613281  7.26360413867188 10.7682083613281  7.27166668066406 10.7458125  C 7.32183336132812 10.5988958193359  7.30391668066406 10.4510833193359  7.28241668066406 10.302375  C 7.27704168066406 10.2638541806641  7.27972918066406 10.2226458193359  7.28779168066406 10.1850208193359  C 7.31108336132812 10.0828958193359  7.36483336132812 10.055125  7.4660625 10.0667708193359  C 7.6864375 10.0918541386719  7.9095 10.1223125  8.1110625 10.2038333193359  C 8.2884375 10.2755  8.4873125 10.3050625  8.63960418066406 10.4448125  C 8.80802086132812 10.5997916806641  8.81608336132813 10.5917291806641  8.88327081933594 10.813  C 8.925375 10.9491666806641  8.87341663867187 11.0208333193359  8.7238125 11.022625  C 8.51329168066406 11.0253125  8.301875 11.0235208193359  8.09135418066406 11.0235208193359  Z " fill-rule="nonzero" fill="#000000" stroke="none" transform="matrix(1 0 0 1 21 14 )" />
  </g>
</svg>