<?xml version="1.0" encoding="utf-8"?>
<svg version="1.1" xmlns:xlink="http://www.w3.org/1999/xlink" width="60px" height="58px" xmlns="http://www.w3.org/2000/svg">
  <g transform="matrix(1 0 0 1 -88 -43 )">
    <path d="M 118 49  C 131.44 49  142 59.12  142 72  C 142 84.88  131.44 95  118 95  C 104.56 95  94 84.88  94 72  C 94 59.12  104.56 49  118 49  Z " fill-rule="nonzero" fill="#ffffff" stroke="none" />
    <path d="M 118 46.5  C 132.84 46.5  144.5 57.72  144.5 72  C 144.5 86.28  132.84 97.5  118 97.5  C 103.16 97.5  91.5 86.28  91.5 72  C 91.5 57.72  103.16 46.5  118 46.5  Z " stroke-width="7" stroke="#c1c1c1" fill="none" />
  </g>
</svg>