<?xml version="1.0" encoding="utf-8"?>
<svg version="1.1" xmlns:xlink="http://www.w3.org/1999/xlink" width="60px" height="58px" xmlns="http://www.w3.org/2000/svg">
  <g transform="matrix(1 0 0 1 -87 -43 )">
    <path d="M 117 49  C 130.44 49  141 59.12  141 72  C 141 84.88  130.44 95  117 95  C 103.56 95  93 84.88  93 72  C 93 59.12  103.56 49  117 49  Z " fill-rule="nonzero" fill="#ffffff" stroke="none" />
    <path d="M 117 46.5  C 131.84 46.5  143.5 57.72  143.5 72  C 143.5 86.28  131.84 97.5  117 97.5  C 102.16 97.5  90.5 86.28  90.5 72  C 90.5 57.72  102.16 46.5  117 46.5  Z " stroke-width="7" stroke="#c1c1c1" fill="none" />
  </g>
</svg>