<?xml version="1.0" encoding="utf-8"?>
<svg version="1.1" xmlns:xlink="http://www.w3.org/1999/xlink" width="50px" height="50px" xmlns="http://www.w3.org/2000/svg">
  <defs>
    <filter x="72px" y="638px" width="50px" height="50px" filterUnits="userSpaceOnUse" id="filter141">
      <feOffset dx="2" dy="2" in="SourceAlpha" result="shadowOffsetInner" />
      <feGaussianBlur stdDeviation="2.5" in="shadowOffsetInner" result="shadowGaussian" />
      <feComposite in2="shadowGaussian" operator="atop" in="SourceAlpha" result="shadowComposite" />
      <feColorMatrix type="matrix" values="0 0 0 0 0  0 0 0 0 0  0 0 0 0 0  0 0 0 0.164705882352941 0  " in="shadowComposite" />
    </filter>
    <g id="widget142">
      <path d="M 95 642  C 105.64 642  114 650.36  114 661  C 114 671.64  105.64 680  95 680  C 84.36 680  76 671.64  76 661  C 76 650.36  84.36 642  95 642  Z " fill-rule="nonzero" fill="#44474d" stroke="none" />
      <path d="M 95 642  C 105.64 642  114 650.36  114 661  C 114 671.64  105.64 680  95 680  C 84.36 680  76 671.64  76 661  C 76 650.36  84.36 642  95 642  Z " stroke-width="2" stroke="#ffffff" fill="none" />
    </g>
  </defs>
  <g transform="matrix(1 0 0 1 -72 -638 )">
    <use xlink:href="#widget142" filter="url(#filter141)" />
    <use xlink:href="#widget142" />
  </g>
</svg>