<?xml version="1.0" encoding="utf-8"?>
<svg version="1.1" xmlns:xlink="http://www.w3.org/1999/xlink" width="19px" height="11px" xmlns="http://www.w3.org/2000/svg">
  <g transform="matrix(1 0 0 1 -85 -650 )">
    <path d="M 9.46389558151042 4.52507785970052  C 9.5511293203776 6.21628865429687  10.468231333724 10.1159305645616  17.298862250651 10.1159305645616  C 17.5058876592809 10.1500534618253  17.6970292847773 10.2447841755449  17.8463687097656 10.3872774127604  L 17.8463687097656 8.91757425075955  C 17.8475165011837 8.86304770299121  17.848090441276 8.80851131461145  17.848090441276 8.75397352030575  C 17.848090441276 4.30463907088507  14.1100322766001 0.697740841811831  9.49890384720052 0.697740841811831  C 4.88777541780091 0.697740841811831  1.149717253125 4.30463907088507  1.149717253125 8.75397352030575  C 1.149717253125 8.80851131461145  1.1502911932173 8.86304770299121  1.15143898463542 8.91757425075955  L 1.15143898463542 10.3928151226129  C 1.27275837610389 10.288574624781  1.40975738306499 10.2026871489516  1.55776453606771 10.1380813347439  C 8.1932673764974 10.1380813347439  9.30549746634115 6.22071882910156  9.46389558151042 4.52507785970052  Z " fill-rule="nonzero" fill="#c9d4f8" stroke="none" transform="matrix(1 0 0 1 85 650 )" />
  </g>
</svg>