<?xml version="1.0" encoding="utf-8"?>
<svg version="1.1" xmlns:xlink="http://www.w3.org/1999/xlink" width="8px" height="8px" xmlns="http://www.w3.org/2000/svg">
  <g transform="matrix(1 0 0 1 -91 -625 )">
    <path d="M 95 626  C 96.68 626  98 627.32  98 629  C 98 630.68  96.68 632  95 632  C 93.32 632  92 630.68  92 629  C 92 627.32  93.32 626  95 626  Z " fill-rule="nonzero" fill="#ffffff" stroke="none" />
    <path d="M 95 626  C 96.68 626  98 627.32  98 629  C 98 630.68  96.68 632  95 632  C 93.32 632  92 630.68  92 629  C 92 627.32  93.32 626  95 626  Z " stroke-width="2" stroke="#000000" fill="none" />
  </g>
</svg>