<?xml version="1.0" encoding="utf-8"?>
<svg version="1.1" xmlns:xlink="http://www.w3.org/1999/xlink" width="9px" height="9px" xmlns="http://www.w3.org/2000/svg">
  <g transform="matrix(1 0 0 1 -89 -36 )">
    <path d="M 2.76000001875 4.52999998125  C 2.76000001875 3.55576968254848  3.54976972004848 2.76599998125  4.52400001875 2.76599998125  C 4.52798653292508 2.76597313516721  4.53197312619384 2.76595971201168  4.53595973076167 2.76595971201168  C 5.51681743610582 2.76595971201168  6.31195971201167 3.56110198791753  6.31195971201167 4.54195969326168  C 6.31195971201167 5.52281739860582  5.51681743610582 6.31795967451168  4.53595973076167 6.31795967451168  C 3.55510202541753 6.31795967451168  2.75995974951167 5.52281739860582  2.75995974951167 4.54195969326168  C 2.75995974951167 4.53797308869384  2.75997317266721 4.53398649542508  2.76000001875 4.52999998125  Z M 4.53600000003567 0.365982727701832  C 4.53200000004587 0.365982727701832  4.52800000212976 0.365988491390539  4.52400001875 0.366000018750003  C 2.21767614497917 0.366000018714409  0.348017260272563 2.23565890342102  0.348017260272563 4.54200001871441  C 0.348017260272563 6.8483411340078  2.21767614497917 8.71800001871441  4.52401726027256 8.71800001871441  C 6.83035837556596 8.71800001871441  8.70001726027256 6.8483411340078  8.70001726027256 4.54200001871441  C 8.70001726027256 4.53800000003292  8.70001151309244 4.53399998341654  8.70000001875 4.52999998125  C 8.70000001878567 2.23026903780107  6.83571370868643 0.365982727701832  4.53600000003567 0.365982727701832  Z " fill-rule="nonzero" fill="#737373" stroke="none" transform="matrix(1 0 0 1 89 36 )" />
  </g>
</svg>