<?xml version="1.0" encoding="utf-8"?>
<svg version="1.1" xmlns:xlink="http://www.w3.org/1999/xlink" width="50px" height="48px" xmlns="http://www.w3.org/2000/svg">
  <g transform="matrix(1 0 0 1 -93 -48 )">
    <path d="M 118 49  C 131.44 49  142 59.12  142 72  C 142 84.88  131.44 95  118 95  C 104.56 95  94 84.88  94 72  C 94 59.12  104.56 49  118 49  Z " fill-rule="nonzero" fill="#ffffff" stroke="none" />
    <path d="M 118 49  C 131.44 49  142 59.12  142 72  C 142 84.88  131.44 95  118 95  C 104.56 95  94 84.88  94 72  C 94 59.12  104.56 49  118 49  Z " stroke-width="2" stroke="#c1c1c1" fill="none" />
  </g>
</svg>