<?xml version="1.0" encoding="utf-8"?>
<svg version="1.1" xmlns:xlink="http://www.w3.org/1999/xlink" width="14px" height="15px" xmlns="http://www.w3.org/2000/svg">
  <g transform="matrix(1 0 0 1 -95 -17 )">
    <path d="M 7 2.70303028409091  C 9.57732882247601 2.70303028409091  11.6666666484375 4.87377088249245  11.6666666484375 7.55151511363636  C 11.6666666484375 10.2292593447803  9.57732882247601 12.3999999431818  7 12.3999999431818  C 4.42267119888078 12.3999999431818  2.33333338176557 10.2292593794096  2.3333333515625 7.55151517045454  C 2.3333333515625 4.87377088249245  4.42267117752399 2.70303028409091  7 2.70303028409091  Z M 14 7.55151517045454  C 14 3.53489880804878  10.8659932488156 0.278787897727273  7 0.278787897727273  C 3.13400675118445 0.278787897727273  0 3.53489880804878  0 7.55151517045454  C 0 11.5681315328603  3.13400675118445 14.8242424431818  7 14.8242424431818  C 10.8659932488156 14.8242424431818  14 11.5681315328603  14 7.55151517045454  Z " fill-rule="nonzero" fill="#737373" stroke="none" transform="matrix(1 0 0 1 95 17 )" />
  </g>
</svg>