<?xml version="1.0" encoding="utf-8"?>
<svg version="1.1" xmlns:xlink="http://www.w3.org/1999/xlink" width="350px" height="47px" xmlns="http://www.w3.org/2000/svg">
  <g transform="matrix(1 0 0 1 -12 -591 )">
    <path d="M 332.845852426382 47  L 349.986492450421 28.7309596819197  C 347.6898965087 29.3511069161063  345.320919292409 29.6642988683205  342.941671048678 29.66232421875  C 328.427641413762 29.66232421875  316.595277756911 24.5478285435268  316.017194073017 10.5270164620536  L 316.017194073017 10.3599658203125  L 315.989666278546 6.51780106026791  C 315.989666278546 6.51780106026791  315.989666278546 -8.86229980468747  308.247474083534 10  L 42.0416794996995 10  C 34.3017812875601 -8.86229980468747  34.3017812875601 6.51780106026791  34.3017812875601 6.51780106026791  L 34.274253493089 10.3599658203125  L 34.274253493089 10.5270164620536  C 33.6961698091946 24.5501169084822  21.8638061523437 29.66232421875  7.35207050030047 29.66232421875  C 4.91356670673084 29.66232421875  2.55305833082927 29.3373763950894  0.307249098557656 28.7309596819197  L 11.1761399489183 41.3444273158482  L 25.8301025390625 47  L 332.845852426382 47  Z " fill-rule="nonzero" fill="#e1e1e1" stroke="none" transform="matrix(1 0 0 1 12 591 )" />
  </g>
</svg>