<?xml version="1.0" encoding="utf-8"?>
<svg version="1.1" xmlns:xlink="http://www.w3.org/1999/xlink" width="88px" height="11px" xmlns="http://www.w3.org/2000/svg">
  <g transform="matrix(1 0 0 1 -162 -591 )">
    <path d="M 5.96110026041667 7.78350036621089  C 5.96110026041667 9.33700195312503  4.73869140624993 10.5976110839843  3.23226562500001 10.5976110839843  C 1.72583984374993 10.5976110839843  0.505703125000006 9.33700195312503  0.505703125000006 7.78350036621089  L 0.505703125000006 3.0198974609375  C 0.505703125000006 2.01469055175784  1.02374999999999 1.08680725097656  1.86898437500001 0.583032226562437  C 2.71421875000002 0.0816003417969  3.75258463541665 0.0816003417969  4.59781901041667 0.583032226562437  C 5.44305338541669 1.08680725097656  5.96110026041667 2.01469055175784  5.96110026041667 3.0198974609375  L 5.96110026041667 7.78350036621089  Z M 19.59845703125 7.78350036621089  C 19.59845703125 9.33700195312503  18.3783203125001 10.5976110839843  16.87189453125 10.5976110839843  C 15.3654687499999 10.5976110839843  14.1430598958333 9.33700195312503  14.1430598958333 7.78350036621089  L 14.1430598958333 3.0198974609375  C 14.1430598958333 2.01469055175784  14.66337890625 1.08680725097656  15.5063411458333 0.583032226562437  C 16.3493033854167 0.0816003417969  17.38994140625 0.0816003417969  18.23517578125 0.583032226562437  C 19.0781380208333 1.08680725097656  19.59845703125 2.01469055175784  19.59845703125 3.0198974609375  L 19.59845703125 7.78350036621089  Z M 33.2358138020833 7.78350036621089  C 33.2358138020833 9.33700195312503  32.0134049479167 10.5976110839843  30.5069791666666 10.5976110839843  C 29.0005533854167 10.5976110839843  27.7804166666666 9.33700195312503  27.7804166666666 7.78350036621089  L 27.7804166666666 3.0198974609375  C 27.7804166666666 1.46639587402336  29.0005533854167 0.205786743164069  30.5069791666666 0.205786743164069  C 32.0134049479167 0.205786743164069  33.2358138020833 1.46639587402336  33.2358138020833 3.0198974609375  L 33.2358138020833 7.78350036621089  Z M 46.8731705729166 7.78350036621089  C 46.8731705729166 9.33700195312503  45.6530338541667 10.5976110839843  44.1466080729166 10.5976110839843  C 42.6401822916667 10.5976110839843  41.4177734375 9.33700195312503  41.4177734375 7.78350036621089  L 41.4177734375 3.0198974609375  C 41.4177734375 1.46639587402336  42.6401822916667 0.205786743164069  44.1466080729166 0.205786743164069  C 45.6530338541667 0.205786743164069  46.8731705729166 1.46639587402336  46.8731705729166 3.0198974609375  L 46.8731705729166 7.78350036621089  Z M 60.5082552083333 7.78350036621089  C 60.51052734375 9.33700195312503  59.2881184895834 10.5976110839843  57.7816927083333 10.5976110839843  C 56.2752669270834 10.5976110839843  55.0551302083333 9.33700195312503  55.0551302083333 7.78350036621089  L 55.0551302083333 3.0198974609375  C 55.0551302083333 2.01469055175784  55.5754492187499 1.08680725097656  56.4184114583333 0.585375366210869  C 57.2613736979166 0.0839434814453313  58.3020117187499 0.0839434814453313  59.1449739583333 0.585375366210869  C 59.9879361979166 1.08680725097656  60.5082552083333 2.01703369140627  60.5082552083333 3.0198974609375  L 60.5082552083333 7.78350036621089  Z M 74.1456119791666 7.78350036621089  C 74.1456119791666 9.33700195312503  72.9254752604167 10.5976110839843  71.4190494791666 10.5976110839843  C 69.9126236979167 10.5976110839843  68.69021484375 9.33700195312503  68.69021484375 7.78350036621089  L 68.69021484375 3.0198974609375  C 68.69021484375 2.01469055175784  69.2105338541666 1.08680725097656  70.05349609375 0.585375366210869  C 70.8964583333333 0.0839434814453313  71.9370963541666 0.0839434814453313  72.7823307291666 0.585375366210869  C 73.62529296875 1.08680725097656  74.1456119791666 2.01703369140627  74.1456119791666 3.0198974609375  L 74.1456119791666 7.78350036621089  Z M 87.7829687499999 7.78350036621089  C 87.7852408854166 9.33700195312503  86.56283203125 10.5976110839843  85.0564062499999 10.5976110839843  C 83.54998046875 10.5976110839843  82.3298437499999 9.33700195312503  82.3298437499999 7.78350036621089  L 82.3298437499999 3.0198974609375  C 82.3298437499999 2.01469055175784  82.8501627604166 1.08680725097656  83.6931249999999 0.585375366210869  C 84.5360872395833 0.0839434814453313  85.5767252604166 0.0839434814453313  86.4196874999999 0.585375366210869  C 87.2626497395833 1.08680725097656  87.7829687499999 2.01703369140627  87.7829687499999 3.0198974609375  L 87.7829687499999 7.78350036621089  Z " fill-rule="nonzero" fill="#9f9f9f" stroke="none" transform="matrix(1 0 0 1 162 591 )" />
  </g>
</svg>