<?xml version="1.0" encoding="utf-8"?>
<svg version="1.1" xmlns:xlink="http://www.w3.org/1999/xlink" width="60px" height="34px" xmlns="http://www.w3.org/2000/svg">
  <g transform="matrix(1 0 0 1 -34 -72 )">
    <path d="M 55.3728813559322 10  L 55.3728813559322 10.0261596244131  L 59.8926553672316 16  L 17.8039768493313 16  C 14.4043413895135 16.4011549295775  12.3256007101432 25.7712629107981  18.3460812403835 28  L 31.7705717126287 28  C 33.80669433069 28.0742957746479  33.7074731210794 24.1438450704225  31.7844905195881 24.2845023474178  L 23.6895775121316 24.2879530516432  C 20.7189064267961 24.1999107981221  20.6232311989585 19.2711220657277  23.6452030299444 19.042455399061  L 31.0614084980471 19.0441643192488  L 32.1795526571192 19.0640140845071  C 39.3033306190082 19.3004694835681  39.0771168659013 33.0919483568075  32.8556089951473 33.7520845070422  L 31.6165369156113 33.7520845070422  L 17.756984305835 33.7641784037559  C 17.1061143804 33.7192863849765  15.7539354243106 33.1773943661972  14.9864789205823 32.5837089201878  C 7.00033144750859 26.4201267605634  9.15131736300154 15.2837183098592  14.9133720440289 11.3351596244131  C 15.4919967333412 10.9382300469483  16.3987075866966 10.0986244131455  17.9510191028524 10  L 55.3728813559322 10  Z M 36.3675228311043 1  L 36.3675228311043 0.654342723004703  C 36.8747970647414 0.654342723004703  37.288086211386 1.12462441314554  37.288086211386 1.69842723004695  L 37.288086211386 5.14393896713614  C 37.288086211386 5.71862910798123  36.8747970647414 6.18976525821597  36.3674896910877 6.18976525821597  L 11.6503397325127 6.18976525821597  C 11.1413090779974 6.18976525821597  10.7288815717836 5.71862910798123  10.7288815717836 5.14393896713614  L 10.7288815717836 1.69924882629107  C 10.7288815717836 1.12459154929579  11.141342218014 0.654309859154921  11.6503728725293 1  L 36.3675228311043 1  Z M 8.86502075985324 15.4027840375587  L 2.68878215173393 15.3751784037559  C -0.0634962244052559 14.9454507042254  0.178425896555808 10.3341924882629  2.68878215173393 10  L 12.8641591194224 10  C 11.0690638418748 11.1479014084507  9.69166533317552 12.8745352112676  8.86502075985324 15.4027840375587  Z " fill-rule="nonzero" fill="#c1c1c1" stroke="none" transform="matrix(1 0 0 1 34 72 )" />
  </g>
</svg>