<?xml version="1.0" encoding="utf-8"?>
<svg version="1.1" xmlns:xlink="http://www.w3.org/1999/xlink" width="50px" height="50px" xmlns="http://www.w3.org/2000/svg">
  <defs>
    <filter x="20px" y="43px" width="50px" height="50px" filterUnits="userSpaceOnUse" id="filter77">
      <feOffset dx="2" dy="2" in="SourceAlpha" result="shadowOffsetInner" />
      <feGaussianBlur stdDeviation="2.5" in="shadowOffsetInner" result="shadowGaussian" />
      <feComposite in2="shadowGaussian" operator="atop" in="SourceAlpha" result="shadowComposite" />
      <feColorMatrix type="matrix" values="0 0 0 0 0  0 0 0 0 0  0 0 0 0 0  0 0 0 0.164705882352941 0  " in="shadowComposite" />
    </filter>
    <g id="widget78">
      <path d="M 43 47  C 53.64 47  62 55.36  62 66  C 62 76.64  53.64 85  43 85  C 32.36 85  24 76.64  24 66  C 24 55.36  32.36 47  43 47  Z " fill-rule="nonzero" fill="#44474d" stroke="none" />
      <path d="M 43 47  C 53.64 47  62 55.36  62 66  C 62 76.64  53.64 85  43 85  C 32.36 85  24 76.64  24 66  C 24 55.36  32.36 47  43 47  Z " stroke-width="2" stroke="#ffffff" fill="none" />
    </g>
  </defs>
  <g transform="matrix(1 0 0 1 -20 -43 )">
    <use xlink:href="#widget78" filter="url(#filter77)" />
    <use xlink:href="#widget78" />
  </g>
</svg>