<?xml version="1.0" encoding="utf-8"?>
<svg version="1.1" xmlns:xlink="http://www.w3.org/1999/xlink" width="8px" height="8px" xmlns="http://www.w3.org/2000/svg">
  <g transform="matrix(1 0 0 1 -39 -30 )">
    <path d="M 43 31  C 44.68 31  46 32.32  46 34  C 46 35.68  44.68 37  43 37  C 41.32 37  40 35.68  40 34  C 40 32.32  41.32 31  43 31  Z " fill-rule="nonzero" fill="#ffffff" stroke="none" />
    <path d="M 43 31  C 44.68 31  46 32.32  46 34  C 46 35.68  44.68 37  43 37  C 41.32 37  40 35.68  40 34  C 40 32.32  41.32 31  43 31  Z " stroke-width="2" stroke="#000000" fill="none" />
  </g>
</svg>