<?xml version="1.0" encoding="utf-8"?>
<svg version="1.1" xmlns:xlink="http://www.w3.org/1999/xlink" width="11px" height="15px" xmlns="http://www.w3.org/2000/svg">
  <g transform="matrix(1 0 0 1 -29 -95 )">
    <path d="M 9.69032245898438 6.02483916113281  L 5.74072129101562 6.02483916113281  C 7.27114566015625 0.3726013828125  4.68624622070313 0.083916115234375  4.68624622070313 0.083916115234375  C 3.59065902441406 0.083916115234375  3.81777804492187 0.950226751787109  3.73492522460938 1.0946458359375  C 3.73492522460938 3.85884171875  0.798941818359375 6.02483916113281  0.798941818359375 6.02483916113281  L 0.798941818525391 13.863630453125  C 0.798941818525391 14.63738784375  1.85341688883789 14.9160669013672  2.267069421875 14.9160669013672  L 8.20133298339844 14.9160669013672  C 8.75982931835938 14.9160669013672  9.21462797753906 13.4514049404297  9.21462797753906 13.4514049404297  C 10.6827725808887 8.45922063378906  10.6827725810547 6.97384971777344  10.6827725808887 6.97384971777344  C 10.6827895644531 5.94242804199219  9.69032245898438 6.02483916113281  9.69032245898438 6.02483916113281  Z " fill-rule="nonzero" fill="#515151" stroke="none" transform="matrix(1 0 0 1 29 95 )" />
  </g>
</svg>