<?xml version="1.0" encoding="utf-8"?>
<svg version="1.1" xmlns:xlink="http://www.w3.org/1999/xlink" width="34px" height="21px" xmlns="http://www.w3.org/2000/svg">
  <g transform="matrix(1 0 0 1 -87 -21 )">
    <path d="M 2.74354980194805 10.5029787047872  C 2.74354980194805 6.84510632712765  8.63099570779221 2.77021276595744  17.0500433084416 2.77021276595745  C 25.4690909090909 2.77021276595745  31.3447619415584 6.84510638297872  31.3447618863636 10.5029787047872  C 31.3447618311688 14.1608510265957  25.4573159805195 18.235744643617  17.0500433084416 18.2357446994681  C 8.64277063636363 18.2357447553191  2.74354980194805 14.1608510824468  2.74354980194805 10.5029787047872  Z M 33.6997402597403 10.5029787047872  C 33.6997402597403 4.91489361702127  26.2462337662338 0.387234023936171  17.0500433084416 0.387234023936169  C 7.85385285064935 0.387234023936169  0.388571428571427 4.91489361702128  0.388571428571427 10.5029787047872  C 0.388571428571427 16.0910637925532  7.85385279545454 20.6187233856383  17.0500433084416 20.6187233856383  C 26.2462338214286 20.6187233856383  33.6997402597403 16.0910637925532  33.6997402597403 10.5029787047872  Z " fill-rule="nonzero" fill="#737373" stroke="none" transform="matrix(1 0 0 1 87 21 )" />
  </g>
</svg>