<?xml version="1.0" encoding="utf-8"?>
<svg version="1.1" xmlns:xlink="http://www.w3.org/1999/xlink" width="51px" height="54px" xmlns="http://www.w3.org/2000/svg">
  <g transform="matrix(1 0 0 1 -162 -148 )">
    <path d="M 50.4158434416119 27.06802734375  C 50.9681512129934 24.9875244140625  50.7539910567434 23.12244140625  50.3707570929276 21.1553173828125  C 49.9311651932566 18.9217529296875  49.1308825041118 16.829912109375  48.2460629111842 14.73240234375  C 47.4006938733553 12.73693359375  46.4933311060855 10.83216796875  45.106925884046 9.1711669921875  C 44.3968158922697 8.3208251953125  43.714884868421 7.43080078125  42.429923930921 7.5441796875  C 42.8075221011513 7.2550634765625  43.3034719366776 6.9942919921875  42.6722630550987 6.4727490234375  C 37.5605982730263 1.4500634765625  31.2879600123355 -0.2959716796875  24.3446623149671 0.0781787109374999  C 20.670124897204 0.276591796875  17.1815686677632 1.4387255859375  14.1382401315789 3.4682080078125  C 10.4693385074013 5.9171923828125  6.34393760279605 8.0940673828125  5.19987150493421 12.941015625  C 4.87299547697368 14.32423828125  3.93181794819079 15.3446484375  3.44150390625 16.648505859375  C 2.81029502467105 18.3378515625  2.68067177220395 20.26529296875  1.48024773848684 21.7789013671875  C 0.505255448190789 23.0090625  0.189651007401315 24.5056640625  0.358724814967104 26.1213134765625  C 0.539070209703946 27.88435546875  0.572884971217104 29.6700732421875  0.668693462171051 31.444453125  C 0.696872430098683 31.9433203125  0.770137746710525 32.4025048828125  1.44079718338816 32.0056787109375  C 1.9423828125 32.73697265625  0.798316714638157 32.7199658203125  0.865946237664472 33.337880859375  C 1.05756321957237 35.0272265625  1.15337171052631 36.72791015625  2.00437654194079 38.2528564453125  C 2.25235145970395 37.9353955078125  2.41015368009868 37.578251953125  2.23544407894737 37.192763671875  C 1.58732781661184 35.809541015625  2.24671566611842 34.2959326171875  1.77330900493421 32.895703125  C 3.04699835526316 31.87529296875  3.120263671875 30.095244140625  4.23051500822368 28.961455078125  C 4.29814453125 28.893427734375  4.26432976973684 28.689345703125  4.23615080180921 28.5589599609375  C 4.01071905838816 27.3117919921875  4.20233604029605 26.07029296875  4.21924342105263 24.8287939453125  C 4.25305818256579 22.634912109375  4.2136076274671 20.4750439453125  4.57429841694079 18.281162109375  C 4.87299547697368 16.4500927734375  5.65637078536184 14.84578125  6.21995014391447 13.14509765625  C 6.42283871299342 12.544189453125  6.48483244243421 11.78455078125  7.45418893914473 11.8072265625  C 7.73597861842105 11.8128955078125  8.01776829769737 11.455751953125  7.78670076069079 11.0759326171875  C 7.47673211348684 10.571396484375  7.7472502055921 10.2029150390625  8.05158305921052 9.857109375  C 8.85750154194079 8.9330712890625  9.61269788240131 7.9466748046875  10.5087890625 7.1190087890625  C 13.1688836348684 4.6586865234375  16.4489155016447 3.5248974609375  19.9374717310855 2.906982421875  C 21.4591359991776 2.6405419921875  23.0653371710526 2.26072265625  24.5250077097039 2.7879345703125  C 27.8275827508224 3.995419921875  30.972355571546 5.684765625  34.3256527549342 6.693837890625  C 38.7610223067434 8.0260400390625  39.7754651521382 11.7675439453125  41.3534873560855 15.537392578125  C 39.1667994449013 13.4568896484375  35.9656686883224 11.682509765625  34.8779605263158 11.8582470703125  C 37.1153705797697 14.8287744140625  40.3503160978618 16.897939453125  42.4468313116776 20.015859375  C 39.9839895148026 17.90701171875  37.6676783511513 15.6224267578125  34.1114925986842 14.879794921875  C 35.030126953125 16.308369140625  36.4503469366776 16.7448779296875  37.4422466077303 17.74828125  C 40.1023411800987 20.435361328125  42.4919176603619 23.292509765625  44.34609375 26.5975048828125  C 44.7575066817434 27.3344677734375  44.6955129523026 28.0147412109375  44.3968158922697 28.8140625  C 43.9121376439145 30.095244140625  43.5007247121711 31.523818359375  43.8726870888158 32.82767578125  C 44.7011487458882 35.7528515625  43.1569413034539 37.8220166015625  41.5338327508224 39.7381201171875  C 39.3922311883224 42.272138671875  36.8673956620066 44.1825732421875  33.4971910978618 45.2369970703125  C 30.3862330386513 46.2120556640625  27.4105340254934 46.6882470703125  24.2319464432566 46.3594482421875  C 20.670124897204 45.990966796875  17.4746299342105 44.59640625  14.3467644942434 42.96375  C 13.9804379111842 42.7199853515625  13.5352102179276 42.5385791015625  13.2534205386513 42.2211181640625  C 11.0610968338816 39.732451171875  8.40100226151317 37.6519482421875  6.68772101151317 34.73244140625  C 6.6313630756579 34.5000146484375  6.40029553865133 34.2108984375  6.28194387335527 34.32427734375  C 5.94943205180922 34.64173828125  6.12977744654606 35.0328955078125  6.35520918996712 35.36736328125  C 6.21431435032896 35.798203125  6.15795641447369 36.1893603515625  6.29885125411185 36.6768896484375  C 6.63136307565791 37.8220166015625  6.96951069078948 39.0805224609375  6.9075169613487 40.17462890625  C 6.86243061266448 40.979619140625  6.86806640625001 41.886650390625  7.26820775082238 42.2324560546875  C 7.79233655427633 42.6859716796875  8.35028011924343 42.997763671875  8.51371813322369 43.7290576171875  C 8.51935392680922 43.746064453125  8.60952662417764 43.7630712890625  8.6433413856908 43.746064453125  C 9.58451891447369 43.2528662109375  9.84376541940791 44.21091796875  10.1650056537829 44.6247509765625  C 10.9202019942434 45.5998095703125  11.6303119860197 46.4047998046875  12.9659950657895 46.61455078125  C 13.6930124383224 46.7279296875  13.828271484375 46.739267578125  13.8000925164474 45.990966796875  C 13.7719135485197 45.2766796875  13.495759662829 44.505703125  14.031160053454 43.8424365234375  C 14.4087582236842 44.6587646484375  15.1808619449013 45.356044921875  14.5158383018092 46.43314453125  C 14.2115054481908 46.9263427734375  14.8427143297698 47.20412109375  15.1752261513158 47.226796875  C 16.076953125 47.2891552734375  16.3249280427632 47.8900634765625  16.6518040707237 48.58734375  C 17.0519454152961 49.4546923828125  17.6042531866776 50.1463037109375  18.8046772203948 49.7041259765625  C 19.9769222861842 49.2676171875  21.1942537006579 48.6610400390625  22.4679430509869 49.0465283203125  C 23.4823858963816 49.3526513671875  24.5193719161184 47.771015625  25.4830926192434 49.1712451171875  C 25.5676295230263 49.29029296875  25.9564992804276 48.916142578125  26.1481162623355 48.6270263671875  C 26.4806280838816 48.133828125  27.1963738692434 47.8560498046875  27.534521484375 48.2528759765625  C 28.1037366365132 48.9218115234375  28.6898591694079 48.678046875  29.247802734375 48.5419921875  C 30.0988075657895 48.3322412109375  30.8596396998355 49.1485693359375  31.6937371504934 48.678046875  C 32.0149773848684 49.823173828125  32.7476305509869 49.2279345703125  33.3732036389803 49.074873046875  C 36.0163908305921 48.417275390625  38.1523565995066 46.93201171875  39.9163599917763 44.8968603515625  C 41.5281969572369 43.0374462890625  43.0724043996711 41.12701171875  44.6616981907895 39.2505908203125  C 44.9829384251645 38.870771484375  45.4338019120066 38.2018359375  45.7099557976974 38.258525390625  C 46.6173185649671 38.4342626953125  46.5102384868421 37.8390234375  46.6398617393092 37.3571630859375  C 46.7300344366776 37.0226953125  46.7356702302632 36.5521728515625  47.2541632401316 36.6315380859375  C 47.7388414884869 36.705234375  47.7219341077303 37.1644189453125  47.7050267269737 37.5045556640625  C 47.6373972039474 38.734716796875  48.189704975329 39.891181640625  47.9360942639803 41.21771484375  C 48.7532843338816 40.9739501953125  48.8716359991776 40.3843798828125  49.0125308388158 39.823154296875  C 49.378857421875 38.349228515625  49.5084806743421 36.8469580078125  49.4915732935855 35.333349609375  C 49.4690301192434 32.5385595703125  49.6944618626645 29.72109375  50.4158434416119 27.06802734375  Z M 4.46721833881579 2.9126513671875  C 4.44467516447369 4.1031298828125  5.14351356907895 4.8684375  6.24249331825658 4.8684375  C 7.31892989309211 4.8684375  8.41790964226974 3.8536962890625  8.43481702302632 2.85029296875  C 8.4517244037829 1.8298828125  7.57254060444079 0.979541015625  6.50173982319079 0.979541015625  C 5.37458110608553 0.979541015625  4.48412571957237 1.8242138671875  4.46721833881579 2.9126513671875  Z M 25.2463892886513 22.1417138671875  C 25.0435007195724 21.818583984375  25.5619937294408 21.206337890625  24.8800627055921 20.9172216796875  C 24.643359375 20.8151806640625  24.4066560444079 20.8491943359375  24.2657612047697 21.0419384765625  C 23.4091205797697 22.226748046875  22.6482884457237 23.4342333984375  22.9244423314145 25.0215380859375  C 23.0709729646382 25.854873046875  23.4091205797697 25.8945556640625  23.9839715254934 25.4183642578125  C 24.9758711965461 24.5906982421875  25.1731239720395 23.43990234375  25.2463892886513 22.1417138671875  Z M 1.96492598684211 38.3095458984375  L 2.01001233552632 38.26986328125  C 2.01001233552632 38.2641943359375  2.00437654194079 38.2641943359375  2.00437654194079 38.258525390625  C 1.99310495476974 38.2755322265625  1.98183336759868 38.2925390625  1.96492598684211 38.3095458984375  Z M 3.48659025493421 40.911591796875  C 3.27806589226974 40.435400390625  3.21043636924342 39.8288232421875  2.58486328125 39.641748046875  C 2.60740645559211 39.1031982421875  2.77084446957237 38.5022900390625  2.02128392269737 38.326552734375  C 2.12272820723684 38.870771484375  2.22980828536184 39.4093212890625  2.33125256990132 39.9535400390625  C 3.17098581414474 41.886650390625  4.09525596217105 43.7630712890625  5.58310546875 45.32203125  C 4.85045230263158 43.859443359375  4.15161389802632 42.3911865234375  3.48659025493421 40.911591796875  Z M 9.77050010279605 49.24494140625  C 8.83495836759869 48.79142578125  8.49117495888158 47.47623046875  6.99205386513158 47.29482421875  C 7.78670076069079 48.3662548828125  8.25447162828947 49.3186376953125  9.38163034539474 49.5794091796875  C 10.9314735814145 51.3084375  12.9040013363487 52.306171875  15.0794176603618 52.9807763671875  C 13.3492290296053 51.6655810546875  11.4668739720395 50.5884814453125  9.77050010279605 49.24494140625  Z M 16.6630756578947 22.98638671875  C 17.0068590666118 22.9580419921875  17.2604697779605 22.7652978515625  17.2830129523026 22.408154296875  C 17.3111919202303 22.0283349609375  17.0801243832237 21.8469287109375  16.7363409745066 21.8242529296875  C 16.2572985197368 21.8582666015625  16.0938605057566 22.181396484375  16.0994962993421 22.555546875  C 16.0994962993421 22.861669921875  16.3587428042763 23.0147314453125  16.6630756578947 22.98638671875  Z M 2.01001233552632 38.26986328125  L 1.97056178042763 38.3095458984375  C 1.99310495476974 38.31521484375  2.00437654194079 38.3208837890625  2.02128392269737 38.326552734375  C 2.01564812911184 38.3095458984375  2.01564812911184 38.2868701171875  2.01001233552632 38.26986328125  Z M 34.8610531455592 38.63267578125  C 34.8666889391447 38.848095703125  35.0583059210526 38.916123046875  35.2104723478618 38.8764404296875  C 35.3513671875 38.8424267578125  35.4640830592105 38.700703125  35.5429841694079 38.6383447265625  C 35.5204409950658 38.3208837890625  35.3513671875 38.281201171875  35.1822933799342 38.2982080078125  C 35.0019479851974 38.3208837890625  34.8554173519737 38.42859375  34.8610531455592 38.63267578125  Z M 0.251644736842105 13.2754833984375  C 0.268552117598684 13.5249169921875  0.482712273848684 13.64396484375  0.71941560444079 13.666640625  C 0.888489412006579 13.6836474609375  1.06883480674342 13.677978515625  1.10828536184211 13.4228759765625  C 1.01811266447368 13.224462890625  0.882853618421052 13.043056640625  0.629242907072368 13.0373876953125  C 0.460169099506579 13.03171875  0.240373149671053 13.043056640625  0.251644736842105 13.2754833984375  Z M 17.3337350945724 53.96150390625  C 16.7757915296053 53.3776025390625  16.4940018503289 53.2528857421875  15.9529656661184 53.564677734375  C 16.3925575657895 53.6950634765625  16.6856188322368 53.7744287109375  17.3337350945724 53.96150390625  Z " fill-rule="nonzero" fill="#000000" stroke="none" transform="matrix(1 0 0 1 162 148 )" />
  </g>
</svg>