<?xml version="1.0" encoding="utf-8"?>
<svg version="1.1" xmlns:xlink="http://www.w3.org/1999/xlink" width="35px" height="38px" xmlns="http://www.w3.org/2000/svg">
  <g transform="matrix(1 0 0 1 -15 -17 )">
    <path d="M 18.9551666523438 7.39325  C 18.9368333046875 7.374  18.9166666523438 7.363  18.88275 7.3355  C 19.2063333476562 7.19616665234375  19.5024166523438 7.03116665234375  19.8516666523438 7.02475  C 20.0056666523437 7.022  20.1541666523438 6.96975  20.31 6.97066665234375  C 20.36225 6.97066665234375  20.40625 6.93766665234375  20.442 6.89825  C 20.5135 6.8185  20.59875 6.76808334765625  20.7096666523437 6.76441665234375  C 20.7344166523438 6.7635  20.7628333046875 6.758  20.783 6.74516665234375  C 21.1863333476563 6.494  21.6153333476563 6.2758333046875  21.9123333476563 5.88441665234375  C 22.2056666953125 5.4975833046875  22.43025 5.08141665234375  22.5301666523437 4.59833334765625  C 22.66675 3.9346666953125  22.7694166523437 3.27008334765625  22.6878333476562 2.59175  C 22.6374166953125 2.1765  22.4925833476563 1.79608334765625  22.2276666523437 1.467  C 22.1405833046875 1.35791665234375  22.0544166523437 1.24791665234375  21.9920833476562 1.12233334765625  C 21.9105 0.956416695312497  21.9123333476563 0.789583347656247  22.0030833476562 0.627333347656247  C 22.0865 0.478833347656247  22.17725 0.427499999999998  22.3395 0.476999999999998  C 22.4898333476562 0.522833347656247  22.6429166523437 0.520083347656247  22.7941666523437 0.537499999999997  C 22.8711666523437 0.546666652343747  22.92525 0.582416652343747  22.9866666523437 0.626416652343748  C 23.3936666523437 0.912416652343747  23.4248333046875 1.3725833046875  23.5155833476562 1.79241665234375  C 23.6613333476563 2.4615833046875  23.74475 3.1435833046875  23.9161666523438 3.80725  C 23.9665833046875 4.0025  24.0243333046875 4.19591665234375  24.0683333476562 4.39208334765625  C 24.116 4.60383334765625  24.2580833476563 4.76975  24.33325 4.96775  C 24.3598333476562 5.03833334765625  24.4359166523437 5.05941665234375  24.5110833476563 5.08141665234375  C 24.9263333476563 5.2015  25.3599166953125 5.1895833046875  25.7815833476563 5.25741665234375  C 26.10975 5.3105833046875  26.4223333476563 5.4105  26.7294166523438 5.53241665234375  C 27.1281666523438 5.691  27.5296666523438 5.8413333046875  27.94125 5.96233334765625  C 28.2144166523438 6.04208334765625  28.4225 6.2025  28.5893333476563 6.428  C 28.7671666953125 6.66816665234375  28.9129166953125 6.92666665234375  29.0385 7.19525  C 29.2218333476563 7.58575  29.4940833476563 7.87358334765625  29.9111666523438 8.01108334765625  C 30.1036666523438 8.2054166953125  30.3695 8.14858334765625  30.6005 8.20908334765625  C 30.6811666523438 8.2301666953125  30.7655 8.1889166953125  30.8415833476563 8.15225  C 30.9378333476563 8.10458334765625  31.0395833476563 8.0725  31.1468333476563 8.067  C 31.41725 8.05325  31.6876666953125 8.03216665234375  31.9571666523438 8.00283334765625  C 32.0891666523438 7.98908334765625  32.2175 7.98908334765625  32.3504166523438 7.94508334765625  C 32.6208333046875 7.8561666953125  32.9059166523438 7.8589166953125  33.18825 7.9075  C 33.6355833476563 7.9845  34.06275 8.12108334765625  34.4679166523438 8.32733334765625  C 34.6246666523438 8.408  34.75025 8.52075  34.8501666523438 8.6665  C 34.8996666523438 8.73891665234375  34.8905 8.7875  34.8226666523438 8.84158334765625  C 34.49725 9.101  34.1360833046875 9.26875  33.71625 9.31366665234375  C 33.3193333476563 9.3558333046875  32.9251666523438 9.32466665234375  32.5300833476563 9.30358334765625  C 32.3146666953125 9.2916666953125  32.0974166953125 9.2944166953125  31.8838333476563 9.25958334765625  C 31.8801666953125 9.2586666953125  31.8765 9.25958334765625  31.8728333476563 9.25866665234375  C 31.4905833476563 9.1523333046875  31.1138333476563 9.28066665234375  30.7343333476563 9.29441665234375  C 30.3539166953125 9.30816665234375  29.9780833476563 9.376  29.6095833476563 9.48325  C 29.0284166953125 9.65191665234375  28.6021666953125 9.99933334765625  28.3656666523438 10.5594166523437  C 28.2895833046875 10.74  28.1988333046875 10.9141666523437  28.1154166523438 11.0901666523437  C 28.0439166523438 11.2405  27.9586666523438 11.3945  27.8605833476563 11.532  C 27.7845 11.63925  27.7450833476563 11.7501666523437  27.72675 11.8739166523437  C 27.7185 11.9289166523437  27.7075 11.9820833046875  27.6891666523438 12.0334166523437  C 27.5929166523438 12.30475  27.4618333046875 12.5531666523437  27.2601666523438 12.764  C 26.8568333046875 13.1856666523437  26.42325 13.5615  25.8723333476563 13.7860833476562  C 25.54325 13.9199166953125  25.22425 14.0766666953125  24.886 14.1885  C 24.78425 14.2224166523437  24.6788333476563 14.2325  24.57525 14.2554166523437  C 24.4469166523438 14.2838333046875  24.3543333476563 14.3434166523438  24.27825 14.4671666523437  C 24.0518333476563 14.8365833046875  24.0573333476563 15.2380833046875  24.0628333476563 15.6450833476563  C 24.0665 15.9164166953125  24.061 16.18775  24.05275 16.4590833476563  C 24.0445 16.6974166953125  24.0866666523438 16.9119166953125  24.292 17.065  C 24.31675 17.0833333476563  24.32775 17.1190833476563  24.3460833476563 17.1465833476563  C 24.3735833476563 17.18875  24.413 17.2281666953125  24.4625 17.2144166523438  C 24.69075 17.1493333046875  24.9290833476563 17.18875  25.1591666523438 17.1346666523437  C 25.6798333046875 17.0118333046875  26.1931666523438 16.8624166523438  26.70925 16.72125  C 27.0456666523438 16.6295833476563  27.3866666523438 16.5626666523438  27.7313333476563 16.5113333476563  C 27.79275 16.5021666953125  27.856 16.4975833476562  27.9174166523438 16.4985  C 28.2538333046875 16.5058333476562  28.4316666523438 16.7304166523437  28.37575 17.0631666523437  C 28.32625 17.3565  28.1218333476563 17.5086666523437  27.8725 17.6085833476562  C 27.5929166523438 17.7195  27.2986666523438 17.78275  27.0044166523438 17.846  C 26.6496666523438 17.923  26.3040833046875 18.0339166523437  25.95575 18.1338333476562  C 25.87875 18.1558333476562  25.8035833476563 18.187  25.7320833476563 18.2255  C 25.6303333476563 18.2805  25.5185 18.29975  25.4048333476563 18.31075  C 25.3214166953125 18.3180833476562  25.22425 18.3070833476562  25.1564166523438 18.3446666523438  C 24.9758333046875 18.4445833046875  24.7750833046875 18.4271666523438  24.58625 18.473  C 24.3845833476563 18.5215833476563  24.2425 18.6719166523438  24.22325 18.8900833476563  C 24.1948333476563 19.2109166953125  24.2535 19.52625  24.3011666523438 19.8406666523438  C 24.3240833046875 19.9928333046875  24.3515833046875 20.1440833046875  24.38275 20.2944166523437  C 24.4551666523438 20.6455  24.67425 20.8563333046875  25.0299166523438 20.904  C 25.6688333046875 20.9901666523437  26.3095833046875 20.9956666523438  26.9494166523438 20.9195833476562  C 28.1025833046875 20.7820833476562  29.2493333046875 20.5923333476563  30.3979166523438 20.42275  C 31.38425 20.277  32.3403333046875 20.34025  33.2808333476563 20.6656666523437  C 33.6108333476563 20.7793333046875  33.895 20.959  34.093 21.256  C 34.21675 21.4420833476563  34.2616666523438 21.64375  34.2130833476563 21.86375  C 34.192 21.9590833476562  34.1535 22.0443333476562  34.0655 22.0984166523437  C 34.04075 22.114  34.0059166523438 22.13325  34.0013333476563 22.15525  C 33.9756666953125 22.2780833476562  33.87575 22.2826666523437  33.785 22.29825  C 33.3248333476563 22.3761666523437  32.8655833476563 22.3514166523437  32.4045 22.3046666523437  C 32.04425 22.268  31.6904166523438 22.1781666523437  31.3255833476563 22.1781666523437  C 31.26325 22.1781666523437  31.2036666953125 22.158  31.145 22.1341666523437  C 31.0936666523438 22.1130833046875  31.0340833476563 22.0241666523437  30.9855 22.1460833476562  C 30.9754166523438 22.17175  30.91675 22.1515833476562  30.881 22.1506666523437  C 30.3236666523438 22.1268333046875  29.77 22.0645  29.2145 22.0250833476562  C 28.4564166523438 21.971  27.7065833476563 22.0525833476562  26.9585833476563 22.1671666523437  C 26.8751666953125 22.18  26.79175 22.18825  26.7074166523438 22.18275  C 26.6175833046875 22.17725  26.536 22.19375  26.4553333476563 22.2386666523437  C 26.3169166953125 22.31475  26.1574166953125 22.31475  26.0061666523438 22.33125  C 25.65325 22.3688333476562  25.3168333046875 22.45775  24.9905 22.5970833476562  C 24.7521666523438 22.6988333476562  24.556 22.8519166953125  24.38825 23.04625  C 24.237 23.2213333476562  24.1774166523438 23.4285  24.1810833476563 23.65675  C 24.182 23.7365  24.1691666953125 23.8034166523437  24.1086666523438 23.86575  C 24.039 23.93725  24.0188333046875 24.0353333476562  24.0353333476563 24.1325  C 24.05825 24.2709166523437  24.0555 24.41025  24.0545833476563 24.5486666523437  C 24.0518333476563 25.3443333046875  24.0591666953125 26.1390833046875  24.08025 26.93475  C 24.0885 27.2528333476562  24.0665 27.5736666523437  24.11875 27.8880833476562  C 24.1535833476563 28.0989166953125  24.1508333476563 28.318  24.2360833476563 28.5196666523437  C 24.259 28.57375  24.27 28.6305833046875  24.2709166523438 28.6910833476562  C 24.28375 30.1971666953125  24.3103333046875 31.70325  24.303 33.21025  C 24.2993333476563 33.96925  24.2984166523438 34.72825  24.2956666523438 35.48725  C 24.2956666523438 35.5459166523437  24.292 35.6036666523437  24.2755 35.6614166523437  C 24.1444166523438 36.1124166523437  24.0005 36.5579166523437  23.8070833476563 36.9869166523437  C 23.7328333476563 37.151  23.6448333476563 37.30775  23.5265833476563 37.4443333476562  C 23.3845 37.6084166953125  23.324 37.6001666953125  23.2415 37.3975833476562  C 23.1626666523438 37.20325  23.1113333476563 36.9960833476562  23.1104166523438 36.788  C 23.1030833046875 35.8713333476562  23.0618333046875 34.9546666523437  23.1333333476563 34.0398333476562  C 23.1874166953125 33.3495833476562  23.2598333476563 32.6611666953125  23.2589166523438 31.9663333476562  C 23.2570833046875 30.7205833476562  23.1883333046875 29.4821666953125  22.9023333476563 28.2648333476562  C 22.89225 28.2226666953125  22.88675 28.1786666953125  22.884 28.1346666523437  C 22.8390833476563 27.2235  22.7969166523438 26.3123333046875  22.74925 25.4011666523437  C 22.7309166523438 25.0464166523438  22.7034166523438 24.6916666523437  22.6236666523438 24.3433333476562  C 22.5860833046875 24.1783333476562  22.5026666523437 24.03625  22.4174166523438 23.8969166523438  C 22.3358333046875 23.764  22.202 23.7300833046875  22.0443333476563 23.7080833476562  C 21.4888333476563 23.6310833476563  20.97825 23.8116666953125  20.46125 23.9546666523438  C 19.7655 24.1471666523437  19.08075 24.3754166523438  18.3730833476563 24.5248333476562  C 18.0678333476563 24.589  17.7635 24.655  17.4481666523438 24.6284166523437  C 17.3638333046875 24.6210833046875  17.2584166523438 24.6238333046875  17.219 24.5495833476562  C 17.17775 24.4725833476562  17.2648333476563 24.4038333476562  17.307 24.33875  C 17.4115 24.1783333476562  17.5636666523438 24.06925  17.72775 23.9766666523437  C 18.4959166523438 23.54125  19.2686666523438 23.1131666523438  20.03225 22.6685833476562  C 20.7234166523438 22.2670833476562  21.43475 21.9040833476562  22.1350833476562 21.52  C 22.2835833476563 21.4384166523437  22.4183333476563 21.3375833476562  22.5485 21.2303333476562  C 22.9875833476563 20.86825  22.8455 20.0964166953125  22.5741666523438 19.84525  C 22.411 19.694  22.2185 19.628  22.0021666523438 19.6325833476562  C 21.6391666523438 19.6408333476562  21.28075 19.7031666953125  20.9205 19.7499166523437  C 20.51625 19.8021666523438  20.1101666523438 19.8214166523437  19.7040833476563 19.8489166523437  C 19.5904166953125 19.8571666523438  19.4776666953125 19.8443333046875  19.3676666523438 19.8076666523437  C 19.2283333046875 19.7618333046875  19.1559166523438 19.661  19.1485833476563 19.5216666523438  C 19.1385 19.33925  19.1733333476563 19.1623333046875  19.2695833476563 19.0046666523437  C 19.364 18.8506666523437  19.49325 18.7470833046875  19.683 18.7296666523437  C 19.8800833476563 18.7113333046875  20.0744166523438 18.682  20.2513333476563 18.5784166523437  C 20.3448333476563 18.5234166523437  20.453 18.51425  20.56025 18.5133333476562  C 20.6693333476563 18.5115  20.7683333476563 18.48675  20.8499166523438 18.40425  C 20.9305833046875 18.3226666523437  21.0479166523438 18.33825  21.14875 18.3089166523437  C 21.4439166523438 18.22275  21.7519166523438 18.1906666523437  22.0434166523438 18.0898333476562  C 22.5200833046875 17.9248333476563  22.7254166523438 17.6461666953125  22.7510833476563 17.1438333476562  C 22.7648333476563 16.8725  22.7694166953125 16.6020833476562  22.6915 16.3371666523437  C 22.5613333476563 15.8935  22.24325 15.7156666523437  21.8225 15.7000833476562  C 21.78675 15.6991666953125  21.7491666523438 15.7074166953125  21.71525 15.7193333476562  C 21.2440833476563 15.8825  20.7738333476563 16.04475  20.3045 16.2125  C 19.98275 16.3270833476562  19.6756666523438 16.4746666523437  19.3805 16.647  C 19.1623333476563 16.7744166523437  18.9295 16.83675  18.6755833476563 16.8156666523437  C 18.6361666953125 16.812  18.5958333476563 16.8055833046875  18.5573333476563 16.7945833476562  C 18.374 16.7405  18.3318333476563 16.67175  18.3758333476563 16.4865833476562  C 18.4363333476563 16.2354166953125  18.56925 16.0291666953125  18.7755 15.8724166523437  C 19.04775 15.6661666523437  19.3475 15.5011666523437  19.6435833476563 15.3334166523438  C 19.8305833476563 15.2270833046875  20.0221666953125 15.1225833046875  20.2018333476563 15.0089166523437  C 20.48875 14.8265  20.7995 14.6871666523437  21.0836666523438 14.502  C 21.245 14.3965833476563  21.4228333046875 14.3296666523438  21.6098333476563 14.2865833476563  C 21.685 14.2691666953125  21.7583333476563 14.2471666953125  21.83075 14.2205833476562  C 22.1433333476563 14.1050833476563  22.3074166523438 13.87775  22.3101666523438 13.5431666523437  C 22.312 13.2131666523437  22.28175 12.8895833046875  22.0736666523438 12.61275  C 22.0525833046875 12.5843333476563  22.0535 12.5513333476563  22.0498333476563 12.5183333476562  C 22.0296666953125 12.3359166953125  21.96825 12.2754166953125  21.784 12.26075  C 21.575 12.2433333476563  21.3751666523438 12.2965  21.1799166523438 12.35425  C 20.8471666523438 12.45325  20.5208333046875 12.5733333476563  20.1853333476563 12.66775  C 19.1265833476563 12.9656666523437  18.055 13.2021666523438  16.9751666523438 13.402  C 16.7340833046875 13.4469166523438  16.4966666523438 13.5156666523438  16.2473333476563 13.4964166523438  C 16.1510833476563 13.4890833046875  16.0594166953125 13.4725833046875  15.9723333476563 13.4285833476563  C 15.8861666953125 13.3845833476563  15.8595833476563 13.3286666953125  15.90175 13.2333333476563  C 16.0649166523438 12.8639166953125  16.3490833476563 12.6549166953125  16.7414166523438 12.5843333476563  C 16.8156666523438 12.5715  16.88075 12.5485833476563  16.93575 12.4926666523438  C 16.9944166523438 12.4330833046875  17.0778333476563 12.4184166523438  17.1539166523438 12.3955  C 17.8175833046875 12.1975  18.462 11.9545833476563  19.0660833476563 11.6108333476563  C 19.375 11.4348333476563  19.6655833476563 11.2295  19.9635 11.037  C 20.2623333476562 10.8435833476563  20.5795 10.68225  20.8939166523438 10.51725  C 21.15975 10.3779166523438  21.42925 10.2440833476563  21.7060833476563 10.12675  C 21.8619166953125 10.06075  22.0095 9.97916665234375  22.1405833476562 9.87100000000001  C 22.3431666953125 9.70233334765625  22.4788333476562 9.49333334765625  22.5063333476563 9.22841665234375  C 22.5384166953125 8.91125  22.5173333476563 8.59775  22.4064166523438 8.29616665234375  C 22.2615833046875 7.89925  21.98475 7.70766665234375  21.5649166523438 7.72966665234375  C 20.8425833046875 7.7663333046875  20.1211666523438 7.73516665234375  19.3988333476563 7.726  C 19.309 7.72508334765625  19.2494166953125 7.70033334765625  19.2063333476563 7.61508334765625  C 19.1531666953125 7.5115  19.0275833476563 7.48033334765625  18.9551666523438 7.39325  Z M 24.08025 7.83233334765625  C 24.0445 7.9634166953125  24.0738333476562 8.11008334765625  24.0738333476562 8.24941665234375  L 24.0545833476562 8.24941665234375  C 24.0545833476562 8.3520833046875  24.0555 8.45475  24.0545833476562 8.55741665234375  C 24.0536666953125 8.7178333046875  24.0509166953125 8.87825  24.237 8.95158334765625  C 24.2498333476562 8.9561666953125  24.2608333476562 8.9699166953125  24.2690833476562 8.98091665234375  C 24.4010833476562 9.1798333046875  24.5990833476562 9.18625  24.80625 9.16425  C 24.8896666523437 9.15508334765625  24.97675 9.14133334765625  25.0565 9.16975  C 25.1784166523437 9.21375  25.30125 9.20916665234375  25.4259166523437 9.19358334765625  C 25.579 9.17433334765625  25.7311666523438 9.16425  25.8860833476562 9.17066665234375  C 26.0290833476562 9.1770833046875  26.1748333476563 9.167  26.2958333476562 9.07625  C 26.3526666953125 9.03408334765625  26.4131666953125 9.00383334765625  26.4773333476562 8.97633334765625  C 26.7101666953125 8.8764166953125  26.9228333476563 8.74533334765625  27.0456666523438 8.51433334765625  C 27.25375 8.1229166953125  27.4389166523438 7.71958334765625  27.5516666523437 7.28875  C 27.6680833046875 6.84325  27.4590833046875 6.47566665234375  27.0190833476562 6.33725  C 26.8925833476562 6.29783334765625  26.7624166953125 6.27491665234375  26.6313333476562 6.26208334765625  C 26.28575 6.23  25.9429166953125 6.1594166953125  25.5918333476562 6.2025  C 25.282 6.241  25.0015 6.36841665234375  24.7109166523437 6.46833334765625  C 24.4221666523437 6.56733334765625  24.2516666523437 6.7616666953125  24.1746666523437 7.05591665234375  C 24.10775 7.31074999999999  24.1480833046875 7.57658330468749  24.08025 7.83233334765625  Z M 24.01425 11.63925  C 24.0775 11.83175  24.039 12.0260833476563  24.0573333476562 12.2176666523438  C 24.0573333476562 12.2873333046875  24.0564166953125 12.357  24.0573333476562 12.4266666523438  C 24.0591666953125 12.4963333046875  24.0591666953125 12.566  24.0665 12.63475  C 24.083 12.79425  24.1499166523437 12.8465  24.3075833476562 12.83  C 24.3873333476562 12.82175  24.4560833476563 12.7905833476563  24.5083333476563 12.72825  C 24.55875 12.66775  24.622 12.6145833476563  24.6935 12.59625  C 24.8465833476563 12.5568333476563  24.9483333476563 12.4285  25.09775 12.3845  C 25.139 12.3725833476562  25.16925 12.324  25.205 12.2928333476563  C 25.249 12.2543333476562  25.2875 12.2048333476563  25.3388333476563 12.1800833476563  C 25.55975 12.0746666953125  25.7165 11.89225  25.8604166523438 11.71075  C 25.9960833046875 11.54025  26.129 11.3660833476563  26.2674166523438 11.1965  C 26.3013333046875 11.15525  26.31875 11.1075833476563  26.3196666523438 11.0553333476562  C 26.3215 10.96  26.3251666523438 10.8646666953125  26.31875 10.7693333476563  C 26.3086666523438 10.6199166953125  26.2261666523438 10.5465833476562  26.07675 10.5475  C 25.9630833476563 10.5475  25.8494166523438 10.5585  25.7366666523438 10.5566666523437  C 25.38925 10.5520833046875  25.0418333046875 10.53925  24.6944166523438 10.5374166523438  C 24.3644166523438 10.5355833046875  24.0921666523438 10.8151666523438  24.0995 11.1378333476563  C 24.1013333476563 11.23775  24.0930833476563 11.334  24.0454166523438 11.4256666523438  C 24.0105833046875 11.4916666523437  23.9913333046875 11.5705  24.01425 11.63925  Z M 6.96241665234375 5.48016665234373  C 7.1393333046875 5.49299999999998  7.31625 5.48566665234373  7.44458334765625 5.48566665234375  C 7.726 5.4673333046875  7.9634166953125 5.4618333046875  8.19441665234375 5.4765  C 8.375 5.48841665234375  8.54825 5.482  8.72516665234375 5.45816665234375  C 8.87641665234375 5.438  9.01666665234375 5.3848333046875  9.15416665234375 5.32525  C 9.54741665234375 5.15475  9.9388333046875 4.9815  10.3339166523438 4.81558334765625  C 10.7244166523438 4.6524166953125  11.1011666523437 4.44708334765625  11.3880833476563 4.11708334765625  C 11.4119166953125 4.0905  11.4430833476563 4.0685  11.47425 4.05016665234375  C 11.78775 3.86041665234375  12.1003333476563 3.667  12.4285 3.50475  C 12.9858333476562 3.22975  13.5239166523438 3.25908334765625  14.0326666523437 3.634  C 14.08125 3.66975  14.10325 3.71191665234375  14.1096666523437 3.7715  C 14.13625 4.00341665234375  14.0693333046875 4.195  13.8896666523438 4.35083334765625  C 13.7228333046875 4.49475  13.54775 4.6295  13.3598333476562 4.74316665234375  C 12.57975 5.218  11.78225 5.66075  10.9315833476562 5.99991665234375  C 10.3458333476562 6.2345833046875  9.78483334765625 6.5215  9.22108334765625 6.80383334765625  C 8.82325 7.00275  8.672 7.352  8.62616665234375 7.76725  C 8.606 7.94966665234375  8.60416665234375 8.133  8.60875 8.31633334765625  C 8.64541665234375 9.79033334765625  8.61333334765625 11.2643333476562  8.65275 12.7374166523437  C 8.65641665234375 12.8914166523437  8.66375 13.0454166523437  8.71416665234375 13.193  C 8.8140833046875 13.48175  9.057 13.6375833476562  9.35675 13.5825833476562  C 9.75 13.5110833476562  10.1285833476562 13.3790833476562  10.5126666523437 13.27  C 11.0938333046875 13.105  11.6878333046875 12.9876666523437  12.26075 12.7905833476562  C 12.7786666523437 12.61275  13.2718333476562 12.379  13.765 12.14525  C 13.8539166523437 12.1030833476562  13.886 12.1214166523437  13.9089166523437 12.2085  C 13.9501666523437 12.3670833476562  13.919 12.5073333476562  13.80625 12.6246666523437  C 13.7595 12.67325  13.7155 12.71725  13.699 12.7850833476562  C 13.6870833476562 12.83275  13.6568333476562 12.87125  13.61375 12.8950833476562  C 13.3525 13.0408333476562  13.16 13.2755  12.91525 13.4414166523437  C 12.731 13.5660833046875  12.54675 13.6861666523438  12.3423333476563 13.7805833476562  C 11.9069166953125 13.9813333476562  11.477 14.1949166953125  11.0498333476563 14.414  C 10.6703333476563 14.6083333476562  10.2706666953125 14.7513333476562  9.882 14.9218333476562  C 9.585 15.0529166953125  9.29625 15.20325  9.01391665234375 15.3645833476562  C 8.98825 15.37925  8.9635 15.3920833476562  8.95066665234375 15.4214166523437  C 8.84341665234375 15.6698333046875  8.77375 15.91825  8.85441665234375 16.1941666523437  C 8.9185833046875 16.4123333046875  8.97816665234375 16.6314166523437  9.05333334765625 16.8459166523437  C 9.167 17.1704166523437  9.40258334765625 17.3198333046875  9.74816665234375 17.29875  C 9.9388333046875 17.2868333476562  10.1258333046875 17.2465  10.3100833476562 17.19975  C 10.45675 17.1630833476562  10.6034166953125 17.1355833476562  10.7546666523437 17.13375  C 10.8573333046875 17.1328333476562  10.9499166523437 17.109  11.0140833476562 17.01825  C 11.03975 16.9815833476562  11.0819166953125 16.9586666523437  11.1240833476562 16.9495  C 11.3963333476562 16.89175  11.6300833476562 16.7405  11.884 16.63875  C 12.533 16.3765833476562  13.1810833476562 16.1125833476562  13.8621666523437 15.943  C 13.9015833046875 15.9329166523437  13.941 15.9246666523437  13.9804166523437 15.9164166523437  C 14.1289166523438 15.8861666523437  14.1298333046875 15.8861666523437  14.16925 16.03375  C 14.1875833476563 16.1006666523437  14.2315833476563 16.14925  14.2801666523437 16.1941666523437  C 14.3461666523438 16.2546666523437  14.3855833046875 16.3289166523437  14.3800833476562 16.4169166523437  C 14.3755 16.5058333046875  14.4039166953125 16.57275  14.4708333476562 16.6286666523437  C 14.5340833476562 16.6809166523437  14.5386666953125 16.7203333046875  14.4625833476562 16.7808333476562  C 14.00975 17.1374166953125  13.49825 17.3931666953125  12.9849166523437 17.64525  C 12.8804166523437 17.6965833476562  12.77225 17.7323333476562  12.6824166523437 17.8120833476562  C 12.6191666523438 17.8670833476562  12.5394166523437 17.9000833476562  12.44775 17.8854166523437  C 12.3835833476562 17.8753333046875  12.335 17.90925  12.2946666523438 17.9541666523437  C 12.2195 18.0385  12.1305833046875 18.0971666523437  12.0196666523437 18.1246666523437  C 11.9215833046875 18.1494166523437  11.8629166523437 18.23925  11.7721666523437 18.28325  C 11.4715 18.4271666523437  11.2065833046875 18.6251666523437  10.949 18.836  C 10.817 18.9441666523437  10.66025 19.0239166523437  10.51175 19.111  C 10.0635 19.3740833476562  9.7225 19.7279166523437  9.50066665234375 20.2073333476562  C 9.16975 20.9214166953125  8.78016665234375 21.6089166953125  8.50425 22.3486666523437  C 8.43916665234375 22.52375  8.364 22.6951666523437  8.34383334765625 22.884  C 8.342 22.9023333476562  8.34108334765625 22.928  8.33008334765625 22.9353333476562  C 8.20358334765625 23.0205833476562  8.2045 23.17  8.15225 23.291  C 8.08258334765625 23.4514166523437  8.14583334765625 23.5843333476562  8.32 23.5944166523437  C 8.705 23.61825  9.09366665234375 23.6714166523437  9.475 23.5430833476562  C 9.66933334765625 23.478  9.87741665234375 23.4385833476562  10.0589166523438 23.3551666523437  C 10.476 23.16175  10.8958333046875 22.9683333046875  11.2625 22.6795833476562  C 11.6071666523438 22.40825  11.8876666523438 22.08375  12.1379166523438 21.7280833476562  C 12.22775 21.6006666953125  12.2845833046875 21.4585833476562  12.3249166523438 21.30825  C 12.36525 21.1579166523437  12.4285 21.0195  12.5348333476562 20.9021666523437  C 12.6723333476562 20.7518333046875  12.83275 20.7234166523438  13.01975 20.80775  C 13.1141666523438 20.8499166523437  13.21225 20.8801666523437  13.2535 20.98925  C 13.2571666523437 20.9975  13.27 21.0085  13.27825 21.0085  C 13.479 21.0075833476562  13.56425 21.19  13.6889166523438 21.2935833476562  C 13.8126666523438 21.39625  13.9318333046875 21.5126666953125  14.05375 21.62175  C 14.09775 21.6611666523437  14.1426666523437 21.6969166523437  14.1976666523438 21.72075  C 14.2306666523437 21.7354166523437  14.2655 21.7555833476562  14.2856666523437 21.7830833476562  C 14.48275 22.048  14.7531666523438 22.2505833476562  14.9273333476563 22.532  C 15.21975 23.0059166523437  15.37925 23.5036666523437  15.1390833476562 24.0545833476562  C 15.0914166953125 24.1636666953125  15.02175 24.2580833476562  14.942 24.3433333476562  C 14.8604166523438 24.4304166953125  14.7540833476563 24.4533333476562  14.6385833476563 24.4304166523437  C 14.4570833476563 24.3946666523437  14.2911666953125 24.31675  14.1289166523438 24.2305833476562  C 13.8924166523438 24.1059166953125  13.6696666523438 23.9583333476563  13.446 23.8116666523437  C 13.3259166523438 23.7328333046875  13.17925 23.68975  13.07475 23.60175  C 12.8978333476563 23.4523333476562  12.70075 23.4963333476563  12.5073333476563 23.4844166523438  C 12.4514166953125 23.48075  12.39825 23.4963333046875  12.37075 23.5559166523438  C 12.35425 23.5916666523438  12.3185 23.6054166523438  12.2864166523438 23.6219166523437  C 11.4091666523438 24.072  10.5429166523438 24.5413333046875  9.69225 25.0418333476562  C 8.93691665234375 25.4855  8.16141665234375 25.8915833476562  7.36025 26.25  C 7.06233334765625 26.3829166523438  6.77358334765625 26.5341666523437  6.48391665234375 26.6845  C 6.40875 26.7239166523437  6.3785 26.712  6.34641665234375 26.63775  C 6.2620833046875 26.4425  6.1685833046875 26.2518333476563  6.08425 26.0565833476562  C 5.8835 25.5918333476562  5.878 25.1188333476562  6.021 24.6375833476562  C 6.17591665234375 24.116  6.40875 23.6255833476562  6.61775 23.1250833476562  C 6.89916665234375 22.4485833476562  7.22091665234375 21.7895  7.51333334765625 21.1175833476562  C 7.57475 20.9764166953125  7.63158334765625 20.8325  7.6765 20.6858333476562  C 7.75533334765625 20.431  7.66825 20.2403333476562  7.44275 20.09825  C 7.25575 19.98  7.09625 20.05975  6.95508334765625 20.1633333476562  C 6.55908334765625 20.45575  6.1484166953125 20.7243333476562  5.72216665234375 20.9690833476562  C 5.11166665234375 21.31925  4.52316665234375 21.7060833476562  3.91633334765625 22.0626666523437  C 3.3351666953125 22.4045833046875  2.7485 22.7373333046875  2.127 23.0013333476562  C 1.98491665234375 23.0618333476562  1.8465 23.1250833476562  1.71358334765625 23.2011666523437  C 1.62283334765625 23.2525  1.52658334765625 23.2790833046875  1.42116665234375 23.2855  C 1.2488333046875 23.2965  1.0838333046875 23.3450833476562  0.924333347656252 23.4083333476562  C 0.755666695312502 23.47525  0.622750000000003 23.4175  0.486166652343752 23.3038333476562  C 0.367000000000003 23.2039166953125  0.306500000000002 23.0389166953125  0.132333347656252 22.9976666523437  C 0.0507500000000025 22.9784166523437  0.0379166953125019 22.8931666523437  0.0892500000000025 22.82075  C 0.201083347656252 22.6630833476562  0.342250000000003 22.5365833476562  0.507250000000002 22.4366666523437  C 0.811583347656252 22.2524166523437  1.12966665234375 22.0938333046875  1.44591665234375 21.9315833476562  C 2.97125 21.1515  4.44616665234375 20.2843333476562  5.87708334765625 19.3438333476562  C 6.17133334765625 19.1504166953125  6.45825 18.946  6.72683334765625 18.7186666523437  C 6.87533334765625 18.5930833046875  7.011 18.45375  7.13016665234375 18.29975  C 7.33366665234375 18.0348333476562  7.4115833046875 17.7314166523437  7.41341665234375 17.4041666523437  C 7.4198333046875 16.5645  7.40791665234375 15.7248333046875  7.39416665234375 14.8851666523437  C 7.3785833046875 13.9685  7.33366665234375 13.0536666523437  7.275 12.1388333476562  C 7.23741665234375 11.5503333476562  7.23925 10.9590833476562  7.21266665234375 10.3696666523437  C 7.1860833046875 9.78024999999998  7.1485 9.19083330468748  7.022 8.61149999999998  C 6.98716665234375 8.45108334765623  6.91566665234375 8.29891665234373  6.92116665234375 8.12933334765623  C 6.9220833046875 8.09083334765623  6.89825 8.06058334765623  6.87441665234375 8.03308334765623  C 6.75525 7.89649999999998  6.7075833046875 7.73424999999998  6.703 7.55733334765623  C 6.70116665234375 7.48491669531248  6.6755 7.42441669531248  6.64158334765625 7.36116665234373  C 6.42708334765625 6.96149999999998  6.2905 6.54074999999998  6.34 6.08149999999998  C 6.36016665234375 5.89449999999998  6.45183334765625 5.73408334765623  6.60033334765625 5.61124999999998  C 6.70483334765625 5.52508334765623  6.8194166953125 5.47283334765623  6.96241665234375 5.48016665234373  Z M 10.5035 10.09375  C 10.3751666523437 10.047  10.29175 9.97366665234375  10.3275 9.85175  C 10.3311666523438 9.65191665234375  10.3999166523437 9.51441665234375  10.5145 9.39158334765625  C 10.5951666523437 9.3045  10.6575 9.2  10.729 9.10466665234375  C 10.9389166523437 8.82416665234375  11.2075 8.60141665234375  11.4476666523437 8.35208334765625  C 11.5604166523438 8.23475  11.6924166523438 8.10825  11.8785 8.0945  C 11.9133333476562 8.09175  11.94175 8.07525  11.961 8.04591665234375  C 12.02975 7.93775  12.13975 7.902  12.2570833476562 7.87633334765625  C 12.5256666953125 7.81858334765625  12.79425 7.8066666953125  13.0628333476562 7.87266665234375  C 13.3378333476562 7.9395833046875  13.4515 8.1100833046875  13.3900833476562 8.38416665234375  C 13.2910833476563 8.82966665234375  13.05825 9.19725  12.6943333476562 9.47133334765625  C 12.46425 9.64458334765625  12.2378333476562 9.827  11.96375 9.93241665234375  C 11.9344166523438 9.94341665234375  11.9115 9.9718333046875  11.8858333476562 9.992  C 11.785 10.0708333476563  11.6704166953125 10.1111666523437  11.5411666523437 10.1148333476563  C 11.3395 10.1203333476563  11.1305 10.1001666953125  10.94075 10.1515  C 10.7711666523437 10.1973333476563  10.6446666523437 10.146  10.5035 10.09375  Z " fill-rule="nonzero" fill="#000000" stroke="none" transform="matrix(1 0 0 1 15 17 )" />
  </g>
</svg>