<?xml version="1.0" encoding="utf-8"?>
<svg version="1.1" xmlns:xlink="http://www.w3.org/1999/xlink" width="37px" height="30px" xmlns="http://www.w3.org/2000/svg">
  <g transform="matrix(1 0 0 1 -15 -19 )">
    <path d="M 16.3381666523438 16.4971666523437  C 16.3363333046875 16.49625  16.3363333046875 16.4999166523437  16.3363333476563 16.5035833476562  C 15.7945833476562 16.5035833476562  15.251 16.488  14.7101666523438 16.5109166523437  C 14.4865 16.5200833046875  14.3224166523438 16.4669166523437  14.17025 16.3129166523438  C 14.0648333476562 16.2065833046875  13.953 16.10575  13.85125 15.9948333476563  C 13.8063333476562 15.94625  13.77425 15.89125  13.80725 15.8261666523438  C 13.8411666523438 15.75925  13.9080833476563 15.7354166523438  13.9759166523438 15.7473333476563  C 14.1959166523438 15.7849166953125  14.404 15.7253333476563  14.61575 15.685  C 14.9200833476563 15.62725  15.229 15.6510833476563  15.5360833476563 15.663  C 15.6809166953125 15.6685  15.8046666953125 15.6455833476563  15.8963333476563 15.5236666523438  C 15.9256666953125 15.48425  15.9623333476563 15.4585833046875  16.01275 15.4475833476563  C 16.14475 15.4191666953125  16.2529166523438 15.34125  16.3601666523438 15.2660833476563  C 16.3785 15.25325  16.39225 15.2285  16.4115 15.22575  C 16.6030833476563 15.1973333476563  16.7451666523438 15.0561666523438  16.9266666523438 15.00575  C 17.0540833046875 14.97  17.1549166523438 14.89025  17.2520833476563 14.8068333476563  C 17.3226666953125 14.7463333476563  17.39325 14.69225  17.48125 14.6583333476563  C 17.5243333476563 14.6418333476563  17.5655833476563 14.6134166953125  17.60225 14.5840833476563  C 17.9845 14.2834166953125  18.3154166523438 13.93325  18.60875 13.5464166523438  C 18.74075 13.37225  18.8425 13.17425  18.9735833476563 13.00375  C 19.1303333476563 12.8011666523438  19.2183333476563 12.5674166523438  19.3136666523438 12.3455833476563  C 19.3989166523438 12.1475833476563  19.4850833046875 11.9459166953125  19.5584166523438 11.7405833476563  C 19.6106666523438 11.5948333476563  19.63175 11.4426666953125  19.62075 11.2859166523438  C 19.6115833476563 11.1575833046875  19.6519166523438 11.0393333046875  19.7188333476563 10.9311666523438  C 19.7866666953125 10.8211666523438  19.8150833476563 10.7038333046875  19.8150833476563 10.5755  C 19.8150833476563 9.72941665234376  19.8178333476563 8.88333334765627  19.8150833476563 8.03725000000001  C 19.8141666953125 7.84016665234376  19.8480833476563 7.64308334765626  19.81875 7.44416665234376  C 19.7985833476563 7.30758330468751  19.7793333476563 7.17925000000001  19.6821666523438 7.07016665234376  C 19.596 6.97391665234376  19.5675833046875 6.84283330468751  19.5153333476563 6.72733334765626  C 19.45025 6.58341669531251  19.33475 6.53116669531251  19.1844166523438 6.55133334765626  C 19.0313333046875 6.57241669531251  18.8929166523438 6.63016669531251  18.7535833476563 6.70166665234376  C 18.4474166953125 6.86025000000001  18.1641666953125 7.06650000000001  17.8176666523438 7.15083334765626  C 17.6499166523438 7.19116669531251  17.5005 7.30025000000001  17.3318333476563 7.35066665234377  C 17.2759166953125 7.36716665234377  17.22275 7.40933330468751  17.165 7.40108334765626  C 16.9935833476563 7.37725000000001  16.8524166523438 7.44233334765626  16.714 7.53125000000002  C 16.6351666523438 7.58258334765626  16.5416666523438 7.59725000000001  16.45 7.59358334765626  C 16.2804166523438 7.58625000000002  16.1135833476563 7.60641669531252  15.9476666523438 7.64033334765627  C 15.8321666523438 7.66416669531252  15.7166666523438 7.66875000000002  15.5984166523438 7.64308334765627  C 15.4068333046875 7.60183334765627  15.2785 7.48816669531252  15.2015 7.31308334765627  C 15.1281666523438 7.14716669531252  15.22625 6.89875000000002  15.4233333476563 6.82083334765627  C 15.5773333476563 6.76033334765626  15.7084166953125 6.68333334765627  15.8175 6.56050000000002  C 15.8505 6.52383334765626  15.9009166523438 6.50091665234376  15.94675 6.47800000000002  C 16.2694166523438 6.31850000000001  16.56275 6.11133334765626  16.8588333476563 5.90966665234376  C 16.9926666953125 5.81800000000001  17.1475833476563 5.78591665234376  17.29425 5.73091665234376  C 17.4216666523438 5.68325000000001  17.5536666523438 5.63100000000001  17.65175 5.54025000000001  C 17.8295833476563 5.37525000000001  18.0514166523438 5.33491665234376  18.2723333476563 5.29183334765626  C 18.4125833476563 5.26433334765626  18.5445833476563 5.23683334765626  18.6463333476563 5.12775000000001  C 18.6628333476563 5.10941665234376  18.6866666953125 5.09291665234376  18.7105 5.08650000000001  C 18.9873333476563 5.01316665234376  19.2165 4.83166665234376  19.4951666523438 4.75100000000001  C 19.6665833046875 4.70150000000001  19.8251666523438 4.60525000000001  20.0121666523438 4.59700000000001  C 20.06075 4.59516665234376  20.0974166523438 4.55941665234376  20.1340833476563 4.52825000000001  C 20.2349166953125 4.44300000000001  20.3504166953125 4.39441665234376  20.4851666523438 4.39075000000001  C 20.6061666523438 4.38708334765626  20.7143333046875 4.34033334765626  20.8050833476563 4.26150000000001  C 20.8811666953125 4.19550000000001  20.9645833476563 4.16250000000001  21.0654166523438 4.16708334765626  C 21.1928333046875 4.17166669531251  21.312 4.15058334765626  21.4128333476563 4.05891665234376  C 21.466 4.01125000000001  21.5393333476563 3.99933330468751  21.609 3.99750000000001  C 21.8033333476563 3.99108334765626  21.9701666523438 3.90950000000001  22.1278333476563 3.80683334765626  C 22.2231666953125 3.74450000000001  22.3285833476563 3.74175000000001  22.434 3.73716665234376  C 22.544 3.73166665234376  22.6411666523438 3.70600000000001  22.7255 3.62991665234376  C 22.7951666523438 3.56666665234376  22.8868333476563 3.52725000000001  22.9775833476563 3.53366665234376  C 23.1765 3.54833330468751  23.3405833476563 3.45758330468751  23.5110833476563 3.38516665234376  C 23.6036666953125 3.34575000000001  23.6953333476563 3.31550000000001  23.7961666523438 3.31183334765626  C 23.9455833046875 3.30633334765626  24.0849166523438 3.27608334765626  24.20775 3.18075000000001  C 24.2865833476563 3.11933334765626  24.3874166523438 3.12300000000001  24.4818333476563 3.11750000000001  C 24.5854166953125 3.11108334765626  24.6789166953125 3.08450000000001  24.77425 3.03958334765626  C 25.0336666523438 2.91858334765626  25.3040833476563 2.93508334765626  25.5653333476563 3.03408334765626  C 25.6670833476563 3.07258334765626  25.76425 3.09641669531251  25.8724166523438 3.10008334765626  C 26.0658333046875 3.10558334765626  26.2418333046875 3.15783334765626  26.4279166523438 3.23391665234376  C 26.6900833046875 3.34116665234376  26.9513333046875 3.45391665234376  27.21625 3.55750000000001  C 27.2611666523438 3.57491665234376  27.3060833476563 3.59050000000001  27.34 3.62533334765626  C 27.384 3.67025000000002  27.4426666523438 3.69316669531251  27.494 3.72616665234376  C 27.6250833476563 3.80958330468751  27.714 3.93883330468752  27.7781666523438 4.07725000000001  C 27.813 4.15150000000001  27.725 4.26333334765626  27.6351666523438 4.27800000000001  C 27.5829166523438 4.28625000000001  27.5325 4.29450000000002  27.4976666523438 4.33666665234377  C 27.4160833046875 4.43383330468751  27.307 4.45216665234376  27.1896666523438 4.44575000000001  C 27.0833333046875 4.43933334765626  26.9898333046875 4.45858334765627  26.9064166523438 4.53558334765627  C 26.8211666523438 4.61441669531252  26.70475 4.63000000000001  26.5956666523438 4.62266665234376  C 26.3701666523438 4.60708330468751  26.1694166523438 4.66758330468751  25.9805833476563 4.78308334765626  C 25.89625 4.83441669531251  25.80825 4.84633334765626  25.7074166523438 4.83716665234376  C 25.5295833046875 4.82066665234376  25.3535833046875 4.84908330468751  25.2069166523438 4.96183334765627  C 25.1015 5.04250000000002  24.97775 5.07275000000001  24.8558333476563 5.06816665234377  C 24.6138333476563 5.05900000000002  24.403 5.14516665234376  24.194 5.24233334765627  C 24.0940833476563 5.28908334765627  23.9914166523438 5.30925000000002  23.886 5.30925000000002  C 23.7395369038283 5.30825639808653  23.5933487396594 5.32207670727069  23.4496666523438 5.35050000000002  C 23.36625 5.36700000000002  23.2855833046875 5.38625000000002  23.2140833476563 5.43575000000002  C 23.1398333476563 5.48708334765626  23.0564166953125 5.50908334765627  22.96475 5.50633334765627  C 22.88775 5.50450000000002  22.81075 5.51000000000002  22.73375 5.50908334765627  C 22.5733333476563 5.50816669531252  22.4248333476563 5.53566669531252  22.2855 5.62825000000002  C 22.1690833476563 5.70525000000002  22.0343333476563 5.74375000000002  21.8885833476563 5.73000000000002  C 21.8079166953125 5.72266665234377  21.7290833476563 5.73733334765627  21.65025 5.76300000000002  C 21.44675 5.82808334765626  21.3725 5.94358334765627  21.4678333476563 6.13425000000002  C 21.5558333476563 6.31025000000001  21.6044166953125 6.48625000000002  21.6071666523438 6.67966665234377  C 21.6071666523438 6.71450000000002  21.6190833046875 6.75850000000002  21.642 6.78233334765627  C 21.752 6.89600000000002  21.7685 7.03900000000002  21.7905 7.18566665234377  C 21.81525 7.34516665234376  21.8830833476563 7.49458330468751  21.961 7.63666665234376  C 21.9866666523438 7.68250000000002  22.0086666523438 7.72833330468751  22.0123333476563 7.78058334765626  C 22.0315833476563 8.01800000000001  22.049 8.25725000000001  22.0251666523438 8.49466665234376  C 22.00775 8.66608330468751  21.8959166523438 8.81091665234376  21.8464166523438 8.97591665234376  C 21.8225833046875 9.05291665234376  21.796 9.12716665234376  21.7914166523438 9.20966665234376  C 21.7831666523438 9.36550000000002  21.7446666523438 9.51125000000001  21.6484166523438 9.64141665234376  C 21.57875 9.73675000000001  21.5741666523438 9.85500000000001  21.57875 9.96958334765626  C 21.5824166523438 10.0823333476563  21.5640833476563 10.1831666953125  21.4980833476563 10.28125  C 21.411 10.4105  21.3679166953125 10.5580833476563  21.3605833476563 10.7166666523438  C 21.3523333476563 10.88075  21.3110833476563 11.03475  21.21025 11.1685833476563  C 21.1240833476563 11.2831666953125  21.1295833476563 11.4179166953125  21.1451666523438 11.549  C 21.1598333046875 11.6718333476563  21.1396666523438 11.7745  21.0580833476563 11.8753333476563  C 20.9526666953125 12.0055  20.91875 12.16775  20.9471666523438 12.33275  C 20.971 12.473  21.0315 12.5921666523438  21.1965 12.616  C 21.2139166523438 12.61875  21.2340833476563 12.6260833476563  21.246 12.638  C 21.488 12.87725  21.7923333476563 12.8204166523438  22.0829166523438 12.8103333476563  C 22.2066666523438 12.80575  22.3285833046875 12.7709166953125  22.4514166523438 12.7525833476563  C 22.511 12.7434166953125  22.5678333046875 12.7278333476563  22.6145833476563 12.6920833476563  C 22.7071666953125 12.6224166953125  22.8135 12.5985833476563  22.9244166523438 12.5976666523438  C 23.1563333046875 12.5958333046875  23.3809166523438 12.58025  23.5954166523438 12.4684166523438  C 23.7879166523438 12.3685  24.0170833046875 12.4253333046875  24.2205833476563 12.36575  C 24.5056666953125 12.2823333476563  24.7953333476563 12.3015833476563  25.0831666523438 12.3245  C 25.2756666523438 12.3400833476563  25.4645 12.3905  25.6560833476563 12.4253333476563  C 25.75875 12.4436666953125  25.8540833476563 12.4766666953125  25.9384166523438 12.5399166523438  C 26.0145 12.59675  26.1070833046875 12.58575  26.19325 12.5894166523438  C 26.3353333476563 12.5958333046875  26.4609166523438 12.6205833046875  26.57825 12.7186666523438  C 26.6809166523438 12.8039166523438  26.8330833476563 12.79475  26.9531666523438 12.8653333476563  C 27.098 12.9496666953125  27.2675833046875 12.99275  27.4096666523438 13.0725  C 27.5590833046875 13.1559166523438  27.7130833046875 13.2466666523438  27.8423333476563 13.375  C 28.11825 13.6490833476563  28.2236666953125 13.969  28.1604166523438 14.3475833476563  C 28.1448333046875 14.43925  28.1329166523438 14.52725  28.1494166523438 14.6198333476563  C 28.165 14.70875  28.1274166523438 14.7894166953125  28.1109166523438 14.8746666523438  C 28.05225 15.1634166523438  27.8258333046875 15.3641666523438  27.7350833476563 15.63825  C 27.6929166953125 15.7675  27.60125 15.8949166523438  27.5279166523438 16.0205  C 27.4105833046875 16.2221666523438  27.3015 16.4293333476563  27.2025 16.6401666523438  C 27.0769166523438 16.9078333046875  26.922 17.1599166523438  26.7973333476563 17.4266666523438  C 26.6818333476563 17.6741666523438  26.5489166953125 17.9125  26.4288333476563 18.15725  C 26.3665 18.28375  26.2739166953125 18.3946666523438  26.2748333476563 18.54775  C 26.2748333476563 18.5926666523438  26.2381666953125 18.6339166523438  26.2060833476563 18.6705833476563  C 26.1639166953125 18.7191666953125  26.13275 18.776  26.1309166523438 18.8383333476563  C 26.1281666523438 18.9730833476563  26.0878333046875 19.08675  25.998 19.1885  C 25.92925 19.2664166523438  25.8971666523438 19.3663333476563  25.86875 19.4653333476563  C 25.8669166523438 19.4726666953125  25.8669166523438 19.4809166953125  25.86325 19.4864166523438  C 25.6625 19.76325  25.7101666523438 20.1308333046875  25.5213333476563 20.4131666523438  C 25.4773333476563 20.4791666523437  25.4608333476563 20.5653333046875  25.459 20.6450833476563  C 25.4525833476563 20.85225  25.3783333476563 21.0383333476563  25.2958333476563 21.2225833476563  C 25.2380833476563 21.3518333476563  25.2380833476563 21.48475  25.28025 21.6195  C 25.3114166523438 21.7185  25.3719166523438 21.7826666523438  25.47275 21.812  C 25.569 21.8404166523438  25.6670833476563 21.8569166523438  25.7651666523438 21.8541666523438  C 25.9310833046875 21.8495833046875  26.09425 21.8743333046875  26.2574166523438 21.8990833476563  C 26.3885 21.91925  26.5186666523438 21.9284166953125  26.6515833476563 21.9238333476563  C 26.8129166953125 21.9183333476563  26.9733333476563 21.9229166953125  27.13375 21.9504166523438  C 27.3244166523438 21.9825  27.51325 21.9733333046875  27.692 21.8853333476563  C 27.7396666523438 21.8615  27.791 21.8569166953125  27.8423333476563 21.8633333476563  C 28.1301666953125 21.9  28.4198333476563 21.8770833476563  28.7085833476563 21.8825833476563  C 29.1073333476563 21.8899166953125  29.5060833476563 21.90825  29.9048333476563 21.92475  C 29.9965 21.9284166523438  30.0845 21.9540833476563  30.1679166523438 21.9980833476563  C 30.3054166523438 22.0705  30.4575833046875 22.0796666953125  30.607 22.0778333476563  C 30.882 22.0741666953125  31.1560833476563 22.1190833476563  31.4310833476563 22.0879166523438  C 31.4915833476563 22.0815  31.5465833476563 22.0998333046875  31.5924166523438 22.1429166523438  C 31.6950833046875 22.23825  31.8234166523438 22.2730833046875  31.95725 22.274  C 32.1378333476563 22.2749166523438  32.31475 22.307  32.4925833476563 22.329  C 32.5778333476563 22.34  32.6566666953125 22.373  32.7263333476563 22.4206666523437  C 32.8436666953125 22.50225  32.972 22.5325  33.1113333476563 22.5205833476562  C 33.2415 22.5095833476563  33.3551666953125 22.5425833476562  33.45875 22.6269166523438  C 33.5238333476563 22.6800833046875  33.6035833476563 22.7286666523437  33.68975 22.7158333476563  C 33.8620833476563 22.6910833476562  33.9940833476563 22.77725  34.1279166523438 22.8579166523437  C 34.2104166523438 22.9074166523437  34.2910833046875 22.956  34.38825 22.96975  C 34.4029166523438 22.9715833476562  34.4175833476563 22.9761666523437  34.4295 22.9835  C 34.6586666523438 23.1329166523438  34.9199166523438 23.22825  35.1335 23.407  C 35.2453333476563 23.5005  35.3608333476563 23.59125  35.4708333476563 23.6865833476562  C 35.6349166953125 23.8286666953125  35.7760833476563 23.99  35.8989166523438 24.16875  C 35.9190833046875 24.199  35.9429166523438 24.2384166523438  35.9731666523438 24.2475833476562  C 36.0831666523438 24.2815  36.0721666523438 24.3658333476562  36.0721666523438 24.4501666523437  C 36.07125 24.6738333046875  36.0666666523438 24.8975  36.074 25.1211666523437  C 36.07675 25.2146666523437  36.0483333476563 25.2705833046875  35.96125 25.3054166523437  C 35.90625 25.3274166523437  35.85125 25.3448333046875  35.7925833476563 25.35125  C 35.6963333476563 25.36225  35.6129166953125 25.398  35.5276666523438 25.4475  C 35.3085833046875 25.57675  35.1435833046875 25.6088333476563  34.9666666523438 25.4365  C 34.9364166523438 25.4071666523437  34.8924166523438 25.3879166523437  34.8520833476563 25.3723333476562  C 34.5844166953125 25.2678333476562  34.3094166953125 25.178  34.0481666523438 25.0588333476562  C 33.8950833046875 24.9891666953125  33.7300833046875 24.9515833476562  33.5825 24.8855833476562  C 33.3854166523438 24.7975833476562  33.1874166523438 24.7453333476562  32.9811666523438 24.7004166523437  C 32.8785 24.6784166523437  32.78225 24.628  32.6988333476563 24.5583333476562  C 32.6291666953125 24.4996666953125  32.543 24.4831666953125  32.4513333476563 24.48225  C 32.29 24.4795  32.1305 24.47675  32.00125 24.3493333476562  C 31.9425833476563 24.2915833476562  31.85 24.2934166953125  31.7693333476563 24.2989166523437  C 31.5585 24.3135833046875  31.3540833476563 24.2833333046875  31.1771666523438 24.1715  C 30.97 24.0395  30.7445 24.05325  30.519 24.0505  C 30.387 24.0486666523437  30.26325 24.0349166523437  30.1651666523438 23.9340833476562  C 30.1303333046875 23.8983333476562  30.0835833046875 23.88825  30.035 23.8818333476562  C 29.8965833476563 23.8644166953125  29.7563333476563 23.8534166953125  29.6179166523438 23.869  C 29.474 23.8855  29.3319166523438 23.8644166523437  29.1898333476563 23.8570833476562  C 29.0871666953125 23.8515833476562  29.0156666953125 23.7681666953125  28.9221666523438 23.7351666523437  C 28.6444166523438 23.63525  28.352 23.6471666523437  28.066 23.6215  C 27.8845 23.605  27.6993333476563 23.6178333476562  27.516 23.6205833476562  C 27.3253333476563 23.62425  27.1438333476563 23.5976666953125  26.9815833476563 23.48675  C 26.922 23.4455  26.8495833476563 23.4445833476562  26.7808333476563 23.4390833476562  C 26.31975 23.407  25.8568333476563 23.4326666953125  25.39575 23.4225833476562  C 24.9154166523438 23.4125  24.4350833476563 23.39325  23.9556666523438 23.4015  C 23.61375 23.407  23.2773333046875 23.3831666523437  22.9390833476563 23.3446666523437  C 22.74475 23.3226666523437  22.5568333476563 23.4015  22.3615833476563 23.4060833476562  C 22.1049166953125 23.4115833476562  21.8491666953125 23.429  21.5925 23.4381666523437  C 21.499 23.4418333046875  21.4174166523438 23.4638333046875  21.334 23.5124166523437  C 21.1726666523438 23.6059166523437  20.9875 23.6444166523437  20.806 23.6361666523437  C 20.5401666523438 23.62425  20.3 23.6810833046875  20.0680833476563 23.80575  C 19.9324166953125 23.8790833476562  19.7756666953125 23.869  19.62625 23.869  C 19.4630833476563 23.869  19.31 23.88275  19.1660833476563 23.9808333476562  C 19.0551666953125 24.056  18.91125 24.06425  18.782 24.0514166523437  C 18.5455 24.0285  18.3585 24.1430833046875  18.16325 24.24025  C 17.9799166523438 24.3319166523437  17.792 24.39425  17.5839166523438 24.3548333476562  C 17.51975 24.3429166953125  17.4574166523438 24.3484166953125  17.40425 24.3841666523437  C 17.3089166523438 24.4483333046875  17.2025833476563 24.4840833046875  17.0925833476563 24.4730833476562  C 16.8386666953125 24.44925  16.6305833476563 24.5583333476562  16.4225 24.67475  C 16.373 24.7031666523437  16.3225833476563 24.7169166523437  16.2666666523438 24.7178333476562  C 16.0851666523438 24.7224166953125  15.9091666523438 24.7444166953125  15.75975 24.8645  C 15.7194166523438 24.8965833476562  15.6653333476563 24.9075833476562  15.614 24.9094166523437  C 15.3875833476563 24.9195  15.17675 24.9855  14.9695833476563 25.0716666523437  C 14.8779166953125 25.1101666523437  14.7825833476563 25.1330833046875  14.6835833476563 25.14775  C 14.5570833476563 25.167  14.4333333476563 25.1990833476562  14.327 25.2815833476562  C 14.2353333476563 25.3530833476562  14.12075 25.3549166953125  14.01075 25.354  C 13.85675 25.354  13.7146666523438 25.3824166523437  13.5835833476563 25.4685833476562  C 13.4974166953125 25.5254166953125  13.3929166953125 25.541  13.2911666523438 25.5565833476562  C 13.1160833046875 25.5831666953125  12.9465 25.62625  12.8025833476563 25.7371666523437  C 12.7155 25.8040833046875  12.6100833476563 25.805  12.5074166523438 25.7976666523437  C 12.4093333046875 25.7903333046875  12.3286666523438 25.816  12.2553333476563 25.8801666523437  C 12.1554166953125 25.9681666523437  12.039 26.0240833046875  11.9024166523438 25.9984166523437  C 11.7025833046875 25.9608333046875  11.5641666523438 26.0955833046875  11.4046666523438 26.168  C 11.3139166523438 26.20925  11.2213333046875 26.2395  11.1223333476563 26.2550833476562  C 11.0205833476563 26.2706666953125  10.9206666953125 26.2990833476562  10.829 26.344  C 10.71075 26.4008333476562  10.587 26.4283333476562  10.45775 26.4356666523437  C 10.4055 26.4384166523437  10.3495833476563 26.4384166523437  10.3101666523438 26.4714166523437  C 10.1268333046875 26.6235833046875  9.88483330468753 26.6226666523437  9.68316665234378 26.7198333476562  C 9.50166665234378 26.8078333476562  9.32383330468753 26.7940833476562  9.13775000000003 26.7693333476562  C 9.03783334765628 26.7555833476562  8.99200000000003 26.707  8.98833334765628 26.6025  C 8.98100000000003 26.3623333476562  8.98741669531253 26.12675  9.09925000000003 25.9049166523437  C 9.14141665234378 25.8224166523437  9.14233334765628 25.7270833046875  9.13683334765628 25.6354166523437  C 9.12950000000003 25.4933333046875  9.17808334765628 25.3943333046875  9.31375000000003 25.3265  C 9.46133334765628 25.25225  9.60800000000003 25.2036666523437  9.77483334765628 25.2018333476562  C 9.97741669531253 25.1990833476562  10.1561666953125 25.12575  10.3184166523438 24.9983333476562  C 10.4568333046875 24.8901666953125  10.6355833046875 24.8709166953125  10.8005833476563 24.8901666523437  C 11.0013333476563 24.9130833046875  11.1608333476563 24.8388333046875  11.3139166523438 24.738  C 11.39 24.6875833476562  11.46425 24.6600833476562  11.5485833476563 24.6665  C 11.6485 24.6738333476562  11.7456666953125 24.6600833476562  11.8446666523438 24.6509166523437  C 11.9088333046875 24.6445  11.9656666523438 24.6243333046875  12.0133333476563 24.5803333476562  C 12.0518333476563 24.5455  12.094 24.507  12.1444166523438 24.5033333476562  C 12.4276666523438 24.48225  12.66875 24.331  12.9355 24.2604166523437  C 13.07575 24.22375  13.2123333476563 24.19625  13.3159166523438 24.0844166523437  C 13.33425 24.0651666523437  13.36725 24.0495833046875  13.39475 24.0486666523437  C 13.62025 24.0431666523437  13.8045 23.91575  13.9924166523438 23.8213333476562  C 14.316 23.6590833476562  14.6139166523438 23.4491666953125  14.90175 23.22825  C 14.94025 23.1989166523437  14.9769166523438 23.1705  15.0264166523438 23.1631666523437  C 15.0603333046875 23.1585833046875  15.0933333046875 23.1466666523437  15.1135 23.1200833476562  C 15.2390833476563 22.9486666953125  15.4343333476563 22.8450833476562  15.5461666523438 22.659  C 15.6625833046875 22.4646666523437  15.8349166523438 22.3106666523437  15.9531666523438 22.1145  C 16.0640833046875 21.9311666523437  16.1740833046875 21.7515  16.2025 21.53425  C 16.2116666523438 21.4609166523437  16.2309166523438 21.3903333476562  16.2758333476563 21.3298333476562  C 16.34825 21.2326666953125  16.3665833476563 21.12175  16.3546666523438 21.00625  C 16.3363333046875 20.8293333476562  16.3583333046875 20.6551666523437  16.3684166523438 20.4791666523437  C 16.3711666523438 20.426  16.3904166523438 20.37925  16.4160833476563 20.3343333476562  C 16.527 20.1436666953125  16.5838333476563 19.9374166953125  16.5875 19.7165  C 16.5893333476563 19.6156666523437  16.6095 19.5175833476562  16.6645 19.43325  C 16.758 19.2893333476562  16.7928333476563 19.1325833476562  16.7983333476563 18.9648333476562  C 16.8038333476563 18.81725  16.8313333476563 18.677  16.9358333476563 18.5578333476562  C 17.0009166953125 18.4835833476562  17.0146666953125 18.38275  17.00275 18.2865  C 16.9770833476563 18.0756666523437  17.0229166523438 17.8895833476562  17.15125 17.7181666523437  C 17.2209166523438 17.6246666523437  17.2438333476563 17.5128333046875  17.242 17.3955  C 17.2401666523438 17.2158333476562  17.2520833476563 17.0370833476562  17.2814166523438 16.85925  C 17.3171666523438 16.6438333476562  17.21175 16.5136666523437  16.9761666523438 16.4999166523437  C 16.7644166523438 16.4870833046875  16.5508333046875 16.4971666523437  16.3381666523438 16.4971666523437  Z M 18.3355833476563 22.5535833476563  C 18.52625 22.5031666953125  18.716 22.5178333476563  18.9341666523437 22.5178333476562  C 19.1486666523437 22.5334166953125  19.3888333046875 22.4903333476562  19.6308333476562 22.4958333476563  C 19.6940833476562 22.49675  19.7545833476562 22.4793333476563  19.8105 22.4509166523438  C 19.9681666523438 22.373  20.1386666523438 22.3500833046875  20.311 22.33725  C 20.62725 22.3125  20.9508333476563 22.318  21.2276666523438 22.12275  C 21.2423333046875 22.1126666523437  21.2615833046875 22.1035  21.279 22.1044166523438  C 21.4953333476563 22.1071666523438  21.6988333476563 22.06225  21.8794166523438 21.9366666523437  C 21.8876666523438 21.9311666523437  21.9014166523438 21.9320833046875  21.9105833476563 21.9275  C 22.1030833476563 21.8275833476562  22.27175 21.6891666523438  22.3670833476563 21.4985  C 22.4706666953125 21.2913333476562  22.5779166953125 21.0951666523437  22.7328333476563 20.9191666523437  C 22.896 20.734  23.0298333476563 20.5259166523437  23.2113333476563 20.35175  C 23.3268333476563 20.2408333476562  23.3965 20.0813333476562  23.4881666523438 19.94475  C 23.6733333046875 19.6688333476562  23.8731666523438 19.40025  24.0418333476563 19.1151666523437  C 24.1995 18.8493333046875  24.2985 18.5514166523438  24.4855 18.30025  C 24.4983333476563 18.2828333476563  24.5111666523438 18.2599166523438  24.5111666523438 18.2406666523438  C 24.5075 18.1251666523438  24.5780833046875 18.0426666523438  24.6358333476563 17.9546666523438  C 24.6945 17.86575  24.7495 17.77775  24.766 17.6686666523438  C 24.7760833476563 17.6008333046875  24.80175 17.5339166523438  24.8549166523438 17.4835  C 24.9163333046875 17.42575  24.9511666523438 17.3533333476563  24.9594166523438 17.2708333476563  C 24.975 17.1186666953125  25.04375 16.99125  25.1381666523438 16.8766666523438  C 25.2105833046875 16.7886666523438  25.2399166523438 16.6933333046875  25.2243333476562 16.5805833476563  C 25.2096666953125 16.47425  25.2344166953125 16.3770833476563  25.3031666523438 16.2918333476563  C 25.3728333046875 16.2065833476563  25.404 16.1066666953125  25.41225 15.9975833476563  C 25.4205 15.88025  25.4388333476562 15.76475  25.4443333476563 15.6474166523438  C 25.448 15.5630833046875  25.47825 15.4970833046875  25.5488333476563 15.454  C 25.6304166953125 15.4035833476563  25.6414166953125 15.3403333476563  25.602 15.2578333476563  C 25.5635 15.1771666953125  25.5295833476563 15.0900833476563  25.5735833476563 15.0039166523438  C 25.6780833476563 14.7995  25.6441666953125 14.5813333046875  25.6496666523438 14.3668333476563  C 25.6524166523438 14.2623333476563  25.6001666523438 14.1761666953125  25.5149166523438 14.1285  C 25.3389166523438 14.0304166523438  25.1565 13.9240833476563  24.9621666523438 13.8910833476563  C 24.6963333046875 13.8470833476563  24.4295833046875 13.82325  24.1683333476563 13.7435  C 23.9281666953125 13.6701666523438  23.6724166953125 13.71875  23.424 13.71875  C 23.2021666523438 13.71875  22.984 13.7370833476563  22.7933333476563 13.8718333476563  C 22.7704166953125 13.8883333476563  22.7383333476563 13.8984166953125  22.7108333476563 13.8993333476563  C 22.48625 13.90575  22.2790833476563 13.9625833476563  22.0948333476563 14.0955  C 22.0893333476563 14.1000833476563  22.0810833476563 14.101  22.0746666523438 14.1028333476563  C 21.65025 14.2669166953125  21.2469166523438 14.4676666953125  20.9095833476563 14.78025  C 20.8958333476563 14.7930833476563  20.88025 14.80225  20.8655833476563 14.8141666523438  C 20.6254166953125 15.0085  20.41825 15.2349166523438  20.2211666523438 15.4714166523438  C 20.0405833046875 15.68775  19.8719166523438 15.91325  19.7096666523438 16.1424166523438  C 19.5950833046875 16.30375  19.4676666523438 16.4540833046875  19.36225 16.6218333476563  C 19.167 16.9353333476563  19.0276666523438 17.2790833476563  18.8470833476563 17.5999166523438  C 18.7911666953125 17.6989166523438  18.7306666953125 17.79425  18.7224166523438 17.9134166523438  C 18.7196666523438 17.9583333046875  18.6894166523438 17.995  18.65825 18.0261666523438  C 18.5849166523438 18.0995  18.5610833476563 18.1893333046875  18.5638333476563 18.2874166523438  C 18.5656666953125 18.3506666523438  18.5455 18.3974166523438  18.5051666523438 18.4450833476563  C 18.3850833046875 18.58625  18.28425 18.7356666953125  18.2989166523438 18.9373333476563  C 18.3044166523438 19.0134166953125  18.2860833046875 19.0940833476563  18.232 19.1536666523438  C 18.155 19.2389166523438  18.1375833476563 19.33975  18.1339166523438 19.4488333476563  C 18.1293333046875 19.5735  18.12475 19.7  18.0761666523438 19.8164166523438  C 18.0101666523438 19.9731666523438  17.9744166523438 20.1390833046875  17.9515 20.305  C 17.9276666523438 20.481  17.8671666523438 20.63775  17.7626666523438 20.7789166523438  C 17.7104166523438 20.8495  17.6801666523438 20.9283333046875  17.6829166523438 21.0145  C 17.6893333046875 21.1923333476563  17.6645833046875 21.3564166523438  17.5729166523438 21.5186666523438  C 17.4161666523438 21.7991666523438  17.451 22.0989166523438  17.539 22.395  C 17.58025 22.5343333476563  17.649 22.5719166523438  17.7883333476563 22.527  C 17.8900833476563 22.494  17.9854166953125 22.4839166523438  18.0871666523438 22.52975  C 18.1650833046875 22.5645833476563  18.2530833046875 22.5746666523438  18.3355833476563 22.5535833476563  Z M 6.99550000000001 29.4854166523438  C 6.99458334765626 29.4881666523438  6.99458334765626 29.4881666523438  6.99458334765625 29.4890833476563  C 6.9249166953125 29.4890833476563  6.85433334765625 29.4835833476562  6.78558334765625 29.4909166523438  C 6.6911666953125 29.501  6.65358334765625 29.4533333046875  6.63983334765625 29.3699166523438  C 6.6279166953125 29.2993333046875  6.62333334765625 29.2278333046875  6.65633334765625 29.1655  C 6.74433334765625 29.0014166523437  6.70033334765625 28.8565833476563  6.58666665234375 28.731  C 6.4803333046875 28.6136666523438  6.4418333046875 28.4825833476563  6.4455 28.3295  C 6.44916665234375 28.1874166523438  6.42258334765625 28.0545  6.32908334765625 27.9380833476563  C 6.27133334765625 27.8675  6.26308334765625 27.7721666953125  6.27316665234375 27.6850833476563  C 6.3015833046875 27.4311666953125  6.1723333046875 27.2249166953125  6.07516665234375 27.0104166523437  C 6.05041665234375 26.9563333046875  6.0293333046875 26.905  6.02383334765625 26.8454166523438  C 5.97525 26.3403333046875  6.0009166953125 25.83525  6.01375 25.3301666523437  C 6.01558334765625 25.24125  6.04125 25.1596666523438  6.08525 25.0799166523438  C 6.17416665234375 24.9158333046875  6.20625 24.7343333046875  6.22 24.551  C 6.2365 24.3429166523438  6.2475 24.1348333476562  6.2585 23.9258333476563  C 6.26216665234375 23.8625833476562  6.26858334765625 23.7965833476562  6.3025 23.7461666523437  C 6.45375 23.5261666523437  6.43175 23.2713333046875  6.4565 23.0256666523437  C 6.45925 22.9963333046875  6.46016665234375 22.967  6.45741665234375 22.9376666523438  C 6.4235 22.6131666523437  6.4748333046875 22.3033333046875  6.61233334765625 22.0063333476562  C 6.65175000000001 21.9210833476562  6.64533334765625 21.8266666953125  6.63800000000001 21.735  C 6.61325 21.4325  6.66275000000001 21.1364166523437  6.71683334765626 20.8403333476562  C 6.7241666953125 20.8009166953125  6.73425000000001 20.7596666953125  6.75258334765626 20.7248333476563  C 6.87816669531251 20.4929166953125  6.88275000000001 20.2399166953125  6.87908334765626 19.986  C 6.87725000000001 19.865  6.87541669531251 19.744  6.88733334765626 19.6239166523438  C 6.89375000000001 19.5606666523438  6.90933334765626 19.49925  6.94691665234376 19.4488333476563  C 7.03675000000001 19.3305833476563  7.04958330468751 19.1958333476563  7.05783334765626 19.0546666523438  C 7.07891669531251 18.7118333046875  7.06058334765626 18.3644166523438  7.17058334765626 18.0316666523438  C 7.17975000000001 18.0041666523438  7.18250000000001 17.973  7.19533334765626 17.9473333476563  C 7.33466669531251 17.6659166953125  7.30991669531251 17.3634166953125  7.30991665234376 17.0645833476563  C 7.30991665234376 16.8830833476563  7.34475000000001 16.7061666953125  7.40983334765626 16.5384166523438  C 7.48866669531251 16.33675  7.52991669531251 16.1314166523438  7.51616665234376 15.916  C 7.50975000000001 15.8160833476563  7.51891665234376 15.7198333476563  7.55375000000001 15.6245  C 7.59408334765626 15.5135833476563  7.61058334765626 15.40175  7.57116665234376 15.28075  C 7.53358330468751 15.1643333476563  7.61058330468751 15.0671666523438  7.67108334765626 14.97825  C 7.73616669531251 14.8810833476563  7.76733334765626 14.7811666523438  7.75633334765626 14.6675  C 7.73891669531251 14.4915  7.74533334765626 14.3164166523438  7.75541665234376 14.1404166523438  C 7.77283330468751 13.848  7.75358330468751 13.55925  7.61700000000001 13.2934166523438  C 7.51891665234376 13.10275  7.50608334765626 12.902  7.51341665234376 12.6948333476563  C 7.51708330468751 12.5921666953125  7.51616665234376 12.4913333476563  7.50150000000001 12.3886666523438  C 7.47950000000001 12.242  7.57025000000001 12.1723333046875  7.68850000000001 12.2539166523438  C 7.96808334765626 12.4464166523438  8.24858334765626 12.6435  8.39158334765626 12.9735  C 8.44383334765626 13.0945  8.5025 13.21275  8.57125000000001 13.3255  C 8.62716665234376 13.4171666523438  8.65008334765626 13.5134166523438  8.65833334765625 13.6160833476563  C 8.67025 13.7700833476563  8.69500000000001 13.9213333476563  8.76833334765626 14.0606666523438  C 8.7995 14.12025  8.8141666953125 14.1871666523438  8.81508334765626 14.25225  C 8.8224166953125 14.5556666523438  8.83433334765625 14.8563333476563  8.79491665234376 15.1615833476563  C 8.74266665234376 15.5630833476563  8.68125000000001 15.9645833476563  8.67575000000001 16.3725  C 8.66750000000001 17.0251666523438  8.67208334765626 17.6769166523438  8.65466665234376 18.3286666523438  C 8.64275000000001 18.7824166523438  8.63816665234376 19.2370833046875  8.61616665234376 19.6908333476563  C 8.60425000000001 19.9264166953125  8.64916665234376 20.1574166953125  8.65008334765626 20.393  C 8.65100000000001 20.7459166523438  8.61891669531251 21.0933333476563  8.55750000000001 21.44075  C 8.46033334765626 21.9944166523438  8.46308334765626 22.55725  8.43833334765626 23.1164166523438  C 8.42550000000001 23.4060833046875  8.39525000000001 23.6893333046875  8.29075000000001 23.9661666523438  C 8.20733334765626 24.188  8.18716665234376 24.42725  8.20000000000001 24.66925  C 8.22016665234376 25.057  8.21558334765626 25.4456666523438  8.09183334765626 25.8215  C 8.04783334765626 25.95625  8.03041669531251 26.0946666523438  8.04966665234376 26.234  C 8.07808330468751 26.4439166523438  8.04875000000001 26.6501666523438  8.02308334765626 26.8573333476563  C 7.9781666953125 27.2230833476563  8.00383334765626 27.58975  8.01391665234376 27.9555  C 8.01758330468751 28.0765  7.99833330468751 28.1800833476563  7.93508334765626 28.27725  C 7.85258334765625 28.4046666523438  7.79483334765625 28.5375833476563  7.76183334765626 28.6888333476563  C 7.72150000000001 28.8795  7.60508334765625 29.0426666953125  7.52441665234376 29.21775  C 7.47950000000001 29.314  7.35025000000001 29.3506666523438  7.31908334765626 29.468  C 7.31266669531251 29.4918333476563  7.27325000000001 29.4845  7.24850000000001 29.4845  C 7.16416665234376 29.4854166523438  7.07983334765626 29.4854166523438  6.99550000000001 29.4854166523438  Z M 1.04083334765626 15.388  C 1.00233334765626 15.4164166523438  0.951000000000007 15.41  0.890499999999999 15.4109166523438  C 0.802499999999999 15.41825  0.73283334765625 15.3843333046875  0.708083347656251 15.278  C 0.693416695312501 15.21475  0.654 15.17075  0.58983334765625 15.14325  C 0.525666695312499 15.11575  0.5311666953125 15.0561666523438  0.57333334765625 15.0213333476563  C 0.869416695312501 14.78025  1.1196666953125 14.4933333476563  1.38916665234375 14.2256666523438  C 1.6183333046875 13.99925  1.842 13.7664166523438  2.06566665234375 13.5354166523438  C 2.32966665234375 13.26225  2.57166665234375 12.9670833046875  2.83016665234375 12.6884166523438  C 3.01441665234375 12.4895  3.1940833046875 12.286  3.36 12.0724166523438  C 3.72025 11.60675  4.16483334765625 11.2125833046875  4.49208334765625 10.7166666523438  C 4.64425 10.4865833046875  4.86333334765625 10.3041666523438  5.03566665234375 10.0850833476563  C 5.1585 9.92925  5.24375 9.7505  5.37666665234375 9.60108334765625  C 5.51691665234375 9.4434166953125  5.6388333046875 9.26833334765625  5.7635 9.09691665234375  C 5.85608334765625 8.97041665234375  5.94775 8.84208330468751  6.02475 8.7055  C 6.09808334765625 8.57625000000001  6.21633334765625 8.4855  6.29333334765625 8.359  C 6.43083334765625 8.13166665234375  6.54725 7.88966665234375  6.71041665234375 7.67883334765625  C 6.8745 7.46708334765625  6.99641665234375 7.2315  7.1275 6.99958334765625  C 7.30166665234375 6.6925  7.49508334765625 6.3964166953125  7.67933334765625 6.09483334765625  C 7.7004166953125 6.0609166953125  7.7215 6.02425  7.73066665234375 5.98666665234375  C 7.78841665234375 5.752  7.94791665234375 5.56775  8.04416665234375 5.35233334765625  C 8.0973333046875 5.2331666953125  8.16791665234375 5.1204166953125  8.20916665234375 4.99483334765625  C 8.2293333046875 4.9325  8.2540833046875 4.8701666953125  8.288 4.81425  C 8.35216665234375 4.70975  8.40625 4.60525  8.41175 4.47875  C 8.41266665234375 4.44666665234375  8.42091665234375 4.41091665234375  8.43833334765625 4.38433334765625  C 8.60975 4.12033334765625  8.66475 3.8086666953125  8.79583334765625 3.52816665234375  C 8.8141666953125 3.48875  8.8279166953125 3.44475  8.83066665234375 3.40258334765625  C 8.83891665234375 3.26783334765625  8.86916665234375 3.145  8.96083334765625 3.03775  C 9.0085 2.98183334765625  9.01675 2.903  9.01766665234375 2.82875  C 9.0213333046875 2.50241665234375  9.04516665234375 2.177  9.02225 1.85066665234375  C 9.014 1.7305833046875  8.992 1.6215  8.9205 1.52066665234375  C 8.80408334765625 1.3575  8.78941665234375 1.1778333046875  8.84075 0.986250000000002  C 8.87191665234375 0.869833347656252  8.98833334765625 0.818500000000002  9.03508334765625 0.71216665234375  C 9.047 0.685583304687501  9.13683334765625 0.675500000000001  9.1625 0.737833347656251  C 9.201 0.83225  9.27983334765625 0.86525  9.36508334765625 0.890916652343751  C 9.5475 0.945916652343751  9.7299166953125 1.00091665234375  9.8885 1.11275  C 9.92516665234376 1.13841665234375  9.96916665234376 1.14575  10.0140833476563 1.15033334765625  C 10.0929166953125 1.15858334765625  10.16075 1.187  10.2194166523438 1.24475  C 10.3156666523438 1.34008334765625  10.45225 1.37033334765625  10.5695833476563 1.41891665234375  C 10.99675 1.5958333046875  11.2974166953125 1.92675  11.6246666523438 2.22833334765625  C 11.71725 2.31358334765625  11.7181666523438 2.38508334765625  11.6356666523438 2.47675  C 11.5678333046875 2.55191665234375  11.5229166523438 2.63716665234375  11.4844166523438 2.72975  C 11.4303333046875 2.85716665234375  11.3735 2.98366665234375  11.29375 3.10008334765625  C 11.214 3.2174166953125  11.1745833476563 3.35858334765625  11.1223333476563 3.48783334765625  C 11.027 3.72708334765625  10.85375 3.92233334765625  10.774 4.16891665234375  C 10.73825 4.28075  10.6456666523438 4.36875  10.5824166523438 4.47141665234375  C 10.3523333046875 4.8445  10.12775 5.22125  9.88758334765625 5.58883334765625  C 9.7216666953125 5.84183334765625  9.5511666953125 6.09208334765625  9.39075 6.34875  C 9.333 6.44133334765625  9.26883334765625 6.533  9.19641665234375 6.61458334765625  C 8.9938333046875 6.8419166953125  8.8535833046875 7.1141666953125  8.66291665234375 7.34883334765625  C 8.47775 7.57708334765626  8.31825 7.8209166953125  8.15325 8.062  C 8.01941665234375 8.25725  7.8535 8.42133334765625  7.705 8.601  C 7.57483334765625 8.75866665234375  7.49416665234375 8.95116665234375  7.35116665234375 9.10150000000001  C 7.26041665234375 9.19683334765625  7.1870833046875 9.30958334765625  7.09358334765625 9.40125  C 6.92675 9.5635  6.80666669531251 9.75875  6.66641665234375 9.93933334765626  C 6.50141665234375 10.152  6.33641665234375 10.36925  6.14941665234375 10.5654166523438  C 5.81391665234375 10.9174166523438  5.50408330468751 11.2923333046875  5.20158334765626 11.67275  C 4.97425 11.9596666523438  4.71483334765625 12.2190833476563  4.46916665234376 12.4895  C 4.14925000000001 12.8415  3.83391665234376 13.1980833476563  3.53600000000001 13.5693333476563  C 3.437 13.6930833476563  3.31783334765625 13.7966666953125  3.21150000000001 13.9121666523438  C 3.01350000000001 14.1266666523438  2.8265 14.354  2.59183334765626 14.5336666523438  C 2.47908334765626 14.6198333046875  2.39933334765626 14.7353333046875  2.35533334765626 14.871  C 2.33516669531251 14.9333333476563  2.30400000000001 14.9819166523438  2.23983334765626 14.9874166523438  C 2.09591669531251 14.9993333046875  1.97583334765626 15.0653333046875  1.86033334765626 15.14325  C 1.75950000000001 15.2110833476563  1.64400000000001 15.223  1.52666665234376 15.2385833476563  C 1.35800000000001 15.2615  1.18108330468751 15.267  1.04083334765626 15.388  Z " fill-rule="nonzero" fill="#000000" stroke="none" transform="matrix(1 0 0 1 15 19 )" />
  </g>
</svg>