<?xml version="1.0" encoding="utf-8"?>
<svg version="1.1" xmlns:xlink="http://www.w3.org/1999/xlink" width="9px" height="9px" xmlns="http://www.w3.org/2000/svg">
  <g transform="matrix(1 0 0 1 -113 -30 )">
    <path d="M 4.32768926476262 2.7  C 4.37718683750452 2.7  4.42666416578725 2.70200164158347  4.47599998125 2.70600001875  C 5.42936063177399 2.7832642824652  6.1636892647626 3.57951356705127  6.1636892647626 4.536  C 6.1636892647626 5.49248643294873  5.42936063177399 6.2887357175348  4.47599998125 6.36599998125  C 4.42666416578724 6.36999835841652  4.37718683750453 6.372  4.32768926476262 6.372  C 3.31369446407328 6.372  2.49168926476261 5.54999480068933  2.49168926476261 4.536  C 2.49168926476261 3.52200519931066  3.31369446407328 2.7  4.32768926476262 2.7  Z M 8.70000001875001 4.52999998125  C 8.69340840273713 2.19988498466646  6.80611497792132 0.312591584983302  4.47599998125001 0.306  C 4.47200564726364 0.305988700561147  4.46801129929496 0.305983050833251  4.46401694932633 0.305983050833251  C 2.12453873868775 0.305983050833251  0.228016930576324 2.20250485894467  0.228016930576324 4.54198306958325  C 0.228016930576324 6.88146128022183  2.12453873868775 8.77798308833326  4.46401694932633 8.77798308833326  C 6.8034951599649 8.77798308833326  8.70001696807632 6.88146128022183  8.70001696807632 4.54198306958325  C 8.70001696807632 4.53798870081271  8.70001131829523 4.53399433403805  8.70000001875001 4.52999998125  Z " fill-rule="nonzero" fill="#737373" stroke="none" transform="matrix(1 0 0 1 113 30 )" />
  </g>
</svg>