<?xml version="1.0" encoding="utf-8"?>
<svg version="1.1" xmlns:xlink="http://www.w3.org/1999/xlink" width="34px" height="34px" xmlns="http://www.w3.org/2000/svg">
  <g transform="matrix(1 0 0 1 -106 -1205 )">
    <path d="M 123 1205  C 132.52 1205  140 1212.48  140 1222  C 140 1231.52  132.52 1239  123 1239  C 113.48 1239  106 1231.52  106 1222  C 106 1212.48  113.48 1205  123 1205  Z " fill-rule="nonzero" fill="#ffffff" stroke="none" fill-opacity="0" />
    <path d="M 123 1205.5  C 132.24 1205.5  139.5 1212.76  139.5 1222  C 139.5 1231.24  132.24 1238.5  123 1238.5  C 113.76 1238.5  106.5 1231.24  106.5 1222  C 106.5 1212.76  113.76 1205.5  123 1205.5  Z " stroke-width="1" stroke="#ffffff" fill="none" />
  </g>
</svg>