<?xml version="1.0" encoding="utf-8"?>
<svg version="1.1" xmlns:xlink="http://www.w3.org/1999/xlink" width="41px" height="41px" xmlns="http://www.w3.org/2000/svg">
  <defs>
    <filter x="41px" y="228px" width="41px" height="41px" filterUnits="userSpaceOnUse" id="filter75">
      <feOffset dx="2" dy="2" in="SourceAlpha" result="shadowOffsetInner" />
      <feGaussianBlur stdDeviation="2.5" in="shadowOffsetInner" result="shadowGaussian" />
      <feComposite in2="shadowGaussian" operator="atop" in="SourceAlpha" result="shadowComposite" />
      <feColorMatrix type="matrix" values="0 0 0 0 0  0 0 0 0 0  0 0 0 0 0  0 0 0 0.164705882352941 0  " in="shadowComposite" />
    </filter>
    <g id="widget76">
      <path d="M 59.5 232  C 67.62 232  74 238.38  74 246.5  C 74 254.62  67.62 261  59.5 261  C 51.38 261  45 254.62  45 246.5  C 45 238.38  51.38 232  59.5 232  Z " fill-rule="nonzero" fill="#44474d" stroke="none" />
      <path d="M 59.5 232  C 67.62 232  74 238.38  74 246.5  C 74 254.62  67.62 261  59.5 261  C 51.38 261  45 254.62  45 246.5  C 45 238.38  51.38 232  59.5 232  Z " stroke-width="2" stroke="#ffffff" fill="none" />
    </g>
  </defs>
  <g transform="matrix(1 0 0 1 -41 -228 )">
    <use xlink:href="#widget76" filter="url(#filter75)" />
    <use xlink:href="#widget76" />
  </g>
</svg>