<?xml version="1.0" encoding="utf-8"?>
<svg version="1.1" xmlns:xlink="http://www.w3.org/1999/xlink" width="43px" height="26px" xmlns="http://www.w3.org/2000/svg">
  <g transform="matrix(1 0 0 1 -167 -489 )">
    <path d="M 3.46978357305195 13.0036879202128  C 3.46978357305195 8.47489354787233  10.9156710422078 3.42978723404255  21.5632900665584 3.42978723404255  C 32.2109090909091 3.42978723404255  39.6419048084416 8.47489361702128  39.6419047386364 13.0036879202128  C 39.6419046688312 17.5324822234042  32.1960172694805 22.577588606383  21.5632900665584 22.5775886755319  C 10.9305628636364 22.5775887446809  3.46978357305195 17.5324822925532  3.46978357305195 13.0036879202128  Z M 42.6202597402597 13.0036879202128  C 42.6202597402597 6.08510638297872  33.1937662337662 0.47943260106383  21.5632900665584 0.479432601063828  C 9.93281389935065 0.479432601063828  0.491428571428569 6.08510638297872  0.491428571428569 13.0036879202128  C 0.491428571428569 19.9222694574468  9.93281382954545 25.5279432393617  21.5632900665584 25.5279432393617  C 33.1937663035714 25.5279432393617  42.6202597402597 19.9222694574468  42.6202597402597 13.0036879202128  Z " fill-rule="nonzero" fill="#737373" stroke="none" transform="matrix(1 0 0 1 167 489 )" />
  </g>
</svg>