<?xml version="1.0" encoding="utf-8"?>
<svg version="1.1" xmlns:xlink="http://www.w3.org/1999/xlink" width="30px" height="25px" xmlns="http://www.w3.org/2000/svg">
  <g transform="matrix(1 0 0 1 -157 -489 )">
    <path d="M 8.58461538461538 3.30434782608696  C 12.4923077163462 3.30434782608696  23.4307692548077 3.30434782608696  25.9384615384615 18.0144927309783  C 20.9111610724152 14.5303560564667  14.825764496302 12.6652217324723  8.58461538461538 12.695652173913  C 5.83168832392035 12.695652173913  3.6 10.593337086162  3.6 8  C 3.6 5.40666291383801  5.83168832392035 3.30434782608695  8.58461538461538 3.30434782608695  Z M 29.5384615384615 24.7101449048913  C 29.6153846394231 1.92753620923913  15.0307692548077 0.405797078804348  8.58461538461538 0.405797078804344  C 4.13235061885722 0.405797078804346  0.523076899038458 3.80583753950318  0.523076899038458 8  C 0.523076899038458 12.1941624604968  4.13235061885722 15.5942029211957  8.58461538461538 15.5942029211957  C 16.6461538701923 15.5942029211956  23.0923076682692 18.6376811820652  29.5384615384615 24.7101449048913  Z " fill-rule="nonzero" fill="#737373" stroke="none" transform="matrix(1 0 0 1 157 489 )" />
  </g>
</svg>