<?xml version="1.0" encoding="utf-8"?>
<svg version="1.1" xmlns:xlink="http://www.w3.org/1999/xlink" width="30px" height="25px" xmlns="http://www.w3.org/2000/svg">
  <g transform="matrix(1 0 0 1 -189 -489 )">
    <path d="M 4.06153846153846 18.0144927309783  C 6.5384615625 3.31884055706522  17.5076922836538 3.30434782608696  21.4153846153846 3.30434782608696  C 24.1683116760797 3.30434782608696  26.4 5.40666291383801  26.4 8  C 26.4 10.593337086162  24.1683116760797 12.695652173913  21.4153846153846 12.695652173913  C 15.174235503698 12.6652217324723  9.08883892758477 14.5303560564667  4.06153846153846 18.0144927309783  Z M 21.4153846153846 0.405797078804348  C 14.9692307451923 0.405797078804348  0.461538461538468 1.92753620923913  0.461538461538468 24.7101449048913  C 6.90769233173078 18.6376811141304  13.3538461298077 15.5942028532609  21.4153846153846 15.5942029211957  C 25.8676493811428 15.5942029211957  29.4769231009615 12.1941624604968  29.4769231009615 8  C 29.4769231009615 3.80583753950317  25.8676493811428 0.405797078804351  21.4153846153846 0.405797078804351  Z " fill-rule="nonzero" fill="#737373" stroke="none" transform="matrix(1 0 0 1 189 489 )" />
  </g>
</svg>