<?xml version="1.0" encoding="utf-8"?>
<svg version="1.1" xmlns:xlink="http://www.w3.org/1999/xlink" width="62px" height="14px" xmlns="http://www.w3.org/2000/svg">
  <g transform="matrix(1 0 0 1 -157 -517 )">
    <path d="M 55.7409523764052 13.6733333333333  L 55.7409523764052 13.72  C 52.1171397775133 13.4083297158712  48.5374931975508 12.6726918197525  45.0680952454597 11.5266666666667  C 40.4971675802169 10.0424575020381  35.7743350276177 9.13901840447372  31 8.83555553125  C 26.2256649723823 9.13901840447372  21.5028324197831 10.0424575020381  16.9319047545403 11.5266666666667  C 13.4625068024492 12.6726918197525  9.88286022248671 13.4083297158712  6.25904762359481 13.72  C 2.80227107261873 13.72  0 10.7670691889986  0 7.12444443229167  C 0 3.48181967558477  2.80227107261873 0.528888864583333  6.25904762359481 0.528888864583333  C 9.87070544745007 0.676398488196934  13.4624649150533 1.16577579677453  16.990952419653 1.99111113541666  C 21.5949305324549 3.06226966618022  26.2864847437931 3.6613588646512  31 3.78  C 35.7149571872189 3.64602380911606  40.4065282071588 3.03130399418846  45.0090475803471 1.94444446875  C 48.5375350849467 1.11910913010787  52.1292945525499 0.629731821530269  55.7409523764052 0.482222197916667  C 59.1977289273813 0.482222197916667  62 3.4351530089181  62 7.077777765625  C 62 10.7204025223319  59.1977289273813 13.6733333333333  55.7409523764052 13.6733333333333  Z " fill-rule="nonzero" fill="#939393" stroke="none" transform="matrix(1 0 0 1 157 517 )" />
  </g>
</svg>