<?xml version="1.0" encoding="utf-8"?>
<svg version="1.1" xmlns:xlink="http://www.w3.org/1999/xlink" width="6px" height="4px" xmlns="http://www.w3.org/2000/svg">
  <g transform="matrix(1 0 0 1 -55 -252 )">
    <path d="M 3.0912989748884 3.07012080957032  L 4.11578616629464 2.26363165917969  L 5.73368368108259 0.972342825195312  C 5.75997400850049 0.949432945785286  5.7911274253225 0.93533334165085  5.82378264341518 0.93156528515625  C 5.79815104520089 0.917972781249997  5.78494687751116 0.917972781249997  5.75931527929687 0.904380249023436  C 5.68164377176339 0.877195212890623  5.61795314481027 0.850010205078124  5.54105835016741 0.822825168945315  C 5.50836349255712 0.807370830686875  5.47374057449986 0.798190508896742  5.43853195731027 0.795640132812498  C 5.33600556445313 0.768455096679684  5.23347917159598 0.727677556640625  5.11774861104911 0.705023374023437  L 5.10532118052456 0.705023374023437  C 5.00279478766741 0.677838337890623  4.88706425139509 0.650653330078125  4.78453785853795 0.623468293945312  C 4.74570209263393 0.609875790039062  4.7200705186942 0.609875790039062  4.68201146568081 0.59628328613281  C 4.48938613476563 0.555505746093747  4.28433334905134 0.514728206054688  4.09170799386161 0.487543169921874  C 4.05287222795759 0.487543169921874  4.01403648632813 0.473950666015622  3.98918160100447 0.47395063769531  L 3.64276668080358 0.433173097656248  L 2.35730322991072 0.433173097656248  L 2.01088828543527 0.47395063769531  C 1.97205251953125 0.47395063769531  1.94642094559152 0.487543141601559  1.90836191685268 0.487543169921874  C 1.7033091311384 0.514728206054688  1.51068380022322 0.555505746093747  1.30485427734375 0.59628328613281  C 1.26601851143974 0.609875790039062  1.2403869375 0.609875790039062  1.20232788448661 0.623468293945312  C 0.984070955357146 0.677838337890623  0.765814001953128 0.73220841015625  0.547557072823665 0.800170986328126  C 0.51918578687092 0.815532569843672  0.488655730052332 0.824744228889145  0.457458134765629 0.827356022460936  C 0.379786627232146 0.85454105859375  0.302115119698664 0.881726066406248  0.239201205636166 0.908911102539061  C 0.213569607421879 0.922503606445311  0.200365439732147 0.922503606445311  0.174733841517862 0.936096110351563  L 0.174733841517862 0.949688642578124  L 0.252405349051343 0.990466182617187  L 1.88350703152902 2.28175501660156  L 2.93595595982143 3.07012080957032  L 3.0912989748884 3.07012080957032  Z " fill-rule="nonzero" fill="#ebf1ff" stroke="none" transform="matrix(1 0 0 1 55 252 )" />
  </g>
</svg>