<?xml version="1.0" encoding="utf-8"?>
<svg version="1.1" xmlns:xlink="http://www.w3.org/1999/xlink" width="14px" height="14px" xmlns="http://www.w3.org/2000/svg">
  <g transform="matrix(1 0 0 1 -207 -1093 )">
    <path d="M 0.545181751953125 6.56376873632813  L 0.54440473828125 6.560660640625  C 0.810126553997171 6.5600323578013  1.03649815362962 6.36750150261559  1.07977223046875 6.10532630859375  C 1.5567614247262 3.21269742637159  4.05755342724272 1.09050944911165  6.98924586365282 1.09050944911165  C 9.43297118276855 1.09050944911165  11.631618255112 2.57516497665889  12.5447177597656 4.84189008789062  C 12.6277741491198 5.04747131096269  12.8273049129822 5.18205882703735  13.0490299749223 5.18205882703735  C 13.3494257900832 5.18205882703735  13.5929447132036 4.93853990391704  13.5929447132036 4.6381440887561  C 13.5929447132036 4.6363865041132  13.592936194119 4.63462892979355  13.59291915625 4.63287142773437  L 13.59291915625 1.23029627929687  C 13.592871535764 0.929934143902082  13.3493665639744 0.686467775200347  13.0490044248047 0.686467775200347  C 12.7486422856349 0.686467775200347  12.5051373138454 0.929934143902083  12.5050896933594 1.23029627929688  L 12.5050896933594 2.65224477929688  C 11.16315268706 0.9769471464908  9.13287156774358 0.00191580597991745  6.98638208783427 0.00191580597991745  C 3.52004852906686 0.00191580597991745  0.564806995119911 2.51469932650374  0.00748319140625 5.93593572851562  C -0.0391145129552608 6.23216038825598  0.162824645047874 6.51021774878917  0.4589324140625 6.55755255859375  C 0.487483460222228 6.56180427065415  0.516316090774376 6.56388230116946  0.545181751953125 6.56376873632813  Z M 13.5260953378906 7.4526808125  L 13.5268723652344 7.44957271679687  C 13.2314234538546 7.40288947877956  12.9537214563035 7.60352917127729  12.9052555214844 7.89869088476562  C 12.4269703944469 10.7908099649155  9.92610253120254 12.912063434631  6.99470193822445 12.912063434631  C 4.58250214646658 12.912063434631  2.4055966582737 11.4653363369278  1.47139083984375 9.24138325195313  C 1.43092470211424 8.97567384214231  1.20244928436561 8.77935961715133  0.933676148124732 8.77935961715133  C 0.634914952976284 8.77935961715133  0.392078471591816 9.02033302279499  0.389777541015625 9.31908535742188  L 0.389777541015625 12.7216605195312  C 0.389825161500807 13.0220226549266  0.633330133290589 13.2654890236293  0.933692272460937 13.2654890236293  C 1.23405441163129 13.2654890236293  1.47755938342107 13.0220226549266  1.47760700390625 12.7216605195312  L 1.47760700390625 11.357988578125  C 2.82357365343275 13.0283791253263  4.85342690559788 13.999590141618  6.99861472996598 13.999590141618  C 8.68945591830993 13.999590141618  10.3246366305112 13.3953441745523  11.6091844257813 12.2958529804688  C 12.8733956791949 11.2133244564137  13.7126121614794 9.71743759867758  13.9775445742187 8.07429764257812  C 14.0241422780932 7.77807297827741  13.8222031124543 7.50001561565116  13.5260953378906 7.4526808125  Z " fill-rule="nonzero" fill="#5e5e5e" stroke="none" transform="matrix(1 0 0 1 207 1093 )" />
  </g>
</svg>