<?xml version="1.0" encoding="utf-8"?>
<svg version="1.1" xmlns:xlink="http://www.w3.org/1999/xlink" width="11px" height="11px" xmlns="http://www.w3.org/2000/svg">
  <g transform="matrix(1 0 0 1 -169 -505 )">
    <path d="M 3.37333335625 5.53666664375  C 3.37333335625 4.34594072311481  4.33860743561481 3.38066664375  5.52933335625 3.38066664375  C 5.53420576246399 3.38063383187103  5.53907826534803 3.38061742579205  5.54395078204205 3.38061742579205  C 6.74277686635156 3.38061742579205  7.71461742579205 4.35245798523253  7.71461742579205 5.55128406954205  C 7.71461742579205 6.75011015385156  6.74277686635156 7.72195071329205  5.54395078204205 7.72195071329205  C 4.34512469773253 7.72195071329205  3.37328413829205 6.75011015385156  3.37328413829205 5.55128406954205  C 3.37328413829205 5.54641155284803  3.37330054437103 5.54153904996399  3.37333335625 5.53666664375  Z M 5.5440000000436 0.447312222746683  C 5.53911111116718 0.447312222746683  5.53422222482527 0.447319267255103  5.52933335625 0.447333356250003  C 2.71049306608565 0.4473333562065  0.425354429222022 2.73247199307013  0.425354429222022 5.5513333562065  C 0.425354429222022 8.37019471934287  2.71049306608565 10.6553333562065  5.52935442922202 10.6553333562065  C 8.34821579235839 10.6553333562065  10.633354429222 8.37019471934287  10.633354429222 5.5513333562065  C 10.633354429222 5.54644444448468  10.6333474048908 5.54155553528688  10.63333335625 5.53666664375  C 10.6333333562936 2.72588437953464  8.35476119950564 0.447312222746683  5.5440000000436 0.447312222746683  Z " fill-rule="nonzero" fill="#737373" stroke="none" transform="matrix(1 0 0 1 169 505 )" />
  </g>
</svg>