<?xml version="1.0" encoding="utf-8"?>
<svg version="1.1" xmlns:xlink="http://www.w3.org/1999/xlink" width="23px" height="23px" xmlns="http://www.w3.org/2000/svg">
  <g transform="matrix(1 0 0 1 -193 -498 )">
    <path d="M 11.4539999999875 3.36565230666732  C 11.4591111064878 3.36565230666732  11.4642222118703 3.365657101322  11.469333309375 3.365666690625  C 15.9914264838336 3.36566669061241  19.657318952219 7.03155915899788  19.657318952219 11.5536666906124  C 19.657318952219 16.0757742222269  15.9914264838336 19.7416666906124  11.469318952219 19.7416666906124  C 6.9472114206045 19.7416666906124  3.28131895221903 16.0757742222269  3.28131895221903 11.5536666906124  C 3.28131895221903 11.5485555601735  3.28132373793978 11.5434444308518  3.28133330937501 11.538333309375  C 3.28133330936248 7.02467981861004  6.9403608213052 3.36565230666732  11.4539999999875 3.36565230666732  Z M 22.708666690625 11.538333309375  C 22.7002203482475 5.33452285397714  17.6731437648269 0.307446302704407  11.469333309375 0.298999999999998  C 11.4642256861785 0.298993046123519  11.4591180588442 0.298989569184072  11.4540104309139 0.298989569184072  C 5.23822965325313 0.298989569184072  0.199343740288926 5.33787548214828  0.199343740288926 11.5536562598091  C 0.199343740288926 17.7694370374699  5.23822965325313 22.8083229504341  11.4540104309139 22.8083229504341  C 17.6697912085747 22.8083229504341  22.7086771215389 17.7694370374699  22.7086771215389 11.5536562598091  C 22.7086771215389 11.5485486078888  22.7086736445668 11.5434409565615  22.708666690625 11.538333309375  Z " fill-rule="nonzero" fill="#737373" stroke="none" transform="matrix(1 0 0 1 193 498 )" />
  </g>
</svg>