<?xml version="1.0" encoding="utf-8"?>
<svg version="1.1" xmlns:xlink="http://www.w3.org/1999/xlink" width="11px" height="11px" xmlns="http://www.w3.org/2000/svg">
  <g transform="matrix(1 0 0 1 -199 -505 )">
    <path d="M 5.28939799026542 3.3  C 5.34989502361664 3.3  5.41036731373997 3.30244645082424  5.47066664375 3.30733335625  C 6.63588521661266 3.40176745634635  7.5333979902654 4.37496102639599  7.5333979902654 5.544  C 7.5333979902654 6.713038973604  6.63588521661266 7.68623254365364  5.47066664375 7.78066664375  C 5.41036731373996 7.78555354917575  5.34989502361665 7.788  5.28939799026542 7.788  C 4.05007101164512 7.788  3.04539799026541 6.78332697862029  3.04539799026541 5.544  C 3.04539799026541 4.3046730213797  4.05007101164512 3.3  5.28939799026542 3.3  Z M 10.63333335625 5.53666664375001  C 10.6252769366787 2.68874831459234  8.31858497301495 0.382056381646258  5.47066664375001 0.374  C 5.4657846799889 0.373986189574735  5.46090269913828 0.373979284351752  5.45602071584329 0.373979284351752  C 2.59665845839613 0.373979284351752  0.278687359593285 2.6919503831546  0.278687359593285 5.55131264060175  C 0.278687359593285 8.41067489804891  2.59665845839613 10.7286459968518  5.45602071584329 10.7286459968518  C 8.31538297329043 10.7286459968518  10.6333540720933 8.41067489804891  10.6333540720933 5.55131264060175  C 10.6333540720933 5.54643063432664  10.6333471668053 5.54154863049095  10.63333335625 5.53666664375001  Z " fill-rule="nonzero" fill="#737373" stroke="none" transform="matrix(1 0 0 1 199 505 )" />
  </g>
</svg>