<?xml version="1.0" encoding="utf-8"?>
<svg version="1.1" xmlns:xlink="http://www.w3.org/1999/xlink" width="67px" height="17px" xmlns="http://www.w3.org/2000/svg">
  <g transform="matrix(1 0 0 1 -156 -516 )">
    <path d="M 57.997966125 3.04551724137932  L 57.997966125 3.07494255172414  C 60.6669055804535 3.07494255172414  62.8305084978813 5.20915483391004  62.8305084978813 7.84183910344828  C 62.8305084978813 10.4745233729865  60.6669055804535 12.6087356551724  57.997966125 12.6087356551724  C 54.4551277385745 12.3039560071565  50.955209427036 11.6282768930554  47.5572881122881 10.5931034482759  C 42.8291292406834 9.14894804527761  37.9411629533279 8.27454490670296  33 7.98896551724138  C 28.0487883309006 8.27218497011972  23.1506632281004 9.14661354524765  18.4128813559322 10.5931034482759  C 15.0149600638258 11.6282768882659  11.5150417759797 12.3039560023177  7.97220341313559 12.6087356551724  C 5.3032639576821 12.6087356551724  3.13966104025424 10.4745233729865  3.13966104025424 7.84183910344828  C 3.13966104025424 5.20915483391004  5.3032639576821 3.07494255172414  7.97220341313559 3.07494255172414  C 11.5271023122305 3.21284595529191  15.0617940836832 3.67084154532341  18.5322034131356 4.44321841379311  C 23.2900851740104 5.4571452485126  28.1339068278286 6.02853762906701  33 6.14988503448276  C 37.8570436114388 6.01702660706136  42.6908020572743 5.43579175987233  47.437966125 4.41379310344828  C 50.9083754544524 3.64141623497857  54.4430672259051 3.18342064494708  57.997966125 3.04551724137932  Z M 57.997966125 0.132413793103461  L 57.997966125 0.102988482758621  C 50.5403389830509 0.102988482758621  42.3816949385593 3.17793103448276  33 3.17793103448276  C 23.6183050614407 3.17793103448276  15.5193220105932 0.132413793103453  8.002033875 0.132413793103461  C 3.68588961100141 0.132816473977324  0.187179839836195 3.58432579473477  0.187179839836195 7.84183906896552  C 0.187179839836195 12.0993523431963  3.68588961100141 15.5508616639537  8.002033875 15.5512643448276  C 14.2515254237288 15.5512643448276  25.1844067563559 10.9314942068966  33 10.9314942758621  C 40.8155932436441 10.9314943448276  51.7484745762712 15.5512644137931  57.997966125 15.5512643448276  C 62.3151382928255 15.5512643793104  65.8142985771243 12.0996370978285  65.8142985771243 7.84183906896552  C 65.8142985771243 3.58404104010255  62.3151382928255 0.132413758620699  57.9987053334803 0.132413758620699  Z " fill-rule="nonzero" fill="#737373" stroke="none" transform="matrix(1 0 0 1 156 516 )" />
  </g>
</svg>