<?xml version="1.0" encoding="utf-8"?>
<svg version="1.1" xmlns:xlink="http://www.w3.org/1999/xlink" width="11px" height="11px" xmlns="http://www.w3.org/2000/svg">
  <g transform="matrix(1 0 0 1 -192 -512 )">
    <path d="M 3.26333335625 5.42666664375  C 3.26333335625 4.25214108843304  4.21547444468304 3.3  5.39000000000001 3.3  C 6.56452555531696 3.3  7.51666664375 4.25214108843304  7.51666664375 5.42666664375  C 7.51666664375 6.60119219906696  6.56452555531696 7.5533332875  5.39000000000001 7.5533332875  C 4.21547444468304 7.5533332875  3.26333335625 6.60119219906696  3.26333335625 5.42666664375  Z M 5.40468802375442 0.366645263745586  C 5.39979200805645 0.366645263745586  5.3948959949507 0.366652390421275  5.39 0.366666643750003  C 2.59543916585618 0.366666643750003  0.329999999999997 2.63210580960619  0.329999999999997 5.42666664375  C 0.329999999999997 8.22122747789381  2.59543916585618 10.48666664375  5.39 10.48666664375  C 8.18456083414381 10.48666664375  10.45 8.22122747789381  10.45 5.42666664375  C 10.4500142533287 5.42177064879826  10.4500213800044 5.41687463569458  10.4500213800044 5.41197861999559  C 10.4500213800044 2.62551794952609  8.1911486942239 0.366645263745586  5.40468802375442 0.366645263745586  Z " fill-rule="nonzero" fill="#737373" stroke="none" transform="matrix(1 0 0 1 192 512 )" />
  </g>
</svg>