<?xml version="1.0" encoding="utf-8"?>
<svg version="1.1" xmlns:xlink="http://www.w3.org/1999/xlink" width="18px" height="19px" xmlns="http://www.w3.org/2000/svg">
  <g transform="matrix(1 0 0 1 -179 -484 )">
    <path d="M 9 3.42383835984848  C 12.3137084860406 3.42383835984848  14.9999999765625 6.17344311782377  14.9999999765625 9.56525247727273  C 14.9999999765625 12.9570618367217  12.3137084860406 15.706666594697  9 15.706666594697  C 5.68629154141815 15.706666594697  3.00000006227002 12.9570618805855  3.0000000234375 9.56525254924242  C 3.0000000234375 6.17344311782377  5.68629151395941 3.42383835984848  9 3.42383835984848  Z M 18 9.56525254924242  C 18 4.47753849019511  13.9705627484771 0.353131337121212  9 0.353131337121212  C 4.02943725152286 0.353131337121212  0 4.47753849019511  0 9.56525254924242  C 0 14.6529666082897  4.02943725152286 18.7773737613636  9 18.7773737613636  C 13.9705627484771 18.7773737613636  18 14.6529666082897  18 9.56525254924242  Z " fill-rule="nonzero" fill="#737373" stroke="none" transform="matrix(1 0 0 1 179 484 )" />
  </g>
</svg>