<?xml version="1.0" encoding="utf-8"?>
<svg version="1.1" xmlns:xlink="http://www.w3.org/1999/xlink" width="9px" height="9px" xmlns="http://www.w3.org/2000/svg">
  <g transform="matrix(1 0 0 1 -110 -37 )">
    <path d="M 2.67000001875 4.43999998125  C 2.67000001875 3.47902452689976  3.44902454564976 2.7  4.41 2.7  C 5.37097545435024 2.7  6.14999998125 3.47902452689976  6.14999998125 4.43999998125  C 6.14999998125 5.40097543560024  5.37097545435024 6.1799999625  4.41 6.1799999625  C 3.44902454564976 6.1799999625  2.67000001875 5.40097543560024  2.67000001875 4.43999998125  Z M 4.42201747398089 0.299982488519116  C 4.41801164295528 0.299982488519116  4.41400581405057 0.299988319435589  4.41 0.299999981250002  C 2.12354113570051 0.299999981250002  0.269999999999997 2.15354111695052  0.269999999999997 4.43999998125  C 0.269999999999997 6.72645884554948  2.12354113570051 8.57999998125  4.41 8.57999998125  C 6.69645886429948 8.57999998125  8.54999999999999 6.72645884554948  8.54999999999999 4.43999998125  C 8.55001166181442 4.43599416719857  8.55001749273089 4.43198833829556  8.55001749273089 4.42798250726911  C 8.55001749273089 2.14815104961226  6.70184893163774 0.299982488519116  4.42201747398089 0.299982488519116  Z " fill-rule="nonzero" fill="#737373" stroke="none" transform="matrix(1 0 0 1 110 37 )" />
  </g>
</svg>