<?xml version="1.0" encoding="utf-8"?>
<svg version="1.1" xmlns:xlink="http://www.w3.org/1999/xlink" width="23px" height="25px" xmlns="http://www.w3.org/2000/svg">
  <g transform="matrix(1 0 0 1 -179 -272 )">
    <path d="M 0.482910156250001 15.09189453125  C -0.328571428571427 18.796484375  1.11534598214286 21.43056640625  6.61378348214286 24.3125  C 4.90129743303571 21.01923828125  5.80230189732143 19.12607421875  7.15380859375 17.3990234375  C 8.59772600446428 15.421484375  8.95870535714286 13.5283203125  8.95870535714286 13.5283203125  C 8.95870535714286 13.5283203125  10.1311662946429 14.8466796875  9.6806640625 16.98505859375  C 11.6646065848214 14.92841796875  12.0255859375 11.63515625  11.7541294642857 10.39853515625  C 16.2620396205357 13.28310546875  18.2459821428571 19.619140625  15.6296037946429 24.23076171875  C 29.5143136160714 16.9876953125  19.0545758928571 6.203515625  17.2525669642857 5.05126953125  C 17.8850027901786 6.28525390625  17.9745256696429 8.34453125  16.7125418526786 9.3306640625  C 14.6390764508929 2.08759765625  9.49873046875 0.6875  9.49873046875 0.6875  C 10.1311662946429 4.39208984375  7.3357421875 8.42626953125  4.62984095982143 11.4716796875  C 4.54031808035714 9.98984375  4.45079520089286 9.00107421875  3.54690290178571 7.51923828125  C 3.36785714285714 10.23505859375  1.11245814732143 12.37607421875  0.482910156250001 15.09189453125  Z " fill-rule="nonzero" fill="#aeaeae" stroke="none" transform="matrix(1 0 0 1 179 272 )" />
  </g>
</svg>