<?xml version="1.0" encoding="utf-8"?>
<svg version="1.1" xmlns:xlink="http://www.w3.org/1999/xlink" width="38px" height="38px" xmlns="http://www.w3.org/2000/svg">
  <g transform="matrix(1 0 0 1 -100 -391 )">
    <path d="M 119 392  C 129.08 392  137 399.92  137 410  C 137 420.08  129.08 428  119 428  C 108.92 428  101 420.08  101 410  C 101 399.92  108.92 392  119 392  Z " fill-rule="nonzero" fill="#44474d" stroke="none" />
    <path d="M 119 392  C 129.08 392  137 399.92  137 410  C 137 420.08  129.08 428  119 428  C 108.92 428  101 420.08  101 410  C 101 399.92  108.92 392  119 392  Z " stroke-width="2" stroke="#ffffff" fill="none" />
  </g>
</svg>