<?xml version="1.0" encoding="utf-8"?>
<svg version="1.1" xmlns:xlink="http://www.w3.org/1999/xlink" width="18px" height="10px" xmlns="http://www.w3.org/2000/svg">
  <g transform="matrix(1 0 0 1 -109 -400 )">
    <path d="M 8.9657958140625 4.11370714518229  C 9.04843830351562 5.65117150390625  9.91727178984375 9.19630051323785  16.3883958164062 9.19630051323785  C 16.5845251508977 9.22732132893209  16.7656066908416 9.3134401595863  16.9070861460938 9.44297946614583  L 16.9070861460938 8.10688568250868  C 16.9081735274372 8.05731609362837  16.9087172601562 8.00773755873768  16.9087172601562 7.9581577457325  C 16.9087172601562 3.91330824625916  13.3673989988843 0.634309856192574  8.99896153945313 0.634309856192574  C 4.63052408002191 0.634309856192574  1.08920581875 3.91330824625916  1.08920581875 7.9581577457325  C 1.08920581875 8.00773755873768  1.08974955146903 8.05731609362837  1.0908369328125 8.10688568250868  L 1.0908369328125 9.44801374782987  C 1.20577109315105 9.35324965889181  1.33555962606157 9.27517013541059  1.47577692890625 9.21643757703993  C 7.76204277773438 9.21643757703993  8.81573444179688 5.65519893554687  8.9657958140625 4.11370714518229  Z " fill-rule="nonzero" fill="#c9d4f8" stroke="none" transform="matrix(1 0 0 1 109 400 )" />
  </g>
</svg>