<?xml version="1.0" encoding="utf-8"?>
<svg version="1.1" xmlns:xlink="http://www.w3.org/1999/xlink" width="9px" height="11px" xmlns="http://www.w3.org/2000/svg">
  <g transform="matrix(1 0 0 1 -85 -202 )">
    <path d="M 8.964560546875 5.489208984375  L 8.9647265625 5.503818359375  C 8.944970703125 5.520419921875  8.92421875 5.537021484375  8.905625 5.55611328125  C 7.206953125 7.24947265625  5.508447265625 8.94355143229167  3.810107421875 10.638349609375  C 3.7914266829183 10.6590522872544  3.77391262127456 10.680778591572  3.757646484375 10.703427734375  L 2.462890625 9.4013671875  L 3.189208984375 8.670068359375  L 3.737060546875 9.22173828125  L 7.436884765625 5.491865234375  L 3.75482421875 1.78125  L 2.258857421875 3.28734375  L 4.47998046875 5.48771484375  L 3.7412109375 6.23279296875  L 0.783310546875 3.25248046875  L 0.745625 3.2475  C 0.770693359375 3.23255859375  0.800244140625001 3.222265625  0.820166015625 3.20234375  C 1.77486653645833 2.25140625  2.72906901041667 1.29958333333333  3.6827734375 0.346874999999999  C 3.701201171875 0.328447265624999  3.717138671875 0.307197265625  3.734404296875 0.287275390624999  L 3.74884765625 0.287275390624999  C 3.761298828125 0.30171875  3.772919921875 0.317158203125  3.7863671875 0.33060546875  L 8.9208984375 5.45251953125  C 8.934345703125 5.46580078125  8.949951171875 5.47708984375  8.964560546875 5.489208984375  Z " fill-rule="nonzero" fill="#737373" stroke="none" transform="matrix(1 0 0 1 85 202 )" />
  </g>
</svg>