<?xml version="1.0" encoding="utf-8"?>
<svg version="1.1" xmlns:xlink="http://www.w3.org/1999/xlink" width="91px" height="13px" xmlns="http://www.w3.org/2000/svg">
  <g transform="matrix(1 0 0 1 0 -2 )">
    <path d="M 90.8381946491745 6.6615478515625  C 90.8381946491745 9.87568359375  88.5351931014151 12.4912353515625  85.7051364730739 12.4912353515625  L 5.2948635269261 12.4912353515625  C 2.46480689858491 12.4912353515625  0.161805350825472 9.87568359375  0.161805350825472 6.6615478515625  L 0.161805350825472 6.3492431640625  C 0.161805350825472 3.135107421875  2.46480689858491 0.519555664062502  5.2948635269261 0.519555664062502  L 85.7051364730739 0.519555664062502  C 88.5351931014151 0.519555664062502  90.8381946491745 3.135107421875  90.8381946491745 6.3492431640625  L 90.8381946491745 6.6615478515625  Z M 85.7051364730739 4.696630859375  L 5.2948635269261 4.696630859375  C 4.4813654677673 4.696630859375  3.82827547661163 5.4383544921875  3.82827547661163 6.362255859375  L 3.82827547661163 6.674560546875  C 3.82827547661163 7.58544921875  4.48136546776729 8.34018554687501  5.2948635269261 8.34018554687501  L 85.7051364730739 8.34018554687501  C 86.5071768130896 8.34018554687501  87.1717245233884 7.5984619140625  87.1717245233884 6.674560546875  L 87.1717245233884 6.362255859375  C 87.1717245233884 5.4513671875  86.5186345322327 4.696630859375  85.7051364730739 4.696630859375  Z " fill-rule="nonzero" fill="#2d2d2d" stroke="none" transform="matrix(1 0 0 1 0 2 )" />
  </g>
</svg>