<?xml version="1.0" encoding="utf-8"?>
<svg version="1.1" xmlns:xlink="http://www.w3.org/1999/xlink" width="77px" height="16px" xmlns="http://www.w3.org/2000/svg">
  <g transform="matrix(1 0 0 1 -7 0 )">
    <path d="M 76.8777379918981 7.93118990384616  C 76.8777379918981 12.1938100961538  73.6577076099537 15.66796875  69.6954716435185 15.66796875  L 7.30452835648148 15.66796875  C 3.3537109375 15.66796875  0.133680555555556 12.1938100961538  0.133680555555556 7.93118990384616  C 0.133680555555556 3.66856971153846  3.3537109375 0.19441105769231  7.30452835648148 0.19441105769231  L 69.7068901909722 0.19441105769231  C 73.6577076099537 0.19441105769231  76.8777379918981 3.66856971153846  76.8777379918981 7.93118990384616  Z M 69.7068901909722 4.13671875  L 7.30452835648149 4.13671875  C 5.36337528935186 4.13671875  3.78761574074075 5.83683894230769  3.78761574074075 7.93118990384616  C 3.78761574074075 10.0255408653846  5.36337528935186 11.7256610576923  7.30452835648149 11.7256610576923  L 69.7068901909722 11.7256610576923  C 71.6480432581019 11.7256610576923  73.223802806713 10.0255408653846  73.223802806713 7.93118990384616  C 73.223802806713 5.83683894230769  71.6480432581019 4.13671875  69.7068901909722 4.13671875  Z " fill-rule="nonzero" fill="#2d2d2d" stroke="none" transform="matrix(1 0 0 1 7 0 )" />
  </g>
</svg>