<?xml version="1.0" encoding="utf-8"?>
<svg version="1.1" xmlns:xlink="http://www.w3.org/1999/xlink" width="3px" height="3px" xmlns="http://www.w3.org/2000/svg">
  <g transform="matrix(1 0 0 1 -191 -336 )">
    <path d="M 192.5 337  C 192.78 337  193 337.22  193 337.5  C 193 337.78  192.78 338  192.5 338  C 192.22 338  192 337.78  192 337.5  C 192 337.22  192.22 337  192.5 337  Z " fill-rule="nonzero" fill="#ffffff" stroke="none" />
    <path d="M 192.5 337  C 192.78 337  193 337.22  193 337.5  C 193 337.78  192.78 338  192.5 338  C 192.22 338  192 337.78  192 337.5  C 192 337.22  192.22 337  192.5 337  Z " stroke-width="2" stroke="#000000" fill="none" />
  </g>
</svg>