<?xml version="1.0" encoding="utf-8"?>
<svg version="1.1" xmlns:xlink="http://www.w3.org/1999/xlink" width="4px" height="25px" xmlns="http://www.w3.org/2000/svg">
  <g transform="matrix(1 0 0 1 -191 -305 )">
    <path d="M 3.10000000000002 23.718994140625  C 3.10000000000002 23.373291015625  2.66700000000003 23.08837890625  2.10000000000002 23.03271484375  L 2.10000000000002 2.57299804687499  C 3.40800000000002 2.17163085937502  3.40899999999999 1.11401367187498  3.40899999999999 1.11401367187498  C 3.20000000000005 -0.5126953125  0.5 -0.2197265625  0.386999999999944 1.11474609375  C 0.302999999999997 2.09765625  1.30200000000002 2.48291015625002  1.70000000000005 2.59716796874998  L 1.70000000000005 23.033447265625  C 1.13300000000004 23.089111328125  0.700000000000045 23.3740234375  0.700000000000045 23.718994140625  C 0.700000000000045 24.103515625  1.23699999999997 24.414794921875  1.89999999999998 24.414794921875  C 2.56299999999999 24.414794921875  3.10000000000002 24.103515625  3.10000000000002 23.718994140625  Z M 1.87599999999998 2.27563476562498  C 1.87599999999998 2.27636718749999  0.769000000000005 2.17309570312501  0.83299999999997 1.13818359375002  C 0.897000000000048 0.103271484374989  2.90700000000004 0.0146484375000089  2.98299999999995 1.13818359375002  C 2.98299999999995 1.13818359375002  3.18299999999999 1.99072265625002  1.87599999999998 2.27563476562498  Z " fill-rule="nonzero" fill="#777777" stroke="none" transform="matrix(1 0 0 1 191 305 )" />
  </g>
</svg>