<?xml version="1.0" encoding="utf-8"?>
<svg version="1.1" xmlns:xlink="http://www.w3.org/1999/xlink" width="48px" height="11px" xmlns="http://www.w3.org/2000/svg">
  <g transform="matrix(1 0 0 1 -261 -501 )">
    <path d="M 6.04505941901408 7.78350036621089  C 6.04505941901408 9.33700195312503  4.80543353873232 10.5976110839843  3.27779049295775 10.5976110839843  C 1.75014744718303 10.5976110839843  0.512825704225358 9.33700195312503  0.512825704225358 7.78350036621089  L 0.512825704225358 3.0198974609375  C 0.512825704225358 2.01469055175784  1.03816901408449 1.08680725097656  1.89530809859156 0.583032226562437  C 2.75244718309862 0.0816003417969  3.80543794014083 0.0816003417969  4.66257702464789 0.583032226562437  C 5.51971610915495 1.08680725097656  6.04505941901408 2.01469055175784  6.04505941901408 3.0198974609375  L 6.04505941901408 7.78350036621089  Z M 19.8744916373239 7.78350036621089  C 19.8744916373239 9.33700195312503  18.6371698943663 10.5976110839843  17.1095268485915 10.5976110839843  C 15.5818838028168 10.5976110839843  14.3422579225352 9.33700195312503  14.3422579225352 7.78350036621089  L 14.3422579225352 3.0198974609375  C 14.3422579225352 2.01469055175784  14.8699053697183 1.08680725097656  15.7247403169014 0.583032226562437  C 16.5795752640845 0.0816003417969  17.6348701584507 0.0816003417969  18.4920092429577 0.583032226562437  C 19.3468441901409 1.08680725097656  19.8744916373239 2.01469055175784  19.8744916373239 3.0198974609375  L 19.8744916373239 7.78350036621089  Z M 33.7039238556338 7.78350036621089  C 33.7039238556338 9.33700195312503  32.4642979753522 10.5976110839843  30.9366549295775 10.5976110839843  C 29.4090118838029 10.5976110839843  28.1716901408451 9.33700195312503  28.1716901408451 7.78350036621089  L 28.1716901408451 3.0198974609375  C 28.1716901408451 1.46639587402336  29.4090118838029 0.205786743164069  30.9366549295775 0.205786743164069  C 32.4642979753522 0.205786743164069  33.7039238556338 1.46639587402336  33.7039238556338 3.0198974609375  L 33.7039238556338 7.78350036621089  Z M 47.5333560739436 7.78350036621089  C 47.5333560739436 9.33700195312503  46.296034330986 10.5976110839843  44.7683912852112 10.5976110839843  C 43.2407482394367 10.5976110839843  42.0011223591549 9.33700195312503  42.0011223591549 7.78350036621089  L 42.0011223591549 3.0198974609375  C 42.0011223591549 1.46639587402336  43.2407482394367 0.205786743164069  44.7683912852112 0.205786743164069  C 46.296034330986 0.205786743164069  47.5333560739436 1.46639587402336  47.5333560739436 3.0198974609375  L 47.5333560739436 7.78350036621089  Z " fill-rule="nonzero" fill="#9f9f9f" stroke="none" transform="matrix(1 0 0 1 261 501 )" />
  </g>
</svg>