<?xml version="1.0" encoding="utf-8"?>
<svg version="1.1" xmlns:xlink="http://www.w3.org/1999/xlink" width="34px" height="34px" xmlns="http://www.w3.org/2000/svg">
  <g transform="matrix(1 0 0 1 -105 -1235 )">
    <path d="M 122 1235  C 131.52 1235  139 1242.48  139 1252  C 139 1261.52  131.52 1269  122 1269  C 112.48 1269  105 1261.52  105 1252  C 105 1242.48  112.48 1235  122 1235  Z " fill-rule="nonzero" fill="#ffffff" stroke="none" fill-opacity="0" />
    <path d="M 122 1235.5  C 131.24 1235.5  138.5 1242.76  138.5 1252  C 138.5 1261.24  131.24 1268.5  122 1268.5  C 112.76 1268.5  105.5 1261.24  105.5 1252  C 105.5 1242.76  112.76 1235.5  122 1235.5  Z " stroke-width="1" stroke="#ffffff" fill="none" />
  </g>
</svg>