<?xml version="1.0" encoding="utf-8"?>
<svg version="1.1" xmlns:xlink="http://www.w3.org/1999/xlink" width="68px" height="43px" xmlns="http://www.w3.org/2000/svg">
  <g transform="matrix(1 0 0 1 -7 -149 )">
    <path d="M 43.7980559260671 22.1946153846154  C 40.5612160823171 19.7263888972356  39.5820559260671 13.8814187950721  38.3580559260671 10.2876111027644  C 37.1711350060484 6.85249095241202  35.6877066359672 3.52648178801894  33.9244426448171 0.346963679387018  L 0.645216082317073 15.7800341796875  C 0.645216082317073 15.7800341796875  4.97005592606707 28.2837329101562  13.0484426448171 34.7661880258413  C 25.0436692073171 44.3677307692308  37.6100559260671 43.7303119741587  46.2324426448171 40.0416132436899  C 53.7124426448171 36.8410769230769  58.3908293635671 28.5278803335337  61.3420559260671 24.5272264873798  C 64.2932824885671 20.526572641226  66.7004426448171 17.3259701021635  67.1084426448171 12.4981153846154  C 67.7068293635671 5.29692521784855  65.1092160823171 3.58815812800481  64.2388293635671 4.63242307692308  C 63.3684426448171 5.67668802584134  62.6068293635671 11.047004281851  60.3084426448171 11.5623824744591  C 58.7444426448171 11.914995718149  59.0708293635671 9.46034401292067  57.3028957698171 8.56526923076923  C 54.8276692073171 7.30407264122596  57.3028957698171 12.8913867563101  57.1124426448171 15.8206923076923  C 56.6364426448171 23.8626581280048  49.1020559260671 26.2630769230769  43.7979895198171 22.1946153846154  Z " fill-rule="nonzero" fill="#a8a8a8" stroke="none" transform="matrix(1 0 0 1 7 149 )" />
  </g>
</svg>