<?xml version="1.0" encoding="utf-8"?>
<svg version="1.1" xmlns:xlink="http://www.w3.org/1999/xlink" width="100px" height="21px" xmlns="http://www.w3.org/2000/svg">
  <g transform="matrix(1 0 0 1 -138 -27 )">
    <path d="M 86.9969491875 3.80689655172414  L 86.9969491875 3.84367818965518  C 91.0003583706802 3.84367818965518  94.245762746822 6.51144354238755  94.245762746822 9.80229887931035  C 94.245762746822 13.0931542162331  91.0003583706802 15.7609195689655  86.9969491875 15.7609195689655  C 81.6826916078617 15.3799450089456  76.4328141405541 14.5353461163193  71.3359321684322 13.2413793103448  C 64.2436938610251 11.436185056597  56.9117444299919 10.3431811333787  49.5 9.98620689655173  C 42.0731824963509 10.3402312126497  34.7259948421506 11.4332669315596  27.6193220338983 13.2413793103448  C 22.5224400957387 14.5353461103324  17.2725626639695 15.3799450028971  11.9583051197034 15.7609195689655  C 7.95489593652315 15.7609195689655  4.70949156038135 13.0931542162331  4.70949156038135 9.80229887931035  C 4.70949156038135 6.51144354238755  7.95489593652315 3.84367818965518  11.9583051197034 3.84367818965518  C 17.2906534683457 4.01605744411488  22.5926911255249 4.58855193165426  27.7983051197034 5.55402301724139  C 34.9351277610156 6.82143156064075  42.2008602417429 7.53567203633376  49.5 7.68735629310345  C 56.7855654171583 7.52128325882671  64.0362030859115 6.79473969984041  71.1569491875 5.51724137931035  C 76.3625631816785 4.55177029372321  81.6646008388576 3.97927580618384  86.9969491875 3.80689655172414  Z M 86.9969491875 0.165517241379326  L 86.9969491875 0.128735603448276  C 75.8105084745763 0.128735603448276  63.572542407839 3.97241379310345  49.5 3.97241379310345  C 35.427457592161 3.97241379310345  23.2789830158898 0.165517241379317  12.0030508125 0.165517241379326  C 5.52883441650212 0.166020592471655  0.280769759754292 4.48040724341846  0.280769759754292 9.80229883620691  C 0.280769759754292 15.1241904289954  5.52883441650212 19.4385770799422  12.0030508125 19.4390804310345  C 21.3772881355932 19.4390804310345  37.7766101345339 13.6643677586207  49.5 13.6643678448276  C 61.2233898654661 13.6643679310345  77.6227118644068 19.4390805172414  86.9969491875 19.4390804310345  C 86.9973187917385 19.4390804597701  86.9976883959803 19.4390804741379  86.9980580002204 19.4390804741379  C 93.4727074392382 19.4390804741379  98.7214478656865 15.1245463722856  98.7214478656865 9.80229883620691  C 98.7214478656865 4.48005130012818  93.4727074392382 0.165517198275873  86.9980580002204 0.165517198275873  C 86.9976883959803 0.165517198275873  86.9973187917385 0.165517212643694  86.9969491875 0.165517241379326  Z " fill-rule="nonzero" fill="#555555" stroke="none" transform="matrix(1 0 0 1 138 27 )" />
  </g>
</svg>