<?xml version="1.0" encoding="utf-8"?>
<svg version="1.1" xmlns:xlink="http://www.w3.org/1999/xlink" width="64px" height="37px" xmlns="http://www.w3.org/2000/svg">
  <g transform="matrix(1 0 0 1 -5 -154 )">
    <path d="M 62.246 3.25165420809659  C 62.4527894138407 5.490088613722  62.4527894138407 7.74315650346549  62.246 9.98159090909091  C 64.2088084415584 6.89244074041194  63.7999399350649 2.90688148082387  63.3092045454545 0.60377272727273  C 63.0244200934241 1.51340124422136  62.6689081085063 2.39879399870058  62.246 3.25165420809659  Z M 60.5421038961039 4.9892548828125  C 59.6833003246753 5.18238148082386  59.3698100649351 4.65828653231534  59.0290308441558 3.98254545454546  C 59.6015 8.11981818181818  61.1282175324675 9.49890909090909  61.1282175324675 9.49890909090909  C 60.7788560671785 8.02031144428719  60.5824283607368 6.50896453477463  60.5421038961039 4.9892548828125  Z M 17.3176542207792 26.1721047141335  C 10.0113344155844 20.2420138050426  5.78567207792208 9.34726296164772  5.04960227272727 7.25101784446023  L 0.646761363636364 9.31965420809659  C 0.646761363636364 9.31965420809659  4.98137987012987 22.0348319868608  13.0782808441558 28.6269269353693  C 25.1009983766234 38.3908636363636  37.6961850649351 37.7426639737216  46.3383327922078 33.9915771040483  C 47.7369608603889 33.3730833543616  49.059113002043 32.5908631103105  50.2777272727273 31.6609269353693  C 41.649224025974 35.3017134676847  29.190349025974 35.8258084161932  17.3175876623377 26.1721720525568  Z " fill-rule="nonzero" fill="#7b7b7b" stroke="none" transform="matrix(1 0 0 1 5 154 )" />
  </g>
</svg>