<?xml version="1.0" encoding="utf-8"?>
<svg version="1.1" xmlns:xlink="http://www.w3.org/1999/xlink" width="131px" height="13px" xmlns="http://www.w3.org/2000/svg">
  <g transform="matrix(1 0 0 1 -84 -171 )">
    <path d="M 41.59306640625 1.15986328125  C 42.160546875 1.378125  42.393359375 1.90195312500001  43.04814453125 1.45087890625  C 42.69892578125 0.970703125  42.32060546875 0.868847656249997  41.59306640625 1.15986328125  Z M 45.14345703125 1.5818359375  C 45.40537109375 1.88740234375  45.72548828125 1.88740234375  46.04560546875 1.75644531249999  C 46.10380859375 1.72734375  46.13291015625 1.46542968749999  46.0892578125 1.42177734374999  C 45.81279296875 1.18896484374999  45.46357421875 1.27626953124999  45.12890625 1.2908203125  C 44.64873046875 1.2908203125  44.15400390625 1.1453125  43.71748046875 1.5818359375  L 45.14345703125 1.5818359375  Z M 49.24677734375 2.09111328125  C 49.8142578125 1.91650390625  50.67275390625 2.64404296875  50.93466796875 1.552734375  L 50.67275390625 1.552734375  C 50.32353515625 2.06201171875  49.59599609375 1.5818359375  49.24677734375 2.09111328125  Z M 37.02412109375 0.694238281250009  C 37.21328125 1.07255859375  37.57705078125 0.89794921875  37.853515625 0.985253906250009  C 37.86806640625 1.26171875  37.8826171875 1.53818359375001  37.8826171875 1.8146484375  C 38.551953125 1.64003906250001  39.2212890625 1.46542968750001  39.890625 1.30537109375  C 40.1525390625 1.62548828125  40.5599609375 1.49453125000001  40.5599609375 1.26171875  C 40.5599609375 0.708789062500003  40.00703125 0.781542968750003  39.61416015625 0.708789062500003  C 39.3958984375 0.708789062500003  39.1921875 0.723339843749997  38.97392578125 0.723339843749997  C 38.319140625 0.708789062500003  37.67890625 0.708789062500003  37.02412109375 0.694238281250009  Z M 2.9025390625 4.39013671875  C 2.9025390625 4.59384765624999  3.06259765625 4.68115234375  3.3681640625 4.68115234375  C 3.4263671875 4.59384765624999  3.5427734375 4.47744140625001  3.64462890625 4.346484375  C 3.4845703125 4.28828125  3.3390625 4.2009765625  3.17900390625 4.2009765625  C 3.0771484375 4.2009765625  2.9025390625 4.3173828125  2.9025390625 4.39013671875  Z M 34.943359375 0.374121093749991  C 34.92880859375 0.810644531249991  35.39443359375 0.723339843749997  35.56904296875 0.956152343749991  L 36.3693359375 0.956152343749991  C 36.04921875 0.388671875  35.4962890625 0.359570312499997  34.943359375 0.374121093749991  Z M 58.515625 2.38212890624999  C 58.70478515625 2.20751953124999  58.690234375 2.03291015625  58.53017578125 1.84375  C 58.23916015625 1.93105468750001  57.94814453125 2.03291015625  57.65712890625 2.12021484374999  C 57.56982421875 2.20751953125  57.48251953125 2.29482421874999  57.39521484375 2.3966796875  C 57.77353515625 2.3966796875  58.15185546875 2.38212890624999  58.515625 2.38212890624999  Z M 2.05859375 6.80556640625001  L 2.10224609375 6.45634765625  C 1.66572265625 6.12167968749999  1.37470703125 6.38359375  0.923632812500001 6.80556640625001  L 2.05859375 6.80556640625001  Z M 52.637109375 1.96015625  C 53.05908203125 2.22207031250001  53.451953125 2.14931640625001  54.0921875 1.9892578125  C 53.46650390625 1.78554687500001  53.0736328125 1.74189453125  52.637109375 1.96015625  Z M 37.5625 1.82919921874999  C 37.34423828125 0.927050781250003  37.02412109375 1.6982421875  36.74765625 1.82919921874999  L 37.5625 1.82919921874999  Z M 130.33828125 6.54365234375  C 130.8912109375 5.71425781249999  130.78935546875 4.71025390624999  130.163671875 3.70625  C 129.348828125 2.41123046875001  128.184765625 2.134765625  126.86064453125 2.12021484375001  C 124.15419921875 2.1056640625  121.47685546875 2.57128906250001  118.755859375 2.3966796875  C 117.98466796875 2.41123046875001  117.19892578125 2.41123046875001  116.427734375 2.42578125  C 115.97666015625 2.251171875  115.5837890625 2.32392578125  115.2345703125 2.64404296875  C 115.147265625 2.58583984375001  115.0599609375 2.600390625  114.98720703125 2.67314453125  C 112.4990234375 2.36757812499999  110.01083984375 2.62949218749999  107.52265625 2.64404296875  C 102.2552734375 2.65859375000001  96.987890625 2.14931640625001  91.7205078125 2.73134765625001  C 90.92021484375 2.26572265625001  90.13447265625 2.4548828125  89.34873046875 2.76044921875  L 88.89765625 2.76044921875  C 88.1701171875 2.76044921875  87.42802734375 2.42578125  86.70048828125 2.7458984375  C 86.43857421875 2.73134765624999  86.17666015625 2.73134765624999  85.91474609375 2.716796875  L 85.17265625 2.716796875  C 84.98349609375 2.716796875  84.77978515625 2.716796875  84.590625 2.73134765625001  C 84.2705078125 2.70224609375001  83.93583984375 2.716796875  83.61572265625 2.70224609375001  L 81.89873046875 2.70224609375001  C 81.622265625 2.65859375000001  81.33125 2.6876953125  81.05478515625 2.71679687500001  C 80.8365234375 2.70224609375001  80.6037109375 2.70224609375001  80.38544921875 2.68769531250001  C 80.2544921875 2.70224609375002  80.1380859375 2.71679687500001  80.00712890625 2.71679687500001  C 79.2650390625 2.71679687500001  78.5375 2.70224609375001  77.79541015625 2.70224609375001  C 77.6935546875 2.77500000000001  77.59169921875 2.78955078125001  77.48984375 2.80410156250001  C 77.59169921875 2.77500000000001  77.6935546875 2.7458984375  77.79541015625 2.70224609375001  C 77.59169921875 2.70224609375001  77.38798828125 2.6876953125  77.18427734375 2.6876953125  C 76.4421875 1.90195312500001  75.43818359375 2.309375  74.56513671875 2.134765625  L 73.98310546875 2.134765625  C 73.124609375 2.134765625  72.2515625 2.12021484374999  71.39306640625 2.12021484374999  C 71.33486328125 2.22207031249999  71.3203125 2.29482421874999  71.33486328125 2.35302734375  C 71.0001953125 2.29482421875001  70.66552734375 2.20751953125  70.31630859375 2.26572265624999  C 70.330859375 2.20751953125  70.28720703125 2.14931640624999  70.1853515625 2.1056640625  C 69.6033203125 2.12021484374999  69.0212890625 2.12021484374999  68.4392578125 2.13476562499999  L 67.2751953125 2.13476562499999  C 66.4021484375 2.17841796875  65.558203125 1.78554687499999  64.68515625 2.04746093749999  C 64.49599609375 1.74189453124998  64.29228515625 1.78554687499998  64.0740234375 2.03291015624998  C 63.50654296875 2.06201171874999  62.92451171875 2.09111328124999  62.35703125 2.12021484374999  C 61.58583984375 2.12021484374999  60.8146484375 2.13476562499999  60.04345703125 2.13476562499999  C 59.98525390625 2.22207031249999  59.970703125 2.30937499999999  59.9998046875 2.38212890624999  C 59.9125 2.3966796875  59.8251953125 2.3966796875  59.737890625 2.41123046874999  C 59.98525390625 3.24062499999998  60.49453125 3.34248046874998  61.20751953125 2.97871093749998  C 61.64404296875 3.12421874999998  62.182421875 3.64804687499999  62.35703125 2.68769531249998  L 62.95361328125 2.68769531249998  C 63.4337890625 3.12421874999998  63.91396484375 2.71679687499999  64.394140625 2.70224609374999  C 64.4232421875 2.86230468749999  64.4232421875 3.05146484374998  64.56875 3.13876953124999  C 62.86630859375 3.15332031249999  61.19296875 3.50253906249999  59.49052734375 3.53164062499998  C 59.34501953125 3.56074218749998  59.1849609375 3.60439453124998  59.039453125 3.64804687499999  C 58.90849609375 3.47343749999999  58.7193359375 3.40068359374999  58.4283203125 3.48798828124998  C 57.27880859375 3.83720703124999  56.02744140625 3.41523437499998  54.9943359375 3.28427734374999  C 53.568359375 3.09511718749998  52.12783203125 3.26972656249998  50.71640625 2.96416015624999  C 50.20712890625 2.84775390624999  49.71240234375 2.96416015624999  49.56689453125 3.60439453124998  C 48.8830078125 3.57529296874999  48.213671875 3.56074218749998  47.52978515625 3.53164062499998  C 47.4279296875 3.56074218749998  47.340625 3.58984374999999  47.23876953125 3.61894531249999  C 47.32607421875 3.63349609375  47.398828125 3.66259765624999  47.4861328125 3.67714843749998  C 47.398828125 3.66259765624999  47.3115234375 3.64804687499999  47.23876953125 3.61894531249999  C 46.8458984375 3.60439453124998  46.45302734375 3.60439453124998  46.06015625 3.58984374999999  C 45.78369140625 3.57529296874999  45.5072265625 3.54619140624999  45.23076171875 3.53164062499999  C 44.88154296875 3.182421875  44.43046875 3.37158203124999  44.023046875 3.2697265625  C 43.73203125 2.84775390624999  43.324609375 2.84775390624999  42.8880859375 2.9787109375  C 42.29150390625 2.90595703125  41.753125 2.55673828124999  41.12744140625 2.70224609374999  C 40.647265625 2.716796875  40.16708984375 2.716796875  39.67236328125 2.73134765624999  L 37.92626953125 2.38212890625  C 37.63525390625 2.46943359375  37.2423828125 2.26572265624999  37.038671875 2.67314453125  C 36.84951171875 2.600390625  36.64580078125 2.5421875  36.456640625 2.46943359375  C 35.97646484375 2.4548828125  35.4962890625 2.42578125  35.0015625 2.41123046875001  C 34.89970703125 2.38212890625  34.81240234375 2.35302734375001  34.710546875 2.32392578125  C 34.41953125 2.36757812500001  34.11396484375 2.42578125  33.82294921875 2.46943359375  C 33.73564453125 2.44033203125001  33.6337890625 2.3966796875  33.546484375 2.36757812500001  C 33.48828125 2.12021484375001  33.4009765625 1.85830078125001  33.09541015625 1.94560546875  C 32.0041015625 2.29482421875001  30.88369140625 2.04746093750001  29.77783203125 2.12021484375001  C 29.28310546875 2.13476562500001  28.8029296875 2.1638671875  28.308203125 2.17841796875  C 27.9298828125 2.14931640625001  27.53701171875 2.134765625  27.15869140625 2.1056640625  L 27.15869140625 1.56728515625001  C 27.33330078125 1.53818359375001  27.5224609375 1.50908203125  27.6970703125 1.47998046875  C 28.191796875 1.6982421875  28.70107421875 1.71279296875001  29.2103515625 1.50908203125  L 30.869140625 1.50908203125  C 30.30166015625 1.46542968749999  29.77783203125 0.839746093749994  29.18125 1.27626953124999  C 28.773828125 1.30537109375  28.41005859375 1.20351562499999  28.06083984375 1.01435546875  C 28.25 0.970703124999986  28.41005859375 0.912499999999994  28.5701171875 0.796093749999997  C 28.61376953125 0.737890624999991  28.64287109375 0.694238281249994  28.657421875 0.636035156249989  C 29.69052734375 1.42177734374998  30.8109375 1.10166015624999  31.93134765625 0.883398437499991  C 32.033203125 0.825195312499986  32.07685546875 0.76699218749998  32.10595703125 0.69423828124998  C 32.4697265625 1.05800781249998  32.848046875 1.04345703124999  33.27001953125 0.737890624999991  C 33.35732421875 0.723339843749983  33.4591796875 0.708789062499989  33.546484375 0.708789062499989  C 33.82294921875 0.592382812499991  34.02666015625 0.40322265624998  34.128515625 0.126757812499989  C 33.6337890625 0.18496093749998  33.09541015625 -0.0333007812500199  32.65888671875 0.388671874999986  C 32.45517578125 0.417773437499989  32.266015625 0.432324218749997  32.0623046875 0.461425781249986  C 30.91279296875 -0.00419921875000284  29.76328125 0.0249023437499858  28.59921875 0.403222656249994  C 27.4642578125 -0.193359375000014  26.27109375 0.257714843749994  25.10703125 0.170410156249986  C 24.4958984375 0.0976562499999858  23.884765625 -0.0187500000000114  23.3318359375 0.403222656249994  C 23.05537109375 0.417773437500003  22.77890625 0.446874999999991  22.5169921875 0.461425781249986  L 21.61484375 0.461425781249986  C 20.31982421875 0.519628906249991  19.01025390625 0.141308593749997  17.7443359375 0.679687499999986  C 17.5115234375 0.781542968749989  17.29326171875 0.883398437499991  17.06044921875 0.985253906249994  C 15.7654296875 0.461425781249986  14.47041015625 0.737890624999991  13.175390625 0.970703124999986  C 13.21904296875 1.01435546875  13.24814453125 1.05800781249999  13.291796875 1.11621093749999  L 13.175390625 1.11621093749999  C 13.1462890625 1.07255859374999  13.1462890625 1.02890624999999  13.175390625 0.985253906249994  C 12.98623046875 0.985253906249994  12.78251953125 0.999804687500003  12.593359375 0.999804687500003  C 12.476953125 1.04345703125  12.360546875 1.07255859375  12.244140625 1.1162109375  C 11.41474609375 0.577832031249997  10.6435546875 0.75244140625  9.87236328125 1.26171875  C 9.72685546875 1.26171875  9.566796875 1.27626953125001  9.4212890625 1.27626953125001  L 9.0720703125 1.01435546875  C 8.34453125 0.621484375000009  7.5587890625 0.723339843749997  6.78759765625 0.737890625000006  C 6.3947265625 0.519628906250006  6.1619140625 0.810644531250006  5.91455078125 1.02890625000001  C 5.492578125 1.1453125  5.07060546875 1.26171875000001  4.6486328125 1.36357421875  C 4.66318359375 1.436328125  4.66318359375 1.49453125000001  4.677734375 1.56728515625001  L 5.62353515625 1.56728515625001  L 5.73994140625 1.61093750000001  L 5.85634765625 1.59638671875  C 5.8708984375 1.77099609375  5.8708984375 1.96015625  5.88544921875 2.134765625  C 5.4052734375 2.134765625  4.910546875 2.1638671875  4.794140625 2.77499999999999  C 4.561328125 3.10966796875  4.19755859375 2.9787109375  3.87744140625 3.0369140625  C 3.47001953125 3.09511718749999  3.12080078125 3.24062499999999  3.68828125 3.57529296874999  C 4.0083984375 3.764453125  4.45947265625 3.69169921875  4.48857421875 4.23007812499999  C 4.3576171875 4.928515625  5.24521484375 4.6083984375  5.33251953125 5.0740234375  C 4.7359375 5.13222656249999  4.095703125 4.8994140625  3.55732421875 5.3359375  C 3.1935546875 5.64150390625001  2.815234375 5.96162109375  2.45146484375 6.26718749999999  C 2.5533203125 6.26718749999999  2.65517578125 6.25263671875  2.75703125 6.25263671875  C 4.0083984375 6.82011718749999  5.30341796875 6.41269531249999  6.58388671875 6.4708984375  C 6.64208984375 6.48544921874999  6.71484375 6.49999999999999  6.78759765625 6.51455078124998  L 6.8603515625 6.51455078124998  C 6.93310546875 6.52910156249999  7.02041015625 6.55820312499998  7.0931640625 6.57275390624999  C 7.19501953125 6.73281249999998  7.296875 6.89287109374999  7.39873046875 7.06748046874998  C 6.90400390625 7.16933593749998  6.3365234375 6.90742187499998  5.9291015625 7.38759765624998  C 5.56533203125 7.47490234374999  5.31796875 7.24208984374998  5.04150390625 7.08203124999998  C 4.25576171875 6.73281249999998  3.4845703125 6.60185546874999  2.7279296875 7.16933593749998  C 2.931640625 7.1984375  3.12080078125 7.21298828124998  3.32451171875 7.24208984374998  L 3.32451171875 7.67861328124998  C 3.1353515625 7.78046875  2.931640625 7.88232421874998  2.74248046875 7.99873046875  C 2.3787109375 7.91142578124999  2.04404296875 7.94052734374999  1.82578125 8.30429687499999  C 2.04404296875 8.63896484374999  2.39326171875 8.537109375  2.698828125 8.56621093749999  C 2.7279296875 8.49345703124999  2.74248046875 8.40615234374998  2.77158203125 8.33339843749998  C 3.513671875 8.11513671874998  4.48857421875 8.78447265624999  5.026953125 7.73681640624999  C 5.31796875 7.72226562499998  5.59443359375 7.70771484374998  5.88544921875 7.69316406249999  C 6.00185546875 7.82412109374998  6.1037109375 7.94052734374999  6.2201171875 8.071484375  C 6.35107421875 8.11513671874998  6.46748046875 8.14423828125  6.61298828125 8.14423828125  C 6.64208984375 8.14423828125  6.656640625 8.12968749999999  6.6857421875 8.12968749999999  C 6.9767578125 8.37705078124999  7.39873046875 8.11513671874998  7.68974609375 8.30429687499999  L 7.68974609375 8.55166015625001  C 7.39873046875 8.5662109375  7.0931640625 8.58076171875001  6.9185546875 8.79902343750001  C 6.5984375 8.68261718750001  6.2783203125 8.63896484375  5.958203125 8.81357421875002  C 5.6671875 8.82812500000001  5.376171875 8.8572265625  5.08515625 8.87177734375001  C 5.01240234375 8.90087890625001  4.9396484375 8.91542968750001  4.85234375 8.90087890625001  C 4.794140625 8.98818359375002  4.77958984375 9.07548828125002  4.80869140625001 9.16279296875001  L 4.79414062500001 9.16279296875001  L 4.80869140625001 9.20644531250001  C 4.4740234375 9.20644531250001  4.1248046875 9.19189453125  3.79013671875001 9.19189453125  C 3.6591796875 9.16279296875  3.52822265625 9.13369140625001  3.41181640625001 9.0900390625  C 3.28085937500001 9.03183593749999  3.14990234375001 9.06093749999998  3.04804687500001 9.14824218749999  C 2.81523437500001 9.42470703124998  2.33505859375001 9.25009765624999  2.17500000000001 9.62841796874999  C 1.709375 9.83212890624998  1.11279296875001 9.57021484374998  0.705371093750006 9.99218749999999  C 0.603515625000005 9.97763671874998  0.516210937500007 9.99218749999999  0.428906250000006 10.00673828125  C 0.487109375000006 10.93798828125  1.21464843750001 10.399609375  1.63662109375 10.53056640625  L 1.62207031250001 10.57421875  C 1.73847656250001 10.79248046875  1.86943359375001 11.0107421875  1.98583984375001 11.22900390625  L 1.02548828125001 11.75283203125  C 1.63662109375001 12.3203125  2.36416015625001 11.89833984375  3.03349609375001 11.98564453125  C 3.13535156250001 12.01474609375  3.25175781250001 12.04384765625  3.35361328125001 12.07294921875  C 3.35361328125001 12.27666015625  2.80068359375001 12.39306640625  3.12080078125001 12.56767578125  C 3.61552734375001 12.82958984375  4.11025390625001 13.2515625  4.80869140625001 12.71318359375  C 5.07060546875001 12.50947265625  5.47802734375001 12.07294921875  6.07460937500001 12.3203125  C 7.60244140625001 12.960546875  9.17392578125001 12.36396484375  10.730859375 12.33486328125  C 11.00732421875 12.4076171875  11.2837890625 12.4658203125  11.5748046875 12.378515625  C 11.61845703125 12.378515625  11.662109375 12.39306640625  11.70576171875 12.39306640625  C 11.73486328125 12.39306640625  11.76396484375 12.3203125  11.79306640625 12.27666015625  C 12.17138671875 12.18935546875  12.54970703125 12.01474609375  12.9134765625 12.04384765625  C 14.96513671875 12.27666015625  17.016796875 12.04384765625  19.05390625 12.029296875  C 19.70869140625 12.07294921875  20.3634765625 12.0875  20.974609375 11.8255859375  C 21.0328125 11.81103515625  21.07646484375 11.78193359375  21.13466796875 11.75283203125  L 21.1201171875 11.7673828125  C 21.77490234375 12.01474609375  22.44423828125 12.07294921875  23.128125 12.0001953125  L 23.71015625 12.0001953125  C 24.7287109375 11.3017578125  25.82001953125 12.21845703125  26.86767578125 11.86923828125  C 27.2314453125 12.21845703125  27.50791015625 11.9419921875  27.784375 11.73828125  C 28.78837890625 12.029296875  29.7341796875 11.5927734375  30.69453125 11.447265625  L 31.567578125 11.40361328125  C 32.28056640625 11.3599609375  32.94990234375 12.10205078125  33.67744140625 11.49091796875  C 34.02666015625 11.27265625  34.37587890625 10.85068359375  34.78330078125 11.4181640625  C 35.74365234375 11.9419921875  36.70400390625 11.92744140625  37.67890625 11.447265625  C 38.36279296875 11.5345703125  39.03212890625 12.0875  39.716015625 11.49091796875  C 39.9197265625 11.3890625  40.10888671875 11.3017578125  40.31259765625 11.19990234375  C 40.8509765625 11.49091796875  41.44755859375 11.43271484375  42.0150390625 11.43271484375  C 46.2056640625 11.3599609375  50.3962890625 11.5345703125  54.57236328125 11.098046875  C 56.63857421875 10.87978515625  58.7193359375 10.80703125  60.74189453125 10.32685546875  C 61.20751953125 10.3123046875  61.65859375 10.283203125  62.12421875 10.26865234375  C 66.023828125 10.23955078125  69.93798828125 10.4578125  73.823046875 10.03583984375  C 74.288671875 10.0212890625  74.754296875 10.35595703125  75.219921875 10.03583984375  C 75.3072265625 10.03583984375  75.40908203125 10.03583984375  75.49638671875 10.0212890625  C 75.685546875 10.00673828125  75.8892578125 9.99218750000001  76.07841796875 9.99218750000001  C 77.25703125 9.96308593750001  78.43564453125 10.15224609375  79.58515625 9.77392578125001  L 79.71611328125 9.80302734375002  L 79.8470703125 9.77392578125001  C 80.458203125 10.225  81.02568359375 9.67207031250001  81.60771484375 9.68662109375002  L 81.89873046875 9.68662109375002  L 85.09990234375 9.7302734375  C 86.75869140625 9.80302734375  88.4029296875 9.68662109375002  90.04716796875 9.4392578125  C 90.33818359375 9.4392578125  90.62919921875 9.42470703125001  90.92021484375 9.42470703125001  C 92.2734375 9.64296875000001  93.612109375 9.81757812500001  94.99443359375 9.701171875  L 99.3451171875 9.701171875  C 99.4615234375 9.59931640625  99.5779296875 9.54111328124999  99.70888671875 9.51201171875  C 99.6943359375 9.57021484375001  99.67978515625 9.62841796875  99.67978515625 9.71572265625001  C 101.22216796875 9.71572265625001  102.76455078125 9.71572265625001  104.30693359375 9.701171875  C 108.512109375 9.65751953125  112.71728515625 9.87578125  116.90791015625 9.45380859375  C 120.036328125 9.13369140624998  123.16474609375 8.85722656249999  126.27861328125 8.52255859374999  C 127.85009765625 8.34794921874999  129.348828125 7.79501953124999  130.33828125 6.54365234375  Z M 4.794140625 7.59130859375  C 4.61953125 7.53310546875001  4.45947265625 7.47490234375  4.28486328125 7.44580078125  L 4.34306640625 7.38759765625001  C 4.444921875 7.373046875  4.561328125 7.34394531250001  4.66318359375 7.31484375000001  C 4.66318359375 7.41669921875001  4.72138671875 7.50400390624999  4.794140625 7.59130859375  Z M 7.39873046875 11.81103515625  C 7.3841796875 11.8255859375  7.36962890625 11.84013671875  7.36962890625 11.8546875  L 7.36962890625 11.8255859375  C 7.3841796875 11.8255859375  7.3841796875 11.8255859375  7.39873046875 11.81103515625  Z M 10.43984375 8.71171874999999  C 10.2943359375 8.74082031249999  10.13427734375 8.78447265624999  9.98876953125 8.85722656249999  C 9.97421875 8.7990234375  9.95966796875 8.75537109374999  9.916015625 8.72626953125  C 9.75595703125 8.60986328125  9.566796875 8.537109375  9.3630859375 8.52255859374999  C 9.3630859375 8.5080078125  9.34853515625 8.5080078125  9.34853515625 8.49345703124999  L 9.34853515625 8.28974609375  C 9.450390625 8.26064453124998  9.55224609375 8.24609375  9.6541015625 8.2169921875  L 10.1779296875 8.30429687499999  C 10.1779296875 8.3625  10.1779296875 8.42070312499999  10.19248046875 8.49345703124999  C 10.27978515625 8.58076171875  10.3525390625 8.653515625  10.43984375 8.71171874999999  Z M 23.0990234375 2.22207031249999  C 23.0990234375 2.20751953124999  23.08447265625 2.19296874999999  23.08447265625 2.17841796875  C 23.1572265625 2.251171875  23.22998046875 2.30937499999999  23.31728515625 2.36757812499999  C 23.1572265625 2.3966796875  23.0408203125 2.4548828125  22.9244140625 2.57128906249999  C 22.99716796875 2.46943359375  23.05537109375 2.36757812499999  23.0990234375 2.22207031249999  Z M 22.76435546875 2.73134765624999  L 22.85166015625 2.64404296874999  C 22.837109375 2.67314453124999  22.82255859375 2.70224609374999  22.79345703125 2.73134765624999  L 22.76435546875 2.73134765624999  Z M 20.974609375 1.10166015624999  C 21.04736328125 1.08710937499998  21.13466796875 1.07255859374999  21.207421875 1.07255859374999  C 21.19287109375 1.087109375  21.19287109375 1.10166015624999  21.1783203125 1.11621093749999  C 21.207421875 1.14531249999999  21.22197265625 1.15986328125  21.2365234375 1.18896484374999  C 21.2365234375 1.20351562499999  21.22197265625 1.20351562499999  21.22197265625 1.21806640624999  C 21.13466796875 1.17441406249999  21.0619140625 1.13076171874998  20.974609375 1.10166015624999  Z M 19.8978515625 1.53818359374999  C 19.94150390625 1.42177734374998  19.97060546875 1.30537109374998  19.94150390625 1.18896484374999  C 20.043359375 1.18896484374999  20.14521484375 1.17441406249999  20.2470703125 1.17441406249999  C 20.159765625 1.24716796874999  20.08701171875 1.33447265624999  19.99970703125 1.46542968749999  C 19.99970703125 1.49453124999998  20.0142578125 1.52363281249998  20.02880859375 1.55273437499999  C 19.98515625 1.55273437499999  19.94150390625 1.55273437499999  19.8978515625 1.53818359374999  Z M 15.6490234375 2.33847656249999  C 15.9400390625 2.35302734374999  16.24560546875 2.30937499999999  16.551171875 2.20751953124999  C 16.551171875 2.23662109374999  16.53662109375 2.26572265624999  16.53662109375 2.29482421874999  C 16.56572265625 2.36757812499999  16.609375 2.44033203124999  16.6384765625 2.49853515624999  C 16.318359375 2.3966796875  15.98369140625 2.33847656249999  15.6490234375 2.33847656249999  Z M 13.33544921875 7.38759765624997  C 13.1750624124366 7.22613909357595  12.9648390960405 7.12359113435835  12.7388671875 7.09658203124998  C 12.84072265625 7.02382812499998  12.942578125 6.93652343749998  13.0298828125 6.84921874999998  C 13.175390625 6.92197265624998  13.3208984375 6.95107421874998  13.45185546875 6.98017578124998  C 13.35 7.05292968749998  13.30634765625 7.18388671874998  13.33544921875 7.38759765624997  Z M 13.48095703125 8.6826171875  C 13.4373046875 8.71171875  13.39365234375 8.75537109375  13.36455078125 8.7990234375  C 13.291796875 8.74082031249999  13.21904296875 8.75537109375  13.16083984375 8.828125  C 13.1462890625 8.7990234375  13.1462890625 8.78447265625  13.13173828125 8.75537109375  C 13.07353515625 8.71171875  13.01533203125 8.69716796875001  12.95712890625 8.6826171875  C 13.13173828125 8.66806640624999  13.30634765625 8.66806640624999  13.48095703125 8.6826171875  Z M 15.75087890625 6.84921875000002  C 15.6490234375 6.95107421875002  15.54716796875 7.09658203125002  15.48896484375 7.30029296875  C 15.4453125 7.24208984375001  15.40166015625 7.1984375  15.32890625 7.15478515625  C 14.99423828125 6.99472656249999  14.63046875 6.89287109375  14.26669921875 6.86376953125  C 14.35400390625 6.8201171875  14.47041015625 6.77646484374999  14.572265625 6.71826171875  C 14.58681640625 6.7619140625  14.61591796875 6.8201171875  14.6595703125 6.89287109375  C 15.02333984375 7.03837890625  15.387109375 6.95107421875001  15.75087890625 6.84921875000002  Z M 16.71123046875 8.59531249999999  C 16.6966796875 8.60986328125  16.68212890625 8.60986328125  16.667578125 8.60986328125  C 16.667578125 8.59531249999999  16.65302734375 8.59531249999999  16.65302734375 8.58076171875  C 16.667578125 8.58076171875  16.68212890625 8.59531249999999  16.71123046875 8.59531249999999  Z M 17.133203125 6.89287109374997  L 17.0458984375 6.98017578125  C 17.00224609375 6.95107421874998  16.95859375 6.92197265624999  16.9294921875 6.87832031249998  C 16.7548828125 6.80556640624998  16.5802734375 6.73281249999998  16.42021484375 6.70371093749998  C 16.65302734375 6.68916015624998  16.900390625 6.73281249999998  17.133203125 6.89287109374997  Z M 17.49697265625 6.16533203124999  L 17.482421875 6.1798828125  C 17.482421875 6.1798828125  17.482421875 6.16533203124999  17.49697265625 6.16533203124999  Z M 22.953515625 8.24609374999999  C 22.93896484375 8.30429687499998  22.93896484375 8.34794921874999  22.953515625 8.40615234374998  C 22.837109375 8.33339843749998  22.70615234375 8.28974609375  22.58974609375 8.26064453124998  C 22.70615234375 8.24609374999999  22.82255859375 8.24609374999999  22.953515625 8.24609374999999  Z M 23.22998046875 6.58730468749998  C 23.186328125 6.67460937499999  23.0990234375 6.7619140625  22.99716796875 6.82011718749999  C 22.70615234375 6.79101562499999  22.41513671875 6.77646484374999  22.138671875 6.74736328124999  C 21.7603515625 6.84921874999999  21.36748046875 6.96562499999999  20.98916015625 7.06748046874999  C 20.52353515625 6.55820312499999  20.31982421875 7.08203125  20.02880859375 7.31484375000001  C 20.31982421875 7.75136718750001  20.90185546875 7.64951171874999  21.28017578125 7.955078125  L 21.28017578125 8.02783203125  L 21.265625 8.02783203125  C 20.8 7.955078125  20.37802734375 7.99873046875  20.08701171875 8.420703125  C 20.0724609375 8.44980468750002  20.0724609375 8.46435546875  20.05791015625 8.49345703125  C 19.79599609375 8.28974609375001  19.53408203125 8.30429687500002  19.27216796875 8.52255859375002  C 19.27216796875 8.46435546875001  19.2576171875 8.40615234375002  19.228515625 8.34794921875  C 19.1994140625 8.30429687500002  19.1703125 8.2751953125  19.1412109375 8.24609375  C 19.27216796875 8.18789062500001  19.403125 8.14423828125  19.47587890625 8.18789062500001  C 19.6068359375 8.24609375  19.67958984375 7.91142578125  19.50498046875 8.02783203125  C 19.24306640625 7.91142578125  18.95205078125 7.955078125  18.66103515625 7.9841796875  C 18.3845703125 7.92597656250001  18.12265625 7.89687500000001  17.84619140625 7.92597656250001  C 17.72978515625 7.88232421875001  17.61337890625 7.79501953125002  17.5115234375 7.67861328125001  C 17.99169921875 7.53310546875001  18.57373046875 7.86777343749999  18.9666015625 7.35849609374999  L 18.9083984375 7.38759765625001  C 18.58828125 6.76191406250001  17.9771484375 7.16933593750001  17.52607421875 6.99472656249999  L 17.52607421875 6.96562499999999  L 17.6279296875 6.96562499999999  C 18.5009765625 6.77646484374999  19.4322265625 6.98017578125  20.29072265625 6.66005859374998  C 20.4216796875 6.57275390624999  20.49443359375 6.44179687499998  20.4798828125 6.28173828124999  C 20.46533203125 6.26718749999998  20.46533203125 6.25263671874998  20.45078125 6.23808593749999  C 20.61083984375 6.33994140624998  20.7708984375 6.36904296874998  20.90185546875 6.23808593749999  C 20.974609375 6.28173828124999  21.04736328125 6.31083984374999  21.13466796875 6.32539062499998  C 21.440234375 6.26718749999999  21.80400390625 6.45634765624999  22.08046875 6.20898437499999  C 22.09501953125 6.22353515624998  22.09501953125 6.25263671874998  22.1095703125 6.26718749999998  C 22.41513671875 6.49999999999999  22.76435546875 6.54365234374998  23.11357421875 6.57275390624999  C 23.1572265625 6.57275390624999  23.186328125 6.57275390624999  23.22998046875 6.58730468749998  Z M 23.47734375 4.08457031249999  C 23.46279296875 4.08457031249999  23.4482421875 4.09912109375  23.43369140625 4.09912109374999  C 23.37548828125 4.12822265624999  23.31728515625 4.12822265624999  23.25908203125 4.1427734375  C 23.3318359375 4.12822265624999  23.40458984375 4.11367187499999  23.47734375 4.08457031249999  Z M 23.5064453125 4.07001953125  C 23.5646484375 4.04091796874999  23.63740234375 3.997265625  23.69560546875 3.95361328124999  C 23.71015625 3.95361328124999  23.71015625 3.96816406249999  23.72470703125 3.96816406249999  C 23.651953125 3.997265625  23.57919921875 4.04091796874999  23.5064453125 4.07001953125  Z M 25.281640625 8.17333984374997  C 25.0197265625 8.15878906249996  24.74326171875 8.14423828124995  24.48134765625 8.04238281249998  C 24.30673828125 7.95507812499999  24.13212890625 7.88232421874998  23.94296875 7.80957031249999  C 23.94296875 7.69316406249999  23.87021484375 7.59130859374999  23.768359375 7.50400390624998  L 23.6810546875 7.46035156249998  C 23.8556640625 7.16933593749998  24.13212890625 7.16933593749998  24.466796875 7.37304687499999  L 24.466796875 7.34394531249998  L 24.48134765625 7.34394531249998  C 24.48134765625 7.35849609374998  24.466796875 7.37304687499999  24.466796875 7.38759765624997  C 24.74326171875 7.64951171874996  25.00517578125 7.91142578124997  25.281640625 8.17333984374997  Z M 26.51845703125 2.71679687499999  C 26.5330078125 2.70224609374998  26.5330078125 2.68769531249998  26.54755859375 2.68769531249998  C 26.54755859375 2.70224609374999  26.562109375 2.71679687499999  26.562109375 2.71679687499999  L 26.51845703125 2.71679687499999  Z M 26.445703125 2.80410156249998  L 26.4748046875 2.77499999999999  C 26.48935546875 2.76044921874998  26.51845703125 2.76044921874998  26.5330078125 2.74589843749999  L 26.48935546875 2.74589843749999  L 26.51845703125 2.71679687499999  L 26.5330078125 2.74589843749999  C 26.50390625 2.76044921875  26.4748046875 2.78955078124999  26.445703125 2.80410156249998  Z M 27.68251953125 8.14423828124998  C 27.376953125 8.15878906249998  27.07138671875 8.20244140624997  26.78037109375 8.30429687499998  C 26.73671875 8.31884765624999  26.69306640625 8.33339843749998  26.6494140625 8.36249999999998  C 26.5912109375 8.34794921874997  26.562109375 8.31884765624999  26.51845703125 8.28974609374998  C 26.8822265625 8.18789062499997  27.260546875 8.10058593749999  27.65341796875 7.99873046874998  C 27.65341796875 8.04238281249997  27.66796875 8.10058593749999  27.68251953125 8.14423828124998  Z M 28.890234375 6.42724609374999  C 28.81748046875 6.47089843749998  28.78837890625 6.55820312499998  28.81748046875 6.70371093749998  C 28.715625 6.70371093749998  28.6283203125 6.73281249999998  28.5701171875 6.83466796874998  L 28.55556640625 6.84921874999998  C 28.541015625 6.80556640624998  28.5119140625 6.73281249999998  28.4537109375 6.64550781249999  C 28.2208984375 6.51455078124998  27.9880859375 6.45634765624999  27.7552734375 6.42724609374999  C 28.13359375 6.38359374999999  28.5119140625 6.41269531249998  28.890234375 6.42724609374999  Z M 29.42861328125 6.48544921874998  C 29.4140625 6.48544921874998  29.4140625 6.49999999999999  29.39951171875 6.49999999999999  C 29.4140625 6.48544921874998  29.4140625 6.48544921874998  29.42861328125 6.48544921874998  Z M 30.636328125 3.93906249999998  C 31.17470703125 4.14277343749998  31.0146484375 4.37558593749998  30.8400390625 4.60839843749999  C 30.79638671875 4.37558593749998  30.76728515625 4.14277343749998  30.636328125 3.93906249999998  Z M 34.34677734375 7.92597656249998  C 34.34677734375 7.94052734374998  34.3322265625 7.95507812499999  34.3322265625 7.96962890624998  C 34.3322265625 7.96962890624998  34.31767578125 7.95507812499999  34.31767578125 7.94052734374998  C 34.3322265625 7.94052734374998  34.3322265625 7.92597656249998  34.34677734375 7.92597656249998  Z M 39.61416015625 7.85322265625  C 39.52685546875 7.94052734374999  39.483203125 8.02783203125  39.43955078125 8.11513671874998  C 39.2212890625 8.01328124999998  39.00302734375 8.01328124999998  38.784765625 8.20244140624999  C 38.79931640625 8.15878906249999  38.79931640625 8.11513671874998  38.79931640625 8.04238281249998  C 38.50830078125 7.57675781249998  38.07177734375 7.60585937499998  37.60615234375 7.70771484375  L 37.60615234375 7.6640625  C 38.07177734375 7.6349609375  38.53740234375 7.62041015625  39.017578125 7.59130859375  C 39.2212890625 7.6640625  39.46865234375 7.6640625  39.61416015625 7.85322265625  Z M 40.57451171875 6.63095703124999  C 40.05068359375 6.42724609375  39.55595703125 6.325390625  39.2212890625 6.95107421874998  C 39.23583984375 6.99472656249998  39.250390625 7.02382812499998  39.26494140625 7.0529296875  L 39.250390625 7.0529296875  C 38.94482421875 6.55820312499999  38.4646484375 6.49999999999999  37.9408203125 6.49999999999999  L 37.8826171875 6.49999999999999  L 37.8826171875 6.44179687499999  C 37.89716796875 6.44179687499999  37.91171875 6.45634765625  37.92626953125 6.45634765625  C 38.202734375 6.51455078125001  38.49375 6.5  38.77021484375 6.42724609375  C 38.9884765625 6.39814453125  39.20673828125 6.3544921875  39.41044921875 6.29628906250001  C 39.7451171875 6.29628906250001  40.07978515625 6.22353515625001  40.39990234375 6.1798828125  C 40.42900390625 6.22353515625001  40.45810546875 6.26718750000001  40.48720703125 6.325390625  C 40.72001953125 6.48544921875001  40.996484375 6.48544921875001  41.2583984375 6.5  L 41.33115234375 6.5  C 41.2001953125 6.54365234375  41.06923828125 6.58730468750001  40.92373046875 6.6455078125  C 40.80732421875 6.71826171875  40.763671875 6.8201171875  40.763671875 6.92197265624999  C 40.74912109375 6.87832031250001  40.7345703125 6.83466796875  40.7345703125 6.80556640625001  C 40.6763671875 6.74736328125  40.63271484375 6.68916015625001  40.57451171875 6.63095703124999  Z M 42.02958984375 7.89687499999998  C 42.0150390625 7.91142578124999  42.00048828125 7.9259765625  41.9859375 7.95507812499999  C 41.97138671875 7.92597656249998  41.9568359375 7.91142578124999  41.94228515625 7.88232421874998  C 41.50576171875 7.69316406249999  41.0546875 7.53310546874998  40.5599609375 7.57675781249998  L 40.5017578125 7.57675781249998  L 40.5017578125 7.41669921874998  C 40.60361328125 7.30029296874999  40.70546875 7.19843749999998  40.80732421875 7.08203124999998  L 41.3166015625 7.08203124999998  C 41.15654296875 7.50400390624998  41.5203125 7.66406249999999  41.86953125 7.83867187499999  C 41.94228515625 7.85322265625  41.9859375 7.86777343749999  42.02958984375 7.89687499999998  Z M 43.07724609375 6.52910156249997  C 42.98994140625 6.57275390624997  42.90263671875 6.63095703124998  42.81533203125 6.68916015624998  L 42.69892578125 6.68916015624998  C 42.52431640625 6.54365234374998  42.34970703125 6.47089843749998  42.160546875 6.42724609374997  C 42.46611328125 6.39814453124998  42.7716796875 6.38359374999997  43.07724609375 6.52910156249997  Z M 45.478125 4.79755859374998  C 45.478125 4.81210937499998  45.46357421875 4.82666015624997  45.4490234375 4.84121093749998  C 45.4490234375 4.82666015624997  45.4490234375 4.81210937499998  45.43447265625 4.81210937499998  C 45.4490234375 4.81210937499998  45.46357421875 4.81210937499998  45.478125 4.79755859374998  Z M 46.001953125 3.60439453124998  C 45.98740234375 3.63349609374998  45.9728515625 3.64804687499998  45.95830078125 3.64804687499998  L 46.001953125 3.60439453124998  Z M 66.8677734375 2.77499999999998  C 66.85322265625 2.81865234374999  66.838671875 2.87685546874998  66.838671875 2.92050781249998  C 66.7513671875 2.87685546874998  66.6640625 2.86230468749999  66.5767578125 2.89140624999999  C 66.59130859375 2.89140624999999  66.59130859375 2.87685546874998  66.605859375 2.87685546874998  C 66.64951171875 2.81865234374999  66.67861328125 2.77499999999998  66.722265625 2.74589843749999  C 66.76591796875 2.77499999999998  66.82412109375 2.78955078124999  66.8677734375 2.77499999999998  Z M 72.78994140625 8.87177734375  C 72.78994140625 8.88632812499999  72.775390625 8.90087890625  72.775390625 8.91542968749998  C 72.775390625 8.90087890624999  72.775390625 8.88632812499998  72.76083984375 8.87177734375  C 72.775390625 8.85722656249999  72.78994140625 8.87177734375  72.78994140625 8.87177734375  Z M 81.60771484375 8.1005859375  C 81.52041015625 8.1296875  81.46220703125 8.17333984375  81.4185546875 8.26064453124998  L 81.4185546875 8.28974609375  C 81.1275390625 8.27519531249999  80.85107421875 8.26064453124998  80.56005859375 8.24609375  C 80.70556640625 8.20244140625  80.85107421875 8.15878906249999  80.98203125 8.08603515624999  C 81.02568359375 8.1005859375  81.05478515625 8.05693359374999  81.0984375 8.01328124999999  C 81.22939453125 8.08603515624999  81.3603515625 8.071484375  81.4767578125 7.955078125  L 81.4767578125 7.96962890625001  L 81.60771484375 8.1005859375  Z M 102.00791015625 9.01728515624998  C 101.8478515625 9.10458984374998  101.68779296875 9.16279296874998  101.51318359375 9.19189453124999  C 101.57138671875 9.11914062499999  101.6150390625 9.01728515624998  101.644140625 8.87177734374998  C 101.760546875 8.95908203124998  101.876953125 9.01728515624998  102.00791015625 9.01728515624998  Z M 117.31533203125 3.58984374999999  L 117.31533203125 3.63349609374998  C 117.31533203125 3.61894531249999  117.30078125 3.60439453124998  117.30078125 3.60439453124998  C 117.30078125 3.60439453124998  117.31533203125 3.60439453124998  117.31533203125 3.58984374999999  Z " fill-rule="nonzero" fill="#000000" stroke="none" transform="matrix(1 0 0 1 84 171 )" />
  </g>
</svg>