<?xml version="1.0" encoding="utf-8"?>
<svg version="1.1" xmlns:xlink="http://www.w3.org/1999/xlink" width="21px" height="57px" xmlns="http://www.w3.org/2000/svg">
  <g transform="matrix(1 0 0 1 -14 -126 )">
    <path d="M 8.1211659375 7.23652173913044  C 4.0572459375 9.32293987771739  -0.805655156250001 6.05783440896739  0.80616375 3.89018223505435  C 1.90824375 2.37286540421196  3.891974296875 5.67852173913044  6.826235390625 4.52695652173913  C 9.760496484375 3.37539130434783  8.203835390625 0.801304347826088  9.677894296875 0.462608695652175  C 11.8406859375 -0.0521822350543465  12.433094296875 5.05530850883152  8.1211659375 7.23652173913044  Z M 17.86082484375 13.4008487601902  C 17.8608399865738 15.2736195597599  16.3211219034962 16.793897842821  14.41682484375 16.8013663383152  C 14.4122283822561 16.8013843652569  14.4076318887789 16.8013933787546  14.4030353907343 16.8013933787546  C 12.4933510076476 16.8013933787546  10.9452459376093 15.2789298005595  10.9452459376093 13.4008758006296  C 10.9452459376093 11.5228218006996  12.4933510076476 10.0003582225046  14.4030353907343 10.0003582225046  C 16.312719773821 10.0003582225046  17.8608248438593 11.5228218006996  17.8608248438593 13.4008758006296  Z M 14.41682484375 11.300935716712  L 14.41682484375 11.3822359035326  C 14.4122284226631 11.3822059381404  14.4076319132072 11.3821909553208  14.4030353911271 11.3821909553208  C 13.2541784794073 11.3821909553208  12.3228459380021 12.2980976989388  12.3228459380021 13.4279259247502  C 12.3228459380021 14.5577541505616  13.2541784794073 15.4736608941795  14.4030353911271 15.4736608941795  C 15.5518744538833 15.4736608941795  16.4831996018383 14.557781545172  16.48322484375 13.427970872962  C 16.4843212391048 13.4008725905497  16.484869599373 13.3737555463837  16.484869599373 13.3466358210588  C 16.484869599373 12.22146905056  15.5609222924627 11.3075047386087  14.41682484375 11.300935716712  Z M 13.02550265625 53.7733043478261  C 11.01426046875 51.8630476392663  9.333494296875 49.5193001868207  10.51824375 48.828347826087  C 11.510075390625 48.2458177649456  16.7311659375 50.5624431046196  19.6930059375 54.0442608695652  C 21.4150059375 56.0628737262228  19.803254296875 56.4015693783967  18.85272375 55.7648612432065  C 18.37056375 55.4396604959239  17.04798703125 53.7055652173913  16.221494296875 53.7598094429348  C 15.3950015625 53.8140536684783  17.99858484375 55.7783561480978  17.79194484375 56.1441739130435  C 17.58530484375 56.5099916779891  15.03674484375 55.6835610563859  13.02550265625 53.7733043478261  Z " fill-rule="nonzero" fill="#dddddd" stroke="none" transform="matrix(1 0 0 1 14 126 )" />
  </g>
</svg>