<?xml version="1.0" encoding="utf-8"?>
<svg version="1.1" xmlns:xlink="http://www.w3.org/1999/xlink" width="22px" height="19px" xmlns="http://www.w3.org/2000/svg">
  <g transform="matrix(1 0 0 1 -29 -169 )">
    <path d="M 7.74051157407407 12.6830518002718  C 9.1584510692453 11.0776525177817  9.94338845722271 8.99895520848675  9.94540046296297 6.84399167798913  C 11.7166914592706 6.93006483977607  13.4344723570543 6.21555764395451  14.6357482638889 4.89305180027175  C 15.3092014490389 4.16520394787578  15.815708380355 3.29548530627159  16.1190502025463 2.34608695652175  C 15.484251035407 1.83228752199008  14.9339809227433 1.21952103474293  14.4888078703704 0.530691491168486  C 14.3624660188946 1.64964203732329  13.8953892649516 2.70088316807487  13.1525115740741 3.53826919157609  C 12.1632254385431 4.63610516725849  10.6615560481085 5.09856954015203  9.23712427662037 4.74407863451087  C 9.12933356039262 4.7052235665825  9.01577683746655 4.68536571480424  8.90137563523895 4.68536571480424  C 8.34786358596408 4.68536571480424  7.89915341301672 5.14028334073704  7.89915341301672 5.70145267132598  C 7.89915341301672 5.7210359156967  7.89971183537978 5.74061506740992  7.90082798032407 5.76016559103261  C 7.90082798032407 6.83043062160327  7.76719835069444 9.82451341711957  6.39083926504629 11.1792960258152  C 5.23371721288633 12.2730032056701  3.61497657657504 12.7099443540508  2.0746283275463 12.3443561480978  C 1.95913622082622 12.2989814546224  1.83634851233626 12.275704295143  1.71248776158123 12.275704295143  C 1.15897571230636 12.275704295143  0.710265539359 12.7306219210758  0.710265539359 13.2917912516648  C 0.710265539359 13.7647347784508  1.03211813063149 14.1751424104197  1.48660575810185 14.2817349694293  C 2.03081642449125 14.4320234450096  2.59297346412895 14.5049794388253  3.15697612847222 14.4985134171196  C 4.85699468798035 14.5065814902939  6.49611626182637 13.8573528897995  7.74051157407407 12.6830518002718  Z M 21.4909874131944 4.32408279551632  C 20.7975857234824 4.29409025385329  20.1106638730233 4.17574139014941  19.4464149305556 3.97182608695652  C 19.6499493710318 4.87928279157813  19.5609846217794 5.82900185148139  19.1925969328704 6.68139130434783  C 18.7179200853423 7.72717395092174  17.7193379540995 8.42804629156973  16.58675390625 8.51034782608696  C 16.0369654225945 8.51562094871348  15.5940125930477 8.96897012173104  15.5940125930477 9.52638931705347  C 15.5940125930477 9.64178453028243  15.6134011992969 9.7563366100858  15.6513464988426 9.86513043478262  C 15.9453577835648 10.6644389436141  16.5333151041667 13.0217474524457  15.7983521412037 14.2952960258152  C 15.1898029112227 15.3831805095154  14.0882868375279 16.0938424248295  12.8585002893519 16.1919916779891  C 12.304988240077 16.1919916779891  11.8562780671296 16.6469093039219  11.8562780671296 17.2080786345109  C 11.8562780671296 17.7692479650998  12.304988240077 18.2241655910326  12.8585002893519 18.2241655910326  C 14.7921113376005 18.1160763978849  16.5412000584189 17.0255816414323  17.5087853009259 15.3248778872283  C 18.2166912745528 13.7505054529471  18.3354347309026 11.9687903976296  17.842859375 10.3121822350544  C 19.2205120149776 9.89994218028813  20.361506246844 8.91544963811762  20.9831556712963 7.60261701766306  C 21.4502532550715 6.57903518442041  21.6261355011153 5.44354892952927  21.4909874131944 4.32408279551632  Z " fill-rule="nonzero" fill="#7b7b7b" stroke="none" transform="matrix(1 0 0 1 29 169 )" />
  </g>
</svg>