<?xml version="1.0" encoding="utf-8"?>
<svg version="1.1" xmlns:xlink="http://www.w3.org/1999/xlink" width="29px" height="33px" xmlns="http://www.w3.org/2000/svg">
  <g transform="matrix(1 0 0 1 -20 -16 )">
    <path d="M 13.3587658662109 6.57460840136719  C 11.3365070136719 6.99175595507813  9.86288788867187 7.51772465039063  7.54137098535156 7.368095625  C 8.51059990649135 7.93377086691124  9.6362413701942 8.1722542261415  10.7515935830078 8.04822752636719  C 12.5652786748047 7.82151688183594  14.34269003125 7.14138498046875  15.6258722148438 6.84212696191406  C 16.1110329619141 6.72877163964844  20.6951220009766 5.8763396484375  20.6905877880859 5.858202796875  C 20.6543140849609 5.48186315917969  20.0104558867188 5.48186315917969  19.6341162490234 5.14179719238281  C 19.2577766113281 4.80173122558594  18.3872077685547 4.76092334179688  17.7070758349609 5.02844187011719  C 16.3145190719167 5.69163654928511  14.8574063803799 6.20975482790482  13.3587658662109 6.57460840136719  Z M 11.6357650322266 10.8095630800781  C 10.9148252148438 11.0362737246094  10.0125168818359 11.6755977099609  8.65225307910156 11.3355317431641  C 8.7040256407188 11.8373880300782  9.13175149264803 12.2158367085122  9.63617724414063 12.2061005859375  C 10.3484722162761 12.2474777139957  11.0603700128803 12.11846566188  11.7128466513672 11.8297609160156  C 12.0891862890625 11.6755976777344  12.3929785527344 12.1698268828125  11.6765729482422 12.7366034619141  C 12.1232051368232 12.3550116064292  12.6026722762592 12.0136188601692  13.1093841572266 11.71640559375  C 13.9028713808594 11.2629843369141  13.7532423554688 11.2221764208984  14.4696479921875 11.0362736923828  C 15.8933907753906 10.6599340546875  16.3966883740234 10.1657048496094  17.5302415644531 10.0523495595703  C 18.6637947548828 9.93899426953125  19.4210082431641 10.0523495595703  19.4210082431641 9.56265456738281  C 19.4210082431641 9.07295957519531  18.7408763417969 9.06842539453125  18.0970181435547 9.06842539453125  C 17.4531599453125 9.06842539453125  16.4737699931641 8.95507007226563  15.9840750332031 9.14550701367187  C 15.4943800732422 9.33594395507812  15.4898458603516 9.71228359277344  14.6963586044922 9.90272053417969  C 13.9028713486328 10.0931574755859  12.3567048496094 10.5828524355469  11.6357650322266 10.8095630800781  Z M 15.1497798935547 4.8380049609375  C 14.9638771650391 3.21475681054687  15.5306537441406 1.9270404140625  11.068988453125 0  C 11.068988453125 0  13.1864657763672 0.757213520507813  13.2635473955078 3.66817806738281  C 13.3406290146484 6.57914261425781  14.016226703125 9.82563891503906  12.2433495595703 10.8458367832031  C 12.2433495595703 10.8458367832031  13.4494501240234 10.8050288671875  13.9028713808594 10.3924154941406  C 14.3562926376953 9.97980212109375  14.4333742568359 10.315333875  14.7371665205078 9.03215169140625  C 15.1332581174739 7.67171981936784  15.2731696159626 6.24954256512987  15.1497798935547 4.8380049609375  Z M 5.28786727539062 18.1776587050781  C 5.06115666308594 17.9146743574219  4.45810634863281 16.8173949023438  5.40575681054688 14.8903544882813  C 5.40575681054688 14.8903544882813  4.34475102636719 16.6269579609375  4.19512200097656 17.0441055146484  C 4.04549297558594 17.4612530683594  3.74170074414062 17.5700741777344  4.04095879492188 18.1005770859375  C 4.34021684570313 18.6310799941406  4.72109069628906 19.6512778300781  5.06115663085937 19.4971145917969  C 5.33504532937495 19.3387358693729  5.58921900943507 19.1484861115695  5.81837015136719 18.9303380126953  C 6.04961500878906 18.7807089873047  5.51457788769531 18.4406430527344  5.28786727539062 18.1776587050781  Z M 11.0916595175781 13.7568013300781  C 9.65431409570312 14.1739489160156  6.575583671875 14.9629018945312  6.58011788476562 14.9629018945312  C 6.58011788476562 14.9629018945312  9.44574030273438 14.6228359277344  11.1143305820312 14.2827699931641  C 12.7829208613281 13.9427040585938  13.9482135097656 13.5300906855469  15.2313957255859 13.3033800410156  C 17.4358849038526 12.9729459313384  19.6561473121786 12.7580330070377  21.8830857460937 12.6595218427734  C 23.2433495488281 12.6595218427734  24.9799530214844 13.7159934140625  24.7169686738281 14.2464962900391  C 24.4539843261719 14.7769991660156  23.6967708056641 15.1896125390625  21.6155671855469 15.6838417119141  C 20.3844593883004 15.9710725259893  19.1835137852579 16.374930335964  18.0290049501953 16.8899422763672  C 18.0290049501953 16.8899422763672  19.7656084228516 16.6269579287109  20.5228219433594 16.4365210195313  C 21.2800354638672 16.2460841103516  22.0508516230469 16.1327287558594  23.4111154257813 15.9105523564453  C 24.7713792285156 15.6883759570313  25.5648664521484 15.6430337958984  25.9412060898438 15.9468260595703  C 26.3175457275391 16.2506183232422  26.6213379912109 16.0601813818359  26.4354352949219 15.6067600927734  C 25.7753250760321 14.2611947578619  24.624954263012 13.2195331797684  23.220678484375 12.6957955458984  C 21.0669274580078 11.8297609160156  12.5290049394531 13.3396537441406  11.0916595175781 13.7568013300781  Z M 14.5557980371094 17.1665292626953  C 13.2227395117187 17.6516900097656  10.2618986230469 19.120774921875  8.68852678222656 18.6945589423828  C 9.29780784527665 18.9870361301034  9.9670380394976 19.1329935322647  10.6427724736328 19.1207749541016  C 11.4679991875 19.0074196318359  12.9416183125 18.7217642519531  13.0549736347656 18.5539983427734  C 13.1683289570312 18.3862324335937  13.5900107236328 18.6084088974609  12.8554682675781 19.0346249091797  C 12.1209258115234 19.4608409208984  11.2956990976563 20.4220939892578  10.5611566416016 20.9888705683594  C 9.82661418554687 21.5556471474609  8.94244270410156 23.0292662724609  9.08753751660156 23.8544929863281  C 9.23263232910156 24.6797197001953  9.28250867089843 24.6162407197266  9.84928525 24.8746908544922  C 10.4160618291016 25.1331409892578  10.9012226083984 25.3281121113281  10.9284278535156 25.7225886328125  C 10.9556330986328 26.1170651542969  11.068988453125 26.6022259013672  11.2684938203125 26.5160758564453  C 11.4679991875 26.4299258115234  11.5813545097656 26.1760098896484  12.0347757666016 26.3165704892578  C 12.4881970234375 26.4571310888672  12.8282629902344 26.4027205341797  12.7693182226562 26.1760098896484  C 12.7103734550781 25.9492992451172  12.3748417333984 25.4958779882813  12.0891863212891 25.4686727109375  C 11.8035309091797 25.4414674335938  11.1823437753906 24.8429513642578  10.9556331308594 24.7023907646484  C 10.7289224863281 24.5618301650391  9.99438003027344 24.3895300751953  9.76766941796875 24.049464140625  C 9.54095880566406 23.7093982060547  9.45480872851562 23.0020609951172  10.2482959521484 21.8957131142578  C 11.0417831757813 20.7893652333984  12.542607578125 19.6875515332031  13.1365894345703 19.2341302441406  C 13.7527548114729 18.7328518099863  14.4181517713054 18.2953305287248  15.1225746162109 17.9282769960938  C 15.7791740544894 17.6699285302546  16.4640852480589 17.4903295973597  17.1629703203125 17.3932399072266  C 17.9836628212891 17.2481450947266  18.691 17.2481450947266  18.8905053671875 16.7131080058594  C 19.090010734375 16.1780709169922  16.7639596181641 16.5997526835938  16.3966883740234 16.42745259375  C 16.0294171298828 16.2551525039063  15.8888565625 16.681368515625  14.5557980371094 17.1665292626953  Z M 11.1551384980469 23.2015663623047  C 10.4160618291016 23.7093981738281  10.2210906748047 24.7023907646484  10.5067460869141 24.6751854873047  C 10.5067460869141 24.6751854873047  10.6427724736328 23.7093981738281  11.1551384980469 23.4010717294922  C 11.6675045224609 23.0927452851562  12.4292522558594 23.0610057626953  13.3950395693359 22.7753503828125  C 14.2960691847032 22.5596976367477  15.1845970378698 22.2948043256112  16.0566224394531 21.9818631591797  C 16.3105383613281 21.8140972822266  16.0294171621094 22.720939828125  15.4036957832031 23.0882110400391  C 14.7779744042969 23.4554822519531  14.016226703125 24.3351195205078  13.1955342021484 24.7613355322266  C 12.7103410973282 25.0077465288402  12.2691307605539 25.3325263652186  11.8896809541016 25.7225886328125  C 11.8896809541016 25.7225886328125  12.3748417011719 26.1488046123047  12.7693182226563 25.9765045224609  C 13.1637947441406 25.8042044326172  13.7351055361328 25.8948886904297  13.0549736347656 26.2621599345703  C 12.3748417333984 26.6294311787109  11.7491203867188 27.3685078476562  11.0145778984375 28.0169002587891  C 10.2800354101563 28.6652926699219  10.2482959521484 28.7559769277344  10.5611566416016 29.2093981845703  C 10.7853811375905 29.5962502940307  11.1512117904888 29.880785252705  11.5813544775391 30.0028854082031  C 11.8352703994141 30.0028854082031  12.2388153144531 30.2840066074219  12.2932259013672 30.0255564726562  C 12.3476364882813 29.7671063378906  12.2025416435547 29.0370980947266  12.6559629003906 28.7287716503906  C 13.1093841572266 28.4204452060547  14.4152374375 27.2551525253906  14.4152374375 27.2551525253906  C 14.4152374375 27.2551525253906  13.5900107236328 27.6224237695312  12.8826735449219 28.0169002587891  C 12.4355866982215 28.3196124764661  11.9488554802785 28.55916357729  11.4362596972656 28.7287716503906  C 11.2412885429688 28.7287716503906  10.9828384404297 28.5564715605469  11.4090544199219 28.0486397490234  C 11.8326499033704 27.560458009474  12.3190135285612 27.1305064578792  12.8554682675781 26.7699917460937  C 13.4170274545701 26.3825917727553  14.0154152983572 26.0515040862092  14.6419480498047 25.7815334003906  C 15.333371867444 25.427232168402  16.0539341322135 25.132939371713  16.7956991083984 24.9018961318359  C 17.5030362871094 24.7613355322266  17.9564575439453 24.4756801523437  18.3237287558594 24.4212695654297  C 18.6909999677734 24.3668589785156  18.2965234785156 23.9361088183594  17.8431022216797 23.9361088183594  C 17.3896809648438 23.9361088183594  16.1427724521484 23.9361088183594  15.7165564726563 24.2217642304687  C 15.2903404931641 24.5074196425781  14.2429373476563 25.3281121435547  13.6217502138672 25.3281121113281  C 13.0005630800781 25.3281120791016  13.4766554013672 24.9291014091797  13.9300766582031 24.8157460869141  C 14.7770624192934 24.5399168151472  15.5942796853754 24.1799158970632  16.3694830966797 23.7411376640625  C 17.0269439335937 23.3421269619141  17.7841574541016 22.6619950283203  18.2693182333984 22.6619950605469  C 18.7544790126953 22.6619950927734  19.4844872236328 22.2947238164062  19.4844872236328 21.8140972822266  C 19.4844872236328 21.3334707480469  18.0108680986328 21.2155812128906  17.4168862421875 20.9344600136719  C 16.8229043857422 20.6533388144531  16.7095490634766 20.84830996875  16.4238936513672 21.0750206132812  C 16.1382382392578 21.3017312578125  15.5487905957031 21.4740313154297  14.4152374375 21.7823577919922  C 13.2656915525036 22.0954741341  12.1675827079433 22.573510387686  11.1551384980469 23.2015663623047  Z M 18.3237287558594 26.5432811337891  C 17.8703074667969 26.2848309990234  17.3035308876953 26.2032151669922  16.2833330517578 26.1760098896484  C 16.5746104001372 26.282658639039  16.7683003992085 26.5598414151585  16.7683003992085 26.8700291799487  C 16.7683003992085 27.0282749525233  16.7175088511624 27.1823425473632  16.6233990185547 27.3095630800781  C 16.1699777617188 28.1030503037109  15.9160618398437 29.4089035517578  13.1365894345703 30.5424567099609  C 13.1365894345703 30.5424567099609  15.2631351835938 30.0028854082031  16.3422778193359 29.0688375849609  C 17.4214204550781 28.1347897617187  17.8703074990234 27.5634789697266  18.1831681884766 27.3095630800781  C 18.4960288779297 27.0556471904297  18.7771500449219 26.8017312685547  18.3237287558594 26.5432811337891  Z M 8.91523742675781 30.7555647158203  C 6.39421515625 31.0956306826172  2.45398434765625 32.6100577236328  0.98036522265625 32.2699917568359  C 0.98036522265625 32.2699917568359  1.71944189160156 33.1496290253906  2.481189625 32.9773289355469  C 3.24293735839844 32.8050288457031  5.72768592578125 32.0024731962891  7.80888954589844 31.5490519394531  C 9.89009316601562 31.0956306826172  14.0751715029297 30.27040396875  16.5372489736328 30.27040396875  C 18.9993264443359 30.27040396875  21.5248829277344 30.1026380917969  22.5450807958984 30.27040396875  C 23.5652786640625 30.4381698457031  25.0388977890625 30.6966199482422  25.5784690908203 31.4629018945312  C 26.1180403925781 32.2291838408203  26.9115276162109 32.9365210195312  27.2515935830078 32.9365210195312  C 27.6356046568694 32.8967338609045  27.9475436738555 32.6087901539266  28.0178755292969 32.2291838408203  C 28.0450808066406 31.8891178740234  27.7594253945312 31.4039571269531  26.9659381708984 30.8689200380859  C 26.1724509472656 30.3338829492188  25.5240585361328 30.0754328144531  25.0706372470703 29.5902720673828  C 24.6172159580078 29.1051113203125  23.9053445986328 28.6834295214844  23.3703075097656 28.8285243339844  C 22.8352704208984 28.9736191464844  22.6584361181641 29.7353668798828  21.8966883847656 29.7353668476563  C 21.1349406513672 29.7353668154297  16.6823437861328 29.9303380019531  15.7165564726562 29.9303380019531  C 14.7507691591797 29.9303380019531  11.4362596972656 30.4154987490234  8.91523742675781 30.7555647158203  Z " fill-rule="nonzero" fill="#000000" stroke="none" transform="matrix(1 0 0 1 20 16 )" />
  </g>
</svg>