<?xml version="1.0" encoding="utf-8"?>
<svg version="1.1" xmlns:xlink="http://www.w3.org/1999/xlink" width="18px" height="18px" xmlns="http://www.w3.org/2000/svg">
  <g transform="matrix(1 0 0 1 -86 -31 )">
    <path d="M 2.628 9.02999998125  C 2.63460373170934 5.50032569403395  5.49432573147587 2.64060371941741  9.02400001875 2.63400001875  C 9.02799626978038 2.63399254212653  9.03199252693249 2.63398880381235  9.03598878495691 2.63398880381235  C 12.5750294618726 2.63398880381235  15.4439887849569 5.50294812689662  15.4439887849569 9.04198880381235  C 15.4439887849569 12.5810294807281  12.5750294618726 15.4499888038123  9.03598878495691 15.4499888038123  C 5.49694810804119 15.4499888038123  2.62798878495692 12.5810294807281  2.62798878495692 9.04198880381235  C 2.62798878495692 9.03799252700246  2.62799252330624 9.03399625106575  2.628 9.02999998125  Z M 9.03600000000381 0.233991814482864  C 9.03200000485785 0.233991814482864  9.02800001017358 0.233994542989213  9.02400001875 0.233999999999998  C 4.15948405007681 0.23399999999626  0.21600811819178 4.17747593188129  0.21600811819178 9.04200001874626  C 0.21600811819178 13.9065241056112  4.15948405007681 17.8500000374963  9.02400813694178 17.8500000374963  C 13.8885322238068 17.8500000374963  17.8320081556918 13.9065241056112  17.8320081556918 9.04200001874626  C 17.8320081556918 9.0380000048545  17.8320054308772 9.03399999142946  17.83199998125 9.02999998125  C 17.8319999812538 4.17209514657655  13.8938966491601 0.233991814482864  9.03600000000381 0.233991814482864  Z " fill-rule="nonzero" fill="#737373" stroke="none" transform="matrix(1 0 0 1 86 31 )" />
  </g>
</svg>