<?xml version="1.0" encoding="utf-8"?>
<svg version="1.1" xmlns:xlink="http://www.w3.org/1999/xlink" width="24px" height="20px" xmlns="http://www.w3.org/2000/svg">
  <g transform="matrix(1 0 0 1 -81 -24 )">
    <path d="M 6.86769230769231 2.64347826086956  C 9.99384617307692 2.64347826086956  18.7446154038462 2.64347826086956  20.7507692307692 14.4115941847826  C 16.7289288579322 11.6242848451734  11.8606115970416 10.1321773859779  6.86769230769231 10.1565217391304  C 4.66535065913628 10.1565217391304  2.88 8.47466966892958  2.88 6.4  C 2.88 4.32533033107041  4.66535065913628 2.64347826086956  6.86769230769231 2.64347826086956  Z M 23.6307692307692 19.768115923913  C 23.6923077115385 1.5420289673913  12.0246154038462 0.324637663043478  6.86769230769231 0.324637663043475  C 3.30588049508578 0.324637663043477  0.418461519230767 3.04467003160254  0.418461519230767 6.4  C 0.418461519230767 9.75532996839745  3.30588049508578 12.4753623369565  6.86769230769231 12.4753623369565  C 13.3169230961538 12.4753623369565  18.4738461346154 14.9101449456522  23.6307692307692 19.768115923913  Z " fill-rule="nonzero" fill="#737373" stroke="none" transform="matrix(1 0 0 1 81 24 )" />
  </g>
</svg>