<?xml version="1.0" encoding="utf-8"?>
<svg version="1.1" xmlns:xlink="http://www.w3.org/1999/xlink" width="18px" height="20px" xmlns="http://www.w3.org/2000/svg">
  <g transform="matrix(1 0 0 1 -47 -82 )">
    <path d="M 0.377929687500001 12.073515625  C -0.257142857142856 15.0371875  0.872879464285715 17.144453125  5.17600446428571 19.45  C 3.83579799107143 16.815390625  4.54093191964286 15.300859375  5.5986328125 13.91921875  C 6.72865513392857 12.3371875  7.01116071428571 10.82265625  7.01116071428571 10.82265625  C 7.01116071428571 10.82265625  7.92873883928571 11.87734375  7.576171875 13.588046875  C 9.12882254464286 11.942734375  9.411328125 9.308125  9.19888392857143 8.318828125  C 12.7268136160714 10.626484375  14.2794642857143 15.6953125  12.2318638392857 19.384609375  C 23.0981584821429 13.59015625  14.9122767857143 4.9628125  13.5020089285714 4.041015625  C 13.9969587053571 5.028203125  14.0670200892857 6.675625  13.0793805803571 7.46453125  C 11.4566685267857 1.670078125  7.4337890625 0.55  7.4337890625 0.55  C 7.92873883928571 3.513671875  5.741015625 6.741015625  3.62335379464286 9.17734375  C 3.55329241071429 7.991875  3.48323102678571 7.200859375  2.77583705357143 6.015390625  C 2.63571428571429 8.188046875  0.870619419642857 9.900859375  0.377929687500001 12.073515625  Z " fill-rule="nonzero" fill="#aeaeae" stroke="none" transform="matrix(1 0 0 1 47 82 )" />
  </g>
</svg>