<?xml version="1.0" encoding="utf-8"?>
<svg version="1.1" xmlns:xlink="http://www.w3.org/1999/xlink" width="18px" height="18px" xmlns="http://www.w3.org/2000/svg">
  <g transform="matrix(1 0 0 1 -110 -25 )">
    <path d="M 8.9639999999902 2.63398876173964  C 8.96799999638174 2.63398876173964  8.9719999918985 2.63399251407808  8.97599998125 2.63400001875  C 12.5150294221306 2.63400001874015  15.3839887452149 5.50295934182442  15.3839887452149 9.04200001874015  C 15.3839887452149 12.5810406956559  12.5150294221306 15.4500000187402  8.97598874521489 15.4500000187402  C 5.43694806829917 15.4500000187402  2.56798874521489 12.5810406956559  2.56798874521489 9.04200001874015  C 2.56798874521489 9.03800000361406  2.56799249056157 9.03399998936231  2.56799998125001 9.02999998125  C 2.5679999812402 5.49757551021655  5.43158672971711 2.63398876173964  8.9639999999902 2.63398876173964  Z M 17.77200001875 9.02999998125  C 17.7653898377589 4.17484397267776  13.8311559898645 0.240610149942579  8.97599998125 0.233999999999998  C 8.97200271092231 0.233994557835797  8.96800543735631 0.233991836752752  8.96400816332394 0.233991836752752  C 4.09948407645897 0.233991836752752  0.156008144573942 4.17746776863779  0.156008144573942 9.04199185550275  C 0.156008144573942 13.9065159423677  4.09948407645897 17.8499918742528  8.96400816332394 17.8499918742528  C 13.8285322501889 17.8499918742528  17.7720081820739 13.9065159423677  17.7720081820739 9.04199185550275  C 17.7720081820739 9.03799456269557  17.7720054609653 9.03399727035245  17.77200001875 9.02999998125  Z " fill-rule="nonzero" fill="#737373" stroke="none" transform="matrix(1 0 0 1 110 25 )" />
  </g>
</svg>