<?xml version="1.0" encoding="utf-8"?>
<svg version="1.1" xmlns:xlink="http://www.w3.org/1999/xlink" width="53px" height="32px" xmlns="http://www.w3.org/2000/svg">
  <g transform="matrix(1 0 0 1 -158 -22 )">
    <path d="M 4.27670998538961 16.0045389787234  C 4.27670998538961 10.4306382127659  13.4541991915584 4.22127659574468  26.5780086866883 4.22127659574468  C 39.7018181818182 4.22127659574468  48.8609524383117 10.4306382978723  48.8609523522727 16.0045389787234  C 48.8609522662338 21.5784396595745  39.6834631461039 27.7878013617021  26.5780086866883 27.7878014468085  C 13.4725542272727 27.7878015319149  4.27670998538961 21.5784397446809  4.27670998538961 16.0045389787234  Z M 52.531948051948 16.0045389787234  C 52.531948051948 7.48936170212765  40.9132467532468 0.590070893617022  26.5780086866883 0.590070893617019  C 12.2427706201299 0.590070893617019  0.605714285714283 7.48936170212766  0.605714285714283 16.0045389787234  C 0.605714285714283 24.5197162553191  12.2427705340909 31.4190070638298  26.5780086866883 31.4190070638298  C 40.9132468392857 31.4190070638298  52.531948051948 24.5197162553191  52.531948051948 16.0045389787234  Z " fill-rule="nonzero" fill="#737373" stroke="none" transform="matrix(1 0 0 1 158 22 )" />
  </g>
</svg>