<?xml version="1.0" encoding="utf-8"?>
<svg version="1.1" xmlns:xlink="http://www.w3.org/1999/xlink" width="28px" height="28px" xmlns="http://www.w3.org/2000/svg">
  <g transform="matrix(1 0 0 1 -152 -34 )">
    <path d="M 4.088 14.0466666375  C 4.09827247154786 8.55606219071948  8.54672891562914 4.10760578576042  14.0373333625 4.0973333625  C 14.0435497529917 4.09732173219683  14.0497661530061 4.09731591704143  14.0559825543774 4.09731591704143  C 19.5611569406908 4.09731591704143  24.0239825543774 8.56014153072808  24.0239825543774 14.0653159170414  C 24.0239825543774 19.5704903033548  19.5611569406908 24.0333159170414  14.0559825543774 24.0333159170414  C 8.55080816806407 24.0333159170414  4.08798255437742 19.5704903033548  4.08798255437742 14.0653159170414  C 4.08798255437742 14.0590994864483  4.08798836958749 14.0528830572134  4.088 14.0466666375  Z M 14.0560000000059 0.363987266973344  C 14.0497777853344 0.363987266973344  14.0435555713811 0.363991511316553  14.0373333625 0.363999999999997  C 6.47030852234171 0.363999999994183  0.336012628298324 6.49829589403757  0.336012628298324 14.0653333624942  C 0.336012628298324 21.6323708309508  6.47030852234171 27.7666667249942  14.0373459907983 27.7666667249942  C 21.6043834592549 27.7666667249942  27.7386793532983 21.6323708309508  27.7386793532983 14.0653333624942  C 27.7386793532983 14.0591111186626  27.7386751146979 14.0528888755569  27.7386666375 14.0466666375  C 27.7386666375059 6.48992578356352  21.6127281209158 0.363987266973344  14.0560000000059 0.363987266973344  Z " fill-rule="nonzero" fill="#737373" stroke="none" transform="matrix(1 0 0 1 152 34 )" />
  </g>
</svg>