<?xml version="1.0" encoding="utf-8"?>
<svg version="1.1" xmlns:xlink="http://www.w3.org/1999/xlink" width="28px" height="28px" xmlns="http://www.w3.org/2000/svg">
  <g transform="matrix(1 0 0 1 -189 -34 )">
    <path d="M 13.9439999999848 4.097315851595  C 13.9502222165938 4.097315851595  13.9564444318421 4.09732168856591  13.9626666375 4.0973333625  C 19.4678235455365 4.09733336248468  23.9306491592232 8.56015897617133  23.9306491592232 14.0653333624847  C 23.9306491592232 19.570507748798  19.4678235455365 24.0333333624847  13.9626491592232 24.0333333624847  C 8.45747477290983 24.0333333624847  3.99464915922317 19.570507748798  3.99464915922317 14.0653333624847  C 3.99464915922317 14.059111116733  3.994654985318 14.0528888723414  3.99466663750002 14.0466666375  C 3.99466663748476 8.55178412700353  8.44913491289329 4.097315851595  13.9439999999848 4.097315851595  Z M 27.6453333625 14.0466666375  C 27.6350508587361 6.49420173527652  21.5151315397892 0.374282455466234  13.9626666375 0.363999999999997  C 13.9564486614347 0.36399153441124  13.950230680332 0.363987301615392  13.9440126985039 0.363987301615392  C 6.37697523004729 0.363987301615392  0.24267933600391 6.49828319565878  0.24267933600391 14.0653206641154  C 0.24267933600391 21.632358132572  6.37697523004729 27.7666540266154  13.9440126985039 27.7666540266154  C 21.5110501669605 27.7666540266154  27.6453460610039 21.632358132572  27.6453460610039 14.0653206641154  C 27.6453460610039 14.059102653082  27.6453418281683 14.0528846427705  27.6453333625 14.0466666375  Z " fill-rule="nonzero" fill="#737373" stroke="none" transform="matrix(1 0 0 1 189 34 )" />
  </g>
</svg>