<?xml version="1.0" encoding="utf-8"?>
<svg version="1.1" xmlns:xlink="http://www.w3.org/1999/xlink" width="14px" height="14px" xmlns="http://www.w3.org/2000/svg">
  <g transform="matrix(1 0 0 1 -196 -42 )">
    <path d="M 6.73196107851963 4.19999999999999  C 6.80895730278481 4.19999999999999  6.88592203566906 4.2031136646854  6.96266663749999 4.2093333625  C 8.44567209387066 4.32952221716809  9.5879610785196 5.56813221541308  9.5879610785196 7.05599999999999  C 9.5879610785196 8.54386778458691  8.44567209387066 9.78247778283191  6.96266663749999 9.9026666375  C 6.88592203566904 9.90888633531459  6.80895730278483 9.912  6.73196107851963 9.912  C 5.15463583300288 9.912  3.87596107851962 8.63332524551674  3.87596107851962 7.05599999999999  C 3.87596107851962 5.47867475448325  5.15463583300288 4.19999999999999  6.73196107851963 4.19999999999999  Z M 13.5333333625 7.04666663750001  C 13.5230797375911 3.42204330948115  10.5872899656554 0.486253576640692  6.96266663750001 0.476  C 6.95645322907678 0.475982423095117  6.95023979890327 0.475973634629502  6.94402636561873 0.475973634629502  C 3.30483803795872 0.475973634629502  0.354693003118726 3.42611866946949  0.354693003118726 7.0653069971295  C 0.354693003118726 10.7044953247895  3.30483803795872 13.6546403596295  6.94402636561873 13.6546403596295  C 10.5832146932787 13.6546403596295  13.5333597281187 10.7044953247895  13.5333597281187 7.0653069971295  C 13.5333597281187 7.05909353459755  13.5333509395704 7.0528800751703  13.5333333625 7.04666663750001  Z " fill-rule="nonzero" fill="#737373" stroke="none" transform="matrix(1 0 0 1 196 42 )" />
  </g>
</svg>