<?xml version="1.0" encoding="utf-8"?>
<svg version="1.1" xmlns:xlink="http://www.w3.org/1999/xlink" width="17px" height="17px" xmlns="http://www.w3.org/2000/svg">
  <g transform="matrix(1 0 0 1 -175 -47 )">
    <path d="M 8.49999999999999 4.15884054891304  C 10.7846179151334 4.15884054891304  12.6366666666667 6.09141315920864  12.6366666666667 8.47536228804347  C 12.6366666666667 10.8593114168783  10.7846179151334 12.7918840271739  8.49999999999999 12.7918840271739  C 6.21538208486662 12.7918840271739  4.36333333333334 10.8593114168783  4.36333333333333 8.47536228804348  C 4.36333333333333 6.09141315920864  6.21538208486662 4.15884054891304  8.49999999999999 4.15884054891304  Z M 16.4144444739583 8.47536228804347  C 16.4144444250581 3.91429068619431  12.8710269517721 0.216811625000002  8.49999999999999 0.216811624999992  C 4.12897301365021 0.216811624999987  0.585555526041663 3.91429074250456  0.585555526041663 8.47536238043476  C 0.585555526041663 13.036434018365  4.12897301365021 16.7339131358695  8.49999999999999 16.7339131358695  C 12.8710269863498 16.7339131358695  16.4144444739583 13.036434018365  16.4144444739583 8.47536238043476  Z " fill-rule="nonzero" fill="#737373" stroke="none" transform="matrix(1 0 0 1 175 47 )" />
  </g>
</svg>