<?xml version="1.0" encoding="utf-8"?>
<svg version="1.1" xmlns:xlink="http://www.w3.org/1999/xlink" width="14px" height="14px" xmlns="http://www.w3.org/2000/svg">
  <g transform="matrix(1 0 0 1 -166 -51 )">
    <path d="M 4.2466666375 7  C 4.2466666375 5.45360270047378  5.50026933797378 4.2  7.0466666375 4.2  C 8.59306393702622 4.2  9.8466666375 5.45360270047378  9.8466666375 7  C 9.8466666375 8.54639729952622  8.59306393702622 9.8  7.0466666375 9.8  C 5.50026933797378 9.8  4.2466666375 8.54639729952622  4.2466666375 7  Z M 7.04666663750001 0.466666637500003  C 3.43840625583052 0.466666637500003  0.513333275000011 3.39173961833052  0.513333275000011 7.00000000000001  C 0.513333275000011 10.6082603816695  3.43840625583052 13.5333333625  7.04666663750001 13.5333333625  C 10.6549270191695 13.5333333625  13.58 10.6082603816695  13.58 7.00000000000001  C 13.58 3.39173961833052  10.6549270191695 0.466666637500003  7.04666663750001 0.466666637500003  Z " fill-rule="nonzero" fill="#737373" stroke="none" transform="matrix(1 0 0 1 166 51 )" />
  </g>
</svg>