<?xml version="1.0" encoding="utf-8"?>
<svg version="1.1" xmlns:xlink="http://www.w3.org/1999/xlink" width="41px" height="41px" xmlns="http://www.w3.org/2000/svg">
  <g transform="matrix(1 0 0 1 -48 -1081 )">
    <path d="M 2 28.8095186440678  L 5.13305982905983 28.8095186440678  L 5.13305982905983 24.5249491525424  C 5.13305982905983 24.0643998357343  5.50959983433034 23.6910508474576  5.97408547008547 23.6910508474576  L 11.0819145299145 23.6910508474576  C 11.5464001656697 23.6910508474576  11.9229401709402 24.0643998357343  11.9229401709402 24.5249491525424  L 11.9229401709402 28.8095186440678  L 16.4493401709402 28.8095186440678  C 16.9138258066953 28.8095186440678  17.2903658119658 29.1828676323445  17.2903658119658 29.6434169491525  L 17.2903658119658 34.9803661016949  C 17.2903658119658 35.440915418503  16.9138258066953 35.8142644067797  16.4493401709402 35.8142644067797  L 11.9223794871795 35.8142644067797  L 11.9223794871795 39  L 40.0888888888889 39  C 40.0888888888889 39.193220338983  40.0888888888889 39.193220338983  40.0888888888889 39.193220338983  C 40.553374524644 39.193220338983  40.9299145299145 39.5665693272597  40.9299145299145 40.0271186440678  C 40.9299145299145 40.4876679608758  40.553374524644 40.8610169491525  40.0888888888889 40.8610169491525  L 11.0813538461538 40.8610169491525  C 10.6168682103987 40.8610169491525  10.2403282051282 40.4876679608758  10.2403282051282 40.0271186440678  L 10.2403282046902 35.814820338983  L 6.81511111111111 35.814820338983  L 6.81511111111111 39.9531796610169  C 6.81511111111111 40.413728977825  6.4385711058406 40.7870779661017  5.97408547008547 40.7870779661017  L 0.841025641025641 40.7870779661017  C 0.376540005270513 40.7870779661017  0 40.413728977825  0 39.9531796610169  L 0 34.9809220338983  C 0 34.5203727170902  0.376540005270512 34.1470237288136  0.841025641025641 34.1470237288136  L 5.13305982905983 34.1470237288136  L 5.13305982905983 30.4778711864407  L 0.841025641025641 30.4778711864407  C 0.376540005270507 30.4778711864407  0 30.104522198164  0 29.6439728813559  L 0 1.11186440677966  C 0 0.651315089754449  0.376540005270513 0.277966101477754  0.841025641025641 0.277966101477754  C 1.30551127678077 0.277966101477754  1.68205128205128 0.651315089754449  1.68205128205128 1.1118644065625  C 1.68205128205128 1.1118644065625  1.68205128205128 1.11186440634534  2 1.11186440634534  L 2 28.8095186440678  Z M 6.81511111111111 28.8095186440678  L 10.2408888888889 28.8095186440678  L 10.2408888888889 25.3588474576271  L 6.81511111111111 25.3588474576271  L 6.81511111111111 28.8095186440678  Z M 1.68205128205128 35.8142644067797  L 1.68205128205128 39.1192813554979  L 5.13305982905983 39.1192813554979  L 5.13305982905983 35.814820338983  L 1.68205128205128 35.8148203389831  Z M 11.9223794871795 30.4773152542373  L 11.9223794876175 34.1464677966102  L 15.6083145294765 34.1464677966102  L 15.6083145299145 30.4773152542373  L 11.9223794871795 30.4773152542373  Z M 10.2403282046902 30.4773152542373  L 6.81511111111111 30.4773152542373  L 6.81511111111111 34.1464677966102  L 10.2408888893269 34.1464677966102  L 10.2408888888889 30.4773152542373  Z " fill-rule="nonzero" fill="#979797" stroke="none" transform="matrix(1 0 0 1 48 1081 )" />
  </g>
</svg>