<?xml version="1.0" encoding="utf-8"?>
<svg version="1.1" xmlns:xlink="http://www.w3.org/1999/xlink" width="22px" height="23px" xmlns="http://www.w3.org/2000/svg">
  <g transform="matrix(1 0 0 1 -172 -16 )">
    <path d="M 11 4.14464643560606  C 15.0500881496052 4.14464643560606  18.3333333046875 7.4731153531551  18.3333333046875 11.5789898409091  C 18.3333333046875 15.6848643286631  15.0500881496052 19.0133332462121  11 19.0133332462121  C 6.94991188395552 19.0133332462121  3.66666674277447 15.6848643817613  3.6666666953125 11.5789899280303  C 3.6666666953125 7.4731153531551  6.94991185039484 4.14464643560606  11 4.14464643560606  Z M 22 11.5789899280303  C 22 5.42017817234145  17.0751322481387 0.427474776515151  11 0.427474776515151  C 4.92486775186127 0.427474776515151  0 5.42017817234145  0 11.5789899280303  C 0 17.7378016837191  4.92486775186127 22.7305050795455  11 22.7305050795455  C 17.0751322481387 22.7305050795455  22 17.7378016837191  22 11.5789899280303  Z " fill-rule="nonzero" fill="#737373" stroke="none" transform="matrix(1 0 0 1 172 16 )" />
  </g>
</svg>