<?xml version="1.0" encoding="utf-8"?>
<svg version="1.1" xmlns:xlink="http://www.w3.org/1999/xlink" width="82px" height="52px" xmlns="http://www.w3.org/2000/svg">
  <g transform="matrix(1 0 0 1 -280 -142 )">
    <path d="M 52.815302734375 26.84  C 48.9120546875 23.85516796875  47.731302734375 16.78683203125  46.255302734375 12.44083203125  C 44.8240157425878 8.28673324477732  43.0351756492546 4.26458262737174  40.90888671875 0.419583984374999  L 0.7780546875 19.08283203125  C 0.7780546875 19.08283203125  5.993302734375 34.203583984375  15.73488671875 42.04283203125  C 30.19971875 53.654  45.353302734375 52.88316796875  55.75088671875 48.422416015625  C 64.77088671875 44.552  70.412470703125 34.49883203125  73.971302734375 29.66083203125  C 77.530134765625 24.82283203125  80.43288671875 20.9523359375  80.92488671875 15.114  C 81.646470703125 6.405583984375  78.5140546875 4.33916796875  77.464470703125 5.602  C 76.41488671875 6.86483203125  75.496470703125 13.35916796875  72.72488671875 13.982416015625  C 70.83888671875 14.40883203125  71.232470703125 11.440416015625  69.10055078125 10.358  C 66.11571875 8.83283203125  69.10055078125 15.589583984375  68.87088671875 19.132  C 68.29688671875 28.85716796875  59.211302734375 31.76  52.81522265625 26.84  Z " fill-rule="nonzero" fill="#a8a8a8" stroke="none" transform="matrix(1 0 0 1 280 142 )" />
  </g>
</svg>