<?xml version="1.0" encoding="utf-8"?>
<svg version="1.1" xmlns:xlink="http://www.w3.org/1999/xlink" width="77px" height="44px" xmlns="http://www.w3.org/2000/svg">
  <g transform="matrix(1 0 0 1 -280 -150 )">
    <path d="M 74.88971875 3.86683203125  C 75.1385122635271 6.52875402712887  75.1385122635271 9.20807800412113  74.88971875 11.87  C 77.25122265625 8.196416015625  76.759302734375 3.45683203125  76.16888671875 0.718000000000004  C 75.8262554249009 1.79972039853351  75.3985300680467 2.85261989034663  74.88971875 3.86683203125  Z M 72.83971875 5.93316796875  C 71.806470703125 6.16283203125  71.429302734375 5.539583984375  71.019302734375 4.736  C 71.7080546875 9.656  73.54488671875 11.296  73.54488671875 11.296  C 73.1245612058241 9.53766766347666  72.8882341215115 7.74039025756983  72.83971875 5.93316796875  Z M 20.835302734375 31.123583984375  C 12.04488671875 24.071583984375  6.96088671875 11.1156640625  6.075302734375 8.62283203125  L 0.778134765625 11.08283203125  C 0.778134765625 11.08283203125  5.99322265625 26.203583984375  15.734806640625 34.04283203125  C 30.199638671875 45.654  45.35322265625 44.88316796875  55.750806640625 40.422416015625  C 57.4335310351554 39.6869099349164  59.024245330583 38.756702077126  60.490390625 37.65083203125  C 50.10922265625 41.980416015625  35.119638671875 42.6036640625  20.83522265625 31.1236640625  Z " fill-rule="nonzero" fill="#7b7b7b" stroke="none" transform="matrix(1 0 0 1 280 150 )" />
  </g>
</svg>