<?xml version="1.0" encoding="utf-8"?>
<svg version="1.1" xmlns:xlink="http://www.w3.org/1999/xlink" width="25px" height="69px" xmlns="http://www.w3.org/2000/svg">
  <g transform="matrix(1 0 0 1 -284 -122 )">
    <path d="M 9.6680546875 8.76  C 4.8300546875 11.2856640625  -0.959113281250001 7.33316796875  0.95971875 4.70916796875  C 2.27171875 2.872416015625  4.633302734375 6.874  8.126470703125 5.48  C 11.619638671875 4.086  9.766470703125 0.970000000000002  11.521302734375 0.560000000000001  C 14.0960546875 -0.0631679687499984  14.801302734375 6.119583984375  9.6680546875 8.76  Z M 21.26288671875 16.222080078125  C 21.2629047459212 18.4891184144462  19.4299070279717 20.3294552834149  17.16288671875 20.33849609375  C 17.1574147407811 20.3385179158372  17.1519427247368 20.3385288269134  17.1464707032551 20.3385288269134  C 14.8730369138662 20.3385288269134  13.0300546876301 18.4955466006773  13.0300546876301 16.2221128112884  C 13.0300546876301 13.9486790218995  14.8730369138662 12.1056967956634  17.1464707032551 12.1056967956634  C 19.4199044926441 12.1056967956634  21.2628867188801 13.9486790218995  21.2628867188801 16.2221128112884  Z M 17.16288671875 13.680080078125  L 17.16288671875 13.77849609375  C 17.1574147888847 13.7784598198542  17.1519427538181 13.7784416827568  17.1464707037228 13.7784416827568  C 15.7787839040563 13.7784416827568  14.6700546880978 14.8871708987154  14.6700546880978 16.2548576983818  C 14.6700546880978 17.6225444980482  15.7787839040563 18.7312737140068  17.1464707037228 18.7312737140068  C 18.5141362546229 18.7312737140068  19.6228566688551 17.6225776599451  19.62288671875 16.254912109375  C 19.6241919513153 16.2221089254022  19.6248447611583 16.1892830298329  19.6248447611583 16.1564538886501  C 19.6248447611583 14.7944099033095  18.524907491027 13.6880320520001  17.16288671875 13.680080078125  Z M 15.50655078125 65.094  C 13.11221484375 62.781583984375  11.111302734375 59.944416015625  12.52171875 59.108  C 13.702470703125 58.40283203125  19.9180546875 61.20716796875  23.4440546875 65.422  C 25.4940546875 67.865583984375  23.575302734375 68.275583984375  22.44371875 67.50483203125  C 21.86971875 67.11116796875  20.29522265625 65.012  19.311302734375 65.0776640625  C 18.3273828125 65.143328125  21.42688671875 67.52116796875  21.18088671875 67.964  C 20.93488671875 68.40683203125  17.90088671875 67.406416015625  15.50655078125 65.094  Z " fill-rule="nonzero" fill="#dddddd" stroke="none" transform="matrix(1 0 0 1 284 122 )" />
  </g>
</svg>