<?xml version="1.0" encoding="utf-8"?>
<svg version="1.1" xmlns:xlink="http://www.w3.org/1999/xlink" width="27px" height="23px" xmlns="http://www.w3.org/2000/svg">
  <g transform="matrix(1 0 0 1 -312 -166 )">
    <path d="M 9.49971875 15.35316796875  C 11.2399172213465 13.4097898899462  12.2032494702279 10.893472094484  12.20571875 8.28483203125001  C 14.3795758818321 8.38902585867629  16.4877615291121 7.52409609531335  17.9620546875 5.92316796875001  C 18.7885654147295 5.04208898953384  19.4101875577085 3.98927168653929  19.782470703125 2.84000000000001  C 19.0033989979995 2.21803226346168  18.3280674960941 1.47626230521513  17.78171875 0.64241601562501  C 17.6266628413707 1.9969350978124  17.0534322797134 3.26949015082748  16.14171875 4.28316796875001  C 14.9275948563938 5.61212730773396  13.0846369681331 6.17195260123667  11.336470703125 5.74283203125  C 11.2041820968455 5.69579694902092  11.0648170277999 5.67175849686829  10.9244155523387 5.67175849686829  C 10.2451053100468 5.67175849686829  9.6944155523387 6.22244825457641  9.6944155523387 6.90175849686829  C 9.6944155523387 6.92546452952759  9.69510088887519 6.94916560791726  9.696470703125 6.97283203125001  C 9.696470703125 8.26841601562501  9.532470703125 11.89283203125  7.84330273437499 13.53283203125  C 6.42319839763322 14.8567933542322  4.43656216216028 15.3857221127983  2.546134765625 14.94316796875  C 2.40439445283218 14.8882407082271  2.25370044695814 14.8600630941205  2.10168952557696 14.8600630941205  C 1.42237928328507 14.8600630941205  0.871689525576954 15.4107528518286  0.871689525576954 16.0900630941205  C 0.871689525576954 16.6625736791773  1.26669043304774 17.1593829178765  1.82447070312499 17.288416015625  C 2.49236561187562 17.4703441702747  3.18228561506734 17.5586593206833  3.874470703125 17.55083203125  C 5.96085711706679 17.5605986461453  7.97250632133236 16.7746903402836  9.49971875 15.35316796875  Z M 26.375302734375 5.23441601562502  C 25.5243097515466 5.19810925466451  24.6812692987104 5.05484484070718  23.8660546875 4.808  C 24.1158469553572 5.90650022138406  24.0066629449111 7.05616013600378  23.55455078125 8.088  C 22.971992832011 9.35394741427368  21.7464602163948 10.202371826637  20.356470703125 10.302  C 19.681730291366 10.3083832537058  19.1381063641949 10.8571743578849  19.1381063641949 11.5319449627489  C 19.1381063641949 11.6716339050787  19.1619014718643 11.8103022122091  19.208470703125 11.942  C 19.569302734375 12.909583984375  20.29088671875 15.76316796875  19.38888671875 17.30483203125  C 18.6420308455915 18.6217448273081  17.2901702096933 19.4820197774252  15.78088671875 19.60083203125  C 15.1015764764581 19.60083203125  14.55088671875 20.1515217889581  14.55088671875 20.83083203125  C 14.55088671875 21.5101422735419  15.1015764764581 22.06083203125  15.78088671875 22.06083203125  C 18.1539548234188 21.9299872184922  20.3005637080595 20.6099146185759  21.4880546875 18.55116796875  C 22.3568483824057 16.6453487061991  22.5025789879259 14.488535744499  21.8980546875 12.48316796875  C 23.5888102001998 11.984140534033  24.989121302945 10.7923864040371  25.7520546875 9.20316796875002  C 26.3253108130422 7.96409522324576  26.5411662968233 6.5895592304828  26.375302734375 5.23441601562502  Z " fill-rule="nonzero" fill="#7b7b7b" stroke="none" transform="matrix(1 0 0 1 312 166 )" />
  </g>
</svg>