<?xml version="1.0" encoding="utf-8"?>
<svg version="1.1" xmlns:xlink="http://www.w3.org/1999/xlink" width="76px" height="80px" xmlns="http://www.w3.org/2000/svg">
  <g transform="matrix(1 0 0 1 -241 -389 )">
    <path d="M 75.1294921875 40.10078125  C 75.9525390625 37.0185546875  75.6333984375 34.25546875  75.0623046875 31.3412109375  C 74.4072265625 28.0322265625  73.2146484375 24.933203125  71.89609375 21.82578125  C 70.636328125 18.86953125  69.2841796875 16.04765625  67.2181640625 13.5869140625  C 66.1599609375 12.3271484375  65.14375 11.00859375  63.22890625 11.1765625  C 63.7916015625 10.7482421875  64.5306640625 10.3619140625  63.5900390625 9.5892578125  C 55.97265625 2.1482421875  46.6251953125 -0.4384765625  36.2783203125 0.1158203125  C 30.8025390625 0.409765625  25.60390625 2.1314453125  21.06875 5.1380859375  C 15.6013671875 8.7662109375  9.4537109375 11.9912109375  7.748828125 19.171875  C 7.26171875 21.22109375  5.8591796875 22.7328125  5.128515625 24.664453125  C 4.187890625 27.1671875  3.9947265625 30.02265625  2.205859375 32.2650390625  C 0.752929687499999 34.0875  0.282617187499999 36.3046875  0.534570312499998 38.6982421875  C 0.803320312499999 41.31015625  0.853710937499998 43.9556640625  0.996484374999998 46.584375  C 1.0384765625 47.3234375  1.14765625 48.0037109375  2.1470703125 47.4158203125  C 2.89453125 48.49921875  1.1896484375 48.4740234375  1.2904296875 49.389453125  C 1.5759765625 51.8921875  1.71875 54.41171875  2.9869140625 56.6708984375  C 3.3564453125 56.2005859375  3.5916015625 55.671484375  3.33125 55.100390625  C 2.3654296875 53.051171875  3.348046875 50.8087890625  2.642578125 48.734375  C 4.540625 47.22265625  4.6498046875 44.585546875  6.304296875 42.905859375  C 6.405078125 42.805078125  6.3546875 42.502734375  6.3126953125 42.3095703125  C 5.9767578125 40.4619140625  6.2623046875 38.62265625  6.2875 36.7833984375  C 6.33789062499999 33.533203125  6.2791015625 30.3333984375  6.8166015625 27.083203125  C 7.26171875 24.3705078125  8.4291015625 21.99375  9.2689453125 19.47421875  C 9.57128906249999 18.583984375  9.663671875 17.45859375  11.108203125 17.4921875  C 11.528125 17.5005859375  11.948046875 16.971484375  11.6037109375 16.4087890625  C 11.141796875 15.661328125  11.544921875 15.1154296875  11.9984375 14.603125  C 13.1994140625 13.2341796875  14.3248046875 11.7728515625  15.66015625 10.5466796875  C 19.62421875 6.9017578125  24.512109375 5.2220703125  29.7107421875 4.306640625  C 31.9783203125 3.9119140625  34.371875 3.34921875  36.5470703125 4.1302734375  C 41.4685546875 5.919140625  46.1548828125 8.421875  51.151953125 9.916796875  C 57.7615234375 11.8904296875  59.2732421875 17.4333984375  61.6248046875 23.018359375  C 58.3662109375 19.9361328125  53.5958984375 17.307421875  51.975 17.5677734375  C 55.3091796875 21.9685546875  60.1298828125 25.033984375  63.2541015625 29.653125  C 59.583984375 26.52890625  56.1322265625 23.1443359375  50.8328125 22.044140625  C 52.2017578125 24.160546875  54.3181640625 24.8072265625  55.7962890625 26.29375  C 59.7603515625 30.274609375  63.3212890625 34.507421875  66.084375 39.4037109375  C 66.6974609375 40.4955078125  66.605078125 41.5033203125  66.1599609375 42.6875  C 65.4376953125 44.585546875  64.824609375 46.701953125  65.37890625 48.63359375  C 66.6134765625 52.9671875  64.3123046875 56.0326171875  61.8935546875 58.8712890625  C 58.7021484375 62.625390625  54.9396484375 65.4556640625  49.9173828125 67.0177734375  C 45.2814453125 68.4623046875  40.8470703125 69.1677734375  36.1103515625 68.6806640625  C 30.8025390625 68.134765625  26.040625 66.06875  21.3794921875 63.65  C 20.83359375 63.2888671875  20.1701171875 63.0201171875  19.7501953125 62.5498046875  C 16.483203125 58.862890625  12.519140625 55.7806640625  9.96601562500001 51.45546875  C 9.88203125000001 51.1111328125  9.53769531250001 50.6828125  9.36132812500001 50.85078125  C 8.86582031250001 51.32109375  9.13457031250002 51.9005859375  9.47050781250002 52.39609375  C 9.26054687500002 53.034375  9.17656250000002 53.6138671875  9.38652343750002 54.3361328125  C 9.88203125000002 56.0326171875  10.3859375 57.8970703125  10.2935546875 59.51796875  C 10.2263671875 60.710546875  10.234765625 62.054296875  10.8310546875 62.5666015625  C 11.612109375 63.2384765625  12.4435546875 63.700390625  12.687109375 64.7837890625  C 12.6955078125 64.808984375  12.8298828125 64.8341796875  12.8802734375 64.808984375  C 14.2828125 64.0783203125  14.669140625 65.49765625  15.1478515625 66.1107421875  C 16.2732421875 67.5552734375  17.3314453125 68.7478515625  19.321875 69.05859375  C 20.4052734375 69.2265625  20.6068359375 69.243359375  20.56484375 68.134765625  C 20.5228515625 67.0765625  20.111328125 65.934375  20.9091796875 64.9517578125  C 21.471875 66.1611328125  22.6224609375 67.194140625  21.6314453125 68.78984375  C 21.1779296875 69.5205078125  22.1185546875 69.93203125  22.6140625 69.965625  C 23.9578125 70.0580078125  24.32734375 70.9482421875  24.814453125 71.98125  C 25.4107421875 73.2662109375  26.2337890625 74.2908203125  28.02265625 73.6357421875  C 29.76953125 72.9890625  31.58359375 72.0904296875  33.481640625 72.6615234375  C 34.993359375 73.1150390625  36.538671875 70.771875  37.9748046875 72.8462890625  C 38.10078125 73.02265625  38.6802734375 72.468359375  38.9658203125 72.0400390625  C 39.461328125 71.309375  40.5279296875 70.8978515625  41.0318359375 71.4857421875  C 41.880078125 72.4767578125  42.753515625 72.115625  43.5849609375 71.9140625  C 44.853125 71.6033203125  45.9869140625 72.8126953125  47.2298828125 72.115625  C 47.70859375 73.812109375  48.800390625 72.9302734375  49.7326171875 72.703515625  C 53.671484375 71.729296875  56.8544921875 69.52890625  59.483203125 66.5138671875  C 61.88515625 63.7591796875  64.186328125 60.92890625  66.5546875 58.1490234375  C 67.0333984375 57.586328125  67.7052734375 56.5953125  68.116796875 56.679296875  C 69.4689453125 56.9396484375  69.309375 56.0578125  69.5025390625 55.3439453125  C 69.6369140625 54.8484375  69.6453125 54.1513671875  70.41796875 54.2689453125  C 71.140234375 54.378125  71.1150390625 55.0583984375  71.08984375 55.5623046875  C 70.9890625 57.384765625  71.812109375 59.098046875  71.4341796875 61.06328125  C 72.651953125 60.7021484375  72.8283203125 59.8287109375  73.03828125 58.997265625  C 73.5841796875 56.813671875  73.77734375 54.5880859375  73.7521484375 52.345703125  C 73.7185546875 48.2052734375  74.0544921875 44.03125  75.1294921875 40.10078125  Z M 6.65703125 4.3150390625  C 6.6234375 6.0787109375  7.66484375 7.2125  9.3025390625 7.2125  C 10.906640625 7.2125  12.5443359375 5.7091796875  12.56953125 4.22265625  C 12.5947265625 2.7109375  11.2845703125 1.451171875  9.6888671875 1.451171875  C 8.0091796875 1.451171875  6.6822265625 2.7025390625  6.65703125 4.3150390625  Z M 37.6220703125 32.8025390625  C 37.3197265625 32.323828125  38.0923828125 31.416796875  37.076171875 30.9884765625  C 36.7234375 30.8373046875  36.370703125 30.8876953125  36.1607421875 31.1732421875  C 34.8841796875 32.928515625  33.750390625 34.7173828125  34.1619140625 37.0689453125  C 34.3802734375 38.303515625  34.8841796875 38.3623046875  35.7408203125 37.6568359375  C 37.2189453125 36.4306640625  37.512890625 34.72578125  37.6220703125 32.8025390625  Z M 2.928125 56.7548828125  L 2.9953125 56.69609375  C 2.9953125 56.6876953125  2.9869140625 56.6876953125  2.9869140625 56.679296875  C 2.9701171875 56.7044921875  2.9533203125 56.7296875  2.928125 56.7548828125  Z M 5.195703125 60.609765625  C 4.8849609375 59.904296875  4.7841796875 59.0056640625  3.851953125 58.728515625  C 3.885546875 57.9306640625  4.1291015625 57.0404296875  3.012109375 56.780078125  C 3.16328125 57.586328125  3.3228515625 58.3841796875  3.4740234375 59.1904296875  C 4.725390625 62.054296875  6.102734375 64.8341796875  8.319921875 67.14375  C 7.228125 64.976953125  6.18671875 62.8017578125  5.195703125 60.609765625  Z M 14.5599609375 72.95546875  C 13.1658203125 72.28359375  12.653515625 70.33515625  10.41953125 70.06640625  C 11.6037109375 71.6537109375  12.30078125 73.0646484375  13.98046875 73.4509765625  C 16.2900390625 76.0125  19.2294921875 77.490625  22.4712890625 78.4900390625  C 19.89296875 76.5416015625  17.087890625 74.9458984375  14.5599609375 72.95546875  Z M 24.83125 34.05390625  C 25.3435546875 34.0119140625  25.721484375 33.7263671875  25.755078125 33.197265625  C 25.7970703125 32.6345703125  25.452734375 32.3658203125  24.9404296875 32.3322265625  C 24.2265625 32.3826171875  23.9830078125 32.861328125  23.99140625 33.415625  C 23.99140625 33.869140625  24.377734375 34.0958984375  24.83125 34.05390625  Z M 2.9953125 56.69609375  L 2.9365234375 56.7548828125  C 2.9701171875 56.76328125  2.9869140625 56.7716796875  3.012109375 56.780078125  C 3.0037109375 56.7548828125  3.0037109375 56.7212890625  2.9953125 56.69609375  Z M 51.9498046875 57.23359375  C 51.958203125 57.552734375  52.24375 57.653515625  52.4705078125 57.5947265625  C 52.68046875 57.5443359375  52.8484375 57.334375  52.966015625 57.2419921875  C 52.932421875 56.7716796875  52.68046875 56.712890625  52.428515625 56.7380859375  C 52.159765625 56.7716796875  51.94140625 56.93125  51.9498046875 57.23359375  Z M 0.375 19.6673828125  C 0.4001953125 20.0369140625  0.719335937499999 20.21328125  1.0720703125 20.246875  C 1.3240234375 20.2720703125  1.5927734375 20.263671875  1.6515625 19.8857421875  C 1.5171875 19.591796875  1.315625 19.323046875  0.9376953125 19.3146484375  C 0.6857421875 19.30625  0.358203125 19.323046875  0.375 19.6673828125  Z M 25.8306640625 79.94296875  C 24.99921875 79.0779296875  24.579296875 78.8931640625  23.773046875 79.355078125  C 24.428125 79.5482421875  24.86484375 79.6658203125  25.8306640625 79.94296875  Z " fill-rule="nonzero" fill="#000000" stroke="none" transform="matrix(1 0 0 1 241 389 )" />
  </g>
</svg>