<?xml version="1.0" encoding="utf-8"?>
<svg version="1.1" xmlns:xlink="http://www.w3.org/1999/xlink" width="20px" height="20px" xmlns="http://www.w3.org/2000/svg">
  <g transform="matrix(1 0 0 1 -174 -598 )">
    <path d="M 19.6253693181818 18.0326846590909  L 11.5269353693182 10  L 19.6253693181818 1.90160688920454  C 20.0232137784091 1.50372159090909  20.0232137784091 0.839408735795455  19.6253693181818 0.374671519886364  L 19.5584357244318 0.308922230113636  C 19.1531399687286 -0.0891158530874427  18.5036888664986 -0.0891158530874427  18.0983931107955 0.308922230113636  L 10 8.47306463068182  L 1.90160688920454 0.374630681818181  C 1.49631113350138 -0.0234074013829012  0.846860031271347 -0.023407401382898  0.441564275568181 0.374630681818181  L 0.374630681818181 0.441564275568181  C -0.0232137784090935 0.839408735795455  -0.0232137784090935 1.50376242897727  0.374630681818181 1.96849964488636  L 8.47306463068182 10  L 0.374630681818181 18.0983931107955  C -0.0232137784090935 18.4962784090909  -0.0232137784090935 19.1605912642045  0.374630681818181 19.6253284801136  L 0.441564275568181 19.6922620738636  C 0.846860031271347 20.0903001570647  1.49631113350138 20.0903001570647  1.90160688920454 19.6922620738636  L 10 11.5281605113636  L 18.0983931107955 19.6265536221591  C 18.5036888664986 20.0245917053602  19.1531399687286 20.0245917053602  19.5584357244318 19.6265536221591  L 19.6253693181818 19.5596200284091  C 20.0232137784091 19.1617755681818  20.0232137784091 18.497421875  19.6253693181818 18.0326846590909  Z " fill-rule="nonzero" fill="#ffffff" stroke="none" transform="matrix(1 0 0 1 174 598 )" />
  </g>
</svg>