<?xml version="1.0" encoding="utf-8"?>
<svg version="1.1" xmlns:xlink="http://www.w3.org/1999/xlink" width="24px" height="20px" xmlns="http://www.w3.org/2000/svg">
  <g transform="matrix(1 0 0 1 -105 -18 )">
    <path d="M 3.24923076923077 14.4115941847826  C 5.23076925 2.65507244565217  14.0061538269231 2.64347826086956  17.1323076923077 2.64347826086956  C 19.3346493408637 2.64347826086956  21.12 4.32533033107041  21.12 6.4  C 21.12 8.47466966892959  19.3346493408637 10.1565217391304  17.1323076923077 10.1565217391304  C 12.1393884029584 10.1321773859779  7.27107114206782 11.6242848451734  3.24923076923077 14.4115941847826  Z M 17.1323076923077 0.324637663043478  C 11.9753845961538 0.324637663043478  0.369230769230774 1.5420289673913  0.369230769230774 19.768115923913  C 5.52615386538462 14.9101448913043  10.6830769038462 12.4753622826087  17.1323076923077 12.4753623369565  C 20.6941195049142 12.4753623369565  23.5815384807692 9.75532996839746  23.5815384807692 6.4  C 23.5815384807692 3.04467003160254  20.6941195049142 0.324637663043481  17.1323076923077 0.324637663043481  Z " fill-rule="nonzero" fill="#737373" stroke="none" transform="matrix(1 0 0 1 105 18 )" />
  </g>
</svg>