<?xml version="1.0" encoding="utf-8"?>
<svg version="1.1" xmlns:xlink="http://www.w3.org/1999/xlink" width="59px" height="59px" xmlns="http://www.w3.org/2000/svg">
  <defs>
    <filter x="120px" y="155px" width="59px" height="59px" filterUnits="userSpaceOnUse" id="filter85">
      <feOffset dx="2" dy="2" in="SourceAlpha" result="shadowOffsetInner" />
      <feGaussianBlur stdDeviation="2.5" in="shadowOffsetInner" result="shadowGaussian" />
      <feComposite in2="shadowGaussian" operator="atop" in="SourceAlpha" result="shadowComposite" />
      <feColorMatrix type="matrix" values="0 0 0 0 0  0 0 0 0 0  0 0 0 0 0  0 0 0 0.164705882352941 0  " in="shadowComposite" />
    </filter>
    <g id="widget86">
      <path d="M 147.5 159  C 160.66 159  171 169.34  171 182.5  C 171 195.66  160.66 206  147.5 206  C 134.34 206  124 195.66  124 182.5  C 124 169.34  134.34 159  147.5 159  Z " fill-rule="nonzero" fill="#44474d" stroke="none" />
      <path d="M 147.5 159  C 160.66 159  171 169.34  171 182.5  C 171 195.66  160.66 206  147.5 206  C 134.34 206  124 195.66  124 182.5  C 124 169.34  134.34 159  147.5 159  Z " stroke-width="2" stroke="#ffffff" fill="none" />
    </g>
  </defs>
  <g transform="matrix(1 0 0 1 -120 -155 )">
    <use xlink:href="#widget86" filter="url(#filter85)" />
    <use xlink:href="#widget86" />
  </g>
</svg>