<?xml version="1.0" encoding="utf-8"?>
<svg version="1.1" xmlns:xlink="http://www.w3.org/1999/xlink" width="50px" height="11px" xmlns="http://www.w3.org/2000/svg">
  <g transform="matrix(1 0 0 1 -84 -43 )">
    <path d="M 44.9523809487139 10.7433333333333  L 44.9523809487139 10.78  C 42.0299514334785 10.5351162053274  39.1431396754442 9.95711500123407  36.3452381011772 9.05666666666666  C 32.6590061130781 7.89050232302994  28.8502701835627 7.18065731780078  25 6.942222203125  C 21.1497298164373 7.18065731780078  17.3409938869219 7.89050232302994  13.6547618988228 9.05666666666667  C 10.8568603245558 9.95711500123407  7.97004856652154 10.5351162053274  5.04761905128614 10.78  C 2.25989602630543 10.78  0 8.45984007707029  0 5.59777776822917  C 0 2.73571545938803  2.25989602630543 0.415555536458333  5.04761905128614 0.415555536458333  C 7.96024632858877 0.531455955011877  10.8568265443979 0.915966697465705  13.7023809835911 1.56444446354166  C 17.4152665584314 2.40606902342731  21.198778019188 2.87678196508308  25 2.97  C 28.8023848284024 2.8647329928769  32.5859098444829 2.38173885257665  36.2976190164089 1.527777796875  C 39.1431734556021 0.879300030799039  42.0397536714112 0.494789288345211  44.9523809487139 0.378888869791667  C 47.7401039736946 0.378888869791667  50 2.69904879272137  50 5.5611111015625  C 50 8.42317341040363  47.7401039736946 10.7433333333333  44.9523809487139 10.7433333333333  Z " fill-rule="nonzero" fill="#939393" stroke="none" transform="matrix(1 0 0 1 84 43 )" />
  </g>
</svg>