<?xml version="1.0" encoding="utf-8"?>
<svg version="1.1" xmlns:xlink="http://www.w3.org/1999/xlink" width="10px" height="6px" xmlns="http://www.w3.org/2000/svg">
  <g transform="matrix(1 0 0 1 -141 -191 )">
    <path d="M 5.15216495814733 4.60518121435547  L 6.85964361049107 3.39544748876953  L 9.55613946847098 1.45851423779297  C 9.59995668083414 1.42414941867793  9.65187904220416 1.40300001247627  9.70630440569196 1.39734792773437  C 9.66358507533482 1.376959171875  9.64157812918527 1.376959171875  9.59885879882812 1.35657037353515  C 9.46940628627232 1.31579281933593  9.36325524135045 1.27501530761719  9.23509725027902 1.23423775341797  C 9.18060582092854 1.21105624603031  9.12290095749977 1.19728576334511  9.06421992885045 1.19346019921875  C 8.89334260742188 1.15268264501953  8.72246528599331 1.09151633496094  8.52958101841518 1.05753506103516  L 8.5088686342076 1.05753506103516  C 8.33799131277902 1.01675750683594  8.14510708565849 0.975979995117187  7.97422976422992 0.935202440917967  C 7.90950348772322 0.914813685058594  7.86678419782367 0.914813685058594  7.80335244280135 0.894424929199214  C 7.48231022460938 0.83325861914062  7.14055558175224 0.772092309082032  6.81951332310269 0.731314754882812  C 6.75478704659599 0.731314754882812  6.69006081054688 0.710925999023432  6.64863600167411 0.710925956542965  L 6.07127780133929 0.649759646484371  L 3.92883871651786 0.649759646484371  L 3.35148047572545 0.710925956542965  C 3.28675419921876 0.710925956542965  3.2440349093192 0.731314712402339  3.18060319475447 0.731314754882812  C 2.83884855189733 0.772092309082032  2.51780633370536 0.83325861914062  2.17475712890626 0.894424929199214  C 2.11003085239956 0.914813685058594  2.06731156250001 0.914813685058594  2.00387980747768 0.935202440917967  C 1.64011825892858 1.01675750683594  1.27635666992188 1.09831261523438  0.912595121372775 1.20025647949219  C 0.865309644784867 1.22329885476551  0.814426216753886 1.23711634333372  0.762430224609381 1.2410340336914  C 0.632977712053577 1.28181158789062  0.503525199497774 1.32258909960937  0.398668676060276 1.36336665380859  C 0.355949345703131 1.38375540966797  0.333942399553579 1.38375540966797  0.291223069196437 1.40414416552735  L 0.291223069196437 1.42453296386719  L 0.420675581752238 1.48569927392578  L 3.1391783858817 3.42263252490235  L 4.89325993303572 4.60518121435547  L 5.15216495814733 4.60518121435547  Z " fill-rule="nonzero" fill="#ebf1ff" stroke="none" transform="matrix(1 0 0 1 141 191 )" />
  </g>
</svg>