<?xml version="1.0" encoding="utf-8"?>
<svg version="1.1" xmlns:xlink="http://www.w3.org/1999/xlink" width="54px" height="14px" xmlns="http://www.w3.org/2000/svg">
  <g transform="matrix(1 0 0 1 -83 -42 )">
    <path d="M 46.5741243125 2.47448275862069  L 46.5741243125 2.49839082327586  C 48.7173635721823 2.49839082327586  50.4548022786017 4.23243830255191  50.4548022786017 6.37149427155173  C 50.4548022786017 8.51055024055155  48.7173635721823 10.2445977198276  46.5741243125 10.2445977198276  C 43.7291177294613 9.99696425581467  40.9185772671653 9.44797497560754  38.1899434841102 8.60689655172414  C 34.39308863267 7.43352028678806  30.467903583733 6.72306773669616  26.5 6.49103448275862  C 22.5240269929959 6.72115028822228  18.5906841074139 7.43162350551371  14.7861016949153 8.60689655172413  C 12.0574679300419 9.44797497171605  9.24692748677156 9.99696425188312  6.40192092266949 10.2445977198276  C 4.25868166298714 10.2445977198276  2.5212429565678 8.51055024055155  2.5212429565678 6.37149427155173  C 2.5212429565678 4.23243830255191  4.25868166298714 2.49839082327586  6.40192092266949 2.49839082327586  C 9.25661246285176 2.61043733867468  12.0950770672002 2.98255875557527  14.8819209226695 3.6101149612069  C 18.7026441548871 4.43393051441649  22.5923797253775 4.89818682361695  26.5 4.99678159051725  C 30.4003532031251 4.88883411823736  34.2820077126597 4.41658080489627  38.0941243125 3.58620689655173  C 40.8809681679693 2.95865069092009  43.7194327723177 2.5865292740195  46.5741243125 2.47448275862069  Z M 46.5741243125 0.107586206896562  L 46.5741243125 0.0836781422413797  C 40.5854237288136 0.0836781422413797  34.0337853294491 2.58206896551724  26.5 2.58206896551724  C 18.9662146705508 2.58206896551724  12.4624858569915 0.107586206896556  6.4258756875 0.107586206896562  C 2.95988105125871 0.107913385106575  0.150311083504823 2.912264708222  0.150311083504823 6.37149424353449  C 0.150311083504823 9.83072377884698  2.95988105125871 12.6350751019624  6.4258756875 12.6354022801724  C 11.444406779661 12.6354022801724  20.2238417891949 8.88183904310345  26.5 8.88183909913794  C 32.7761582108051 8.88183915517242  41.555593220339 12.6354023362069  46.5741243125 12.6354022801724  C 50.0409443866629 12.6354023081897  52.850876130115 9.83095514198566  52.850876130115 6.37149424353449  C 52.850876130115 2.91203334508332  50.0409443866629 0.107586178879318  46.5747179193099 0.107586178879318  Z " fill-rule="nonzero" fill="#737373" stroke="none" transform="matrix(1 0 0 1 83 42 )" />
  </g>
</svg>