<?xml version="1.0" encoding="utf-8"?>
<svg version="1.1" xmlns:xlink="http://www.w3.org/1999/xlink" width="8px" height="5px" xmlns="http://www.w3.org/2000/svg">
  <g transform="matrix(1 0 0 1 -88 -668 )">
    <path d="M 4.12173196651786 3.83765101196289  L 5.48771488839286 2.82953957397461  L 7.64491157477678 1.21542853149414  C 7.67996534466732 1.18679118223161  7.72150323376333 1.16916667706356  7.76504352455357 1.16445660644531  C 7.73086806026786 1.1474659765625  7.71326250334821 1.1474659765625  7.6790870390625 1.1304753112793  C 7.57552502901786 1.09649401611328  7.49060419308036 1.06251275634766  7.38807780022321 1.02853146118164  C 7.34448465674283 1.00921353835859  7.29832076599981 0.997738136120927  7.25137594308036 0.994550166015622  C 7.1146740859375 0.960568870849605  6.97797222879465 0.909596945800781  6.82366481473215 0.881279217529296  L 6.80709490736608 0.881279217529296  C 6.67039305022322 0.847297922363279  6.51608566852679 0.813316662597656  6.37938381138393 0.779335367431639  C 6.32760279017858 0.762344737548828  6.29342735825893 0.762344737548828  6.24268195424108 0.745354107666012  C 5.9858481796875 0.694382182617184  5.71244446540179 0.64341025756836  5.45561065848215 0.609428962402343  C 5.40382963727679 0.609428962402343  5.35204864843751 0.592438332519527  5.31890880133929 0.592438297119138  L 4.85702224107143 0.541466372070309  L 3.14307097321429 0.541466372070309  L 2.68118438058036 0.592438297119138  C 2.629403359375 0.592438297119138  2.59522792745536 0.609428927001949  2.54448255580358 0.609428962402343  C 2.27107884151786 0.64341025756836  2.01424506696429 0.694382182617184  1.739805703125 0.745354107666012  C 1.68802468191965 0.762344737548828  1.65384925000001 0.762344737548828  1.60310384598215 0.779335367431639  C 1.31209460714286 0.847297922363279  1.0210853359375 0.915260512695313  0.73007609709822 1.00021373291016  C 0.692247715827894 1.01941571230459  0.651540973403109 1.03093028611143  0.609944179687505 1.03419502807617  C 0.506382169642862 1.06817632324219  0.402820159598219 1.10215758300781  0.318934940848221 1.13613887817383  C 0.284759476562505 1.15312950805664  0.267153919642863 1.15312950805664  0.23297845535715 1.17012013793945  L 0.23297845535715 1.18711080322266  L 0.33654046540179 1.23808272827148  L 2.51134270870536 2.85219377075196  L 3.91460794642858 3.83765101196289  L 4.12173196651786 3.83765101196289  Z " fill-rule="nonzero" fill="#ebf1ff" stroke="none" transform="matrix(1 0 0 1 88 668 )" />
  </g>
</svg>