<?xml version="1.0" encoding="utf-8"?>
<svg version="1.1" xmlns:xlink="http://www.w3.org/1999/xlink" width="24px" height="32px" xmlns="http://www.w3.org/2000/svg">
  <g transform="matrix(1 0 0 1 -78 -598 )">
    <path d="M 12.9800865714286 29.9220778571429  L 12.204329 30.9194805714286  L 11.3177488571429 30.0329004285714  C 10.9852812857143 29.7004328571429  2.673593 21.3887445714286  1.01125542857143 16.1800865714286  C -0.0969697142857058 12.9662337142857  0.678787857142863 8.86580085714286  2.89523814285715 5.87359314285714  C 4.89004328571428 2.77056271428571  8.21471857142857 1.10822514285714  12.0935064285714 1.10822514285714  C 15.9722942857143 1.10822514285714  19.2969695714286 2.77056285714286  21.4025974285714 5.76277057142857  C 23.6190477142857 8.86580085714286  24.2839827142857 12.8554112857143  23.2865801428571 16.069264  C 22.0675325714286 19.8372294285714  13.9774892857143 28.9246752857143  12.9800865714286 29.9220778571429  Z M 19.5186147142857 7.20346314285714  C 18.2995671428571 5.54112557142857  16.0831168571429 3.54632028571429  12.0935064285714 3.54632028571429  C 8.103896 3.54632028571429  5.88744585714285 5.54112542857143  4.66839828571429 7.20346314285714  C 2.89523814285714 9.64155842857143  2.34112557142857 12.9662337142857  3.11688314285714 15.404329  C 4.33593071428571 19.1722944285714  9.87705628571428 25.15671  12.0935064285714 27.4839827142857  C 14.8640691428571 24.2701298571429  20.2943722857143 17.8424242857143  21.0701298571429 15.404329  C 21.8458874285714 12.9662337142857  21.2917748571429 9.64155842857143  19.5186147142857 7.20346314285714  Z " fill-rule="nonzero" fill="#000000" stroke="none" transform="matrix(1 0 0 1 78 598 )" />
  </g>
</svg>