<?xml version="1.0" encoding="utf-8"?>
<svg version="1.1" xmlns:xlink="http://www.w3.org/1999/xlink" width="8px" height="8px" xmlns="http://www.w3.org/2000/svg">
  <g transform="matrix(1 0 0 1 -90 -625 )">
    <path d="M 94 626  C 95.68 626  97 627.32  97 629  C 97 630.68  95.68 632  94 632  C 92.32 632  91 630.68  91 629  C 91 627.32  92.32 626  94 626  Z " fill-rule="nonzero" fill="#ffffff" stroke="none" />
    <path d="M 94 626  C 95.68 626  97 627.32  97 629  C 97 630.68  95.68 632  94 632  C 92.32 632  91 630.68  91 629  C 91 627.32  92.32 626  94 626  Z " stroke-width="2" stroke="#000000" fill="none" />
  </g>
</svg>