<?xml version="1.0" encoding="utf-8"?>
<svg version="1.1" xmlns:xlink="http://www.w3.org/1999/xlink" width="23px" height="23px" xmlns="http://www.w3.org/2000/svg">
  <g transform="matrix(1 0 0 1 -162 -498 )">
    <path d="M 3.358 11.538333309375  C 3.3664381016286 7.02819394237671  7.02052732355251 3.37410475258892  11.530666690625 3.365666690625  C 11.535773011386 3.36565713716168  11.5408793399693 3.36565236042689  11.5459856696672 3.36565236042689  C 16.0680932012817 3.36565236042689  19.7339856696672 7.03154482881235  19.7339856696672 11.5536523604269  C 19.7339856696672 16.0757598920414  16.0680932012817 19.7416523604269  11.5459856696672 19.7416523604269  C 7.02387813805263 19.7416523604269  3.35798566966717 16.0757598920414  3.35798566966717 11.5536523604269  C 3.35798566966717 11.5485460067254  3.35799044644687 11.5434396541396  3.358 11.538333309375  Z M 11.5460000000049 0.298989540728104  C 11.5408888950961 0.298989540728104  11.5357777907773 0.298993027152883  11.530666690625 0.298999999999998  C 5.31489628620926 0.298999999995222  0.276010373245052 5.33788591295943  0.276010373245052 11.5536666906202  C 0.276010373245052 17.769447468281  5.31489628620926 22.8083333812452  11.5306770638701 22.8083333812452  C 17.7464578415308 22.8083333812452  22.785343754495 17.769447468281  22.785343754495 11.5536666906202  C 22.785343754495 11.5485555617585  22.7853402727876 11.5434444334932  22.785333309375 11.538333309375  C 22.7853333093799 5.33101046507003  17.7533123850379 0.298989540728104  11.5460000000049 0.298989540728104  Z " fill-rule="nonzero" fill="#737373" stroke="none" transform="matrix(1 0 0 1 162 498 )" />
  </g>
</svg>