<?xml version="1.0" encoding="utf-8"?>
<svg version="1.1" xmlns:xlink="http://www.w3.org/1999/xlink" width="14px" height="14px" xmlns="http://www.w3.org/2000/svg">
  <g transform="matrix(1 0 0 1 -181 -509 )">
    <path d="M 7 3.42492751086956  C 8.8814500477569 3.42492751086956  10.4066666666667 5.01645789581888  10.4066666666667 6.97971011956521  C 10.4066666666667 8.94296234331155  8.8814500477569 10.5344927282609  7 10.5344927282609  C 5.11854995224309 10.5344927282609  3.59333333333334 8.94296234331155  3.59333333333333 6.97971011956522  C 3.59333333333333 5.01645789581888  5.11854995224309 3.42492751086956  7 3.42492751086956  Z M 13.5177778020833 6.97971011956521  C 13.5177777618126 3.22353350627767  10.5996692544006 0.178550750000002  7 0.178550749999993  C 3.4003307171237 0.178550749999989  0.482222197916663 3.22353355265081  0.482222197916663 6.97971019565216  C 0.482222197916663 10.7358868386535  3.4003307171237 13.7808696413043  7 13.7808696413043  C 10.5996692828763 13.7808696413043  13.5177778020833 10.7358868386535  13.5177778020833 6.97971019565216  Z " fill-rule="nonzero" fill="#737373" stroke="none" transform="matrix(1 0 0 1 181 509 )" />
  </g>
</svg>