<?xml version="1.0" encoding="utf-8"?>
<svg version="1.1" xmlns:xlink="http://www.w3.org/1999/xlink" width="11px" height="11px" xmlns="http://www.w3.org/2000/svg">
  <g transform="matrix(1 0 0 1 -174 -512 )">
    <path d="M 3.33666664375 5.5  C 3.33666664375 4.28497355037226  4.32164019412226 3.3  5.53666664375 3.3  C 6.75169309337775 3.3  7.73666664375 4.28497355037226  7.73666664375 5.5  C 7.73666664375 6.71502644962774  6.75169309337775 7.7  5.53666664375 7.7  C 4.32164019412226 7.7  3.33666664375 6.71502644962774  3.33666664375 5.5  Z M 5.53666664375001 0.366666643750003  C 2.70160491529541 0.366666643750003  0.403333287500008 2.66493827154541  0.403333287500008 5.50000000000001  C 0.403333287500008 8.3350617284546  2.70160491529541 10.63333335625  5.53666664375001 10.63333335625  C 8.3717283722046 10.63333335625  10.67 8.3350617284546  10.67 5.50000000000001  C 10.67 2.66493827154541  8.3717283722046 0.366666643750003  5.53666664375001 0.366666643750003  Z " fill-rule="nonzero" fill="#737373" stroke="none" transform="matrix(1 0 0 1 174 512 )" />
  </g>
</svg>