<?xml version="1.0" encoding="utf-8"?>
<svg version="1.1" xmlns:xlink="http://www.w3.org/1999/xlink" width="14px" height="15px" xmlns="http://www.w3.org/2000/svg">
  <g transform="matrix(1 0 0 1 -78 -213 )">
    <path d="M 0.293945312500001 9.05513671875  C -0.199999999999999 11.277890625  0.678906250000001 12.85833984375  4.02578125 14.5875  C 2.9833984375 12.61154296875  3.5318359375 11.47564453125  4.3544921875 10.4394140625  C 5.2333984375 9.252890625  5.453125 8.1169921875  5.453125 8.1169921875  C 5.453125 8.1169921875  6.166796875 8.9080078125  5.892578125 10.19103515625  C 7.1001953125 8.95705078125  7.319921875 6.98109375  7.1546875 6.23912109375  C 9.8986328125 7.96986328125  11.10625 11.771484375  9.513671875 14.53845703125  C 17.965234375 10.1926171875  11.5984375 3.722109375  10.5015625 3.03076171875  C 10.8865234375 3.77115234375  10.941015625 5.00671875  10.1728515625 5.5983984375  C 8.9107421875 1.25255859375  5.7818359375 0.4125  5.7818359375 0.4125  C 6.166796875 2.63525390625  4.465234375 5.05576171875  2.8181640625 6.8830078125  C 2.763671875 5.99390625  2.7091796875 5.40064453125  2.158984375 4.51154296875  C 2.05 6.14103515625  0.6771484375 7.42564453125  0.293945312500001 9.05513671875  Z " fill-rule="nonzero" fill="#aeaeae" stroke="none" transform="matrix(1 0 0 1 78 213 )" />
  </g>
</svg>