<?xml version="1.0" encoding="utf-8"?>
<svg version="1.1" xmlns:xlink="http://www.w3.org/1999/xlink" width="77px" height="16px" xmlns="http://www.w3.org/2000/svg">
  <g transform="matrix(1 0 0 1 -7 0 )">
    <path d="M 76.8777379918981 8.01742788461539  C 76.8777379918981 12.2800480769231  73.6577076099537 15.7542067307692  69.6954716435185 15.7542067307692  L 7.30452835648148 15.7542067307692  C 3.3537109375 15.7542067307692  0.133680555555556 12.2800480769231  0.133680555555556 8.01742788461539  C 0.133680555555556 3.75480769230769  3.3537109375 0.280649038461538  7.30452835648148 0.280649038461538  L 69.7068901909722 0.280649038461538  C 73.6577076099537 0.280649038461538  76.8777379918981 3.75480769230769  76.8777379918981 8.01742788461539  Z M 69.7068901909722 4.22295673076924  L 7.30452835648149 4.22295673076923  C 5.36337528935186 4.22295673076923  3.78761574074075 5.92307692307693  3.78761574074075 8.01742788461539  C 3.78761574074075 10.1117788461539  5.36337528935186 11.8118990384615  7.30452835648149 11.8118990384615  L 69.7068901909722 11.8118990384615  C 71.6480432581019 11.8118990384615  73.223802806713 10.1117788461539  73.223802806713 8.01742788461539  C 73.223802806713 5.92307692307693  71.6480432581019 4.22295673076924  69.7068901909722 4.22295673076924  Z " fill-rule="nonzero" fill="#2d2d2d" stroke="none" transform="matrix(1 0 0 1 7 0 )" />
  </g>
</svg>