<?xml version="1.0" encoding="utf-8"?>
<svg version="1.1" xmlns:xlink="http://www.w3.org/1999/xlink" width="77px" height="16px" xmlns="http://www.w3.org/2000/svg">
  <g transform="matrix(1 0 0 1 -7 0 )">
    <path d="M 76.8777379918981 8.2391826923077  C 76.8777379918981 12.5018028846154  73.6577076099537 15.98828125  69.6954716435185 16  L 7.30452835648148 16  C 3.3537109375 15.98828125  0.133680555555556 12.5141225961538  0.133680555555556 8.25150240384615  C 0.133680555555556 3.98888221153846  3.3422923900463 0.502403846153846  7.30452835648148 0.502403846153846  L 69.7068901909722 0.502403846153846  C 73.6577076099537 0.502403846153846  76.8777379918981 3.9765625  76.8777379918981 8.2391826923077  Z M 69.6954716435185 4.44471153846154  L 7.30452835648148 4.44471153846154  C 5.36337528935185 4.44471153846154  3.78761574074074 6.14483173076923  3.78761574074074 8.2391826923077  C 3.78761574074074 10.3335336538462  5.36337528935185 12.0336538461539  7.30452835648148 12  L 69.7068901909722 12  C 71.6480432581019 12.0336538461539  73.2238028067129 10.3335336538462  73.2238028067129 8.2391826923077  C 73.2238028067129 6.14483173076923  71.6366247106481 4.44471153846154  69.6954716435185 4.44471153846154  Z " fill-rule="nonzero" fill="#2d2d2d" stroke="none" transform="matrix(1 0 0 1 7 0 )" />
  </g>
</svg>