<?xml version="1.0" encoding="utf-8"?>
<svg version="1.1" xmlns:xlink="http://www.w3.org/1999/xlink" width="46px" height="46px" xmlns="http://www.w3.org/2000/svg">
  <g transform="matrix(1 0 0 1 -310 -17 )">
    <path d="M 46 23  C 46 35.705208984375  35.705208984375 46  23 46  C 10.294791015625 46  0 35.705208984375  0 23  C 0 10.294791015625  10.294791015625 0  23 0  C 35.705208984375 0  46 10.294791015625  46 23  Z M 43.8090703125 23  C 43.8090703125 11.536791015625  34.463208984375 2.1909296875  23 2.1909296875  C 11.5368359375 2.1909296875  2.1909296875 11.536791015625  2.1909296875 23  C 2.1909296875 34.463208984375  11.536791015625 43.8090703125  23 43.8090703125  C 34.4631640625 43.8090703125  43.8090703125 34.463208984375  43.8090703125 23  Z " fill-rule="nonzero" fill="#ffffff" stroke="none" transform="matrix(1 0 0 1 310 17 )" />
  </g>
</svg>